<svg width="750" height="500" fill="none" xmlns="http://www.w3.org/2000/svg"><g clip-path="url(#clip0_1340_182)"><path d="M520.18 470.637H91.788c-14.358-82.799 26.532-170.51 97.752-185.55 35.253-7.444 73.448 1.101 105.899-16.615 59.391-32.423 70.307-135.174 129.566-167.925 41.047-22.686 92.428-1.131 122.734 38.35 35.494 46.24 47.138 115.668 29.202 174.116-16.955 55.25-57.533 98.944-56.761 157.624z" fill="#FBE7DE"/><path d="M392.873 470.22c-1.815-12.912-.585-26.168 2.881-38.737 13.117-47.559 76.796-91.956 119.418-46.581 14.694-23.184 29.155-41.051 48.782-60.24 19.712-19.273 42.713-36.737 69.697-42.387 26.984-5.65 58.505 3.297 72.667 26.951 10.739 17.936 9.805 40.976 2.539 60.578-7.266 19.602-20.15 36.529-32.853 53.132l-32.318 42.24c-2.069 2.704-2.025 5.095-4.728 7.164l-246.085-2.12z" fill="#EF9B00"/><mask id="a" style="mask-type:luminance" maskUnits="userSpaceOnUse" x="252" y="3" width="507" height="470"><path d="M758.831 3H252v469.582h506.831V3z" fill="#fff"/></mask><g mask="url(#a)"><path d="M549.515 303.16l-31.231-1.755c-24.779-1.392-46.191 17.742-47.584 42.521l-2.473 44.028c-3.538 28.562-5.531 113.759-6.663 197.773h49.855c3.89-38.149 7.516-75.484 10.143-105.355l8.305.467c1.439 35.974 4.044 76.158 6.384 104.888h46.265c3.028-57.543 7.036-162.633 7.431-196.883l-.053.019 2.141-38.12c1.393-24.778-17.742-46.19-42.52-47.583z" fill="#2C201B" stroke="#2C201B" stroke-width="1.624" stroke-miterlimit="10" stroke-linecap="round" stroke-linejoin="round"/><path d="M500 201l-121.715-37.635-49.897-81.878c-6.847 2.565-13.824 4.758-20.84 6.83-.06 1.259.028 2.532.278 3.79l29.425 101.995c1.35 6.778 5.887 12.055 11.683 14.524l3.005 1.252 108.396 45.234c13.28 5.542 34.269 12.413 39.677-1.198 5.407-13.609 13.268-47.372-.012-52.914z" fill="#D9C6B9"/><path d="M338.012 51.211c-3.129-1.532-11.607 13.286-11.607 13.286s-5.653-33.276-10.163-32.91a1.107 1.107 0 00-.493.178 76.377 76.377 0 01-1.212 3.21c-.694 7.035 2.563 22.569 2.563 22.569s-1.439-5.229-3.481-10.949c-.778 4.013-2.209 7.849-4.066 11.529.28.727.447 1.144.447 1.144s-.173-.402-.477-1.083c-2.706 5.348-6.297 10.372-10.035 15.153a640.886 640.886 0 008.224 18.94l18.886-6.251s16.694-32.23 11.414-34.816z" fill="#DE6944"/><path d="M305.255 53.287c-2.227-1.104-5.077-.07-6.652 1.852-1.575 1.923-2.092 4.51-2.172 6.993-.178 5.558 1.634 11.16 5.035 15.558 2.302 2.978 5.975 5.566 9.603 4.561 3.066-.849 4.913-3.928 6.148-6.86 2.942-6.988 6.957-21.066 1.782-27.942-4.444-5.903-18.031-2.053-13.744 5.838z" fill="#DE6944"/><path d="M582.864 585.728l5.16-127.643-57.699 25.964 3.577 101.679h48.962z" fill="#2C201B" stroke="#2C201B" stroke-width="1.624" stroke-miterlimit="10" stroke-linecap="round" stroke-linejoin="round"/><path d="M546.609 142.538c-1.025 5.431.662 20.019 2.246 25.314 4.072 13.618 9.889 20.652 15.656 26.579-3.575 4.917-21.816 7.247-27.707 8.749-5.891 1.503-12.301.883-17.794-1.721-1.499-.711-2.927-1.561-4.352-2.409a9062.203 9062.203 0 01-5.245-3.124c7.579-13.053 14.055-27.496 12.026-42.453 3.783-.704 9.138-2.299 12.921-3.004 1.641-.305 3.299-.612 4.967-.541 2.646.116 4.671-6.943 7.282-7.39z" fill="#DE6944"/><path d="M455.211 306.234c1.175 21.561 4.243 42.923 9.023 64.141.827 3.159 1.666 6.311 2.475 9.473 1.43 5.585 1.424 10.649 5.58 14.71 10.097 9.866 26.371 9.458 39.592 9.293 25.979-.325 51.8-2.67 77.564-5.687.893-.104 1.591-.191 2.045-.247.015 0 .03-.003.045-.006l.161-.021c.248-.03.379-.051.379-.057.582-8.264 1.786-17.749 3.359-27.879 1.23-7.93 2.687-16.253 4.246-24.696a1146.88 1146.88 0 011.26-6.733c3.432-18.171 6.019-36.541 10.81-54.428 4.16-15.529 17.678-34.739 14.25-51.096-5.927-28.274-55.707-41.155-78.367-40.496-12.631.367-25.188 1.765-37.784 2.672-14.116 1.017-30.497-.554-41.432 10.219-8.171 8.05-8.72 18.962-10.205 29.751a381.404 381.404 0 00-3.3 37.993 363.13 363.13 0 00.299 33.094z" fill="#D9C6B9"/><path d="M512.5 143.672c.007.178.017.357.03.535.007.09.013.181.022.271.005.056.009.112.016.168.017.172.036.34.058.51l.02.152a16.123 16.123 0 00.284 1.507c.021.091.044.18.066.27a12.781 12.781 0 00.228.806 15.978 15.978 0 00.703 1.869 16.669 16.669 0 002.179 3.572c.083.105.168.206.253.309a16.375 16.375 0 002.148 2.126 16.08 16.08 0 005.688 3.015c.059.017.118.034.177.049a15.796 15.796 0 0012.932-2.033 16.501 16.501 0 007.425-13.653l.034-3.881.101-11.415.032-3.57.044-4.927a16.666 16.666 0 00-.144-2.328c-.005-.047-.012-.093-.018-.139a9.736 9.736 0 00-.051-.336 9.302 9.302 0 00-.049-.283c-.008-.056-.019-.11-.03-.166a12.7 12.7 0 00-.138-.65 8.733 8.733 0 00-.089-.363 12.547 12.547 0 00-.183-.658l-.004-.01-.101-.323-.109-.324a17.834 17.834 0 00-.369-.963l-.053-.121a16.098 16.098 0 00-.233-.519l-.057-.119a17.134 17.134 0 00-.263-.525l-.043-.082c-2.705-5.092-7.98-8.593-14.041-8.649-6.817-.062-12.721 4.25-15.121 10.348a16.498 16.498 0 00-1.146 5.914l-.212 23.794c-.001.275.004.549.014.822z" fill="#DE6944"/><path d="M522.588 138.082c5.276-.356 10.205 1.949 14.892 4.194 1 .686 2.113 1.177 3.277 1.471 1.278.448 2.595.677 3.888.673-.444 5.185-3.257 9.697-7.341 12.379a15.807 15.807 0 01-12.363 2.182c-.191-.045-.38-.095-.569-.149a5.833 5.833 0 01-.368-.107 12.055 12.055 0 01-.832-.279 16.203 16.203 0 01-6.379-4.308 16.951 16.951 0 01-.435-.496c-.085-.103-.169-.204-.253-.309a16.669 16.669 0 01-2.332-3.926 15.978 15.978 0 01-.735-2.157 7.752 7.752 0 01-.043-.163c-.022-.089-.045-.178-.066-.27a16.123 16.123 0 01-.284-1.507l-.02-.152a16.91 16.91 0 01-.058-.51c-.007-.056-.011-.112-.016-.168l-.022-.271a17.292 17.292 0 01-.044-1.357l.002-.179c2.932-2.415 6.224-4.33 10.101-4.591z" fill="#2C201B"/><path d="M558.888 137.908c-.041 4.605-3.742 8.305-8.266 8.263-4.524-.042-8.159-3.809-8.118-8.415.041-4.605 3.742-8.305 8.266-8.263 4.525.042 8.159 3.809 8.118 8.415z" fill="#DE6944"/><path d="M515.069 109.038c2.035-2.931 5.037-5.133 8.358-6.435 2.983-1.169 6.282-1.633 9.427-1.025 3.145.607 6.114 2.338 7.957 4.958-.127-.384-.04-.604.166-.742 1.15 1.41 2.197 2.895 3.236 4.392.064.129.126.259.19.387.298 1.206.538 2.434.768 3.671v17.066c0 .086.231.154.231.24-1.342 2.071-2.812 4.018-3.916 6.225v-11.307a14.95 14.95 0 01-3.057-6.458c-.008-.041-.008-.086-.01-.13-3.895 1.489-8.432-.433-12.244-2.192-3.784 2.259-9.655 3.632-13.511 1.496-.471-3.536.37-7.216 2.405-10.146z" fill="#2C201B"/><path d="M539.406 118.781a4.943 4.943 0 004.928-4.928v-3.412a4.942 4.942 0 00-4.928-4.928 4.942 4.942 0 00-4.928 4.928v3.412a4.942 4.942 0 004.928 4.928z" fill="#2C201B"/><path d="M537.879 106.129c1.368-1.401 3.776-1.397 5.408-.315 1.632 1.083 2.551 3.007 2.854 4.942.303 1.935.067 3.909-.17 5.853l-1.418 11.649c-.582-7.929-3.095-15.031-6.674-22.129z" fill="#2C201B"/><path d="M526.723 131.549c0 .452.499.861 1.318 1.166a8.082 8.082 0 001.77.42 13.444 13.444 0 002.899.058c.273-.026.541-.058.793-.1 1.654-.268 2.805-.856 2.805-1.544 0-.635-.998-1.192-2.468-1.481a12.736 12.736 0 00-2.321-.21 12.115 12.115 0 00-2.117.168c-.635.116-1.192.273-1.628.462-.658.294-1.051.662-1.051 1.061z" fill="#fff"/><path d="M527.615 131.265a2.45 2.45 0 00.426 1.45 8.082 8.082 0 001.77.42 13.444 13.444 0 002.899.058c.483-.446.783-1.05.809-1.728a2.433 2.433 0 00-.478-1.518 12.736 12.736 0 00-1.523-.089 12.115 12.115 0 00-2.117.168c-.635.116-1.192.273-1.628.462a2.576 2.576 0 00-.158.777z" fill="#2F1F1A"/><path d="M513.386 131.48c0 .368.331.709.898.987.541.263 1.303.473 2.19.593a12.699 12.699 0 003.214.027c.163-.016.32-.037.473-.063 1.66-.268 2.81-.856 2.81-1.544 0-.641-.998-1.192-2.474-1.481a8.884 8.884 0 00-.704-.11 12.175 12.175 0 00-1.618-.105c-.756 0-1.476.063-2.111.173-.767.131-1.413.336-1.88.588-.504.268-.798.588-.798.935z" fill="#fff"/><path d="M514.042 131.296c-.016.415.074.809.242 1.171.541.263 1.303.473 2.19.593a12.699 12.699 0 003.214.027c.368-.441.588-.982.609-1.581a2.594 2.594 0 00-.504-1.618 12.175 12.175 0 00-1.618-.105c-.756 0-1.476.063-2.111.173-.767.131-1.413.336-1.88.588a2.411 2.411 0 00-.142.752z" fill="#2F1F1A"/><path d="M524.011 130.167l.16 4.49-3.367-1.603 1.764 4.329" stroke="#452D20" stroke-width=".481" stroke-miterlimit="10" stroke-linecap="round" stroke-linejoin="round"/><path d="M537.018 127.298c-.2-.509-.645-.881-1.108-1.172-2.309-1.447-5.23-1.337-7.951-1.179m-6.274-.093a14.2 14.2 0 00-7.384 1.501" stroke="#2C201B" stroke-width="2.826" stroke-miterlimit="10" stroke-linecap="round" stroke-linejoin="round"/><path d="M619.155 400.274l-86.452-74.889c-10.033-6.972-15.306-7.886-8.334-17.919 6.973-10.034 7.376-10.23 17.41-3.258l57.869 28.633c-1.264-6.525-2.569-13.27-3.867-20.002-4.125-21.394-7.381-38.482-9.679-50.788-1.375-7.366-2.422-13.106-3.114-17.062-1.523-8.722-3.099-17.74 5.164-26.004 8.639-8.639 22.646-8.639 31.285 0a22.038 22.038 0 016.435 14.241c1.607 10.858 17.651 93.761 27.615 144.63a22.119 22.119 0 01-21.709 26.373 22.084 22.084 0 01-12.623-3.955zm.283-150.002l.022-.023-.022.023zm.028-.029zm6.326-13.248c.095-.854.134-1.675.126-2.45a22.79 22.79 0 01-.126 2.45z" fill="#DE6944"/><path d="M542.858 128.387c-5.148 4.512-7.207 12.234-4.99 18.711 2.648-.639 4.635-.918 6.856-2.495-.338-6.38-.078-13.232.538-19.592" fill="#2C201B"/><path d="M454.606 237.949s1.645 25.088 13.572 40.305l1.234 16.451" stroke="#2C201B" stroke-miterlimit="10" stroke-linecap="round" stroke-linejoin="round"/><path d="M523.509 116.86c-3.09 2.44-7.324 3.099-11.207 2.445-3.883-.655-7.468-2.5-10.769-4.645-4.817-3.13-9.239-7.019-12.279-11.893-3.039-4.874-4.605-10.809-3.569-16.459 1.036-5.65 4.905-10.879 10.304-12.84 5.399-1.961 12.136-.141 15.265 4.675 2.162 3.328 2.461 7.48 3.02 11.409.559 3.929 1.632 8.136 4.746 10.597 2.129 1.682 4.885 2.279 7.467 3.114s5.264 2.125 6.49 4.545c1.226 2.421.025 6.102-2.674 6.386" fill="#2C201B"/><path d="M653.488 377.856C647.859 349.125 643.478 322.76 638 294c-2.606-13.681-4.936-27.228-7-41-1.579-10.536-3.502-25.954-11.562-34.014-8.639-8.639-22.646-8.639-31.285 0-8.263 8.264-6.688 17.282-5.164 26.004.691 3.956 1.739 9.696 3.114 17.062 2.298 12.306 5.554 29.394 9.679 50.788 1.298 6.732 2.602 13.476 3.866 20.002l-51.864-25.661c-.33.857-.669 1.711-1.029 2.552-.008.34-.08.685-.247 1.019-3.072 6.142-6.204 12.216-10.091 17.852l82.737 71.671a22.096 22.096 0 0012.625 3.956 22.123 22.123 0 0021.709-26.375z" fill="#D9C6B9"/><path d="M619.438 250.272l.022-.023-.022.023zm.028-.029z" fill="#9A91F2"/><path d="M481.492 301.817c-.025 3.781 3.555 7.879 5.647 10.414 3.657 4.431 8.925 7.637 14.534 8.902 9.547 2.153 19.677-.39 28.277-5.062 3.838-2.085 5.374-8.152 6.87-12.255-.897-3.754-4.059-6.079-7.594-7.63-3.534-1.551-7.453-1.947-11.303-2.23-2.072-.152-4.161-.281-6.22-.554-2.302-.305-3.801 2.422-2.293 4.188 1.385 1.622 3.154 2.775 5.393 3.032 1.036.119 2.105.102 3.084.462.978.36 1.873 1.234 1.838 2.276-.03.913-.742 1.658-1.445 2.225-2.071 1.669-4.647 2.663-7.307 2.668-7.869.016-11.569-6.9-17.085-11.036-1.039-.779-2.256-1.49-3.549-1.371-1.293.12-2.512 1.452-2.053 2.667-.239-.282-.137.508.071.202.042-.066-2.782-.536-3.036-.548-1.524-.07-2.937.249-3.52 1.869a5.32 5.32 0 00-.309 1.781z" fill="#DE6944"/><path d="M559.183 307.039s43.35 18.111 61.035 36.207m-34.115-81.194l16.264 67.195" stroke="#2C201B" stroke-miterlimit="10" stroke-linecap="round" stroke-linejoin="round"/></g><path d="M673.744 304.043c18.181-29.677 3.763-81.017-36.029-80.831-.092-13.668-7.251-27.229-16.906-36.903-15.331-15.361-39.62-19.767-59.504-11.226" stroke="#EF9B00" stroke-miterlimit="10" stroke-linecap="round" stroke-linejoin="round"/><path d="M116.825 226.483l19.602 23.481c18.76-7.04 40.714-1.923 54.275 14.328L324.81 467.541H151.123L39.407 291.108c-17.167-20.568-14.411-51.155 6.157-68.322l2.938-2.451c20.568-17.176 51.156-14.419 68.323 6.148z" fill="#EF9B00"/><path d="M75.765 258.585l113.031 195.724M90.55 314.602l80.489 138.976" stroke="#2C201B" stroke-miterlimit="10" stroke-linecap="round" stroke-linejoin="round"/><path d="M78.133 252.749a5.984 5.984 0 11-11.94-.812 5.984 5.984 0 0111.94.812z" fill="#262222"/><path d="M90.81 310.779a3.833 3.833 0 11-7.648-.52 3.833 3.833 0 017.648.52z" stroke="#262222" stroke-width="1.5" stroke-miterlimit="10" stroke-linecap="round" stroke-linejoin="round"/><path d="M493.998 335.491l.388-.201.388.201-.388.202-.388-.202z" fill="#F4DBA8"/><path d="M494.774 335.491l-.388.202-.388-.202.388-.201.388.201z" fill="#D6D6F8"/><path d="M494.386 335.29l.388.201-.388.202-.388-.202.388-.201z" fill="#D6D6F8"/><path d="M315.136 213.88s-5.751-.601-7.575 3.885" stroke="#422E22" stroke-width="1.075" stroke-miterlimit="10" stroke-linecap="round" stroke-linejoin="round"/><path d="M183.002.318v148.404" stroke="#2C201B" stroke-width="1.687" stroke-miterlimit="10" stroke-linecap="round" stroke-linejoin="round"/><path d="M191.338 111.682h-17.337v49.466h17.337v-49.466z" fill="#2C201B"/><path d="M182.669 206.002c9.425 0 17.065-7.64 17.065-17.065s-7.64-17.065-17.065-17.065-17.065 7.64-17.065 17.065 7.64 17.065 17.065 17.065z" fill="#EF9B00"/><path d="M190.591 160.54h-15.844v21.312h15.844V160.54z" fill="#EF9B00"/><path d="M179.26 194.229a2.299 2.299 0 01-2.299-2.299v-19.512a2.299 2.299 0 114.598 0v19.512a2.299 2.299 0 01-2.299 2.299zm6.818 0a2.299 2.299 0 01-2.299-2.299v-19.512a2.299 2.299 0 114.598 0v19.512a2.3 2.3 0 01-2.299 2.299z" stroke="#2C201B" stroke-width="1.184" stroke-miterlimit="10" stroke-linecap="round" stroke-linejoin="round"/><path d="M174.001 150.67c0-.543 17.337 0 17.337 0" stroke="#4B39CF" stroke-width="1.156" stroke-miterlimit="10" stroke-linecap="round" stroke-linejoin="round"/><path d="M183.779 156.038c7.719 7.045 20.225 18.983 29.367 24.046 9.142 5.063 19.881 7.96 30.131 5.92 7.561-1.504 14.113-5.288 18.756-10.698 3.86-4.498 6.4-10.119 7.1-16.49H65.926c-.13 0 3.331-11.413 3.773-12.442 1.811-4.216 4.142-8.242 7.099-11.762 27.597-32.862 80.302-8.088 99.558 21.299" stroke="#2C201B" stroke-width="1.687" stroke-miterlimit="10" stroke-linecap="round" stroke-linejoin="round"/><path d="M103.283 119.591l70.718 38.551-45.616-36.606m-51.587 13.075l97.203 23.531-85.825-30.958M69.7 146.373c1.862-3.887 106.16 12.442 106.16 12.442m59.868 27.839l-51.949-30.616m67.766 27.233l-64.196-25.129m5.822.674l68.862 16.49m5.025-8.245l-67.324-8.245" stroke="#2C201B" stroke-width="1.687" stroke-miterlimit="10" stroke-linecap="round" stroke-linejoin="round"/><path d="M145.577 195.403a5.748 5.748 0 10-7.53-8.685 5.748 5.748 0 007.53 8.685z" fill="#EF9B00"/><path d="M169.995 230.634c-16.569-5.002-28.872-21.642-28.799-38.949" stroke="#EF9B00" stroke-miterlimit="10" stroke-linecap="round" stroke-linejoin="round"/><path d="M699.596 429.547a5.748 5.748 0 118.685 7.53 5.748 5.748 0 01-8.685-7.53z" fill="#2C201B"/><path d="M664.365 405.129c5.002 16.569 21.642 28.872 38.949 28.798" stroke="#2C201B" stroke-miterlimit="10" stroke-linecap="round" stroke-linejoin="round"/><path d="M700.237 147.485a5.748 5.748 0 117.53-8.685 5.748 5.748 0 01-7.53 8.685z" fill="#EF9B00"/><path d="M675.819 182.716c16.569-5.002 28.872-21.642 28.799-38.949" stroke="#EF9B00" stroke-miterlimit="10" stroke-linecap="round" stroke-linejoin="round"/><path d="M501.933 197.188c11.297 18.087 46.146 4.163 59.373-4.496" stroke="#2C201B" stroke-miterlimit="10" stroke-linecap="round" stroke-linejoin="round"/><path d="M392.136 80.811a6.093 6.093 0 100-12.186 6.093 6.093 0 000 12.186zm29.034 6.991a3.517 3.517 0 11-7.035-.001 3.517 3.517 0 017.035 0zm-147.252 39.525a2.607 2.607 0 100-5.214 2.607 2.607 0 000 5.214zm6.145-31.747a5.648 5.648 0 100-11.296 5.648 5.648 0 000 11.297z" stroke="#2C201B" stroke-width="1.5" stroke-miterlimit="10" stroke-linecap="round" stroke-linejoin="round"/><path d="M109.088 185.563a2.508 2.508 0 11-5.016 0 2.508 2.508 0 015.016 0z" stroke="#2C201B" stroke-width="2.391" stroke-miterlimit="10" stroke-linecap="round" stroke-linejoin="round"/><path d="M211.641 237.19a5.708 5.708 0 11-11.416 0 5.708 5.708 0 0111.416 0zm12.642-22.728a3.303 3.303 0 11-6.607 0 3.303 3.303 0 016.607 0z" stroke="#2C201B" stroke-width="1.5" stroke-miterlimit="10" stroke-linecap="round" stroke-linejoin="round"/><path d="M58.195 397.252a1.347 1.347 0 11-2.694 0 1.347 1.347 0 012.694 0z" stroke="#2C201B" stroke-width="2.391" stroke-miterlimit="10" stroke-linecap="round" stroke-linejoin="round"/><path d="M425.51 263.315a3.928 3.928 0 11-7.857-.001 3.928 3.928 0 017.857.001zM412.324 430.16a4.191 4.191 0 11-8.382 0 4.191 4.191 0 018.382 0zm20.004-11.475a3.409 3.409 0 11-6.817 0 3.409 3.409 0 016.817 0zm202.273-265.821a7.191 7.191 0 11-14.382 0 7.191 7.191 0 0114.382 0zm2.216-39.327a3.063 3.063 0 100-6.126 3.063 3.063 0 000 6.126z" stroke="#2C201B" stroke-width="1.5" stroke-miterlimit="10" stroke-linecap="round" stroke-linejoin="round"/><path d="M406.991 150.703c19.778-2.711 37.627-15.204 48.452-31.978 10.824-16.774 14.886-37.451 13.01-57.326" stroke="#EF9B00" stroke-miterlimit="10" stroke-linecap="round" stroke-linejoin="round"/><path d="M468.804 65.055a8.062 8.062 0 008.062-8.062 8.062 8.062 0 00-8.062-8.062 8.062 8.062 0 00-8.062 8.062 8.062 8.062 0 008.062 8.062z" fill="#EF9B00"/><path d="M584.723 405.873c-7.945-10.811-8.618-25.4-6.472-38.644 2.147-13.244 6.767-26.031 8.33-39.356.649 21.396 15.748 41.099 17.626 62.423.315 3.573.26 7.268-1.02 10.619-1.281 3.351-3.968 6.323-7.451 7.181-3.483.858-8.889.668-11.013-2.223z" fill="#2C201B" stroke="#2C201B" stroke-width="1.624" stroke-miterlimit="10" stroke-linecap="round" stroke-linejoin="round"/><path d="M569.132 403.196c-5.53-8.983-8.378-19.317-11.158-29.493l-8.609-31.511 37.327 44.572c5.61 6.699 18.207 22.632 8.291 30.986-9.064 7.634-21.686-7.788-25.851-14.554z" fill="#8080D0"/><path d="M617.264 406.547c5.53-8.983 8.378-19.317 11.158-29.493l8.61-31.511-37.327 44.572c-5.61 6.699-18.207 22.632-8.291 30.986 9.063 7.634 21.684-7.789 25.85-14.554z" fill="#8080D0"/><path d="M605.92 472.582h-27.658c-6.992 0-12.659-5.668-12.659-12.659v-44.646h52.976v44.646c0 6.991-5.667 12.659-12.659 12.659z" fill="#BEBCEE"/><path d="M565.603 373.742l29.379 44.007 26.328-39.875m-55.707 51.816h52.976M77.388 470.685c155.429 0 398.205 1.897 553.492 1.897" stroke="#2C201B" stroke-width="1.5" stroke-miterlimit="10" stroke-linecap="round" stroke-linejoin="round"/><path d="M306.226 176.574c-15.659-4.742-35.459 2.138-41.986 16.64-7.626 16.945 2.376 38.591-9.273 53.512-7.415 9.499-21.203 12.715-33.936 13.766-12.732 1.051-26.051.727-37.589 5.748-11.539 5.021-20.384 17.867-14.871 28.388-17.987 12.075-28.543 38.45-20.1 57.309 8.443 18.859 31.841 31.112 53.954 28.254H390.38c17.815 0 34.415-13.06 42.14-27.702 7.725-14.642 7.366-32.448-.179-47.168-4.939-9.636-14.288-18.668-25.949-18.838 3.967-9.443-5.825-18.54-15.008-24.208-9.182-5.668-20.414-7.622-31.052-10.471-10.626-2.846-21.611-7.198-27.524-15.736-10.73-15.492-.573-37.179-13.589-51.459-3.561-3.908-8.073-6.545-12.993-8.035z" fill="#2C201B" stroke="#2C201B" stroke-width="1.624" stroke-miterlimit="10" stroke-linecap="round" stroke-linejoin="round"/><path d="M373.102 470.61c-2.254-10.231-6.4-20.123-12.096-28.709-6.818-10.277-16.018-19.131-23.116-29.255-7.098-10.123-12.107-22.313-9.151-33.979l-63.265 6.306c-2.55 28.703-6.673 57.29-12.299 85.637h119.927z" fill="#974F41"/><path d="M373.102 470.61c-2.254-10.231-6.4-20.123-12.096-28.709-6.818-10.277-16.018-19.131-23.116-29.255a77.25 77.25 0 01-1.243-1.829c-7.152.077-14.304.093-21.457.032a954.87 954.87 0 01-9.269-.125h-43.156a806.51 806.51 0 01-9.591 59.887h119.928v-.001z" fill="#2C201B"/><path d="M315.136 263.293c-9.036-4.937-15.852-19.985-13.014-31.811l-17.477 5.707c.235 7.049-2.293 12.529-6.175 18.418-2.024 3.069-6.12 5.788-9.654 6.799 5.105 6.837 13.942 10.257 22.473 10.473 8.53.217 18.402-3.016 23.847-9.586z" fill="#974F41"/><path d="M289.739 238.25c-8.799 0-15.999-7.2-15.999-15.999v-23.196c0-8.799 7.199-15.999 15.999-15.999 8.799 0 15.999 7.2 15.999 15.999v23.196c0 8.799-7.199 15.999-15.999 15.999z" fill="#974F41"/><path d="M319.105 216.878a7.27 7.27 0 01-7.271 7.271 7.27 7.27 0 01-7.271-7.271 7.27 7.27 0 017.271-7.271 7.27 7.27 0 017.271 7.271z" fill="#974F41"/><path d="M280.317 212.173l3.341-1.175a.911.911 0 00.556-1.159.911.911 0 00-1.159-.556l-3.341 1.175a.911.911 0 00-.556 1.159.911.911 0 001.159.556zm12.275-2.353l3.246 1.415a.912.912 0 001.197-.47.912.912 0 00-.47-1.197l-3.246-1.415a.912.912 0 00-1.197.47c-.2.458.011.997.47 1.197z" fill="#2C201B"/><path d="M287.43 217.483l.142 3.964-2.973-1.416 1.557 3.824" stroke="#422E22" stroke-width=".538" stroke-miterlimit="10" stroke-linecap="round" stroke-linejoin="round"/><path d="M290.296 217.765s3.226-2.867 6.452-.717m-18.28.717s3.226-2.867 6.452-.717" stroke="#422E22" stroke-width="1.075" stroke-miterlimit="10" stroke-linecap="round" stroke-linejoin="round"/><path d="M284.371 225.053l6.035-.083c-.184 1.147-1.244 2.02-2.389 2.218-1.993.345-3.15-.73-3.646-2.135z" fill="#2C201B"/><path d="M259.915 435.932l-9.407 6.995s.137.18.393.504l-67.345-29.648c-7.269-3.198-10.609-11.79-7.468-19.185l.119-.279.742-1.633 29.393-64.617c4.039 12.631 11.004 27.087 22.307 35.917l-17.009 30.387-12.098-9.015 6.606 21.093 5.492-12.078 47.947 35.725c.309.229.597.477.862.751-.446.113-.897.23-1.343.342.159 1.606.394 3.203.809 4.741z" fill="#974F41"/><path d="M199.542 385.358l12.099 9.015-5.493 12.078-6.606-21.093zm62.949 53.372a8.05 8.05 0 01-1.966 3.41 7.737 7.737 0 01-8.669 1.709l-.954-.418c-.256-.324-.393-.504-.393-.504l9.407-6.995c-.415-1.538-.65-3.135-.809-4.741.446-.112.897-.229 1.343-.342a7.799 7.799 0 011.957 3.23 8.05 8.05 0 01.084 4.651z" fill="#974F41"/><path d="M260.68 445.319l3.204 10.12c1.027 3.246 4.477 5.046 7.666 4l9.242-3.032c3.188-1.046 4.956-4.558 3.929-7.804l-3.204-10.121c-1.028-3.246-4.477-5.046-7.666-3.999l-9.242 3.033c-3.189 1.045-4.957 4.557-3.929 7.803z" fill="#974F41"/><path d="M268.023 459.364a2.482 2.482 0 01-.535-.049c-4.569-.895-14.493-13.225-16.588-15.883a39.354 39.354 0 01-.393-.504l9.407-6.995 2.492-1.853 1.343-.999.729 4.48.999 6.135 2.546 15.668z" fill="#974F41"/><path d="M251.069 442.665a16.28 16.28 0 003.354 8.981c3.251 4.189 8.277 6.426 12.637 9.393.587.4 1.17.819 1.652 1.344.663.722 1.111 1.616 1.589 2.476a32.858 32.858 0 004.135 5.836c.69.777 1.467 1.552 2.463 1.815.996.263 2.245-.198 2.516-1.208.218-.811-.234-1.636-.659-2.357a91.263 91.263 0 01-5.321-10.542c1.665.934 3.584 2.001 4.839 3.455 1.494 1.731 2.633 3.769 4.229 5.402 2.09 2.138 4.85 3.465 7.654 4.437.655.227 1.38.436 2.023.176.643-.26 1.025-1.211.518-1.691 1.642.513 3.613.948 4.632-.461 1.236-1.709-.457-3.945-1.805-5.563-4.981-5.985-6.172-14.489-11.016-20.59-3.741-4.713-9.279-7.518-14.726-9.96" fill="#974F41"/><path d="M267.091 431.685c6.668 1.954 14.115 2.76 19.187 7.58 1.135 1.078 2.103 2.323 3.141 3.498 2.233 2.528 4.792 4.74 7.467 6.777.957.729 2.027 1.618 2.043 2.834-7.331-.786-12.418-7.858-19.296-10.557-5.286-2.074-11.542-1.52-16.233-4.753-2.034-1.402-3.534-3.386-5.015-5.345-1.118-1.478-4.077-4.084-4.265-5.749 4.36 1.897 8.323 4.353 12.971 5.715zm155.941-60.077c-.056-.084-.112-.163-.169-.247l-1.031-1.442s-25.728-34.171-25.892-34.054c-8.646 6.14-20.813 15.137-26.49 19.552l18.515 22.619 10.264-10.985-2.635 21.647-7.629-10.662-40.677 43.535c-.263.28-.5.572-.711.888.46.025.926.054 1.386.079.138 1.584.201 3.173.074 4.74l10.552 5.011s-.102.2-.295.561l60.904-41.28c6.574-4.454 8.287-13.393 3.834-19.962z" fill="#974F41"/><path d="M398.229 367.05l-10.264 10.986 7.629 10.661 2.635-21.647zm-52.216 63.417c.259.51.572.996.947 1.448a7.668 7.668 0 001.617 1.483 7.858 7.858 0 008.855.034l.863-.583c.193-.361.295-.561.295-.561l-10.552-5.011c.127-1.566.064-3.156-.074-4.74-.46-.026-.926-.054-1.386-.079a7.678 7.678 0 00-1.336 3.491 7.803 7.803 0 00.771 4.518z" fill="#974F41"/><path d="M349.007 436.505l-1.298 10.393c-.417 3.333-3.484 5.72-6.818 5.303l-9.662-1.207c-3.333-.416-5.72-3.484-5.303-6.818l1.298-10.393c.416-3.333 3.484-5.72 6.818-5.303l9.662 1.207c3.333.416 5.72 3.485 5.303 6.818z" fill="#974F41"/><path d="M344.351 451.469c.166-.027.337-.077.518-.148 4.337-1.72 11.85-15.507 13.426-18.472.193-.361.295-.561.295-.561l-10.552-5.011-2.796-1.328-1.507-.715.104 4.472.143 6.124.369 15.639z" fill="#974F41"/><path d="M357.989 432.14a15.865 15.865 0 01-1.656 9.318c-2.433 4.661-6.974 7.766-10.725 11.452-.505.497-1.002 1.011-1.381 1.61-.521.823-.798 1.771-1.111 2.693a32.425 32.425 0 01-3.002 6.421c-.537.881-1.161 1.777-2.094 2.217-.933.44-2.248.228-2.701-.698-.364-.744-.07-1.627.217-2.404a89.21 89.21 0 003.306-11.196c-1.468 1.215-3.163 2.607-4.133 4.248-1.154 1.955-1.902 4.139-3.175 6.018-1.666 2.46-4.141 4.26-6.726 5.724-.604.342-1.279.68-1.96.548-.681-.131-1.232-.981-.821-1.539-1.524.803-3.386 1.592-4.648.42-1.531-1.422-.274-3.903.757-5.721 3.808-6.723 3.421-15.175 7.072-21.985 2.82-5.26 7.761-9.01 12.679-12.391" fill="#974F41"/><path d="M340.188 424.508c-6.21 3.137-13.399 5.309-17.511 10.921-.92 1.256-1.646 2.641-2.453 3.972-1.736 2.864-3.851 5.483-6.112 7.954-.809.884-1.7 1.944-1.492 3.125 7.077-2.131 10.79-9.926 17.071-13.823 4.827-2.995 11.092-3.628 15.12-7.634 1.747-1.737 2.86-3.937 3.96-6.11.83-1.64 3.266-4.714 3.146-6.36-3.947 2.652-7.401 5.769-11.729 7.955z" fill="#974F41"/><path d="M351.129 307.226c.598-8.306 1.411-16.897-2.858-24.307-.1-.173-.204-.341-.31-.509-14.64-23.451-52.895-25.77-76.965-20.966a99.002 99.002 0 00-14.758 4.144c-14.328 5.26-24.896 17.776-27.426 32.859-3.154 18.803 10.347 29.186 12.39 46.208 2.015 16.786.372 34.395 3.561 50.99 2.268 11.806 12.515 20.782 24.682 20.782h57.297c13.776 0 25.048-11.272 25.048-25.048V350.19c0-12.253-1.216-24.485-.988-36.74.038-2.04.176-4.123.327-6.224z" fill="#F3A1A3"/><path d="M220.689 449.878l31.946 16.026a197.869 197.869 0 00-77.076-13.43" stroke="#BEBCEE" stroke-width=".94" stroke-miterlimit="10"/><path d="M342.506 334.46l36.687 43.712-41.306 48.701s-5.506 8.572 11.12 9.632l74.315-40.412a20.362 20.362 0 003.973-28.961l-70.356-84.153s-28.026-.962-14.433 51.481zm-187.338 56.982l83.883-114.203 2.151 67.416-29.561 49.718-56.473-2.931z" fill="#974F41"/><path d="M269.133 207.99c1.89 1.028 4.224.651 6.279.013 8.283-2.569 15.238-9.106 18.315-17.214 1.701 9.196 7.752 14.821 16.938 16.576-.577-3.109-.322-6.373-.497-9.529-.478-8.619-6.144-16.527-13.738-20.632-2.469-1.335-5.232-2.324-8.032-2.117-2.57.19-4.975 1.377-7.071 2.877-7.995 5.72-14.633 20.502-12.194 30.026z" fill="#2C201B"/><path d="M190.504 325.195s-1.747 37.627 42.368 44.179l18.197-20.092s16.001-56.729-12.018-72.043l-48.547 47.956zm133.325-60.879s26.422 6.345 49.273 26.437l41.034 49.356s-18.345 32.322-47.609 33.632l-29.514-34.069s-29.607-48.576-13.184-75.356z" fill="#F3A1A3"/><path d="M217.174 300.221c7.465 10.596 20.193 17.341 33.188 17.221 24.574-.226 39.254-24.554 54.917-40.032 6.658-6.579 15.21-12.078 24.57-12.017m44.695 26.122c-27.709-2.831-55.169 15.091-67.573 40.03-12.404 24.939-14.995 56.238.445 84.882" stroke="#2C201B" stroke-miterlimit="10" stroke-linecap="round" stroke-linejoin="round"/><path d="M321.758 473.882H158.639c-3.935 0-7.155-3.22-7.155-7.155v-.15c0-3.935 3.22-7.155 7.155-7.155h163.119c3.935 0 7.155 3.22 7.155 7.155v.15c0 3.935-3.22 7.155-7.155 7.155z" fill="#8080D0"/><path d="M154.645 467.751l-19.24-65.966c-2.038-6.989 3.117-14.002 10.292-14.002h104.65c4.342 0 8.257 2.658 9.918 6.733l23.086 56.652c2.949 7.236-2.346 15.177-10.055 15.074-36.501-.485-121.434-1.317-118.651 1.509z" fill="#BEBCEE"/><path d="M200.226 439.749a7.715 7.715 0 100-15.43 7.715 7.715 0 000 15.43z" stroke="#2C201B" stroke-width="1.551" stroke-miterlimit="10"/><path d="M250.346 387.783l30.446 68.623m35.017 11.136h-42.305m403.19-109.237a4.48 4.48 0 11-8.961 0 4.48 4.48 0 018.961 0zm-4.742-35.394a8.248 8.248 0 10-16.057-3.775 8.248 8.248 0 0016.057 3.775z" stroke="#2C201B" stroke-width="1.5" stroke-miterlimit="10" stroke-linecap="round" stroke-linejoin="round"/><path d="M645.372 185.463a2.747 2.747 0 11-5.494 0 2.747 2.747 0 015.494 0zm44.263 139.672a4.124 4.124 0 11-8.247.001 4.124 4.124 0 018.247-.001zm-253.159-49.598a4.147 4.147 0 100-8.295 4.147 4.147 0 000 8.295zM392.039 93.793a3.86 3.86 0 11-7.72 0 3.86 3.86 0 017.72 0zm-128.55 20.243a3.04 3.04 0 10-.001-6.079 3.04 3.04 0 00.001 6.079z" fill="#2C201B"/></g><defs><clipPath id="clip0_1340_182"><path fill="#fff" d="M0 0h750v500H0z"/></clipPath></defs></svg>