<svg width="617" height="386" fill="none" xmlns="http://www.w3.org/2000/svg"><g clip-path="url(#clip0_1342_572)"><path d="M-4.48 36.886c.855-.53 1.925-.5 2.787.02a16.103 16.103 0 001.455.78c.907.427 1.521 1.3 1.552 2.301l.106 3.427 11.163-.347-.105-3.425a2.655 2.655 0 011.402-2.408c.486-.265.96-.557 1.416-.874a2.656 2.656 0 012.772-.178l3.014 1.616 5.28-9.845-3.014-1.616a2.655 2.655 0 01-1.386-2.407 15.367 15.367 0 00-.055-1.663 2.656 2.656 0 011.23-2.5l2.912-1.807-5.887-9.49-2.928 1.813c-.85.527-1.916.497-2.773-.02a16.069 16.069 0 00-1.448-.778c-.91-.43-1.526-1.305-1.556-2.31l-.103-3.43L.191 4.09.3 7.51a2.655 2.655 0 01-1.4 2.41c-.487.266-.962.56-1.42.88a2.653 2.653 0 01-2.774.178l-3.012-1.616-5.28 9.846 3.013 1.616a2.654 2.654 0 011.386 2.41c-.012.56.005 1.116.053 1.67a2.656 2.656 0 01-1.232 2.498l-2.91 1.8 5.887 9.49 2.91-1.805zm2.798-17.628c2.388-4.452 7.94-6.128 12.392-3.74 4.452 2.388 6.12 7.936 3.732 12.388a9.143 9.143 0 01-12.38 3.737c-4.45-2.388-6.132-7.932-3.744-12.385z" fill="#EBEBEB"/><path d="M305.419 95.407c.855-.53 1.925-.5 2.787.02a16.105 16.105 0 001.455.78c.907.427 1.521 1.3 1.552 2.302l.107 3.427 11.163-.347-.105-3.426a2.655 2.655 0 011.402-2.408c.486-.265.958-.557 1.415-.874a2.653 2.653 0 012.772-.177l3.014 1.616 5.28-9.845-3.014-1.616a2.655 2.655 0 01-1.386-2.407 15.367 15.367 0 00-.055-1.663 2.656 2.656 0 011.23-2.5l2.912-1.807-5.887-9.49-2.928 1.813c-.851.527-1.916.497-2.773-.02a16.07 16.07 0 00-1.448-.778c-.91-.43-1.526-1.305-1.556-2.31l-.103-3.43-11.163.346.108 3.418a2.655 2.655 0 01-1.399 2.41c-.487.266-.962.56-1.42.88a2.653 2.653 0 01-2.774.178l-3.012-1.616-5.28 9.845 3.013 1.616a2.652 2.652 0 011.386 2.41c-.012.56.005 1.116.053 1.67a2.656 2.656 0 01-1.232 2.498l-2.907 1.8 5.887 9.491 2.906-1.806zm2.797-17.627c2.388-4.452 7.94-6.128 12.392-3.74 4.452 2.388 6.12 7.936 3.732 12.388a9.143 9.143 0 01-12.38 3.737c-4.451-2.389-6.131-7.933-3.744-12.385z" stroke="#EBEBEB" stroke-miterlimit="10"/><path d="M463.531 200.054c.611.352.947 1.023.911 1.727a11.015 11.015 0 000 1.156c.036.702-.299 1.37-.908 1.721l-2.08 1.2 3.91 6.777 2.08-1.199a1.861 1.861 0 011.951.068c.325.212.661.407 1.009.584a1.86 1.86 0 011.027 1.653v2.396h7.827v-2.396a1.86 1.86 0 011.027-1.653c.347-.177.684-.372 1.009-.584.59-.386 1.34-.42 1.95-.068l2.08 1.199 3.91-6.777-2.089-1.207c-.607-.351-.941-1.018-.905-1.719a11.015 11.015 0 000-1.152c-.036-.704.3-1.374.911-1.726l2.084-1.2-3.91-6.777-2.074 1.198c-.61.352-1.36.318-1.95-.066a10.696 10.696 0 00-1.013-.585 1.859 1.859 0 01-1.029-1.653v-2.395h-7.827v2.395c0 .702-.403 1.335-1.029 1.653-.349.177-.687.373-1.013.585-.59.385-1.34.419-1.95.066l-2.074-1.198-3.91 6.777 2.075 1.2zm11.809-4.109a6.415 6.415 0 016.412 6.412 6.41 6.41 0 01-6.412 6.406 6.405 6.405 0 01-6.406-6.406 6.41 6.41 0 016.406-6.412zM582.06 61.27c0 16.826 13.646 30.472 30.471 30.472 16.832 0 30.471-13.646 30.471-30.471 0-16.832-13.639-30.471-30.471-30.471-16.825 0-30.471 13.639-30.471 30.47zm16.238 0c0-7.86 6.373-14.233 14.234-14.233s14.234 6.373 14.234 14.234c0 7.86-6.373 14.227-14.234 14.227s-14.234-6.366-14.234-14.227z" fill="#EBEBEB"/><path d="M606.673 32.063h11.718l-.648-8.294h-10.422l-.648 8.294zm12.772 57.794h-11.718l.648 8.295h10.422l.648-8.295zm-22.303-3.948l-8.286-8.286-5.407 6.324 7.369 7.369 6.324-5.407zm-12.98-18.563V55.628l-8.295.648v10.423l8.295.647zm3.948-22.303l8.286-8.286-6.323-5.407-7.37 7.37 5.407 6.323z" fill="#EBEBEB"/><path d="M169.417 246.813v-10.43l-7.99-.62c-.86-3.9-2.48-7.51-4.68-10.68l5.09-5.94-7.37-7.37-6.06 5.18a29.94 29.94 0 00-10.91-4.43l-.59-7.59h-10.42l-.59 7.59c-4.09.78-7.89 2.39-11.22 4.64h-.01l-5.43-4.65-7.37 7.37 4.64 5.42c-2.35 3.43-4 7.37-4.77 11.61l-6.7.53v10.42l6.78.53c.85 4.3 2.61 8.28 5.08 11.72l-4.28 5 7.37 7.37 5.2-4.45c3.51 2.28 7.52 3.85 11.83 4.51l.53 6.77h10.42l.56-7.19c4.1-.93 7.89-2.69 11.17-5.1l5.52 4.71 7.37-7.37-5.01-5.85c2.08-3.33 3.53-7.09 4.18-11.11l7.66-.59zm-37.72 9.85c-7.86 0-14.23-6.37-14.23-14.23s6.37-14.23 14.23-14.23 14.24 6.37 14.24 14.23-6.38 14.23-14.24 14.23z" stroke="#EBEBEB" stroke-miterlimit="10"/><path d="M48.27 297.791c-5.742.1-20.217.349-25.767.412l-8.694.044-.453.002-.002-.457-.044-11.19-.002-.501.502.002 17.23.068c4.29.039 12.94.131 17.23.191l.246.003-.005.238-.24 11.188zm0 0l-.24-11.19.24.241c-4.299.061-12.933.153-17.23.191l-17.23.068.5-.499-.045 11.19-.455-.455 8.537.043c5.461.064 20.273.314 25.923.411zm-19.223 14.11c-5.742.1-20.217.349-25.767.412l-8.694.044-.453.002-.002-.457-.044-11.19-.002-.501.501.002 17.23.068c4.29.039 12.94.131 17.23.191l.246.003-.005.238-.24 11.188zm0 0l-.241-11.19.241.241c-4.299.061-12.933.153-17.23.191l-17.23.068.499-.499-.044 11.19-.455-.455 8.537.043c5.461.063 20.273.314 25.923.411zM227.522 58.973l-17.109.292-8.658.12-8.694.043-.453.002-.002-.457-.044-11.19-.002-.502.502.002 17.23.068 8.615.084 8.615.107.246.003-.005.238-.241 11.19zm0 0l-.241-11.19.241.24-8.615.108-8.615.084-17.23.067.499-.5-.044 11.19-.455-.454 8.537.044 8.573.12 17.35.29zm-19.223 14.11l-17.109.292-8.657.12-8.694.044-.453.002-.002-.457-.044-11.19-.002-.502.501.002 17.23.068 8.615.084 8.615.107.246.003-.005.238-.241 11.19zm0 0l-.241-11.19.241.241-8.615.107-8.615.084-17.23.067.499-.499-.044 11.19-.455-.455 8.537.044 8.573.12 17.35.291zm38.446-11.19h-34.46v11.19h34.46v-11.19zm362.783 238.818h-34.46v11.19h34.46v-11.19zM628.752 8.543l-17.109.292-8.658.12-8.694.044-.453.001-.002-.457-.044-11.19-.002-.502.501.002 17.23.067 8.615.084 8.615.107.246.003-.005.238-.24 11.191zm0 0l-.241-11.19.241.241-8.615.107-8.615.084-17.23.068.499-.499-.044 11.19-.455-.455 8.537.044 8.573.12 17.35.29zm-309.58 253.078h34.46v-11.19h-34.46v11.19zm19.222-25.3c5.742-.1 20.217-.349 25.767-.412l8.694-.043.453-.002.002.458.044 11.19.002.501-.501-.002-17.23-.068c-4.29-.039-12.94-.13-17.23-.191l-.246-.003.005-.238.24-11.19zm0 0l.241 11.19-.241-.241c4.299-.061 12.933-.153 17.23-.191l17.23-.068-.499.499.044-11.19.455.455-8.537-.043c-5.461-.064-20.273-.314-25.923-.411z" fill="#EBEBEB"/><path d="M-21.388 373.059c212.309-.612 450.468-.617 662.775 0-212.308.616-450.467.612-662.775 0zm581.51-241.333c.491.076 2.79.442 6.15.984 1.471-1.988 3.371-5.602 3.505-11.064.016-.905 1.429 4.499-.382 11.567 6.493 1.039 15.326 2.449 23.053 3.607.56-3.002 1.214-5.76 1.214-5.76-.03 2.215.169 4.243.465 6.018 1.056.167 2.093.31 3.086.457.41-4.723 2.319-12.791 2.319-12.791a41.662 41.662 0 002.077 13.425c4.913.683 8.157 1.044 7.981.783-6.28-9.533-.169-13.705-1.265-21.5-1.317-9.341-8.88-11.822-7.733-18.548.919-5.474 2.957-15.357-3.7-18.431 0 0-4.81-6.954-14.144-4.75-11.546 2.715-9.502 20.26-10.718 23.607-1.733 4.782-4.314 6.201-6.827 11.581-2.558 5.444-.48 9.57-.709 13.465-.244 3.891-5.604 7.172-4.372 7.35z" fill="#263238"/><path d="M609.975 137.764c-.785-1.657-1.451-3.381-1.734-5.137-.335-1.753.142-3.436.721-5.161.577-1.716 1.224-3.462 1.641-5.309.396-1.842.593-3.81.225-5.734-.335-1.924-1.171-3.743-2.298-5.279-1.11-1.556-2.448-2.868-3.735-4.158-1.271-1.302-2.541-2.59-3.415-4.145-.9-1.536-1.33-3.34-1.304-5.182a9.33 9.33 0 00.706 5.485c.782 1.734 2.001 3.209 3.217 4.585 1.215 1.385 2.447 2.714 3.43 4.178.975 1.463 1.696 3.064 1.968 4.765.278 1.697.184 3.455-.179 5.192-.34 1.746-.907 3.469-1.392 5.262-.234.898-.459 1.816-.557 2.777-.104.962.006 1.966.242 2.878.512 1.83 1.382 3.492 2.464 4.983zm-34.289-56.578c-1.137 1.968-1.761 4.185-2.383 6.358-.581 2.193-1.055 4.409-1.503 6.618l-.691 3.296c-.233 1.102-.515 2.127-.934 3.114-.824 1.985-2.219 3.624-3.768 5.274-.756.841-1.527 1.718-2.191 2.693a15.78 15.78 0 00-1.667 3.118 23.418 23.418 0 00-.948 3.364 14.399 14.399 0 00-.281 3.499c.044 1.173.221 2.301.347 3.4a17.23 17.23 0 01.077 3.296c-.126 2.161-1.547 4.143-3.468 5.308 2.075-.879 3.776-2.853 4.164-5.218.188-1.15.225-2.307.176-3.457-.042-1.149-.178-2.261-.155-3.345.019-2.153.588-4.323 1.379-6.33.428-.987.934-1.932 1.556-2.813.615-.885 1.344-1.701 2.103-2.528.749-.835 1.529-1.691 2.223-2.641.692-.949 1.305-1.985 1.742-3.09.432-1.106.71-2.273.908-3.385.216-1.12.388-2.236.558-3.352.351-2.228.669-4.454 1.077-6.662.381-2.216.848-4.415 1.679-6.517z" fill="#263238"/><path d="M585.882 118.594c-8.517 5.477-43.679 8.666-52.167 4.727-12.622-5.857-26.288-20.035-30.823-25.62-1.976-2.434 18.674-16.01 21.148-13.748 5.298 4.844 15.22 17.697 17.46 18.822s22.22 5.317 33.143 6.317c14.654 1.341 15.547 6.732 11.239 9.502z" fill="#F7A9A0"/><path d="M508.99 104.414c-1.264-.93-11.91-7.493-15.582-13.312-1.945-3.082-6.335-12.156-4.608-13.574 1.576-1.294 3.391.897 3.391.897s-1.898-4.075.314-5.848c2.212-1.773 5.082 2.082 5.082 2.082s-1.644-4.327.689-5.937c2.333-1.611 4.57 2.749 4.57 2.749s-1.688-3.885.793-4.404c2.984-.624 5.286 6.892 8.007 9.87.618.676 13.5 12.817 13.5 12.817l-16.156 14.66z" fill="#F7A9A0"/><path d="M503.009 71.476c1.706 5.523 3.408 7.643 7.73 11.344.084.072-.004.214-.099.147-4.562-3.24-7.081-5.591-7.903-11.422-.04-.286.191-.332.272-.07zm-5.255 3.166c2.273 5.58 4.099 7.898 8.34 12.107.06.06-.034.167-.1.112-4.507-3.781-6.965-6.186-8.504-12.06-.07-.266.16-.414.264-.16zm-5.353 3.98c2.591 5.245 4.482 7.87 9.125 11.429.11.084-.002.252-.12.178-5.087-3.167-7.472-6.427-9.156-11.511-.114-.347-.012-.426.151-.096z" fill="#263238"/><path d="M529.801 90.032s-3.036-6.575-5.007-9.17c-1.971-2.594-12.875-9.559-14.513-7.29-2.115 2.93 3.388 8.191 6.419 10.415 0 0-4.898 6.774-1.766 11.404 3.132 4.631 14.867-5.359 14.867-5.359z" fill="#F7A9A0"/><path d="M509.963 74.568c-.001 4.063 4.167 6.727 6.947 9.104.211.181.14.414-.03.55-1.864 2.975-3.626 7.717-2.172 11.126.043.1-.093.174-.15.08-2.056-3.446-.705-8.245 1.545-11.374-2.889-2.394-6.952-5.248-6.18-9.488.006-.024.04-.024.04.002z" fill="#263238"/><path d="M563.864 106.377l-6.267 19.543s22.237-3.868 28.456-6.851c6.999-3.357 3.751-6.202-3.188-8.708-6.94-2.507-19.001-3.984-19.001-3.984z" fill="#A6A6A6"/><path d="M561.948 124.284c.322-.642 2.37-6.702 2.787-8.029.417-1.327 2.173-6.734 2.489-8.139.014-.063-.069-.096-.095-.035-.572 1.315-2.358 6.763-2.811 8.106-.452 1.343-2.346 7.383-2.463 8.076-.009.058.071.064.093.021z" fill="#263238"/><path opacity=".1" d="M586.054 119.065c-6.223 2.99-28.459 6.856-28.459 6.856l2.04-6.363c5.534-2.357 15.874-6.893 22.041-9.595.41.13.81.261 1.192.401 6.94 2.506 10.182 5.347 3.186 8.701z" fill="#000"/><path d="M568.497 4.02l8.776 8.575c.038.037.07.072.099.107l-8.776-8.575a1.349 1.349 0 00-.099-.107zM435.531 160.7l-8.775-8.576c.114.112.23.222.349.331l8.776 8.576c-.12-.109-.236-.22-.35-.331zm102.688-99.74l8.776 8.577-64.985 66.63-8.775-8.577 64.984-66.63z" fill="#7168EE"/><path d="M538.219 60.96l8.776 8.577-64.985 66.63-8.775-8.577 64.984-66.63z" fill="#000" opacity=".1"/><path d="M535.422 172.188l-89.627-6.912c-1.051-.087-1.533-.138-2.02-.218-2.708-.412-5.296-1.455-7.413-3.532l-8.781-8.578c2.127 2.078 4.715 3.122 7.423 3.534.478.079.969.131 2.02.218l89.627 6.911 8.771 8.577z" fill="#7168EE"/><path d="M535.422 172.188l-89.627-6.912c-1.051-.087-1.533-.138-2.02-.218-2.708-.412-5.296-1.455-7.413-3.532l-8.781-8.578c2.127 2.078 4.715 3.122 7.423 3.534.478.079.969.131 2.02.218l89.627 6.911 8.771 8.577z" fill="#000" opacity=".1"/><path d="M570.484 143.001l-8.771-8.577 13.088-116.18c.042-.285.074-.572.098-.87.074-.573-.192-.885-.118-1.457.095-.852.12-1.15-.095-1.746.032-.287-.192-.884-.15-1.17-.192-.884-.169-1.173-.383-1.77-.247-.308-.48-.906-.437-1.201-.482-.898-.738-1.208-.985-1.517-.256-.31-.48-.907-.736-1.218-.247-.31-.513-.62-1.016-1.24.012-.082-.023-.162-.094-.257l8.69 8.49c.124.12.192.235.176.346.514.61.769.93 1.016 1.239.256.31.48.907.736 1.218.247.309.503.619.985 1.517-.034.296.192.884.437 1.202.224.597.192.884.383 1.769-.041.286.192.884.15 1.17.224.597.192.884.095 1.746-.065.574.192.884.127 1.459l-.098.87L570.484 143z" fill="#7168EE"/><path d="M570.484 143.001l-8.771-8.577 13.088-116.18c.042-.285.074-.572.098-.87.074-.573-.192-.885-.118-1.457.095-.852.12-1.15-.095-1.746.032-.287-.192-.884-.15-1.17-.192-.884-.169-1.173-.383-1.77-.247-.308-.48-.906-.437-1.201-.482-.898-.738-1.208-.985-1.517-.256-.31-.48-.907-.736-1.218-.247-.31-.513-.62-1.016-1.24.012-.082-.023-.162-.094-.257l8.69 8.49c.124.12.192.235.176.346.514.61.769.93 1.016 1.239.256.31.48.907.736 1.218.247.309.503.619.985 1.517-.034.296.192.884.437 1.202.224.597.192.884.383 1.769-.041.286.192.884.15 1.17.224.597.192.884.095 1.746-.065.574.192.884.127 1.459l-.098.87L570.484 143z" fill="#000" opacity=".1"/><path d="M587.614 160.274c-1.01 8.909-8.944 15.26-17.825 14.574l-2.866-.228-8.771-8.577 2.857.226c8.881.686 16.823-5.655 17.825-14.574a15.266 15.266 0 00-4.515-12.675l8.771 8.577a15.277 15.277 0 014.524 12.677z" fill="#7168EE"/><path d="M587.614 160.274c-1.01 8.909-8.944 15.26-17.825 14.574l-2.866-.228-8.771-8.577 2.857.226c8.881.686 16.823-5.655 17.825-14.574a15.266 15.266 0 00-4.515-12.675l8.771 8.577a15.277 15.277 0 014.524 12.677z" fill="#000" opacity=".1"/><path d="M564.466 196.489c-1.009 8.9-8.656 15.283-17.536 14.597a14.674 14.674 0 01-1.276-.157c-3.296-.507-6.152-1.975-8.329-4.098l-8.771-8.577c2.168 2.122 5.033 3.592 8.328 4.107.415.06.84.113 1.268.146 8.881.686 16.535-5.687 17.536-14.597l2.466-21.867 8.771 8.577-2.457 21.869z" fill="#7168EE"/><path d="M564.466 196.489c-1.009 8.9-8.656 15.283-17.536 14.597a14.674 14.674 0 01-1.276-.157c-3.296-.507-6.152-1.975-8.329-4.098l-8.771-8.577c2.168 2.122 5.033 3.592 8.328 4.107.415.06.84.113 1.268.146 8.881.686 16.535-5.687 17.536-14.597l2.466-21.867 8.771 8.577-2.457 21.869z" fill="#000" opacity=".1"/><path d="M578.836 151.695c-1.007 8.916-8.945 15.265-17.823 14.577l-2.863-.225-2.461 21.861c-1.005 8.908-8.657 15.284-17.535 14.597a17.013 17.013 0 01-1.275-.147c-8.172-1.266-13.647-8.406-12.69-16.881l2.461-21.861-89.627-6.917c-1.054-.083-1.54-.138-2.022-.213-2.915-.452-5.688-1.625-7.897-4.032-6.544-6.019-6.301-15.866-.079-22.339l120.849-124.1c.288.02.326-.268.643-.537.316-.261.633-.531.987-1.08.891-.222 1.207-.484 1.525-.753.326-.268.929-.51 1.245-.771.605-.25.921-.511 1.783-.445.355-.557.671-.818 1.245-.771.318-.27.891-.222 1.783-.445.288.019.862.066 1.179-.203.574.047 1.427.112 2.001.159.014 0 .288.02.574.047l.575.039c.566.046 1.427.112 1.715.132.358.22.601.304.89.349.766.36 1.62.426 2.164.76 1.618.998 2.163 1.326 2.413 1.633.544.336.794.643 1.338.979.587.357 1.08.676 1.044.95.508.615.764.93 1.014 1.239.258.308.478.904.734 1.22.25.307.508.615.986 1.519-.038.288.19.885.439 1.2.22.596.19.885.381 1.769-.038.287.19.885.153 1.172.22.596.19.885.094 1.742-.068.576.19.885.123 1.46-.03.29-.06.579-.098.866l-13.092 116.178 2.864.217c.417.032.829.08 1.234.143 8.225 1.272 13.949 8.69 13.026 16.912zM473.235 127.59l56.986 4.401 7.999-71.031-64.985 66.63z" fill="#7168EE"/><path d="M591.568 161.175s-18.177 91.286-19.456 98.025c-.296 1.535.754 83.243.754 83.243h-33.779s-3.254-71.375-1.623-84.837c1.631-13.469 22.213-96.431 22.213-96.431h31.891z" fill="#F7A9A0"/><path opacity=".1" d="M591.571 161.179s-8.844 44.427-14.637 73.584l-17.26-73.584h31.897z" fill="#000"/><path d="M548.219 206.821l35.915 4.315 7.434-49.961h-31.891l-11.458 45.646z" fill="#37474F"/><path d="M582.791 204.241c-3.838-.766-7.733-1.24-11.622-1.682-3.848-.437-7.698-.854-11.551-1.247-2.205-.225-4.419-.447-6.631-.564-.147-.008-.162.182-.02.208 3.844.713 7.746 1.166 11.622 1.676 3.84.506 7.684.985 11.536 1.398 2.211.237 4.415.424 6.636.511.213.009.233-.259.03-.3zm3.808-40.152a1147.437 1147.437 0 00-7.64 28.796c-.34 1.352-.665 2.707-.994 4.061-.336 1.381-.708 2.783-.897 4.193-.011.084.096.11.127.032.905-2.324 1.447-4.829 2.097-7.233.646-2.388 1.26-4.785 1.878-7.18 1.236-4.791 2.467-9.582 3.632-14.391.664-2.743 1.325-5.487 1.975-8.233.028-.115-.146-.158-.178-.045z" fill="#263238"/><path d="M514.097 373.403c1.867.619 55.133.465 57.163-.823.766-.481 1.198-8.247 1.451-17.636.057-2.029.098-4.116.13-6.251.04-2.518.073-5.069.09-7.547.065-11.125-.337-20.921-.337-20.921h-34.43l.016 20.921.008 7.547.179 6.251s-20.366 9.185-22.436 10.839c-2.062 1.646-3.692 7.009-1.834 7.62z" fill="#F7A9A0"/><path d="M514.097 373.403c1.867.619 55.133.465 57.163-.823.766-.481 1.198-8.247 1.451-17.636.057-2.029.098-4.116.13-6.251.04-2.518.073-5.069.09-7.547H538.18l.008 7.547.179 6.251s-20.366 9.185-22.436 10.839c-2.062 1.646-3.692 7.009-1.834 7.62z" fill="#DBDBDB"/><path d="M513.936 373.483c1.214.399 23.903.481 40.423.139 3.822-.082 7.318-.188 10.138-.31 3.887-.179 6.495-.391 6.919-.66.937-.603 1.385-11.996 1.597-24.018h-34.848l.179 6.284s-20.48 9.234-22.567 10.896c-2.069 1.663-3.707 7.042-1.841 7.669z" fill="#7168EE"/><path d="M514.699 371.339c8.978-.246 45.214-.393 54.108.045.072.004.072.053 0 .057-8.894.439-45.13.292-54.108.045-.189-.005-.19-.142 0-.147zm22.371-18.411c3.532-.67 7.855-.14 10.562 2.37.105.097-.035.245-.15.209-3.489-1.088-6.747-1.784-10.397-2.132-.256-.025-.267-.399-.015-.447zm-2.545 1.544c3.531-.67 7.854-.14 10.562 2.37.105.097-.035.245-.149.209-3.489-1.089-6.747-1.785-10.397-2.132-.259-.025-.269-.399-.016-.447zm-2.546 1.545c3.531-.67 7.854-.14 10.562 2.37.105.097-.035.245-.149.209-3.489-1.089-6.746-1.785-10.397-2.132-.258-.025-.27-.399-.016-.447zm-2.546 1.544c3.531-.67 7.854-.14 10.562 2.37.105.097-.035.245-.149.209-3.489-1.089-6.747-1.785-10.397-2.132-.258-.025-.269-.399-.016-.447z" fill="#263238"/><path d="M532.119 349.803c2.505 1.936 5.76 2.72 8.681 3.792.303.111.543-.174.553-.443.058-.011.107-.055.083-.128-.971-2.949-3.071-6.078-5.465-8.078-1.479-1.235-4.067-2.088-5.45-.172-1.308 1.814.136 3.899 1.598 5.029zm-.908-2.84c-.634-3.875 3.534-1.851 4.587-.898.677.613 1.292 1.319 1.879 2.018 1.228 1.464 2.225 3.075 3.295 4.648-1.402-.615-2.845-1.103-4.269-1.666-1.696-.67-5.142-1.966-5.492-4.102z" fill="#263238"/><path d="M553.216 347.607c-.861-2.201-3.58-2.021-5.32-1.194-2.818 1.339-5.632 3.845-7.308 6.458-.041.064-.005.119.049.144-.058.263.104.599.425.567 3.096-.309 6.444-.256 9.352-1.505 1.697-.73 3.616-2.388 2.802-4.47zm-7.558 4.547c-1.519.189-3.038.302-4.549.547 1.429-1.256 2.796-2.567 4.351-3.678.742-.53 1.514-1.061 2.323-1.485 1.258-.661 5.799-1.58 4.218 2.014-.872 1.982-4.532 2.376-6.343 2.602z" fill="#263238"/><path opacity=".1" d="M572.909 353.555c-.242 10.042-.689 18.575-1.49 19.097-.429.27-3.037.484-6.922.661a500.25 500.25 0 01-10.135.307c-2.459.056-5.058.093-7.695.121l26.242-20.186z" fill="#000"/><path d="M581.918 338.238l34.719-.442s-6.819-118.475-9.79-143.133c0 0 5.634-13.35-4.911-33.517h-42.292s2.835 19.19 7.687 31.358c0 0 3.143.844 8.851 3.991l5.736 141.743z" fill="#F7A9A0"/><path d="M576.802 211.402h33.223l-2.523-16.739s5.045-16.986-4.818-33.517h-43.04s1.784 18.001 7.062 31.54l5.405 2.398 4.691 16.318z" fill="#37474F"/><path d="M572.112 195.084c-.041-.21-.474-.208-.435.011 1.749 9.868 4.512 14.646 4.71 15.098.026.059.105.062.126-.003.153-.468-3.61-11.006-4.401-15.106z" fill="#263238"/><path d="M565.726 192.018c3.811 1.312 7.49 3.174 11.008 5.126.138.077.047.291-.102.227-3.708-1.592-7.489-3.116-11.105-4.911-.285-.14-.093-.543.199-.442zm-1.178-25.445c.01-.128.235-.156.234-.018-.03 4.402.251 8.275.622 12.39.172 1.91 1.709 12.466 5.021 11.696.555-.129.838-.675.925-1.511.105-1.005-.274-2.238-.44-3.237a83.794 83.794 0 01-.852-6.659c-.354-4.167-.372-8.334.135-12.487.017-.136.214-.126.213.012-.005 5.768.146 11.525 1.008 17.238.414 2.745 1.797 6.879-1.074 7.301-2.925.43-4.817-6.493-5.174-8.387-.996-5.285-1.036-10.991-.618-16.338z" fill="#263238"/><path d="M570.337 190.925c.299.709.54 1.446.745 2.188.159.576.375 1.198.31 1.799-.013.116-.167.128-.229.049-.389-.492-.553-1.166-.77-1.75-.252-.676-.519-1.349-.751-2.032-.155-.455.51-.692.695-.254zm30.824-11.439c-3.128-.313-6.35-.273-9.251-1.672-2.954-1.425-4.823-4.214-6.331-7.023-.945-1.762-1.6-3.573-2.078-5.51-.021-.087-.157-.063-.154.025.066 1.772.603 3.568 1.277 5.197.665 1.606 1.473 3.187 2.485 4.604.956 1.339 2.126 2.55 3.574 3.357 1.441.802 3.061 1.243 4.695 1.417 1.908.203 3.885.189 5.79-.034.235-.028.222-.338-.007-.361zm4.309 18.704c-.338-1.53-.851-3.101-.935-4.671-.084-1.568.745-2.921 1.218-4.368 1.838-5.622 1.094-11.776-.911-17.243-1.149-3.133-2.689-6.1-4.322-9.004-.042-.074-.149-.006-.111.069 2.742 5.348 5.164 11.063 5.697 17.11.257 2.908.051 5.869-.801 8.67-.404 1.326-1.168 2.61-1.283 4.009-.12 1.466.363 2.95.686 4.363.401 1.749 1.628 7.036 2.165 8.812.046.153.314.122.288-.046-.245-1.581-1.333-6.082-1.691-7.701zm2.39 8.876c-3.903-.29-7.826-.284-11.74-.246-3.872.038-7.744.096-11.616.177-2.216.046-4.44.097-6.65.252-.147.01-.138.201.006.209 3.902.237 7.831.208 11.74.24 3.873.031 7.747.036 11.62-.026 2.224-.036 4.433-.12 6.648-.306.211-.016.199-.284-.008-.3z" fill="#263238"/><path d="M557.486 373.598c1.86.638 55.126 1.012 57.168-.256.771-.473 1.28-8.235 1.626-17.621.077-2.029.139-4.114.193-6.249.066-2.518.124-5.068.165-7.546.175-11.123-1.56-21.858-1.56-21.858l-32.998.594-.191 20.92-.067 7.546.117 6.253s-20.457 8.982-22.543 10.616c-2.079 1.625-3.762 6.971-1.91 7.601z" fill="#F7A9A0"/><path d="M557.486 373.599c1.86.638 55.126 1.012 57.168-.256.771-.473 1.28-8.235 1.626-17.621.077-2.029.139-4.114.193-6.249.066-2.518.124-5.068.165-7.546l-34.749-.345-.067 7.546.117 6.253s-20.457 8.982-22.543 10.616c-2.079 1.626-3.762 6.972-1.91 7.602z" fill="#DBDBDB"/><path d="M557.324 373.676c1.21.411 23.897.718 40.42.54 3.823-.044 7.32-.115 10.141-.209 3.889-.141 6.499-.327 6.925-.591.943-.594 1.504-11.982 1.836-24l-34.847-.346.117 6.285s-20.571 9.03-22.674 10.672c-2.086 1.641-3.777 7.003-1.918 7.649z" fill="#7168EE"/><path d="M558.109 371.539c8.98-.157 45.216.055 54.105.582.072.004.072.053-.001.056-8.898.35-45.131-.156-54.106-.492-.189-.006-.188-.142.002-.146zm22.552-18.187c3.538-.635 7.856-.062 10.538 2.474.104.098-.037.245-.152.207-3.478-1.123-6.728-1.851-10.375-2.235-.256-.027-.264-.401-.011-.446zm-2.56 1.519c3.538-.635 7.855-.062 10.537 2.475.104.098-.037.244-.152.207-3.478-1.123-6.728-1.851-10.375-2.235-.257-.028-.264-.402-.01-.447zm-2.562 1.519c3.538-.635 7.856-.062 10.538 2.474.104.098-.037.245-.152.207-3.478-1.123-6.728-1.851-10.375-2.235-.257-.027-.264-.401-.011-.446zm-2.561 1.519c3.538-.635 7.855-.062 10.538 2.475.104.098-.037.244-.151.208-3.478-1.123-6.729-1.851-10.375-2.236-.258-.028-.265-.402-.012-.447z" fill="#263238"/><path d="M575.741 350.179c2.485 1.961 5.733 2.777 8.643 3.878.302.114.545-.169.557-.437.058-.01.107-.054.084-.127-.941-2.958-3.01-6.108-5.385-8.132-1.466-1.25-4.046-2.128-5.448-.226-1.325 1.8.098 3.899 1.549 5.044zm-.879-2.849c-.596-3.881 3.552-1.816 4.596-.852.671.619 1.279 1.332 1.859 2.036 1.214 1.476 2.194 3.097 3.249 4.68-1.396-.629-2.834-1.132-4.252-1.708-1.69-.687-5.124-2.017-5.452-4.156z" fill="#263238"/><path d="M596.859 348.192c-.839-2.209-3.559-2.057-5.308-1.247-2.831 1.311-5.67 3.789-7.372 6.385-.042.064-.006.119.047.145-.06.262.098.6.419.571 3.099-.278 6.446-.192 9.367-1.413 1.706-.712 3.64-2.351 2.847-4.441zm-7.602 4.472c-1.521.174-3.041.272-4.555.502 1.441-1.242 2.821-2.539 4.388-3.634.747-.523 1.524-1.046 2.337-1.462 1.265-.648 5.815-1.522 4.198 2.056-.891 1.972-4.556 2.33-6.368 2.538z" fill="#263238"/><path d="M563.02 142.676l-3.343 18.5 43.008-.03s.592-32.417-10.362-46.732c-5.479-7.16-10.297-6.587-15.27-2.386-1.259 1.063-13.737 13.889-15.82 20.695-1.822 6.006 1.787 9.953 1.787 9.953z" fill="#A6A6A6"/><path d="M569.583 140.977c1.93.504 3.856 1.09 5.692 1.936a38.78 38.78 0 012.687 1.386c.441.247.887.474 1.336.7.461.232.959.457 1.461.543.045.008.033.089-.012.085-.493-.048-.964-.097-1.445-.224a8.95 8.95 0 01-1.341-.498c-.93-.416-1.842-.885-2.768-1.313-1.868-.863-3.736-1.725-5.659-2.421-.09-.032-.043-.217.049-.194zm-5.135 1.465c1.639.015 3.298.124 4.917.362.815.12 1.614.296 2.414.498a32 32 0 011.14.313c.417.122.818.312 1.235.426.044.012.033.096-.012.085-.397-.093-.813-.107-1.215-.172-.404-.065-.808-.135-1.212-.201-.81-.131-1.62-.252-2.429-.393a117.347 117.347 0 00-4.86-.757c-.09-.011-.063-.162.022-.161z" fill="#263238"/><path d="M588.108 112.235c-.345.844-5.435 5.862-9.41 5.035-1.294-.272-.126-7.401-.126-7.401l-.034-.546-.471-7.643 9.556-4.177 1.37-.536s-.009 2.1-.046 4.714c-.001.121-.002.242-.005.372.002.148.005.288 0 .426 0 .391-.003.79-.013 1.187-.007.302-.012.597-.03.913-.011.319-.028.628-.038.947-.172 3.14-.612 6.35-.753 6.709z" fill="#F7A9A0"/><path d="M578.064 101.676l.456 7.345c5.624-1.003 8.921-4.528 10.422-6.604l.007-.737c.033-2.611.042-4.71.042-4.71l-1.367.529-9.56 4.177z" fill="#263238"/><path d="M571.908 85.91c-6.376 11.83-.01 16.984 2.542 18.356 2.317 1.245 10.365 5.192 17.929-5.916 7.564-11.108 4.079-17.812-1.07-20.94-5.148-3.13-13.025-3.332-19.401 8.5z" fill="#F7A9A0"/><path d="M574.652 85.014c.301.1.596.144.904.213.347.078.616.176.963.04.186-.071.3-.34.247-.527-.124-.436-.525-.637-.94-.748-.45-.12-.827-.098-1.251.093-.411.185-.32.796.077.929zm8.247 3.879c-.27-.167-.491-.367-.74-.56-.282-.218-.529-.362-.646-.715-.063-.19.071-.45.249-.528.414-.183.825-.002 1.175.246.38.27.604.575.727 1.022.12.436-.409.756-.765.535zm-2.783 1.357c.022-.028.045.07.027.104-.434.806-.796 1.802-.19 2.443.019.02-.004.06-.03.042-.841-.577-.348-1.895.193-2.59z" fill="#263238"/><path d="M581.273 89.76c1.367.556.153 3.25-1.113 2.734-1.246-.508-.032-3.201 1.113-2.734z" fill="#263238"/><path d="M581.738 90.14c.167.258.276.63.547.787.313.18.688.01 1.025-.165.035-.018.048.016.032.052-.225.519-.662.959-1.25.787-.536-.157-.693-.777-.587-1.354.019-.107.166-.211.233-.107zm-6.248-2.104c.008-.035-.083.009-.098.044-.36.842-.913 1.745-1.792 1.672-.027-.003-.044.04-.015.049.976.297 1.699-.91 1.905-1.765z" fill="#263238"/><path d="M575.152 86.825c-1.287-.722-2.637 1.906-1.445 2.575 1.174.658 2.524-1.97 1.445-2.575z" fill="#263238"/><path d="M574.516 86.715c-.279.033-.615.18-.871.07-.297-.13-.364-.523-.407-.89-.005-.038-.037-.027-.055.008-.272.495-.374 1.103.059 1.448.395.314.939.05 1.316-.39.068-.08.07-.259-.042-.246zm1.893 10.107c-.295.084-.628.239-.933.105-.293-.129-.552-.434-.755-.672-.02-.023-.06-.01-.057.023.041.421.376.853.784.99.398.135.749-.082 1.018-.368.039-.04-.014-.09-.057-.079zm1.423-2.026c-.816.432-1.666.444-2.437.19a3.82 3.82 0 01-.981-.49 1.098 1.098 0 01-.171-.123c-.053-.04-.101-.075-.156-.123-.084-.064-.092-.168-.059-.261l.004-.005a.444.444 0 01.052-.076l.003-.007.04-.067c.32-.612.89-1.493.89-1.493-.281-.013-1.684-.135-1.49-.44 1.61-2.514 3.401-5.311 5.534-7.474.067-.075.187.018.131.1-1.452 2.478-3.33 4.683-4.828 7.15.434.063 1.158.138 1.469.32.072.073-1.132 1.686-1.254 1.972 0 0-.007.01-.011.03.938.695 1.871.816 3.231.686.082-.013.115.075.033.11z" fill="#263238"/><path d="M591.287 98.822c-2.989-1.6.711-11.381 1.179-12.577-.334.738-2.115 4.64-2.484 4.649-.093-.001-.398-.238-.866-.65l-.007-.004c.212-.436.409-.925.565-1.431.08-.225-.308.424-.832 1.198-.149-.132-.307-.281-.485-.432.429-.818.882-1.87 1.145-3.07.089-.405-.81 1.183-1.859 2.44-1.821-1.594-4.487-3.824-7.275-5.307-.744-.4-1.404-.712-1.997-.968.553-1.138 1.277-2.285 1.066-2.065a12.172 12.172 0 00-1.51 1.879 23.911 23.911 0 00-.897-.36c.709-1.643 2.728-3.83 2.279-3.564-1.728 1.037-2.918 2.428-3.487 3.193-1.199-.325-1.607-.26-1.497-.558.199-.54 3.028-4.723 8.14-6.301 5.557-1.715 13.582 1.103 15.154 8.714 0 0 2.394 4.024 1.133 7.999-1.257 3.968-5.736 8.137-7.465 7.215z" fill="#263238"/><path d="M590.009 98.246s4.356-2.688 5.688-.973c1.333 1.715-3.103 6.422-5.485 6.3-2.381-.123-2.311-2.329-2.311-2.329l2.108-2.998z" fill="#F7A9A0"/><path d="M594.393 98.59c.034.012.021.06-.013.06-1.69-.038-3.023.968-4.151 2.122.658-.347 1.366-.387 1.859.43.026.043-.035.086-.072.06-.535-.381-1.004-.462-1.606-.162-.426.212-.801.552-1.17.85-.123.1-.325-.07-.213-.196l.026-.028c.757-1.851 3.291-3.801 5.34-3.135z" fill="#263238"/><path d="M589.042 102.399a.661.661 0 101.212.534.661.661 0 10-1.212-.534z" fill="#fff"/><path d="M594.763 128.222c-.078 7.155-.655 32.502-6.387 39.521-3.73 4.568-31.89 13.823-39.104 15.316-3.021.626-10.573-20.615-7.279-20.795 2.425-.133 29.758-7.327 32.012-8.33 0 0 6.278-15.829 10.679-26.946 4.355-11.002 10.211-10.77 10.079 1.234z" fill="#F7A9A0"/><path d="M533.327 166.301c1.241-.775.843-1.431-1.742-1.712-2.615-.29-13.056.801-13.125-2.883-.076-3.697 14.726-4.999 18.994-4.201 4.272.788 10.895 3.583 10.895 3.583-2.827.833-9.494 3.508-15.022 5.213z" fill="#F7A9A0"/><path d="M552.164 182.459c-8.052 2.055-17.95 5.103-26.955 2.493-1.766-.512-2.526-1.692-2.526-1.692-4.057-1.098-4.756-3.343-4.756-3.343-3.466-2.18-3.865-4.575-3.865-4.575s-4.749-1.341-4.415-4.346c.365-3.371 6.962-.828 11.446-1.648 10.273-1.88 24.349-7.425 27.258-8.261l3.813 21.372z" fill="#F7A9A0"/><path d="M533.242 174.945c-3.034.493-6.002 1.056-9.087 1.136-3.385.087-6.657-.397-10-.806-.104-.013-.133.131-.032.16 5.935 1.699 13.254 1.455 19.144-.352.142-.044.128-.163-.025-.138zm2.036 6.035c-2.979.316-8.218.837-17.331-1.16-.03-.007-.05.042-.018.053 5.744 2.084 11.413 2.39 17.364 1.249.184-.035.183-.162-.015-.142zm1.033 3.264c-5.086.344-8.336-.082-13.604-1.001-.03-.005-.047.045-.015.055 5.877 1.672 8.198 1.613 13.655 1.119.188-.017.163-.186-.036-.173z" fill="#263238"/><path d="M577.354 140.738l17.974 9.907s.479-22.566-1.253-29.242c-1.949-7.514-5.365-4.874-9.159 1.455-3.794 6.328-7.562 17.88-7.562 17.88z" fill="#A6A6A6"/><path d="M594.558 146.06c-.569-.439-6.122-3.615-7.343-4.278-1.222-.665-6.19-3.427-7.509-4.007-.059-.026-.107.049-.053.087 1.18.814 6.184 3.615 7.414 4.316 1.231.702 6.795 3.722 7.452 3.97.056.02.078-.057.039-.088z" fill="#263238"/><path d="M578.783 141.513a51.972 51.972 0 00-1.349-.831c.717-2.272 5.387-13.424 6.466-16.135.017-.042-.046-.067-.065-.026a394.855 394.855 0 00-2.096 4.489l.157-.606c.19-.719.36-1.442.574-2.155.018-.06-.068-.097-.091-.037-.275.697-.538 1.403-.721 2.13a19.525 19.525 0 00-.309 1.548c-.389.863-.784 1.723-1.152 2.598-1.127 2.682-2.394 5.424-3.31 8.188 0 0 1.142.741 1.843.967.086.028.129-.081.053-.13zm14.807 8.174c.615.255 1.211.543 1.816.817l-.238.13c.011-4.789-.069-11.514.091-16.236.213 1.344.36 2.696.454 4.051a63.337 63.337 0 01-.256 12.473c-.621-.413-1.256-.805-1.867-1.235z" fill="#263238"/><path d="M595.48 139.524c.071-1.143.217-2.141.628-3.215.281 1.091.088 2.321-.628 3.215z" fill="#263238"/><path d="M361.397 53.827c-2.711-1.975-5.571-3.251-8.514-3.82a20.174 20.174 0 00-4.891-.642c-7.546-.075-16.265 3.819-25.31 12.026-10.871 10.405-20.951 26.969-26.13 47.332-5.114 20.084-4.164 39.461.578 53.108 3.316 9.362 7.89 15.799 13.135 19.619l-9.912-7.229c-5.245-3.819-9.828-10.256-13.135-19.619-4.751-13.647-5.692-33.024-.587-53.108 5.18-20.364 15.268-36.927 26.14-47.332 9.036-8.207 17.765-12.092 25.301-12.026 1.695.019 3.326.233 4.891.643 2.944.568 5.813 1.844 8.524 3.819l9.91 7.229z" fill="#7168EE"/><path d="M361.397 53.827c-2.711-1.975-5.571-3.251-8.514-3.82a20.174 20.174 0 00-4.891-.642c-7.546-.075-16.265 3.819-25.31 12.026-10.871 10.405-20.951 26.969-26.13 47.332-5.114 20.084-4.164 39.461.578 53.108 3.316 9.362 7.89 15.799 13.135 19.619l-9.912-7.229c-5.245-3.819-9.828-10.256-13.135-19.619-4.751-13.647-5.692-33.024-.587-53.108 5.18-20.364 15.268-36.927 26.14-47.332 9.036-8.207 17.765-12.092 25.301-12.026 1.695.019 3.326.233 4.891.643 2.944.568 5.813 1.844 8.524 3.819l9.91 7.229z" fill="#000" opacity=".1"/><path d="M406.168 133.662c-6.828 25.683-19.255 47.994-36.079 63.327-13.358 12.52-30.341 21.165-48.19 20.997a53.448 53.448 0 01-11.412-1.341c-7.117-1.621-13.517-4.667-19.143-8.766l-9.912-7.229c5.627 4.099 12.026 7.154 19.143 8.766a53.384 53.384 0 0011.412 1.341c17.849.168 34.831-8.477 48.189-20.997 16.815-15.333 29.242-37.644 36.079-63.327 6.344-26.084 5.934-51.021-1.668-71.907-4.667-13.722-12.651-25.981-23.867-34.151l9.921 7.229c11.207 8.17 19.19 20.42 23.857 34.151 7.604 20.886 8.014 45.814 1.67 71.907z" fill="#7168EE"/><path d="M406.168 133.662c-6.828 25.683-19.255 47.994-36.079 63.327-13.358 12.52-30.341 21.165-48.19 20.997a53.448 53.448 0 01-11.412-1.341c-7.117-1.621-13.517-4.667-19.143-8.766l-9.912-7.229c5.627 4.099 12.026 7.154 19.143 8.766a53.384 53.384 0 0011.412 1.341c17.849.168 34.831-8.477 48.189-20.997 16.815-15.333 29.242-37.644 36.079-63.327 6.344-26.084 5.934-51.021-1.668-71.907-4.667-13.722-12.651-25.981-23.867-34.151l9.921 7.229c11.207 8.17 19.19 20.42 23.857 34.151 7.604 20.886 8.014 45.814 1.67 71.907z" fill="#000" opacity=".1"/><path d="M394.584 54.524c7.603 20.886 8.015 45.822 1.671 71.91-6.834 25.686-19.261 47.995-36.078 63.327-13.362 12.524-30.341 21.169-48.19 20.998a53.55 53.55 0 01-11.413-1.338c-21.372-4.862-36.234-22.604-43.356-43.08-7.328-20.818-7.945-46.103-1.396-71.85 6.628-26.026 19.261-47.994 35.802-63.387 13.418-12.755 30.546-21.201 48.135-21.033 3.721.036 7.461.457 11.193 1.304 21.924 4.992 36.58 22.392 43.632 43.149zm-29.137 64.902c5.179-20.366 4.163-39.457-.507-53.39-5.307-13.78-13.305-21.578-21.976-23.253a19.966 19.966 0 00-4.889-.644c-7.543-.073-16.265 3.817-25.307 12.027-10.872 10.4-20.955 26.967-26.134 47.332-5.11 20.085-4.163 39.457.585 53.108 4.946 13.992 12.737 21.45 21.339 23.413a22.13 22.13 0 004.7.54c7.699.074 16.703-3.604 26.133-12.084 10.793-10.118 20.946-26.965 26.056-47.049z" fill="#7168EE"/><path d="M327.066 373.243c-2.035.691-60.356.818-62.578-.589-.854-.52-1.367-9.017-1.694-19.302l-.007-.322c-.072-2.119-2.967-37.041-2.967-37.041l37.986.461 2.605 36.078-.013.638s22.345 9.936 24.627 11.741c2.264 1.798 4.077 7.654 2.041 8.336z" fill="#D3766A"/><path d="M327.063 373.244c-2.035.695-60.351.818-62.577-.593-.727-.439-1.215-6.709-1.538-14.928 9.166 1.519 53.325 8.662 54.341 4.974.21-.779-.802-1.82-2.14-2.806 4.703 2.209 8.947 4.278 9.879 5.013 2.259 1.802 4.071 7.654 2.035 8.34zM201.277 180.689s48.651 76.258 49.739 81.569c1.672 8.161 9.881 89.852 9.881 89.852l41.766-.058s-8.104-72.189-15.194-95.642c-5.107-16.893-43.158-73.312-43.158-73.312l-43.034-2.409z" fill="#263238"/><path d="M299.829 344.863c-6.324-.169-28.73-.86-37.164-.199-.064.005-.064.116-.001.127 2.889.491 30.838.345 37.164.254.119-.001.12-.179.001-.182z" fill="#37474F"/><path d="M236.543 385.331c-2.148.065-57.955-16.874-59.668-18.869-.664-.747 1.33-9.022 4.027-18.953l.088-.31c.551-2.047 14.453-32.902 14.453-32.902l36.19 11.553-14.517 31.876-.199.607s18.461 16.038 20.115 18.431c1.637 2.38 1.658 8.51-.489 8.567z" fill="#D3766A"/><path d="M236.541 385.33c-2.15.069-57.95-16.873-59.665-18.873-.567-.632.801-6.771 2.896-14.725 8.32 4.134 48.458 23.882 50.509 20.654.429-.684-.234-1.975-1.226-3.309 3.851 3.488 7.304 6.708 7.98 7.683 1.633 2.384 1.653 8.51-.494 8.57zm-17.125-26.324l-41.197-11.628s43.055-85.515 42.833-90.908c-.197-4.778-28.173-47.168-29.618-55.034-2.366-12.874 4.095-24.216 10.283-31.201l42.594 12.862s-3.546 7.342-9.896 11.905c0 0 26.079 45.428 26.495 60.225.418 14.88-41.494 103.779-41.494 103.779z" fill="#263238"/><path d="M220.225 351.57c-5.974-1.831-4.234-1.39-10.228-3.154-2.933-.863-22.214-6.518-25.091-6.843-.064-.007-.093.095-.035.122 2.619 1.235 21.995 6.553 24.944 7.36 6.027 1.648 4.314 1.109 10.359 2.69.114.03.163-.141.051-.175zm20.796-158.17c-4.141 1.374-8.138 3.326-11.959 5.372-.15.08-.051.305.112.238 4.029-1.669 8.137-3.265 12.065-5.146.308-.148.099-.57-.218-.464z" fill="#37474F"/><path d="M236.009 192.251a18.156 18.156 0 00-.807 2.295c-.172.604-.406 1.256-.335 1.886.014.122.182.134.249.051.422-.516.599-1.223.835-1.835.273-.71.562-1.414.814-2.131.167-.476-.556-.724-.756-.266z" fill="#37474F"/><path d="M236.085 188.37c.182-.654.364-1.307.56-1.956.202-.672.45-1.34.6-2.026.024-.108.196-.056.166.054-.18.654-.27 1.341-.399 2.008-.13.67-.271 1.336-.415 2.003a39.38 39.38 0 01-1.015 3.695c.665-.081 1.347-.186 1.919-.553.621-.399.943-1.141 1.198-1.807.283-.74.535-1.492.828-2.227.325-.814.693-1.623.872-2.485.023-.109.192-.056.166.053-.425 1.786-.841 3.568-1.621 5.256-.307.663-.539 1.344-1.203 1.663-.713.342-1.529.379-2.306.408-.092.037-.222-.011-.202-.13.225-1.32.494-2.664.852-3.956zm-.866 8.118c1.575 2.969 3.386 5.825 5.072 8.734a248.426 248.426 0 014.747 8.633 239.413 239.413 0 018.55 17.986 195.31 195.31 0 013.629 9.158c1.134 3.091 2.254 6.216 2.937 9.444.685 3.237.805 6.499.238 9.764-.575 3.312-1.637 6.519-2.704 9.699-2.435 7.259-5.115 14.446-8.481 21.327-.112.229-.493.046-.404-.191 2.377-6.339 4.841-12.654 6.992-19.076 2.087-6.23 4.541-12.681 3.579-19.355-.464-3.221-1.475-6.331-2.548-9.392a183.876 183.876 0 00-3.546-9.277c-2.488-6.031-5.301-11.901-8.176-17.755-1.61-3.279-3.307-6.515-4.935-9.785-1.64-3.295-3.24-6.656-5.095-9.836-.053-.093.096-.172.145-.078zm-31.064-6.862c.777-.117 1.906.175 5.267.006.929-.047 1.854-.209 2.764-.398.909-.189 1.835-.406 2.579-.992 1.255-.987 2.22-2.59 2.993-3.965.849-1.51 1.715-3.235 2.135-4.924.026-.104.176-.051.156.05-.194.979-.31 1.956-.588 2.923-.26.909-.629 1.79-1.029 2.645-.747 1.597-1.616 3.309-3.079 4.37-1.535 1.113-3.651 1.287-5.488 1.381-1.063.054-5.223-.134-5.771-.739-.099-.107-.087-.335.061-.357z" fill="#37474F"/><path d="M186.758 340.46c4.708-11.666 29.978-63.25 34.94-74.029 1.187-2.578 2.6-5.178 3.241-7.96.698-3.025-.187-5.784-1.418-8.534-2.258-5.044-4.915-9.902-7.729-14.655-2.823-4.767-5.811-9.432-8.761-14.12-2.926-4.649-6.008-9.299-8.384-14.261-2.27-4.74-3.486-9.78-2.715-15.038.765-5.216 3.122-10.082 5.637-14.658.664-1.207 1.343-2.406 2.01-3.611.051-.092.191-.003.138.089-2.8 4.79-5.49 9.829-6.847 15.243-.671 2.675-.992 5.449-.753 8.202.242 2.793 1.067 5.501 2.178 8.066 2.159 4.987 5.213 9.599 8.09 14.191 2.942 4.695 5.944 9.352 8.804 14.098 2.877 4.774 5.613 9.642 7.976 14.693 1.052 2.249 2.207 4.596 2.428 7.106.241 2.748-.798 5.359-1.901 7.818-4.804 10.707-36.01 76.196-36.692 77.516-.086.163-.311.014-.242-.156z" fill="#37474F"/><path d="M252.222 100.652s8.114-4.421 15.324 0c7.21 4.421 10.642 15.315 9.406 24.458-1.235 9.142 6.325 15.179 7.143 21.971.818 6.792-3.706 9.933-5.225 13.497-1.739 4.08 5.225 18.575-12.498 21.936-22.163 4.203-30.643-9.231-28.382-20.34 1.108-5.441 4.213-9.308 4.156-13.71-.057-4.402-3.214-7.911-1.567-13.493 1.647-5.582 3.828-4.823 4.728-13.588.899-8.764-.932-19.241 6.915-20.731z" fill="#263238"/><path d="M266.014 100.443c4.8 3.084 8.384 7.403 10.479 12.427a24.774 24.774 0 011.878 7.953c.228 3.572-.327 6.915 1.022 10.382 2.16 5.552 6.479 10.185 6.274 16.368a15.153 15.153 0 01-2.665 8.069c-1.916 2.794-4.644 4.998-6.247 7.99-.066.124-.262.015-.2-.107 1.336-2.66 3.503-4.691 5.306-7.071 2.158-2.848 3.377-6.235 3.276-9.721-.171-5.878-4.431-10.397-6.421-15.755-.901-2.425-.958-4.775-.878-7.316.094-3.004-.231-5.95-1.15-8.842-1.812-5.705-5.674-10.633-10.736-14.303-.046-.033.014-.105.062-.074zm9.325 66.763a.02.02 0 010 .039c-.027 0-.027-.039 0-.039zM238.07 160.6c.558-2.628 1.952-5.011 2.508-7.629.669-3.153-.139-6.294-.749-9.39-.871-4.416-.772-8.588 1.206-12.747 1.279-2.689 2.838-5.205 3.788-8.035a32.682 32.682 0 001.692-9.492c.002-.071.115-.07.116.001.034 4.734-.865 9.219-2.965 13.541-1.207 2.484-2.712 4.816-3.406 7.496-.836 3.223-.51 6.335.061 9.567.38 2.153.841 4.336.823 6.53-.018 2.282-.748 4.304-1.567 6.434-2.12 5.518-2.087 11.172.098 16.666.038.095-.133.162-.175.068-1.813-4.118-2.363-8.619-1.43-13.01z" fill="#263238"/><path d="M284.691 146.295c-.197-4.842-3.62-8.13-5.697-12.327-1.57-3.172-2.637-6.557-2.116-10.052.009-.057.112-.044.109.014-.267 5.059 1.887 9.644 4.728 13.879 1.888 2.816 3.451 5.522 3.468 8.912.017 3.319-1.329 6.117-3.248 8.864-1.368 1.958-2.713 3.784-3.292 6.098-.575 2.301-.447 4.72-.333 7.057.006.122-.195.12-.206 0-.326-3.626-.379-7.144 1.472-10.455 2.275-4.068 5.315-7.071 5.115-11.99zm-47.472 10.869c.74-1.662 1.78-3.177 2.823-4.689 1.879-2.722 2.193-4.931 1.567-8.164-.014-.074.099-.105.124-.031.901 2.662 1.115 4.875-.487 7.327-2.235 3.422-4.424 6.54-4.884 10.626-.816 7.251 3.34 14.013 10.075 17.682.095.052.011.183-.087.136-5.653-2.745-9.616-7.708-10.441-13.563a17.102 17.102 0 011.31-9.324z" fill="#263238"/><path d="M243.737 129.503c-.221.895.948 8.032 4.689 9.725 1.22.549 4.515-5.974 4.515-5.974l.354-.426 4.942-5.966-5.321-9.111-.8-1.255s-1.244 1.722-2.772 3.88c-.072.1-.143.2-.218.308-.09.12-.176.232-.254.347-.233.32-.468.647-.697.978-.174.251-.346.495-.519.765-.182.267-.352.53-.534.796-1.731 2.67-3.286 5.555-3.385 5.933z" fill="#D3766A"/><path d="M249.343 120.376c-.805 6.344 2.361 10.713 3.952 12.452l4.942-5.966-5.321-9.111-.8-1.255s-1.245 1.722-2.773 3.88z" fill="#263238"/><path d="M272.909 117.249c-.868 13.568-9.067 14.718-12.018 14.39-2.645-.294-11.677-1.099-12.215-14.684-.538-13.585 6.044-17.471 12.139-17.396 6.095.073 12.962 4.122 12.094 17.69z" fill="#D3766A"/><path d="M272.187 113.992c-.315-.063-.595-.173-.9-.267-.344-.106-.629-.155-.866-.447-.127-.156-.092-.451.048-.589.327-.321.781-.296 1.201-.185.455.12.775.33 1.052.71.268.369-.119.86-.535.778zm-8.789-.224c.321-.011.615-.076.932-.12.357-.05.646-.053.926-.303.15-.134.163-.43.046-.589-.272-.369-.724-.416-1.156-.374-.469.046-.818.202-1.152.533-.323.321-.02.868.404.853zm1.729 3.496c-.005-.036-.075.039-.076.077-.023.926-.205 1.982-1.059 2.242-.026.008-.026.054.005.052 1.029-.085 1.257-1.49 1.13-2.371z" fill="#263238"/><path d="M264.357 116.252c-1.48-.197-1.766 2.777-.395 2.96 1.35.18 1.635-2.795.395-2.96z" fill="#263238"/><path d="M263.758 116.353c-.276.143-.559.416-.875.417-.366.001-.61-.337-.818-.659-.022-.034-.05-.01-.054.029-.063.569.1 1.175.702 1.319.55.131.999-.335 1.196-.895.037-.103-.041-.269-.151-.211zm6.371.873c.011-.034.067.051.062.089-.125.918-.113 1.99.688 2.382.025.012.017.058-.013.051-1.001-.249-1.002-1.672-.737-2.522z" fill="#263238"/><path d="M271.052 116.35c1.492.041 1.3 3.024-.083 2.985-1.361-.037-1.169-3.019.083-2.985z" fill="#263238"/><path d="M271.661 116.587c.226.173.44.475.72.512.325.042.587-.264.815-.56.024-.031.046-.004.044.035-.021.571-.248 1.153-.802 1.227-.506.068-.841-.445-.94-1.022-.019-.107.072-.262.163-.192zm-7.232 7.789c.189.246.366.572.695.648.315.072.71-.019 1.018-.091.03-.007.055.028.033.053-.288.318-.82.467-1.234.332-.404-.132-.559-.519-.606-.913-.007-.055.066-.064.094-.029zm4.137-3.009s.074 1.394.02 2.044c-.005.061-.165.076-.387.071-.011.002-.017.006-.026-.001-1.163.083-2.285-.411-2.903-1.406-.04-.068.048-.127.104-.082.804.701 1.737.943 2.753 1.046.061-.176-.207-2.383-.103-2.382.358-.001 1.037.3 1.448.458-.071-2.908-.607-5.78-.634-8.677.001-.104.151-.122.173-.028.775 2.971.93 6.315 1.08 9.316.023.374-1.274-.227-1.525-.359z" fill="#263238"/><path d="M268.188 122.978s-.614.884-1.482 1.223c-.32.126-.666.182-1.034.096-.756-.174-.795-.861-.676-1.454.097-.488.309-.911.309-.911s1.125.991 2.883 1.046z" fill="#263238"/><path d="M266.706 124.201c-.32.126-.666.182-1.034.096-.756-.174-.795-.861-.676-1.454.806.058 1.618.579 1.71 1.358z" fill="#FF99BA"/><path d="M249.044 117.124c1.489.08 5.801-3.551 6.731-10.678 0 0-1.277 6.343-1.866 7.227-.589.884 2.413-2.045 3.242-7.783 0 0 2.928 2.665 5.561 3.736 2.633 1.071 4.3 1.235 4.516 1.06.217-.175-3.642-1.89-4.582-3.261 0 0 6.852 4.185 10.157 4.818.382.074.826-6.26-3.946-10.212s-12.434-2.792-14.871-.921c0 0-2.62.074-5.856 3.569-3.234 3.496-.689 12.359.914 12.445z" fill="#263238"/><path d="M251.354 117.456s-2.894-4.294-4.838-3.268c-1.943 1.025.182 7.214 2.429 8.094 2.246.88 3.101-1.183 3.101-1.183l-.692-3.643z" fill="#D3766A"/><path d="M247.17 115.946c-.036-.004-.044.047-.013.06 1.574.669 2.383 2.153 2.941 3.687-.461-.595-1.098-.927-1.893-.379-.042.029-.003.094.042.085.651-.128 1.118-.007 1.548.52.304.373.509.843.724 1.271.072.143.329.071.278-.093l-.012-.037c.074-2.019-1.449-4.874-3.615-5.114z" fill="#263238"/><path d="M249.065 174.405l-3.379 10.745-45.318-15.51s20.051-32.363 36.73-39.322c8.342-3.48 14.666-.023 16.885 6.115.562 1.553 5.333 21.998 3.738 28.953-1.422 6.132-8.656 9.019-8.656 9.019z" fill="#455A64"/><path d="M242.654 139.838c-2.949 7.44-11.14 37.615-4.715 46.016 7.784 10.178 21.828 19.344 26.887 23.601 1.268 1.067 14.205-19.533 10.896-21.76-5.139-3.457-16.971-11.362-17.807-12.395-1.452-1.793-3.194-22.221-4.493-33.333-1.17-10.01-9.03-6.513-10.768-2.129z" fill="#D3766A"/><path d="M284.346 199.079c-.77-1.272-.108-1.685 2.365-.754 2.505.936 11.477 6.712 13.228 3.402 1.764-3.319-11.067-11.286-15.305-12.519-4.236-1.244-11.527-1.744-11.527-1.744 2.185 2.051 7.007 7.534 11.239 11.615z" fill="#D3766A"/><path d="M259.85 205.102c6.362 5.555 13.945 12.859 23.31 14.62 1.837.345 3.067-.377 3.067-.377 4.184.863 5.848-.852 5.848-.852 4.143-.389 5.604-2.378 5.604-2.378s4.923.96 5.997-1.919c1.215-3.225-5.937-3.943-9.628-6.742-8.458-6.415-18.685-17.898-20.941-19.991l-13.257 17.639z" fill="#D3766A"/><path d="M280.46 206.96c2.527 1.838 4.961 3.71 7.723 5.196 3.031 1.631 6.221 2.692 9.442 3.853.1.036.061.18-.044.16-6.163-1.179-12.69-4.756-17.206-9.096-.109-.105-.042-.206.085-.113zm-4.613 4.542c2.558 1.652 7.072 4.527 16.254 6.892.03.008.026.061-.008.057-6.166-.742-11.45-3.064-16.325-6.827-.151-.117-.091-.232.079-.122zm-2.434 2.487c4.456 2.644 7.6 3.747 12.8 5.329.029.009.022.063-.012.056-6.098-1.178-8.177-2.296-12.901-5.244-.161-.102-.061-.244.113-.141z" fill="#263238"/><path d="M270.499 184.061l-11.48 22.794s-19.015-13.173-22.781-22.105c-3.766-8.932.956-29.912 4.628-41.206 3.672-11.293 12.088-15.145 13.688 3.459 1.601 18.604 3.202 26.8 3.755 27.688.554.888 12.19 9.37 12.19 9.37z" fill="#455A64"/><path d="M242.754 193.451c-.214-.751-5.326-4.803-7.235-11.629-.831-2.973-.459-11.641.35-16.983.31-2.046.812-4.06 1.25-6.082.884-4.08 1.855-8.156 2.47-12.286.008-.052-.061-.063-.077-.016-.87 2.533-1.579 5.125-2.2 7.737l-.021-.444c-.059-1.271-.164-2.549-.096-3.821.005-.091-.142-.085-.143.008-.019 1.261-.168 2.518-.223 3.777a22.7 22.7 0 00-.03 1.826c.008.229.017.478.035.729-.177.812-.352 1.624-.513 2.437-.411 2.068-.702 4.154-1.073 6.229-1.023 5.715-1.48 13.394-.426 17.544 1.783 7.018 7.661 10.682 7.79 10.963.043.093.171.113.142.011zm12.722 9.682c1.074-1.634 1.924-3.432 2.829-5.164.892-1.707 1.773-3.42 2.642-5.139 1.754-3.468 3.605-6.92 5.131-10.497.036-.084-.075-.149-.125-.07-2.104 3.307-3.874 6.848-5.664 10.331a225.259 225.259 0 00-2.622 5.28c-.819 1.704-1.706 3.415-2.329 5.203-.031.086.094.123.138.056z" fill="#263238"/><path d="M420.477 221.685s-7.089 1.03-9.737 6.35c-2.648 5.32-14.927 33.531-17.394 39.036-2.467 5.505-23.433 30.681-23.433 30.681s6.901 9.306 8.994 11.293c2.913 2.767 14.001 7.891 14.001 7.891s14.357-39.617 15.728-43.733c1.371-4.114 11.841-51.518 11.841-51.518z" fill="#7168EE"/><path d="M392.926 286.372c-1.022-.256-2.039.222-2.926 1.013-1.353.884-2.523 2.316-3.125 3.419-.414.745-.864 1.959.138 2.453 1.065.525 2.606-.643 3.403-1.229.825-.61 5.187-4.983 2.51-5.656zm-11.192.505c-1.546.073-2.662 1.769-3.279 3.003-.406.81-.926 2.035-1.033 3.176-.102.671-.085 1.313.184 1.768.813 1.376 2.083-.115 2.758-.831 1.253-1.323 2.346-2.878 2.716-4.694.215-1.106.086-2.485-1.346-2.422zm11.99-8.404c-.657-.638-1.487-.387-2.251.191-.999.657-1.922 1.812-2.289 2.431-.343.585-.932 1.601-.507 2.297.424.709 1.384.423 1.962.103 1.062-.596 4.54-3.6 3.085-5.022zm-13.38 31.701c-.578-.401-1.071-.783-1.435-1.127a11.854 11.854 0 01-.727-.755l.242-.028c.95-.14 1.798.047 2.068.922.113.364.048.69-.148.988zm-5.766-6.298a293.427 293.427 0 01-3.931-5.133c.056-.438.13-.876.242-1.304.13-.503.317-1.09.605-1.602.009-.009.009-.019.019-.028.177-.307.401-.587.661-.792 0 0 .009-.019.019-.019a1.705 1.705 0 011.081-.373c1.891.009 1.956 2.562 2.068 3.885.149 1.808.093 3.727-.764 5.366zm4.396-4.552c-.948 2.553-.456 4.303.268 4.472 1.434.33 2.624-1.645 3.237-3.295.479-1.289.746-3.843-.187-4.292-.769-.367-2.44.748-3.318 3.115zm35.409-50.354c-.121.512-.233 1.015-.354 1.528-.13-.475.084-1.062.354-1.528zm-4.7-4.56c-1.547-.027-2.771 1.593-3.467 2.784-.457.782-1.056 1.97-1.237 3.102-.145.664-.17 1.304.069 1.776.722 1.426 2.086.02 2.806-.651 1.336-1.239 2.528-2.72 3.014-4.509.287-1.087.247-2.472-1.185-2.502zm7.682-8.714c-.307 1.369-.633 2.804-.959 4.276-.447.065-.885-.037-1.109-.475-.382-.727.27-1.695.652-2.264.27-.392.791-.997 1.416-1.537zm-11.242 20.956c-1.111 2.487-.733 4.265-.022 4.48 1.409.422 2.725-1.471 3.444-3.078.561-1.255.993-3.787.091-4.295-.745-.416-2.484.588-3.513 2.893zm-9.049 9.477c-.938-.06-1.611.714-2.029 1.649a7.221 7.221 0 00-.683 2.171c-.062.485-.004 1.165.626 1.21.668.047 1.328-.783 1.645-1.259.409-.613 2.297-3.655.441-3.771z" fill="#263238"/><path d="M319.095 373.461c-1.956-.653-.219-6.299 1.958-8.043.692-.553 3.259-1.86 6.477-3.412 7.086-3.408 17.273-7.961 17.273-7.961l-8.683-36.77 35.372.192s9.659 34.535 9.601 36.682l-.009.398c-.303 9.746-.785 17.725-1.587 18.226-2.144 1.358-58.434 1.348-60.402.688z" fill="#D3766A"/><path d="M319.094 373.459c1.97.663 58.262.674 60.405-.686.8-.501 1.283-8.477 1.588-18.225 0-.131.006-.269.006-.4.012-.46-.418-2.4-1.104-5.164H343.61l1.194 5.062s-10.19 4.555-17.275 7.957c-3.217 1.552-5.784 2.859-6.477 3.414-2.179 1.744-3.91 7.391-1.958 8.042z" fill="#EBEBEB"/><path d="M318.461 373.776c2.003.673 59.32.607 61.499-.783.837-.514 1.315-8.866 1.602-18.975l.006-.317-36.979-.37.015.628s-21.928 9.838-24.165 11.619c-2.219 1.773-3.982 7.534-1.978 8.198z" fill="#7168EE"/><path d="M319.107 371.553c9.662-.248 48.654-.338 58.223.151.078.004.078.057 0 .061-9.571.455-48.563.229-58.224-.053-.203-.007-.203-.154.001-.159zm21.365-18.112c3.801-.714 8.452-.136 11.36 2.57.113.105-.038.263-.161.225-3.752-1.178-7.256-1.933-11.183-2.315-.277-.026-.288-.429-.016-.48zm-2.742 1.658c3.801-.714 8.452-.136 11.36 2.57.113.105-.038.264-.161.225-3.753-1.178-7.256-1.933-11.183-2.314-.277-.028-.289-.43-.016-.481zm-2.743 1.656c3.802-.714 8.452-.136 11.361 2.57.113.105-.038.263-.161.225-3.752-1.178-7.256-1.933-11.183-2.314-.278-.027-.289-.429-.017-.481z" fill="#263238"/><path d="M337.229 350.567c2.692 2.088 6.193 2.938 9.334 4.097.326.12.585-.186.596-.476.062-.012.115-.059.089-.137-1.039-3.175-3.293-6.546-5.865-8.703-1.589-1.332-4.372-2.254-5.864-.195-1.411 1.949.138 4.195 1.71 5.414zm-.972-3.058c-.675-4.171 3.806-1.985 4.938-.957.727.661 1.388 1.422 2.017 2.175 1.319 1.578 2.389 3.313 3.537 5.007-1.508-.664-3.059-1.193-4.59-1.8-1.823-.725-5.53-2.125-5.902-4.425z" fill="#263238"/><path d="M359.934 348.244c-.922-2.37-3.848-2.182-5.722-1.295-3.035 1.435-6.068 4.127-7.877 6.935-.044.069-.006.128.052.155-.063.282.111.645.456.611 3.332-.327 6.935-.263 10.067-1.602 1.829-.782 3.896-2.563 3.024-4.804zm-8.14 4.878c-1.635.201-3.27.319-4.897.58 1.54-1.349 3.014-2.757 4.689-3.949.8-.569 1.632-1.138 2.502-1.594 1.355-.708 6.243-1.689 4.535 2.176-.941 2.131-4.881 2.548-6.829 2.787z" fill="#263238"/><path d="M420.783 292.765s6.341 22.953-4.728 29.746c-7.39 4.536-40.048-1.737-41.438-5.773-2.625-7.625-2.63-10.421-2.63-10.421l8.386 40.432-41.142.482s-7.721-33.449-5.737-68.95c.733-13.126 18.377-17.098 30.652-10.568 11.901 6.331 33.213 23.904 33.213 23.904l23.424 1.148z" fill="#37474F"/><path d="M376.903 323.056c-2.216-5.426-2.044-7.556-7.581-24.397-.74-2.251-1.359-4.54-2.021-6.815-.686-2.359-1.498-4.709-2.017-7.112-.025-.117-.215-.069-.18.046.639 2.082 1.054 4.231 1.604 6.338a355.573 355.573 0 001.663 6.174c.249.886.509 1.77.762 2.655-.112-.184-.223-.366-.328-.546-.483-.831-.969-1.658-1.473-2.477-1.037-1.686-2.294-3.272-3.203-5.031-.055-.107-.225-.011-.162.091 1.046 1.682 1.789 3.551 2.769 5.274.475.836.973 1.655 1.483 2.471.45.72.903 1.538 1.478 2.184.755 2.6 2.378 8.862 3.186 11.447 2.545 8.142 1.711 5.492 3.608 9.863.1.228.507.069.412-.165zm-18.74 17.012c6.193-.065 12.377-.416 18.568-.534.118-.002.135-.185.015-.185-6.172-.036-12.337-.277-18.51-.203-6.196.074-12.374.379-18.564.587-.158.005-.184.25-.02.25 6.171.012 12.338.15 18.511.085zm15.179-2.069c-.566-2.734-1.357-5.423-2.08-8.119a1039.16 1039.16 0 00-2.193-8.091c-1.491-5.388-3.046-10.758-4.596-16.129-.88-3.049-1.831-6.083-2.766-9.116-.027-.086-.161-.055-.138.034a904.194 904.194 0 008.896 32.332c.896 3.042 1.711 6.126 2.78 9.112.022.06.111.041.097-.023z" fill="#263238"/><path d="M416.058 322.509c11.067-6.792 4.728-29.744 4.728-29.744l-19.741-.964-26.874 23.617c.141.423.288.864.447 1.323 1.387 4.033 34.048 10.307 41.44 5.768zm-77.03 23.793c.129.611.206.929.206.929l41.141-.482-6.451-31.114-34.896 30.667z" fill="#263238"/><path d="M505.045 377.702c.37 2.029-5.414 3.226-7.992 2.158-.818-.34-3.2-1.96-6.11-4.033-6.399-4.569-15.296-11.304-15.296-11.304l-30.231 1.828-16.868-31.092s27.802-1.607 29.712-2.589l.353-.184c8.687-4.429 15.912-7.849 16.737-7.387 2.223 1.224 29.325 50.56 29.695 52.603z" fill="#D3766A"/><path d="M452.954 333.47l15.905 31.466 6.79-.413s8.898 6.731 15.298 11.303c2.909 2.069 5.284 3.69 6.106 4.034 2.576 1.072 8.361-.132 7.992-2.16-.371-2.044-27.473-51.376-29.696-52.603-.821-.458-8.054 2.959-16.736 7.39-.122.058-.236.122-.35.179-.471.244-2.503.524-5.309.804z" fill="#EBEBEB"/><path d="M505.626 378.106c-.375-2.079-28.039-52.278-30.306-53.518-.854-.487-8.403 3.118-17.4 7.735l-.28.147 17.486 32.585.543-.315s19.183 14.479 21.821 15.581c2.622 1.09 8.52-.14 8.136-2.215z" fill="#7168EE"/><path d="M503.367 378.61c-4.871-8.348-23.73-42.476-27.911-51.098-.034-.07.012-.096.053-.029 5.009 8.169 23.59 42.449 27.996 51.051.094.182-.035.253-.138.076zm-26.163-10c-2.457-2.988-4.19-7.342-3.219-11.194.038-.149.249-.094.275.033.775 3.856 1.801 7.29 3.358 10.916.109.255-.238.459-.414.245zm2.773 1.605c-2.457-2.987-4.19-7.342-3.219-11.194.037-.149.249-.094.275.033.775 3.856 1.801 7.29 3.358 10.915.109.256-.238.46-.414.246zm2.773 1.605c-2.457-2.988-4.19-7.342-3.219-11.194.038-.149.249-.094.275.033.775 3.856 1.801 7.29 3.358 10.915.11.257-.238.46-.414.246z" fill="#263238"/><path d="M476.248 372.836c.534-3.365-.408-6.842-.905-10.153-.052-.343-.445-.423-.704-.293-.04-.049-.107-.072-.163-.012-2.282 2.44-4.151 6.038-4.802 9.332-.402 2.034.13 4.917 2.653 5.232 2.387.299 3.609-2.141 3.921-4.106zm-2.213 2.325c-3.33 2.6-3.573-2.379-3.217-3.867.229-.956.578-1.901.934-2.815.747-1.916 1.753-3.689 2.685-5.512.144 1.642.428 3.256.633 4.89.244 1.948.801 5.87-1.035 7.304z" fill="#263238"/><path d="M463.276 354.057c-1.633 1.949-.059 4.423 1.621 5.638 2.72 1.968 6.539 3.33 9.872 3.562.082.006.115-.057.111-.12.278-.081.512-.407.316-.694-1.891-2.763-3.57-5.951-6.253-8.05-1.567-1.225-4.123-2.18-5.667-.336zm8.195 4.785c.963 1.336 1.855 2.712 2.867 4.012-1.924-.7-3.867-1.314-5.719-2.207-.884-.427-1.784-.882-2.602-1.425-1.273-.846-4.487-4.658-.278-5.022 2.321-.202 4.584 3.05 5.732 4.642z" fill="#263238"/><path d="M394.755 287.148s-1.047 9.545-.952 16.85c0 0-39.08 20.481-40.864 39.949-.632 6.896.289 19.815 13.809 25.702 15.108 6.579 98.599 2.049 98.599 2.049l-10.43-38.44-36.824.015s25.984 4.133 28.807-13.182c2.624-16.094-7.262-32.944-7.262-32.944h-44.883v.001z" fill="#37474F"/><path d="M456.724 369.817c-.921-4.428-1.811-8.879-2.838-13.284a448.917 448.917 0 00-3.287-13.193c-.328-1.237-.667-2.469-1.001-3.704a81.94 81.94 0 00-.491-1.761c-.173-.59-.308-1.202-.538-1.767-.026-.064-.096-.027-.09.033.105 1.126.422 2.292.662 3.399.232 1.069.454 2.14.688 3.208.482 2.197.972 4.391 1.476 6.583 1.01 4.394 2.129 8.748 3.271 13.104.649 2.474 1.3 4.948 1.959 7.418.037.141.22.111.189-.036zm-25.918-36.549c-2.984-.214-5.973-.31-8.962-.37-2.99-.061-5.981-.029-8.972.023-2.99.097-5.981.215-8.963.483-2.979.272-5.965.602-8.881 1.282l2.222-.288 2.229-.212a109.09 109.09 0 014.464-.316c2.978-.171 5.96-.293 8.945-.342 2.983-.103 5.969-.126 8.955-.165l8.963-.095z" fill="#263238"/><path d="M431.458 290.301a107.885 107.885 0 013.473 10.457c.969 3.539 1.744 7.138 2.128 10.775.183 1.817.257 3.648.115 5.458-.146 1.802-.504 3.609-1.327 5.187a7.305 7.305 0 01-1.593 2.082 13.108 13.108 0 01-2.191 1.539c-1.572.874-3.28 1.51-5.023 2.02-3.5 1.004-7.138 1.524-10.776 1.956-3.643.422-7.307.719-10.971 1.093-3.662.375-7.338.814-10.952 1.703-1.794.448-3.61 1.024-5.262 1.94a24.784 24.784 0 00-4.577 3.243l-.827.737 1.117-.015 29.776-.402 14.889-.12c4.963-.019 9.926-.028 14.888.105-4.957-.289-9.923-.365-14.887-.454-4.964-.083-9.929-.098-14.893-.113l-14.893.011-14.892.14.289.721a24.056 24.056 0 014.417-3.102c1.573-.866 3.297-1.405 5.067-1.839 3.538-.849 7.189-1.267 10.833-1.671 3.65-.39 7.316-.705 10.977-1.147 3.656-.452 7.325-.992 10.897-2.035 1.781-.526 3.539-1.192 5.168-2.136a13.784 13.784 0 002.29-1.66 7.94 7.94 0 001.711-2.296c.859-1.709 1.196-3.593 1.322-5.444.12-1.86.018-3.717-.192-5.554-.424-3.677-1.308-7.271-2.354-10.8a97.252 97.252 0 00-3.747-10.379zm-32.446-3.557c-.001-.082-.136-.091-.146-.008-.153 1.332-.619 8.936-.85 11.801-.082 1.021-.026 2.84-1.514 2.839-1.178-.001-1.764-1.285-1.895-2.284-.159-1.217.493-10.043.644-12.982.004-.084-.131-.088-.146-.008-.542 2.943-1.591 12.306-1.279 13.618.245 1.029.774 2.006 1.821 2.353.021.007-.169 1.376.05 3.469.01.096.308.122.331.045l.007.002c-.051-.688.314-3.355.304-3.37.772-.002 1.377-.174 1.894-.864 1.033-1.376.806-11.224.779-14.611z" fill="#263238"/><path d="M403.235 309.296c-1.065-.734-2.167-1.403-3.276-2.059a80.633 80.633 0 00-3.374-1.886c-1.143-.595-2.289-1.185-3.464-1.718-1.172-.539-2.353-1.061-3.573-1.49.553.336 1.121.638 1.675.969l1.687.938c1.122.63 2.257 1.233 3.392 1.838 1.141.593 2.278 1.195 3.436 1.758l1.735.849c.588.264 1.166.548 1.762.801zm27.737-6.113c-2.074-.008-8.537.37-11.619-2.233-2.493-2.106-3.589-9.295-4.019-11.269-.021-.098-.163-.065-.166.027-.066 2.212.25 4.466.836 6.599.501 1.821 1.175 3.854 2.646 5.13 1.548 1.343 3.65 1.815 5.631 2.059 2.237.276 4.467.21 6.695-.093.139-.018.141-.219-.004-.22zm3.758-81.188c1.4.803 3.199.82 4.561-.097 1.337-.903 2.007-2.545 1.813-4.122 1.553.759 3.41.754 4.695-.625 1.329-1.427 1.195-3.462.03-4.928-.009-.011-.028.001-.021.013.915 1.449 1.015 3.392-.229 4.692-1.064 1.112-2.419 1.206-3.709.797 1.278-.061 2.548-.515 3.395-1.511.928-1.093 1.161-2.705.49-3.967 1.459-.73 2.762-2.017 3.038-3.681.233-1.399-.341-2.885-1.54-3.64 1.279-.993 1.932-2.734 1.485-4.321-.417-1.491-1.703-2.597-3.192-2.898 1.816-1.639 1.312-4.667-.975-5.621.548-.69.576-1.666.167-2.459-.468-.915-1.417-1.418-2.371-1.722.063-.906-.288-1.841-1.041-2.395-1.005-.74-2.339-.574-3.196.251-.972-1.309-2.21-2.594-3.859-2.929-1.357-.275-2.903.152-3.679 1.337a4.9 4.9 0 00-7.324.325c-1.059-.607-2.383-.542-3.44.077-1.065.624-1.587 1.319-1.802 1.671-.995-.471-2.198-.21-2.954.593-.744.789-.895 1.795-.793 2.808a1.97 1.97 0 01-.551.673c-1.19.96-1.827 2.348-1.716 3.872-1.692.617-2.463 2.763-1.556 4.315-1.454 1.12-1.698 3.385-.531 4.795-1.042 1-1.637 2.409-1.556 3.865.061 1.115.61 2.332 1.699 2.695-.579.662-.29 1.718.32 2.315.231.227.502.411.776.58.327.199.799.368 1.038.676.252.317.223.785.31 1.159.064.268.158.531.276.781.905 1.886 3.164 2.931 5.169 2.386.347 1.445 1.78 2.209 3.171 2.456.458.081.908.086 1.371.086.427 0 .799.026 1.173.27.225.148.416.346.641.496.766.508 1.643.419 2.494.236 1.085 3.826 5.94 3.747 7.923.696zm-19.718-34.554c.68-.983 1.807-1.36 2.951-1.09-.041.075-.065.126-.065.126s-.375.012-.557.037a3.556 3.556 0 00-2.482 1.684c-.159.27-.267.559-.355.858-.012.04-.025.072-.036.11.041-.605.172-1.188.544-1.725zm26.235-1.012c-.784-.756-2.001-.963-2.967-.47l-.053-.07c.92-.645 1.937-.979 2.971-.189.723.551.92 1.321.86 2.113l-.016-.005a2.888 2.888 0 00-.795-1.379zm-14.265 34.834l.039-.008c1.373 2.273 4.219 2.895 6.367 1.69-2.277 1.496-5.114 1.47-6.406-1.682z" fill="#263238"/><path d="M416.932 234.921c2.349.601 8.202-2.803 10.904-6.137.184-.23.282-2.977.56-6.31.176-2.022.42-4.269.791-6.303l-13.324.775s.477 4.493-.191 8.036a4.64 4.64 0 01-.24.819c-.011.038-.031.082-.044.135-.547 1.538-2.134 8.044 1.544 8.985z" fill="#AD6359"/><path d="M416.686 226.247a8.535 8.535 0 01-1.299-.312.63.63 0 00.043-.139c.106-.249.188-.518.241-.819.671-3.534.191-8.037.191-8.037l12.363-.719c-1.121 3.196-4.626 11.123-11.539 10.026z" fill="#263238"/><path d="M435.011 200.674c.247 4.802-5.328 17.102-9.219 19.184-5.641 3.017-13.272 1.534-15.431-4.88-2.092-6.217 5.457-22.119 9.654-23.845 6.181-2.544 14.631 2.448 14.996 9.541z" fill="#AD6359"/><path d="M419.843 204.794c.022-.028.044.071.026.103-.433.8-.794 1.79-.193 2.428.019.02-.004.06-.03.042-.834-.575-.341-1.884.197-2.573z" fill="#263238"/><path d="M420.995 204.309c1.358.556.147 3.231-1.111 2.716-1.239-.507-.027-3.182 1.111-2.716zm-5.495-1.657c.008-.035-.083.01-.097.044-.349.841-.89 1.744-1.764 1.68-.027-.002-.044.041-.014.049.973.286 1.679-.921 1.875-1.773z" fill="#263238"/><path d="M415.152 201.452c-1.287-.704-2.601 1.921-1.409 2.574 1.173.642 2.488-1.984 1.409-2.574zm7.452 2.111c-.323-.257-.578-.547-.871-.834-.331-.324-.627-.547-.726-1.02-.053-.253.16-.569.401-.643.562-.174 1.066.122 1.479.495.449.405.691.832.784 1.429.09.579-.641.912-1.067.573zm-7.911-3.575c.398.108.783.14 1.188.206.457.074.813.18 1.251-.021.236-.108.363-.466.28-.705-.194-.555-.731-.785-1.277-.896-.593-.121-1.08-.063-1.615.218-.518.27-.352 1.056.173 1.198zm2.914 13.09c-.286.104-.605.282-.917.171-.299-.106-.578-.39-.796-.612-.022-.022-.061-.006-.055.026.071.416.434.82.848.926.405.105.737-.136.984-.438.034-.042-.022-.088-.064-.073z" fill="#263238"/><path d="M417.86 210.203c-.79.509-1.649.593-2.452.403a3.896 3.896 0 01-1.036-.413 1.148 1.148 0 01-.184-.11 2.673 2.673 0 01-.169-.11c-.09-.058-.107-.162-.082-.261l.003-.006a.433.433 0 01.046-.081l.003-.006.034-.072c.271-.646.773-1.588.773-1.588-.286.011-1.717.008-1.547-.317 1.414-2.685 2.987-5.67 4.961-8.043.061-.082.191.002.142.09-1.257 2.634-2.969 5.029-4.274 7.655.445.028 1.184.041 1.515.199.079.067-1.001 1.804-1.1 2.104 0 0-.006.012-.008.033 1.01.622 1.964.664 3.331.416.083-.022.124.063.044.107z" fill="#263238"/><path d="M414.895 210.039s.22 1.019.87 1.646c.239.232.528.411.889.471.741.126 1.032-.474 1.146-1.049.095-.472.064-.93.064-.93s-1.376.468-2.969-.138z" fill="#263238"/><path d="M415.765 211.685c.239.232.528.411.889.471.741.126 1.032-.474 1.146-1.049-.743-.248-1.663-.084-2.035.578z" fill="#FF99BA"/><path d="M414.766 197.522c.497.138 2.639-.474 3.743-3.246.868.522 3.223-.297 4.12-.904-.334 3.305 2.742 5.69 5.61 4.727-.304 1.295-.38 2.679.138 3.828.846 1.876 2.249 2.589 2.249 2.589l-.002.02c-1.292 2.182.135 4.838 2.197 4.991.185.034.375.051.569.046 1.033-.031 2.109-.277 2.83-1.247.931-1.251.949-3.122.034-4.184 1.061-.669 1.691-2.015 1.439-3.323-.154-.809-.946-1.422-.773-2.276.142-.706.171-1.389.025-2.07-.251-1.176-.908-2.102-1.842-2.645-.437-.251-.733-.469-.983-.949a7.563 7.563 0 00-.479-.839 4.947 4.947 0 00-1.126-1.151 4.569 4.569 0 00-1.728-.788c-.671-.149-1.437.024-2.016-.391-.503-.36-2.315-.77-2.938-.804-2.71-.147-4.163.861-4.163.861s-1.413-.096-3.095 1.376c-1.607 1.406-1.92 2.735-1.92 2.735s-.584.109-1.247 1.135c-.762 1.177-.712 2.489-.642 2.509zm15.844 7.141c-.232 1.848-.002 2.802.427 3.539-.742-.917-1.036-2.239-.427-3.539zm-7.768-11.156c.188 1.821 1.133 3.277 2.464 4.023-1.46-.64-2.488-1.957-2.464-4.023z" fill="#263238"/><path d="M429.632 210.49s4.024-3.36 5.625-1.816c1.601 1.544-2.209 6.963-4.641 7.186-2.431.223-2.682-2.024-2.682-2.024l1.698-3.346z" fill="#AD6359"/><path d="M434.126 210.2c.036.007.03.058-.004.062-1.719.207-2.924 1.422-3.898 2.756.616-.448 1.328-.592 1.948.164.032.04-.023.093-.065.072-.598-.308-1.085-.322-1.651.07-.401.277-.732.676-1.062 1.033-.11.119-.34-.023-.244-.168l.022-.033c.496-1.985 2.78-4.332 4.954-3.956z" fill="#263238"/><path d="M446.066 301.292c-.147.135-54.167-8.854-54.629-9.492-.174-.243-4.132-3.17-2.22-9.475.53-1.747 2.934-3.71 3.768-6.092 5.043-14.388 14.494-42.2 21.147-49.415 2.632-2.853 10.678-3.77 13.977-.486 14.132 14.069 18.481 74.47 17.957 74.96z" fill="#EBEBEB"/><path d="M415.671 224.977s-11.996 53.078-12.436 59.686c-.44 6.609 3.897 21.721 3.897 21.721 8.254 9.665 44.505 16.947 44.505 16.947s-10.119-88.816-22.45-96.981c-6.479-4.29-13.516-1.373-13.516-1.373z" fill="#7168EE"/><path d="M443.917 285.861c-.97.411-1.495 1.404-1.727 2.57-.548 1.521-.621 3.368-.438 4.611.118.844.489 2.085 1.587 1.876 1.166-.222 1.694-2.082 1.978-3.03.291-.983 1.143-7.101-1.4-6.027zM435.283 293c-1.19.989-1.061 3.015-.811 4.372.163.891.485 2.183 1.086 3.158.323.598.722 1.1 1.211 1.301 1.478.61 1.594-1.346 1.702-2.324.204-1.81.141-3.711-.657-5.383-.492-1.012-1.426-2.036-2.531-1.124zm4.517-13.928c-.908-.114-1.421.586-1.683 1.507-.402 1.126-.444 2.604-.365 3.319.078.674.219 1.839.978 2.139.766.311 1.36-.495 1.629-1.098.489-1.114 1.458-5.607-.559-5.867zm7.914 32.49c-.741-.537-1.527-.169-2.2.512-.894.793-1.642 2.069-1.916 2.734-.256.628-.692 1.718-.171 2.346.522.64 1.431.22 1.956-.18.966-.741 3.976-4.214 2.331-5.412zm-39.266-39.278c-.962 1.212-.42 3.169.103 4.445.343.838.923 2.036 1.711 2.868.439.519.932.928 1.452 1.025 1.572.293 1.284-1.644 1.189-2.624-.172-1.814-.623-3.661-1.748-5.134-.69-.889-1.813-1.699-2.707-.58zm-.754 12.53c-.855.326-.979 1.185-.778 2.121.173 1.183.83 2.507 1.237 3.101.385.558 1.057 1.521 1.868 1.429.822-.085.969-1.076.922-1.734-.092-1.214-1.346-5.635-3.249-4.917zm21.713-5.612c.886-.053 1.713 1.209 2.099 1.858.634 1.068 1.007 2.316 1.16 3.542.09.721.355 2.233-.32 2.777-.814.656-1.593-.097-2.17-1.124-1.187-1.387-1.735-3.44-1.721-5.175.008-.637.084-1.821.952-1.878zm3.783 25.076c-1.174.871-.667 2.573-.212 3.683.725 1.763 1.999 3.308 3.564 4.383.663.451 1.66.991 2.367.733.727-.133 1.043-.842.955-1.769-.185-1.999-1.386-3.715-2.687-5.169-.881-.987-2.47-2.985-3.987-1.861zm7.381.323c.78 2.609 2.226 3.711 2.905 3.41 1.343-.6 1.106-2.893.602-4.58-.393-1.318-1.717-3.518-2.733-3.315-.835.171-1.498 2.066-.774 4.485zm-26.991-13.008c-.436 2.689.385 4.31 1.127 4.336 1.47.046 2.257-2.121 2.539-3.859.22-1.357-.011-3.915-1.013-4.174-.826-.212-2.249 1.204-2.653 3.697zm16.795-52.309c-1.032-.211-2.027.311-2.879 1.14-1.313.943-2.419 2.424-2.973 3.553-.381.762-.778 1.995.245 2.445 1.086.477 2.575-.757 3.346-1.377.799-.645 4.965-5.206 2.261-5.761zm-11.159.995c-1.541.141-2.582 1.884-3.144 3.144-.37.827-.836 2.073-.893 3.218-.072.675-.028 1.315.261 1.758.873 1.34 2.076-.206 2.719-.951 1.193-1.376 2.218-2.978 2.507-4.809.167-1.113-.022-2.486-1.45-2.36zm9.872-10.628c-.684-.608-1.503-.322-2.24.289-.969.7-1.841 1.894-2.18 2.529-.318.599-.861 1.64-.405 2.317.455.689 1.401.362 1.964.017 1.034-.641 4.377-3.795 2.861-5.152zm-12.084 23.184c-.835 2.592-.267 4.319.463 4.456 1.447.266 2.55-1.758 3.09-3.434.422-1.309.577-3.872-.375-4.279-.784-.333-2.404.853-3.178 3.257zm18.042 14.363c-.785.516-.856 1.54-.628 2.538a7.23 7.23 0 00.761 2.145c.242.424.698.933 1.228.59.561-.365.589-1.425.556-1.996-.043-.735-.366-4.301-1.917-3.277zm-3.698-17.92c-.739-.58-1.732-.323-2.606.211a7.243 7.243 0 00-1.792 1.403c-.326.365-.663.958-.169 1.351.524.417 1.538.106 2.069-.106.684-.274 3.963-1.713 2.498-2.859z" fill="#263238"/><path d="M426.42 238.077c-7.491 3.211-40.71 13.458-49.442 7.154-10.579-7.638-20.303-21.676-24.778-26.706-1.122-1.261 19.484-15.008 21.843-11.702 3.663 5.134 10.775 16.377 11.849 17.199 1.866 1.428 23.976 3.206 35.323 4.217 10.222.91 9.619 7.946 5.205 9.838z" fill="#AD6359"/><path d="M377.802 212.366s-2.015-3.847-2.154-4.096c-.474-.85-.83-1.867-1.365-4.253-1.266-5.648-7.962-18.597-24.041-21.068-6.161-.947-9.516 2.962-3.29 5.082 4.385 1.493 7.552 2.152 8.846 3.04 0 0-6.676 2.391-7.785 6.348-.496 1.768-1.736 6.625-2.163 10.544 0 0 .829.322 1.937.581 0 0-1.233 5.027 3.388 8.558l4.287 5.375 22.34-10.111z" fill="#AD6359"/><path d="M372.213 198.819c-2.447-1.794-7.697-5.508-13.048-7.053-5.944-1.716-17.857-3.42-19.079.981-.896 3.227 3.596 4.277 3.596 4.277s-5.073.334-5.244 3.426c-.156 2.818 3.367 3.422 3.367 3.422s-3.042.731-2.67 3.474c.448 3.299 6.75 1.225 10.091 4.175.749.662 22.987-12.702 22.987-12.702z" fill="#AD6359"/><path d="M358.399 198.348c-2.578-1.31-9.195-2.782-14.627-1.416-.123.031-.166.141-.047.136 6.299-.234 12.185.763 14.658 1.336.033.008.045-.041.016-.056zm-1.907 5.95c-2.34-.901-9.229-2.114-14.685-.541-.122.035-.157.148-.039.139 6.572-.515 12.209.035 14.712.459.033.006.043-.045.012-.057z" fill="#263238"/><path d="M388.168 248.276l-1.578-24.361s27.041 1.723 38.916 4.475c9.979 2.313 9.388 8.251-3.137 12.151-11.854 3.692-34.201 7.735-34.201 7.735z" fill="#7168EE"/><path d="M396.381 233.621c-1.445-.553-3.149.552-4.209 1.434-.697.579-1.665 1.492-2.221 2.493-.363.574-.605 1.168-.541 1.693.192 1.587 1.954.731 2.86.346 1.678-.708 3.304-1.694 4.372-3.209.64-.925 1.075-2.24-.261-2.757zm5.929-6.587c-.345-.848-1.207-.952-2.138-.729-1.178.201-2.488.888-3.072 1.307-.549.398-1.496 1.092-1.386 1.9.104.82 1.098.943 1.755.882 1.212-.119 5.603-1.474 4.841-3.36zm18.259 14.046c-1.192.345-2.469.699-3.791 1.043.578-.922 1.397-1.751 2.441-1.845.754-.064 1.164.29 1.35.802zm8.519-11.429c-.684-.608-1.503-.322-2.24.289-.969.7-1.841 1.894-2.18 2.529-.318.599-.861 1.64-.405 2.317.455.689 1.401.362 1.964.017 1.034-.641 4.377-3.795 2.861-5.152zm-26.186 1.994c-2.676.507-3.92 1.832-3.691 2.538.458 1.398 2.763 1.398 4.493 1.071 1.351-.255 3.677-1.345 3.579-2.376-.083-.848-1.9-1.703-4.381-1.233z" fill="#263238"/><path d="M391.838 226.898c.351 1.534.434 3.115.599 4.656.172 1.607.283 3.212.404 4.817.12 1.604.35 8.018.406 9.618.003.072-.125.066-.133-.005-.176-1.607-.872-7.978-.981-9.553-.11-1.575-.233-3.151-.292-4.724-.06-1.591-.215-3.23-.081-4.804.002-.034.068-.046.078-.005z" fill="#263238"/><path d="M426.348 239.065c-12.388 4.414-25.242 7.664-38.292 9.341-.023-.86-.043-1.72-.047-2.58.102.814.189 1.628.274 2.443l-.132-.107c3.216-.626 6.431-1.224 9.624-1.942 9.257-1.966 19.392-4.661 28.573-7.155z" fill="#263238"/><path d="M425.834 240.016c-1.368.495-2.875.704-4.317.468 1.455-.105 2.864-.303 4.317-.468zm-12.18-13.584c3.882.194 7.75.777 11.48 1.874-3.868-.426-7.686-1.004-11.48-1.874z" fill="#263238"/><path d="M420.921 227.438c.953-.322 1.984-.359 2.969-.178-.996.158-1.965.189-2.969.178z" fill="#263238"/><path d="M27.717 296.436s-17.54 31.017-17.55 31.04c-2.818 6.255-5.176 11.789-6.13 14.766-.006.015-.014.03-.014.049-.361 1.123-.518 1.872-.41 2.14.009.022.009.041.02.056 1.294 2.1 50.626 26.074 52.627 26.331 2.005.268 2.892-5.428 1.72-7.886-1.187-2.465-15.962-20.088-15.962-20.088l17.222-31.141-31.523-15.267z" fill="#EB9481"/><path d="M55.472 370.637c-2-.26-50.546-24.055-51.836-26.149-.013-.02-.017-.039-.022-.057-.112-.269.053-1.022.405-2.139.006-.025.007-.033.02-.047.954-2.977 3.313-8.514 6.125-14.772.002-.008 2.955-5.421 4.133-7.302l31.376 16.218-3.652 6.454s13.99 17.444 15.17 19.904c1.18 2.459.288 8.151-1.72 7.89z" fill="#EBEBEB"/><path d="M56.373 369.967c-2.015-.306-51.167-25.627-52.424-27.78-.492-.81 2.78-8.187 6.99-16.987l.134-.274 31.893 15.982-.289.532s14.479 18.107 15.613 20.621c1.122 2.499.095 8.22-1.917 7.906z" fill="#7168EE"/><path d="M56.799 367.775c-8.181-4.472-41.598-21.736-50.024-25.535-.07-.031-.092.014-.027.052 8.012 4.609 41.568 21.602 49.982 25.619.176.084.24-.042.069-.136z" fill="#fff"/><path d="M45.292 342.908c-2.947-2.288-7.192-3.842-10.881-2.802-.143.04-.084.243.039.264 3.739.643 7.078 1.54 10.616 2.944.25.098.437-.242.226-.406zm1.623 2.631c-2.947-2.289-7.193-3.842-10.88-2.803-.143.04-.083.243.039.264 3.739.643 7.078 1.54 10.616 2.944.249.099.436-.242.225-.405zm1.623 2.63c-2.947-2.288-7.193-3.842-10.881-2.802-.143.04-.084.243.039.264 3.739.643 7.078 1.54 10.616 2.944.25.098.437-.242.226-.406z" fill="#263238"/><path d="M16.353 334.612c-2.645-3.618-8.272.488-5.622 4.111 2.646 3.617 8.272-.488 5.622-4.111z" fill="#fff"/><path opacity=".1" d="M44.84 344.155l3.532 22.07c4.45 2.213 7.523 3.669 7.998 3.741 2.01.314 3.04-5.407 1.923-7.909-.861-1.898-9.374-12.752-13.453-17.902z" fill="#000"/><path d="M58.03 368.591c.706.792-1.006 3.649-1.763 3.558-.757-.09-54.227-27.935-55.033-28.609-.806-.674 1.213-3.769 2.357-3.392 1.144.378 54.44 28.443 54.44 28.443z" fill="#263238"/><path d="M14.223 317.271l35.352 18.876s44.622-63.592 45.515-80.301c1.233-23.075-18.47-96.331-18.47-96.331l-31.426-.213s12.775 75.338 11.737 88.191c-.543 6.724-42.708 69.778-42.708 69.778z" fill="#37474F"/><path d="M52.66 328.841c-1.82-1.311-18.578-11.022-31.337-17.223-.086-.042-.143.079-.066.13 3.87 2.556 28.882 16.258 31.309 17.23.08.031.177-.078.094-.137zm8.634-97.446c-1.46-11.024-3.066-22.032-4.898-33-1.84-11.018-3.78-22.03-6.084-32.962-.281-1.335-.576-2.667-.867-4-.045-.205-.358-.146-.321.062 1.937 10.846 3.928 21.682 5.71 32.555a1241.966 1241.966 0 014.935 32.679c.369 2.703.729 5.407 1.078 8.112.36 2.793.77 5.598.802 8.419.03 2.711-.393 5.349-1.347 7.888-.937 2.493-2.27 4.808-3.621 7.095-5.685 9.618-31.148 51.653-31.81 52.875-.043.08.069.163.12.083 6.11-9.482 25.065-39.765 30.83-49.54 2.602-4.409 5.583-8.874 6.432-14.018.884-5.348-.256-10.94-.96-16.248z" fill="#263238"/><path d="M52.239 317.271l-.355 35.88c.189 6.858.478 12.867.918 15.961 0 .017 0 .033.008.05.165 1.168.35 1.911.565 2.104.017.017.025.034.04.042 2.08 1.326 56.929 1.409 58.842.767 1.922-.633.237-6.146-1.889-7.847-2.143-1.702-23.12-11.125-23.12-11.125l.015-35.828-35.024-.004z" fill="#EB9481"/><path d="M51.957 345.79l-.073 7.361c.189 6.858.478 12.867.918 15.961 0 .017 0 .033.008.05.23 1.152.433 1.911.565 2.104.017.017.025.034.04.042 2.08 1.326 56.929 1.409 58.842.767 1.922-.633.237-6.146-1.889-7.847-2.143-1.702-23.12-11.125-23.12-11.125l.003-7.474-35.294.161z" fill="#EBEBEB"/><path d="M112.285 372.009c-1.942.617-57.224-.355-59.304-1.731-.8-.509-1.127-8.572-1.244-18.326l-.001-.306 35.672.229-.024.605s20.994 9.837 23.123 11.59c2.111 1.745 3.72 7.33 1.778 7.939z" fill="#7168EE"/><path d="M111.697 369.854c-9.315-.393-46.922-1.098-56.16-.778-.074.003-.075.054 0 .059 9.224.591 46.836.991 56.158.872.196-.003.198-.145.002-.153z" fill="#fff"/><path d="M90.379 352.64c-3.655-.749-8.15-.265-10.998 2.298-.111.099.032.255.152.219 3.638-1.077 7.029-1.749 10.824-2.055.267-.021.284-.408.022-.462zm2.619 1.642c-3.655-.749-8.15-.265-10.998 2.298-.111.099.033.255.152.219 3.638-1.077 7.029-1.749 10.824-2.055.266-.021.284-.409.022-.462zm2.619 1.641c-3.655-.749-8.15-.265-10.998 2.299-.111.099.032.254.152.219 3.638-1.077 7.029-1.749 10.823-2.055.267-.021.284-.409.023-.463zm17.546 14.119c.983.399.711 3.718-.008 3.972s-60.99-1.073-62.011-1.32c-1.021-.248-.58-3.917.614-4.084 1.193-.169 61.405 1.432 61.405 1.432z" fill="#263238"/><path d="M60.755 357.998c-3.972-2.075-7.203 4.096-3.224 6.174 3.972 2.074 7.203-4.096 3.224-6.174z" fill="#fff"/><path d="M76.224 159.444s-.001.008-.012.032c-.21.648-11.503 31.597-12.567 32.091-1.204.555 24.95 44.488 26.497 64.897.99 13.054-.951 86.926-.951 86.926H50.954s1.838-66.415 2.712-87.458c.339-8.16-26.254-48.788-26.58-74.087-.103-7.974 5.626-22.544 5.626-22.544l43.512.143z" fill="#37474F"/><path d="M53.886 255.365c0-.338-.265-.446-.292-.1-.864 11.388-1.065 22.715-1.61 34.123-.542 11.373-.233 14.116-.74 25.491-.287 6.438-.015 12.892-.164 19.334-.002.1.148.113.158.012 1.19-11.354 2.64-72.411 2.648-78.86zm36.257 1.549c-.085-2.805-.27-5.62-.773-8.384-.492-2.704-1.35-5.321-2.361-7.872-2.113-5.327-4.611-10.521-6.997-15.73a686.566 686.566 0 00-7.434-15.743 1519.003 1519.003 0 00-4.327-8.779c-1.47-2.955-3.052-5.858-4.591-8.777-.061-.115-.24-.031-.183.089 2.45 5.262 4.869 10.538 7.32 15.801 2.45 5.262 4.857 10.545 7.265 15.826 2.368 5.195 4.74 10.394 6.973 15.649 1.07 2.519 2.069 5.073 2.728 7.734.675 2.728.96 5.529 1.12 8.329.37 6.531.55 13.083 1.193 19.596.008.082.14.073.144-.008.194-5.897.1-11.833-.077-17.731zm-3.72 78.92c-2.224-.289-19.165-.874-33.338-.269-.095.004-.088.137.003.145 4.62.411 30.719.586 33.317.289.086-.011.119-.152.018-.165z" fill="#263238"/><path d="M68.932 189.849c-4.091.955-8.102 2.495-11.956 4.145-.151.065-.08.296.082.246 4.013-1.257 8.095-2.435 12.034-3.911.309-.116.153-.553-.16-.48zm3.855-26.212c.003-.134-.227-.187-.241-.044-.437 4.567-1.14 8.553-1.961 12.778-.381 1.962-3.096 12.742-6.448 11.592-.561-.192-.797-.788-.798-1.664-.001-1.053.52-2.291.8-3.309a87.282 87.282 0 001.59-6.813c.81-4.282 1.272-8.6 1.188-12.96-.003-.143-.208-.153-.223-.01-.608 5.98-1.376 11.933-2.877 17.764-.721 2.802-2.594 6.94.338 7.684 2.987.757 5.683-6.22 6.255-8.145 1.595-5.374 2.242-11.285 2.377-16.873z" fill="#263238"/><path d="M64.199 188.268a18.492 18.492 0 00-1.005 2.189c-.226.58-.516 1.202-.512 1.832 0 .122.16.15.232.075.455-.469.697-1.15.984-1.732.333-.675.68-1.343.994-2.027.209-.455-.455-.771-.693-.337zM57.8 266.601c.197-5.435.8-11.136-.982-16.382-.884-2.602-2.227-5.011-3.488-7.442a463.478 463.478 0 01-3.903-7.706c-5.11-10.319-9.923-20.801-14.223-31.484-2.071-5.144-3.922-10.425-4.662-15.945-.774-5.775-.223-11.684 1.068-17.345a95.672 95.672 0 011.052-4.222c.028-.102-.124-.16-.157-.057-1.721 5.363-2.906 10.937-2.982 16.588-.074 5.444 1.119 10.729 2.878 15.853 1.832 5.337 4.129 10.526 6.389 15.692a495.74 495.74 0 007.264 15.854c2.503 5.214 5.17 10.341 7.81 15.486 1.279 2.49 2.443 5.039 2.937 7.813.502 2.824.422 5.703.315 8.556-.451 12.027-1.488 52.049-1.64 64.044-.02 1.523-.038 3.046-.054 4.568-.001.134.2.153.21.016.76-11.966 1.737-51.897 2.169-63.887z" fill="#263238"/><path d="M49.224 167.233c-.006-.086-.133-.068-.144.008-.451 3.309-.708 6.742-2.307 9.745-1.466 2.755-4.024 4.531-6.811 5.775-1.611.719-3.288 1.285-4.964 1.831-.121.039-.093.227.039.2 3.162-.657 6.378-1.394 9.126-3.17 2.943-1.902 4.457-4.945 4.94-8.351.286-2.004.255-4.026.12-6.038z" fill="#263238"/><path d="M69.24 111.807c7.926 11.547 30.33 26.921 36.982 27.701 8.197.962 24.289-14.509 30.208-23.195 2.445-3.589-11.074-16.352-16.087-15.077-2.757.701-15.373 16.831-17.863 16.125-6.001-1.703-14.522-5.628-26.647-10.828-6.6-2.831-11.522-1.907-6.593 5.274z" fill="#EB9481"/><path d="M114.804 106.719s2.525-6.118 4.228-8.561c1.702-2.443 11.397-9.211 12.978-7.201 2.041 2.596-2.786 7.606-5.471 9.751 0 0 4.727 6.001 2.041 10.347-2.687 4.346-13.776-4.336-13.776-4.336z" fill="#EB9481"/><path d="M134.513 118.689c2.038-1.513 10.768-9.269 12.714-11.971 1.946-2.702 6.984-10.883 5.066-12.584-1.918-1.701-3.584.576-3.584.576s1.58-3.792-.506-5.328c-2.086-1.536-4.562 2.092-4.562 2.092s1.339-4.012-.852-5.395-4.069 2.682-4.069 2.682 1.395-3.611-.889-3.991c-2.748-.457-4.568 6.491-6.941 9.313-.539.641-11.846 12.21-11.846 12.21l15.469 12.396z" fill="#EB9481"/><path d="M138.887 88.415c-1.351 5.106-2.825 7.107-6.632 10.648-.075.069.012.195.096.13 4.044-3.128 6.255-5.371 6.787-10.726.026-.261-.186-.295-.251-.052zm4.854 2.652c-1.866 5.18-3.446 7.365-7.161 11.368-.053.057.038.152.096.099 3.973-3.621 6.128-5.91 7.312-11.331.053-.246-.162-.373-.247-.136zm4.773 3.841c-2.169 4.886-3.798 7.355-7.903 10.777-.097.081.012.23.117.158 4.526-3.083 6.581-6.15 7.928-10.854.091-.32-.006-.39-.142-.081zm-16.177-3.052c.153 3.71-3.553 6.298-6.001 8.574-.187.173-.113.384.048.5 1.813 2.648 3.6 6.911 2.4 10.078-.035.093.092.155.14.067 1.748-3.223.334-7.554-1.838-10.327 2.548-2.294 6.151-5.053 5.287-8.895-.006-.022-.037-.02-.036.003z" fill="#263238"/><path d="M91.797 111.952l-5.816 19.564s-16.091-15.649-19.524-21.587c-3.864-6.683.398-7.197 7.503-5.363 7.105 1.834 17.837 7.386 17.837 7.386z" fill="#C7C7C7"/><path d="M88.054 111.588c-1.078 2.391-3.3 10.017-3.68 11.274-.2.663-.883 3.341-1.088 4.001-.026.085.109.109.135.025.39-1.258.914-2.479 1.316-3.737.41-1.287 2.943-8.934 3.414-11.531.01-.057-.072-.086-.097-.032z" fill="#263238"/><path opacity=".1" d="M66.459 109.924c3.428 5.94 19.522 21.588 19.522 21.588l2.995-10.081L67.1 103.737c-2.357.407-2.944 2.201-.641 6.187z" fill="#000"/><path d="M27.54 167.579c.002-.004 54.052 10.468 54.05 10.473-.206 1.059 5.183-42.92-3.904-71.166-.62-1.925-8.751-5.442-13.165-2.715-19.341 11.951-37.114 64.096-36.98 63.408z" fill="#C7C7C7"/><path d="M81.86 175.08c-.03.36-.06.68-.09.98l-53.73-9.81c.1-.27.21-.59.34-.94l53.48 9.77zm-51.03-16.15c-.13.32-.25.63-.37.93l51.85 9.47c.03-.32.05-.65.07-.98l-51.55-9.42zm2.58-6.36c-.13.32-.26.62-.39.93l49.68 9.07c.01-.32.03-.65.04-.98l-49.33-9.02zm2.73-6.33c-.13.31-.27.61-.4.92l47.19 8.62c0-.33.01-.66.02-.99l-46.81-8.55zm46.84 1.73l-43.93-8.03c-.15.31-.29.61-.44.91l44.38 8.11c0-.33-.01-.66-.01-.99zm-.16-6.86l-40.67-7.43c-.15.3-.31.61-.46.91l41.17 7.52c-.01-.33-.02-.66-.04-1zm-.37-6.9l-36.93-6.75c-.18.3-.35.6-.51.91l37.5 6.85c-.01-.33-.04-.67-.06-1.01zm-.65-6.95l-32.6-5.95c-.19.29-.37.59-.56.89l33.28 6.08c-.04-.34-.07-.68-.12-1.02zm-.96-7.01l-27.47-5.01c-.22.29-.43.58-.65.88L81 121.29c-.05-.35-.11-.69-.16-1.04zm-1.42-7.09l-21.07-3.85c-.27.28-.54.57-.81.86l22.12 4.04-.24-1.05zm-1.73-6.27c-.1-.31-.39-.66-.83-1.03h-.01l-11.53-2.1c-.28.12-.55.25-.8.41-.18.11-.35.22-.53.35l13.74 2.51c-.01-.05-.03-.09-.04-.14z" fill="#EBEBEB"/><path d="M66.515 89.292s-9.511 8.27-8.262 10.057c1.249 1.787 14.066.656 17.037-1.245 2.97-1.901 8.903-10.27 8.903-10.27l-17.678 1.458z" fill="#7168EE"/><path opacity=".1" d="M66.515 89.292s-9.511 8.27-8.262 10.057c1.249 1.787 14.066.656 17.037-1.245 2.97-1.901 8.903-10.27 8.903-10.27l-17.678 1.458z" fill="#000"/><path d="M75.34 113.291c-2.632.574-8.04-2.611-9.844-6.39-.122-.26.41-2.889.908-6.113.294-1.958.575-4.146.687-6.16.02-.414 12.463 3.773 12.463 3.773s-1.477 4.153-1.651 7.667a4.49 4.49 0 00.04.831c.003.038.012.085.012.138.168 1.584.202 5.64-2.615 6.254z" fill="#EB9481"/><path d="M77.948 106.898c-.001.041.006.089.005.138-.398.032-.827.03-1.297-.005-7.427-.579-8.871-9.996-9.118-12.376 2.227.447 12.017 3.744 12.017 3.744s-1.478 4.157-1.654 7.671c-.006.292.004.568.047.828z" fill="#263238"/><path d="M65.62 78.814c-1.476 4.453.583 17.467 3.704 20.432 4.525 4.299 12.087 4.881 15.779-.594 3.579-5.306.596-22.219-2.905-24.93-5.156-3.992-14.397-1.485-16.578 5.092z" fill="#EB9481"/><path d="M78.076 86.873c-.012-.032-.062.052-.056.088.162.873.2 1.9-.548 2.313-.023.013-.014.057.015.048.947-.285.882-1.648.589-2.45z" fill="#263238"/><path d="M77.152 86.077c-1.427.109-1.104 2.956.218 2.855 1.3-.1.978-2.946-.218-2.855zm6.045.361c.003-.035.074.034.077.07.072.885.304 1.886 1.134 2.089.026.006.028.05-.002.05-.99-.027-1.283-1.36-1.21-2.21z" fill="#263238"/><path d="M83.88 85.428c1.406-.27 1.84 2.563.537 2.812-1.282.245-1.716-2.587-.538-2.812zm-8-.525c.378-.141.7-.335 1.06-.513.404-.201.746-.32.98-.73.125-.218.022-.575-.18-.717-.47-.33-1.026-.206-1.522.017-.538.242-.892.565-1.156 1.092-.257.509.322 1.037.819.85zm8.938-1.033c-.402-.02-.77-.105-1.165-.165-.446-.068-.81-.077-1.156-.395-.186-.171-.197-.542-.05-.738.348-.457.915-.51 1.455-.45.587.066 1.022.267 1.435.687.4.406.01 1.086-.52 1.06zm-6.629 11.28c.235.182.478.443.8.433.31-.01.655-.188.924-.33.027-.013.058.014.043.042-.191.364-.648.63-1.065.606-.407-.024-.644-.347-.782-.701-.02-.05.045-.076.08-.05z" fill="#263238"/><path d="M78.816 92.405c.58.71 1.354 1.046 2.156 1.109a3.79 3.79 0 001.086-.073 1.17 1.17 0 00.204-.047c.064-.015.12-.03.19-.052.1-.027.148-.118.154-.217l-.001-.006a.381.381 0 00-.02-.09v-.006l-.011-.077a23.86 23.86 0 00-.241-1.706c.262.096 1.59.522 1.53.169-.507-2.916-1.073-6.16-2.195-8.955-.032-.094-.178-.055-.158.04.378 2.823 1.249 5.56 1.674 8.389-.421-.107-1.112-.317-1.466-.27-.093.04.389 1.976.39 2.284 0 0 .003.013-.001.033-1.124.275-2.023.028-3.218-.612-.071-.045-.134.023-.073.087z" fill="#263238"/><path d="M66.254 91.429c2.41-.894 3.016-9.254 3.016-9.254s.25 3.505.902 3.37c.65-.135 2.97-5.105 3.008-8.543 0 0 3.285 1.869 6.478 2.557 3.193.688 6.19 1.159 6.15.629-.121-1.58-1.968-5.907-4.227-7.201-2.601-1.49-5.86-2.805-10.805-.456-4.945 2.349-5.9 5.055-6.456 7.654s1.049 11.573 1.934 11.244z" fill="#263238"/><path d="M80.479 71.796c-4.43-2.176-13.958-1.022-15.842 6.623-1.246 5.06.096 10.017.096 10.017s5.63-5.51 7.847-6.6c5.636-2.768 13.309-2.265 13.309-2.265s-1.432-5.82-5.41-7.775zm-7.013 7.97c-.057-1.298.338-3.226 3.144-3.84 3.228-.705 4.072 2.3 4.072 2.3-3.64.059-7.216 1.54-7.216 1.54z" fill="#7168EE"/><path d="M68.642 89.599s-2.915-4.202-4.821-3.165c-1.906 1.038.275 7.122 2.504 7.962 2.23.84 3.047-1.21 3.047-1.21l-.73-3.587z" fill="#EB9481"/><path d="M64.49 88.163c-.036-.003-.043.047-.012.06 1.563.64 2.382 2.095 2.953 3.602-.463-.581-1.096-.901-1.874-.35-.041.029-.002.093.042.084.642-.135 1.104-.022 1.535.493.305.365.513.826.73 1.246.074.14.327.066.274-.095l-.012-.036c.047-1.996-1.494-4.795-3.636-5.004z" fill="#263238"/><path d="M160.956 9.415l10.282 6.697c.044.029.083.057.118.086l-10.282-6.697a1.58 1.58 0 00-.118-.086zM61.164 189.054l-10.282-6.697c.134.087.269.173.407.256l10.282 6.697a15.465 15.465 0 01-.407-.256zm81.223-117.88l10.282 6.696-50.714 78.043-10.282-6.697 50.714-78.042z" fill="#7168EE"/><path d="M142.387 71.174l10.282 6.696-50.714 78.043-10.282-6.697 50.714-78.042z" fill="#000" opacity=".1"/><path d="M161.375 180.805l-89.25 10.733c-1.048.121-1.531.165-2.024.181-2.736.125-5.478-.393-7.961-2.016l-10.287-6.697c2.492 1.623 5.234 2.141 7.97 2.015.484-.016.976-.061 2.024-.181l89.25-10.733 10.278 6.698z" fill="#7168EE"/><path d="M161.375 180.805l-89.25 10.733c-1.048.121-1.531.165-2.024.181-2.736.125-5.478-.393-7.961-2.016l-10.287-6.697c2.492 1.623 5.234 2.141 7.97 2.015.484-.016.976-.061 2.024-.181l89.25-10.733 10.278 6.698z" fill="#000" opacity=".1"/><path d="M190.059 145.33l-10.278-6.698-9.863-116.497c-.015-.288-.04-.576-.074-.873-.04-.576-.361-.83-.4-1.406-.073-.854-.107-1.151-.434-1.693-.025-.288-.361-.83-.376-1.118-.361-.83-.395-1.117-.722-1.66-.302-.254-.648-.796-.664-1.094-.648-.787-.96-1.041-1.262-1.296-.312-.254-.648-.796-.96-1.05-.303-.255-.624-.508-1.238-1.017-.004-.084-.055-.156-.143-.235l10.181 6.628c.145.095.234.193.24.304.623.499.936.762 1.238 1.017.312.254.648.796.96 1.05.303.255.615.509 1.262 1.296.025.297.361.83.664 1.094.336.542.361.83.722 1.66.015.288.361.83.376 1.118.336.542.361.83.434 1.694.049.576.361.83.41 1.406l.074.873 9.853 116.497z" fill="#7168EE"/><path d="M190.059 145.33l-10.278-6.698-9.863-116.497c-.015-.288-.04-.576-.074-.873-.04-.576-.361-.83-.4-1.406-.073-.854-.107-1.151-.434-1.693-.025-.288-.361-.83-.376-1.118-.361-.83-.395-1.117-.722-1.66-.302-.254-.648-.796-.664-1.094-.648-.787-.96-1.041-1.262-1.296-.312-.254-.648-.796-.96-1.05-.303-.255-.624-.508-1.238-1.017-.004-.084-.055-.156-.143-.235l10.181 6.628c.145.095.234.193.24.304.623.499.936.762 1.238 1.017.312.254.648.796.96 1.05.303.255.615.509 1.262 1.296.025.297.361.83.664 1.094.336.542.361.83.722 1.66.015.288.361.83.376 1.118.336.542.361.83.434 1.694.049.576.361.83.41 1.406l.074.873 9.853 116.497z" fill="#000" opacity=".1"/><path d="M210.233 158.923c.75 8.935-5.79 16.714-14.634 17.776l-2.855.337-10.278-6.698 2.846-.336c8.844-1.063 15.394-8.833 14.634-17.776a15.264 15.264 0 00-6.905-11.549l10.278 6.698a15.272 15.272 0 016.914 11.548z" fill="#7168EE"/><path d="M210.233 158.923c.75 8.935-5.79 16.714-14.634 17.776l-2.855.337-10.278-6.698 2.846-.336c8.844-1.063 15.394-8.833 14.634-17.776a15.264 15.264 0 00-6.905-11.549l10.278 6.698a15.272 15.272 0 016.914 11.548z" fill="#000" opacity=".1"/><path d="M194.607 198.963c.75 8.925-5.503 16.68-14.346 17.742-.436.051-.854.082-1.282.095-3.332.147-6.419-.735-8.969-2.392l-10.278-6.698c2.541 1.657 5.637 2.539 8.97 2.401.419-.022.846-.054 1.273-.104 8.843-1.063 15.106-8.808 14.346-17.742l-1.854-21.927 10.278 6.698 1.862 21.927z" fill="#7168EE"/><path d="M194.607 198.963c.75 8.925-5.503 16.68-14.346 17.742-.436.051-.854.082-1.282.095-3.332.147-6.419-.735-8.969-2.392l-10.278-6.698c2.541 1.657 5.637 2.539 8.97 2.401.419-.022.846-.054 1.273-.104 8.843-1.063 15.106-8.808 14.346-17.742l-1.854-21.927 10.278 6.698 1.862 21.927z" fill="#000" opacity=".1"/><path d="M199.948 152.225c.754 8.941-5.79 16.719-14.632 17.778l-2.852.338 1.857 21.921c.754 8.932-5.505 16.681-14.346 17.741-.43.051-.856.086-1.279.104-8.262.355-15.026-5.578-15.744-14.076l-1.857-21.921-89.251 10.728c-1.05.124-1.537.165-2.024.186-2.947.127-5.896-.482-8.532-2.411-7.594-4.624-9.28-14.329-4.442-21.893L141.12 15.4c.286-.037.267-.327.525-.653.259-.318.518-.644.757-1.252.831-.392 1.089-.71 1.348-1.036.267-.326.812-.681 1.07-1 .545-.362.803-.68 1.661-.784.24-.616.498-.934 1.07-1 .259-.326.831-.392 1.661-.785.286-.037.858-.103 1.117-.43.572-.065 1.422-.168 1.994-.234.014-.002.286-.037.572-.066l.572-.074c.564-.066 1.422-.17 1.708-.206.394.147.649.18.941.168.822.204 1.671.1 2.271.324 1.781.662 2.38.876 2.685 1.129.599.223.904.475 1.504.698.645.236 1.191.452 1.209.728.618.504.931.764 1.237 1.017.313.252.646.793.959 1.053.305.252.618.504 1.264 1.297.019.29.359.83.665 1.09.332.542.36.83.719 1.662.019.289.36.83.379 1.12.332.54.36.83.433 1.69.046.578.36.83.406 1.409.027.289.055.578.074.868l9.859 116.497 2.852-.347c.415-.05.828-.083 1.238-.101 8.314-.358 15.377 5.798 16.078 14.043zm-108.275-3.009l56.747-6.818-6.033-71.225-50.714 78.043z" fill="#7168EE"/><path d="M58.585 118.797c-1.971 13.107-6.866 40.201-1.381 48.35 7.197 10.693 31.254 17.972 37.557 20.135 2.746.943 10.09-16.943 8.576-19.653-1.514-2.71-26.481-12.935-28.173-14.524-1.692-1.589-3.87-23.058-6.067-34.093-2.772-13.92-8.844-11.31-10.512-.215z" fill="#EB9481"/><path d="M110.826 174.019c-.981-1.109-.406-1.632 2.183-1.161 2.621.47 12.441 4.532 13.567.976 1.137-3.566-12.854-9.086-17.226-9.539-4.372-.464-11.605.345-11.605.345 2.506 1.622 8.207 6.135 13.081 9.379z" fill="#EB9481"/><path d="M87.899 184.285c7.224 4.309 15.954 10.114 25.444 10.171 1.861.011 2.938-.916 2.938-.916 4.253.101 5.577-1.877 5.577-1.877 3.99-1.119 5.067-3.328 5.067-3.328s4.995.064 5.534-2.949c.615-3.376-6.519-2.805-10.635-4.89-9.429-4.778-21.497-14.207-24.08-15.855L87.9 184.285z" fill="#EB9481"/><path d="M108.424 182.433c2.803 1.351 5.521 2.751 8.492 3.715 3.26 1.058 6.575 1.529 9.937 2.093.105.018.091.165-.015.164-6.249-.057-13.281-2.399-18.478-5.846-.126-.083-.077-.194.064-.126zm-3.712 5.272c2.801 1.163 7.735 3.176 17.154 3.857.031.002.037.055.003.057-6.174.371-11.764-.962-17.211-3.781-.17-.087-.132-.21.054-.133zm-1.941 2.871c4.837 1.797 8.114 2.317 13.49 2.94.031.004.033.058-.001.057-6.184-.067-8.42-.792-13.574-2.84-.177-.07-.104-.228.085-.157z" fill="#263238"/><path d="M72.723 134.097l-19.22 6.392s3.582-21.985 6.459-28.153c3.239-6.942 6.08-3.768 8.627 3.054 2.548 6.82 4.134 18.707 4.134 18.707z" fill="#C7C7C7"/><path d="M70.89 130.846c-2.557.482-10.022 3.011-11.261 3.416-.653.214-3.22 1.181-3.873 1.389-.083.027-.027.151.056.124 1.246-.397 2.536-.666 3.788-1.054 1.28-.397 8.939-2.685 11.32-3.779.052-.023.028-.107-.03-.096z" fill="#263238"/><path d="M57.424 120.925c.016-.094-.117-.109-.142-.022a136.477 136.477 0 00-1.42 5.501c-.008-.992.104-1.969.276-2.959.008-.044-.057-.053-.067-.011-.268 1.105-.337 2.274-.312 3.417a190.44 190.44 0 00-.868 3.863c-.701 3.283-1.443 6.568-1.953 9.887-.027.177.15.31.313.249a31.4 31.4 0 001.953-.792c.067-.03.046-.147-.033-.131-.573.114-1.135.257-1.7.403.762-3.153 1.362-6.346 2.033-9.52.694-3.283 1.359-6.576 1.92-9.885zm14.17 4.551a92.37 92.37 0 00-.255-3.197c-.002-.022-.035-.018-.034.004.023.787.064 1.571.11 2.356a72.297 72.297 0 00-1.142-4.559c-.006-.022-.042-.013-.04.01.32 2.354.77 4.689 1.145 7.035.368 2.302.775 4.594 1.185 6.889-.415.213-.833.417-1.255.616-.081.038-.033.15.05.127.493-.139.984-.275 1.482-.392.117-.027.215-.117.198-.249a107.795 107.795 0 00-1.444-8.64z" fill="#263238"/></g><defs><clipPath id="clip0_1342_572"><path fill="#fff" d="M0 0h617v386H0z"/></clipPath></defs></svg>