<svg width="500" height="372" fill="none" xmlns="http://www.w3.org/2000/svg"><g clip-path="url(#clip0_1368_3533)"><path d="M50.557 244.94l-1.318-1.911-1.295 1.911-1.669-1.231 1.45-1.712-2.065-.418.615-2.042 2.021.769-.11-2.064h2.085l-.219 2.108 2.153-.813.571 2.042-2.108.418 1.537 1.712-1.648 1.231z" fill="#fff"/><path d="M369.184 242.694v41.076a5.4 5.4 0 01-5.4 5.4h-225a5.4 5.4 0 01-5.4-5.4v-150.3a5.4 5.4 0 015.4-5.4h225a5.4 5.4 0 015.4 5.4v48.024" stroke="#fff" stroke-width="2" stroke-miterlimit="10"/><path d="M361.084 136.075h-219.6V258.57h219.6V136.075z" fill="#18203E"/><path d="M232.847 289.17l-11.781 56.427a16.802 16.802 0 00-.777 5.068v.049c.008 2.584 1.875 4.629 4.067 4.629h53.854c2.192 0 4.059-2.045 4.067-4.629v-.049c0-1.73-.263-3.447-.777-5.068l-11.78-56.427m-136.336-16.555h235.8m7.001-180.135c6.142 0 11.121-4.98 11.121-11.121 0-6.143-4.98-11.122-11.122-11.122-6.142 0-11.122 4.98-11.122 11.122 0 6.142 4.979 11.122 11.122 11.122-11.038 0-19.987 8.949-19.987 19.988h39.975c0-11.039-8.949-19.987-19.987-19.988z" stroke="#fff" stroke-width="2" stroke-miterlimit="10"/><path d="M84.228 109.544l-2.848-2.63 16.372-17.722c.112-.133 16.189-18.786 39.928-38.098 21.987-17.886 55.259-40.035 88.911-43.983.997-.124 23.111-1.908 32.079 13.833l-1.641.935c-7.684-13.488-29.754-10.947-29.976-10.92-62.758 7.361-125.778 80.075-126.407 80.809l-16.418 17.776z" fill="#FFCA45"/><path d="M103.643 93.6c7.353-.167 14.2-3.67 19.61-8.487 5.696-5.074 10.119-11.704 12.586-18.925 1.333-3.901 2.093-7.991 2.027-12.121l-.69.48c10.395 3.52 21.862 3.46 32.259-.034 10.95-3.681 20.226-11.268 26.275-21.083 3.465-5.623 5.822-11.917 6.839-18.446l-.685.354c5.809 3.76 12.384 6.336 19.235 7.364 6.66.999 13.531.52 19.951-1.54 3.694-1.186 6.599-2.571 9.834-4.71.521-.345.583-1.468.063-1.124a41.634 41.634 0 01-18.809 6.7c-6.6.659-13.326-.233-19.568-2.46a49.74 49.74 0 01-10.291-5.104c-.268-.173-.641.076-.685.354-1.777 11.408-7.738 22.072-16.46 29.63-8.249 7.15-18.823 11.208-29.707 11.705-6.031.275-12.115-.542-17.836-2.48-.356-.121-.696.086-.69.48.116 7.269-2.399 14.443-6.195 20.57-3.85 6.217-9.295 11.735-15.884 15.014-3.509 1.746-7.334 2.81-11.262 2.899-.624.013-.539.978.083.964zM92.64 91.272l6.876 6.784-19.342 22.561a4.88 4.88 0 11-7.18-6.611l19.645-22.734z" fill="#fff"/><path d="M108.593 96.978a6.165 6.165 0 01-11.143-5.275 6.165 6.165 0 0111.143 5.275z" fill="#18203E"/><path d="M250.338 15.16l1.778 1.198.587-.978-2.307-.843-.058.623z" fill="#FFCA45"/><path d="M251.284 15.38v77.622" stroke="#fff" stroke-miterlimit="10"/><path d="M259.888 112.931l-3.646 1.282h3.031l.615-1.282zm-16.724.055l8.536-17.795 1.608.77.788-1.642-4.858-2.33-.788 1.643 1.607.77-8.536 17.796a6.583 6.583 0 01-1.5 2.015h2.699c.105-.415.252-.826.444-1.227zm-13.574-6.511l.156-.324 4.6 2.207-3.248-9.238-3.15 6.567c-1.37 2.855-.981 6.105.728 8.526h2.411c-2.091-1.918-2.786-5.051-1.497-7.738zm18.537 15.912c-.017.132-.04.262-.04.399 0 .531.142 1.024.371 1.465a8.472 8.472 0 005.982-1.859 3.163 3.163 0 00-.783-1.729 6.641 6.641 0 01-5.53 1.724z" fill="#18203E"/><path d="M240.021 114.213h-8.934c.469.43 1.006.8 1.608 1.089 2.503 1.201 5.391.678 7.326-1.089z" fill="#fff"/><path d="M329.184 114.213H242.72c-.764 2.992.66 6.215 3.549 7.6a6.57 6.57 0 001.859.573 3.186 3.186 0 013.156-2.797c.947 0 1.789.42 2.374 1.074.423.472.701 1.068.783 1.729.016.13.04.259.04.394a3.197 3.197 0 01-3.197 3.197 3.186 3.186 0 01-2.826-1.731 8.384 8.384 0 01-2.979-.795c-2.964-1.422-4.712-4.362-4.778-7.444-2.445 1.878-5.831 2.355-8.796.933a8.394 8.394 0 01-3.231-2.732h-55.292c-2.2 0-4 1.8-4 4v84.7c0 2.2 1.8 4 4 4h155.8c2.2 0 4-1.8 4-4v-84.7a4.009 4.009 0 00-3.998-4.001z" fill="#fff"/><path d="M231.906 116.945c2.964 1.422 6.351.945 8.796-.933.066 3.082 1.814 6.022 4.778 7.444a8.405 8.405 0 002.979.795 3.164 3.164 0 01-.371-1.465c0-.137.024-.267.04-.399a6.592 6.592 0 01-1.859-.573c-2.889-1.386-4.313-4.608-3.549-7.6h-2.699c-1.934 1.767-4.823 2.29-7.326 1.089a6.587 6.587 0 01-1.608-1.089h-2.411a8.381 8.381 0 003.23 2.731z" fill="#18203E"/><path d="M188.707 139.389v-2.257h.586v3.818h-.586v-.646h-.04c-.09.194-.229.359-.418.495-.189.134-.427.201-.716.201a1.27 1.27 0 01-.636-.157 1.1 1.1 0 01-.438-.477c-.106-.214-.159-.483-.159-.808v-2.426h.587v2.386c0 .279.078.501.234.667a.795.795 0 00.601.248.994.994 0 00.445-.112.965.965 0 00.383-.343 1.03 1.03 0 00.157-.589zm4.365-1.402l-.527.149a.99.99 0 00-.146-.256.726.726 0 00-.259-.209.946.946 0 00-.42-.082 1 1 0 00-.584.162c-.154.106-.231.241-.231.405a.42.42 0 00.159.346c.106.084.272.155.497.211l.567.139c.341.083.595.21.763.381a.889.889 0 01.251.653.969.969 0 01-.189.587 1.257 1.257 0 01-.522.408 1.916 1.916 0 01-.781.149c-.389 0-.711-.085-.967-.254a1.124 1.124 0 01-.484-.741l.557-.139c.053.206.153.36.3.463.149.102.344.154.584.154.274 0 .491-.058.652-.174.162-.118.243-.259.243-.423a.443.443 0 00-.139-.333c-.093-.091-.235-.159-.427-.204l-.637-.149c-.349-.083-.606-.211-.77-.385a.933.933 0 01-.244-.659c0-.215.061-.406.181-.572.123-.165.29-.296.5-.39.212-.094.453-.142.721-.142.378 0 .674.083.89.249.217.166.371.384.462.656zm2.554 3.043c-.368 0-.685-.081-.952-.244a1.636 1.636 0 01-.614-.686 2.333 2.333 0 01-.214-1.029c0-.391.071-.736.214-1.034.144-.3.344-.534.601-.701.259-.169.56-.254.905-.254.199 0 .395.033.589.1.194.066.371.174.53.323.159.147.286.343.38.587.095.243.142.543.142.899v.249h-2.943v-.507h2.346c0-.216-.043-.408-.129-.577a.982.982 0 00-.915-.547c-.234 0-.436.058-.606.174a1.16 1.16 0 00-.391.448 1.315 1.315 0 00-.136.591v.338c0 .289.049.533.149.734.101.199.241.35.42.455.179.102.387.154.624.154.154 0 .293-.022.417-.065a.895.895 0 00.326-.199.888.888 0 00.211-.333l.567.159c-.06.192-.16.362-.301.507a1.455 1.455 0 01-.522.338c-.207.08-.44.12-.698.12zm2.473-.08v-3.818h.567v.577h.04a.912.912 0 01.378-.46c.182-.118.387-.177.616-.177a5.439 5.439 0 01.308.01v.597a1.393 1.393 0 00-.136-.022 1.313 1.313 0 00-.222-.018 1.04 1.04 0 00-.497.117.857.857 0 00-.467.778v2.416h-.587zm3.191-2.297v2.297h-.586v-3.818h.566v.597h.05a1.1 1.1 0 01.408-.468c.182-.119.417-.179.706-.179.258 0 .485.053.678.159.194.105.345.264.453.478.108.212.161.48.161.805v2.426h-.586v-2.386c0-.3-.078-.534-.234-.701-.156-.169-.369-.254-.641-.254-.188 0-.355.041-.502.122a.873.873 0 00-.346.356 1.175 1.175 0 00-.127.566zm4.632 2.387c-.242 0-.462-.046-.659-.137a1.133 1.133 0 01-.47-.4 1.13 1.13 0 01-.174-.637c0-.218.044-.396.13-.532a.916.916 0 01.345-.323c.144-.078.303-.136.477-.174.176-.04.353-.071.53-.094.232-.03.42-.052.564-.067a.876.876 0 00.318-.082c.068-.038.102-.105.102-.199v-.02c0-.245-.067-.436-.201-.572-.133-.136-.334-.204-.604-.204-.28 0-.5.062-.659.184a1.085 1.085 0 00-.335.393l-.557-.199c.099-.232.232-.412.398-.542.167-.131.349-.222.546-.273.199-.053.395-.08.587-.08.123 0 .264.015.423.045.16.028.315.087.464.177.151.089.276.224.376.405.099.18.149.422.149.726v2.515h-.587v-.517h-.029c-.04.083-.107.172-.199.266a1.14 1.14 0 01-.371.241c-.154.067-.342.1-.564.1zm.089-.527c.232 0 .428-.046.587-.137a.928.928 0 00.487-.808v-.537c-.025.03-.079.057-.164.082a2.784 2.784 0 01-.288.062 10.432 10.432 0 01-.562.075c-.152.02-.295.052-.427.097a.741.741 0 00-.319.196.503.503 0 00-.119.353c0 .204.075.358.226.463.153.102.346.154.579.154zm2.732.437v-3.818h.567v.597h.049a.96.96 0 01.386-.475c.177-.115.39-.172.638-.172.252 0 .462.057.629.172.169.113.301.271.396.475h.039c.098-.198.245-.354.44-.47.196-.118.43-.177.704-.177.341 0 .62.107.837.321.218.212.326.543.326.992v2.555h-.587v-2.555c0-.282-.077-.483-.231-.604a.854.854 0 00-.544-.182c-.269 0-.477.081-.624.244a.866.866 0 00-.221.611v2.486h-.597v-2.615a.684.684 0 00-.211-.524.754.754 0 00-.545-.202.804.804 0 00-.427.122.917.917 0 00-.318.338.997.997 0 00-.12.495v2.386h-.586zm7.685.08c-.368 0-.686-.081-.952-.244a1.63 1.63 0 01-.614-.686 2.333 2.333 0 01-.214-1.029c0-.391.071-.736.214-1.034.144-.3.344-.534.601-.701.259-.169.56-.254.905-.254.199 0 .395.033.589.1.194.066.37.174.53.323.159.147.285.343.38.587.094.243.142.543.142.899v.249h-2.944v-.507h2.347c0-.216-.043-.408-.129-.577a.982.982 0 00-.915-.547c-.234 0-.436.058-.607.174a1.149 1.149 0 00-.39.448 1.316 1.316 0 00-.137.591v.338c0 .289.05.533.15.734.101.199.241.35.42.455.179.102.387.154.624.154.154 0 .293-.022.417-.065a.895.895 0 00.326-.199.9.9 0 00.211-.333l.567.159c-.06.192-.16.362-.301.507a1.455 1.455 0 01-.522.338c-.207.08-.44.12-.698.12z" fill="#fff"/><path d="M239.044 134.154v9" stroke="#fff" stroke-miterlimit="10"/><path d="M186.3 164.702v-5.25h.567v.606h.07c.043-.066.102-.15.179-.253.078-.105.189-.197.333-.279.146-.082.343-.124.591-.124.322 0 .605.08.851.241.245.161.436.389.574.684.137.295.206.643.206 1.044 0 .404-.069.755-.206 1.051a1.626 1.626 0 01-.572.686 1.494 1.494 0 01-.843.242c-.245 0-.441-.041-.589-.122a1.096 1.096 0 01-.34-.281 3.485 3.485 0 01-.184-.264h-.05v2.019h-.587zm.577-3.341c0 .288.042.543.127.763.084.219.208.39.37.515a.966.966 0 00.597.184c.245 0 .45-.065.614-.194.166-.131.29-.307.373-.527a2.08 2.08 0 00.126-.741c0-.269-.041-.51-.124-.726a1.118 1.118 0 00-.37-.514.977.977 0 00-.619-.192.98.98 0 00-.602.182 1.088 1.088 0 00-.368.502 2.057 2.057 0 00-.124.748zm4.813 1.999c-.242 0-.462-.046-.659-.137a1.133 1.133 0 01-.47-.4 1.13 1.13 0 01-.174-.637c0-.219.043-.396.129-.532a.918.918 0 01.346-.323c.144-.078.303-.136.477-.174.176-.04.352-.071.53-.094.232-.03.42-.053.564-.067a.853.853 0 00.318-.083c.068-.038.102-.104.102-.198v-.02c0-.246-.067-.436-.201-.572-.133-.136-.334-.204-.604-.204-.281 0-.5.061-.659.184a1.099 1.099 0 00-.336.393l-.557-.199c.1-.232.232-.413.398-.542.167-.131.35-.222.547-.273.199-.053.394-.08.587-.08.122 0 .263.015.422.045.161.028.316.087.465.176.151.09.276.225.375.406.1.18.15.422.15.725v2.516h-.587v-.517h-.03c-.04.083-.106.171-.199.266a1.152 1.152 0 01-.37.241 1.43 1.43 0 01-.564.1zm.089-.527c.232 0 .428-.046.587-.137a.942.942 0 00.363-.353.908.908 0 00.124-.455v-.537c-.025.03-.08.057-.164.082a2.784 2.784 0 01-.288.062c-.108.017-.213.032-.316.045-.101.012-.183.021-.246.03-.153.02-.295.052-.428.097a.732.732 0 00-.318.196.498.498 0 00-.119.353c0 .204.075.358.226.462.152.103.345.155.579.155zm5.436-2.526l-.527.149a.965.965 0 00-.147-.256.722.722 0 00-.258-.209.952.952 0 00-.42-.082c-.234 0-.429.054-.585.162-.154.106-.231.241-.231.405a.42.42 0 00.159.346c.106.084.272.154.498.211l.566.139c.342.083.596.21.763.38a.887.887 0 01.251.654.977.977 0 01-.188.587 1.26 1.26 0 01-.522.407 1.9 1.9 0 01-.781.15c-.389 0-.712-.085-.967-.254a1.126 1.126 0 01-.485-.741l.557-.139c.053.206.153.36.301.462.149.103.344.155.584.155.273 0 .491-.058.651-.174.163-.118.244-.259.244-.423a.442.442 0 00-.139-.333c-.093-.091-.236-.159-.428-.204l-.636-.149c-.35-.083-.607-.211-.771-.385a.937.937 0 01-.243-.659c0-.216.06-.406.181-.572.123-.166.289-.296.5-.39.212-.095.452-.142.721-.142.377 0 .674.083.89.249.217.165.371.384.462.656zm3.657 0l-.527.149a.965.965 0 00-.147-.256.722.722 0 00-.258-.209.946.946 0 00-.42-.082.998.998 0 00-.584.162c-.154.106-.232.241-.232.405a.42.42 0 00.16.346c.106.084.271.154.497.211l.566.139c.342.083.596.21.764.38a.891.891 0 01.251.654.97.97 0 01-.189.587 1.26 1.26 0 01-.522.407 1.9 1.9 0 01-.781.15c-.389 0-.712-.085-.967-.254a1.12 1.12 0 01-.484-.741l.556-.139c.053.206.154.36.301.462.149.103.344.155.584.155.274 0 .491-.058.652-.174.162-.118.243-.259.243-.423a.442.442 0 00-.139-.333c-.093-.091-.235-.159-.428-.204l-.636-.149c-.35-.083-.606-.211-.771-.385a.937.937 0 01-.243-.659c0-.216.06-.406.181-.572.123-.166.289-.296.5-.39.212-.095.452-.142.721-.142.378 0 .674.083.89.249.217.165.371.384.462.656zm1.818 2.963l-1.164-3.818h.617l.825 2.923h.04l.815-2.923h.627l.805 2.913h.04l.825-2.913h.617l-1.164 3.818h-.576l-.836-2.933h-.059l-.835 2.933h-.577zm6.244.08c-.345 0-.648-.082-.908-.247a1.673 1.673 0 01-.606-.688 2.332 2.332 0 01-.217-1.034c0-.398.073-.745.217-1.042.146-.296.348-.527.606-.691.26-.164.563-.246.908-.246.344 0 .646.082.904.246.261.164.463.395.607.691.146.297.219.644.219 1.042 0 .394-.073.739-.219 1.034a1.641 1.641 0 01-.607.688c-.258.165-.56.247-.904.247zm0-.527c.261 0 .477-.068.646-.202.169-.134.294-.31.375-.529.081-.219.122-.456.122-.711a2.06 2.06 0 00-.122-.714 1.202 1.202 0 00-.375-.534c-.169-.136-.385-.204-.646-.204-.262 0-.478.068-.647.204a1.202 1.202 0 00-.375.534 2.06 2.06 0 00-.122.714c0 .255.041.492.122.711.081.219.206.395.375.529s.385.202.647.202zm2.625.447v-3.818h.567v.577h.04a.908.908 0 01.378-.46c.182-.118.387-.177.616-.177a5.439 5.439 0 01.308.01v.597a1.638 1.638 0 00-.136-.023 1.428 1.428 0 00-.222-.017 1.04 1.04 0 00-.497.117.854.854 0 00-.467.778v2.416h-.587zm3.93.08a1.49 1.49 0 01-.842-.242 1.62 1.62 0 01-.572-.686c-.138-.296-.207-.647-.207-1.051 0-.401.069-.749.207-1.044.137-.295.329-.523.574-.684.245-.161.529-.241.85-.241.249 0 .445.042.589.124.146.082.257.174.333.279.078.103.139.187.182.253h.05v-1.879h.586v5.091h-.567v-.587h-.069c-.043.07-.105.158-.184.264-.08.104-.193.198-.341.281-.147.081-.344.122-.589.122zm.08-.527a.964.964 0 00.596-.184c.163-.125.286-.296.371-.515.084-.22.126-.475.126-.763 0-.285-.041-.535-.124-.748a1.081 1.081 0 00-.368-.502.978.978 0 00-.601-.182.988.988 0 00-.622.192 1.14 1.14 0 00-.37.514 2.051 2.051 0 00-.122.726c0 .272.042.519.124.741.085.22.209.396.373.527a.974.974 0 00.617.194z" fill="#fff"/><path d="M239.044 156.474v9" stroke="#fff" stroke-miterlimit="10"/><path d="M249.319 163.767l-1.099-1.593-1.08 1.593-1.392-1.027 1.209-1.427-1.722-.349.513-1.703 1.685.641-.092-1.721h1.739l-.182 1.758 1.795-.678.476 1.703-1.758.349 1.282 1.427-1.374 1.027zm10.148 0l-1.099-1.593-1.08 1.593-1.392-1.027 1.209-1.427-1.722-.349.513-1.703 1.685.641-.092-1.721h1.739l-.183 1.758 1.795-.678.476 1.703-1.758.349 1.282 1.427-1.373 1.027zm10.147 0l-1.099-1.593-1.08 1.593-1.392-1.027 1.209-1.427-1.722-.349.513-1.703 1.685.641-.092-1.721h1.739l-.183 1.758 1.795-.678.476 1.703-1.758.349 1.282 1.427-1.373 1.027zm10.147 0l-1.099-1.593-1.08 1.593-1.392-1.027 1.209-1.427-1.722-.349.513-1.703 1.685.641-.092-1.721h1.739l-.183 1.758 1.795-.678.476 1.703-1.758.349 1.282 1.427-1.373 1.027zm10.147 0l-1.099-1.593-1.08 1.593-1.392-1.027 1.209-1.427-1.722-.349.513-1.703 1.685.641-.092-1.721h1.739l-.183 1.758 1.795-.678.476 1.703-1.757.349 1.282 1.427-1.374 1.027zm10.147 0l-1.099-1.593-1.08 1.593-1.392-1.027 1.209-1.427-1.722-.349.513-1.703 1.685.641-.092-1.721h1.739l-.183 1.758 1.795-.678.476 1.703-1.758.349 1.282 1.427-1.373 1.027z" fill="#18203E"/><path d="M279.747 198.761H222.82c-5.643 0-10.26-4.617-10.26-10.26s4.617-10.26 10.26-10.26h56.927c5.643 0 10.26 4.617 10.26 10.26s-4.617 10.26-10.26 10.26z" fill="#FFCA45"/><path d="M231.878 182.871v8.804h-1.015v-8.804h1.015zm4.541 8.942c-.596 0-1.119-.142-1.569-.426a2.881 2.881 0 01-1.049-1.191c-.25-.51-.374-1.106-.374-1.788 0-.688.124-1.288.374-1.801a2.89 2.89 0 011.049-1.196c.45-.283.973-.425 1.569-.425s1.118.142 1.565.425c.45.284.8.683 1.049 1.196.252.513.378 1.113.378 1.801 0 .682-.126 1.278-.378 1.788a2.84 2.84 0 01-1.049 1.191c-.447.284-.969.426-1.565.426zm0-.912c.453 0 .825-.116 1.118-.348.292-.232.509-.537.649-.916.14-.378.211-.788.211-1.229 0-.441-.071-.853-.211-1.234a2.078 2.078 0 00-.649-.924c-.293-.235-.665-.353-1.118-.353-.453 0-.825.118-1.118.353a2.078 2.078 0 00-.649.924c-.14.381-.211.793-.211 1.234 0 .441.071.851.211 1.229.14.379.357.684.649.916.293.232.665.348 1.118.348zm7.206 3.388c-.49 0-.911-.063-1.263-.189a2.685 2.685 0 01-.882-.49 2.682 2.682 0 01-.554-.645l.808-.567c.092.12.208.257.348.412.14.158.333.294.576.409.247.117.569.176.967.176.534 0 .973-.129 1.32-.387.347-.258.52-.662.52-1.212v-1.342h-.085c-.075.121-.181.27-.319.447a1.798 1.798 0 01-.584.469c-.253.135-.594.202-1.024.202a2.754 2.754 0 01-1.435-.378 2.644 2.644 0 01-1.002-1.101c-.244-.481-.366-1.066-.366-1.754 0-.676.119-1.265.357-1.767.238-.504.569-.894.993-1.169.425-.278.915-.417 1.471-.417.43 0 .771.071 1.023.215.255.14.45.301.585.481.137.178.243.324.318.439h.103v-1.049h.98v6.792c0 .568-.129 1.029-.387 1.385a2.21 2.21 0 01-1.032.787c-.43.169-.908.253-1.436.253zm-.034-3.628c.407 0 .751-.093 1.032-.28.281-.186.494-.454.64-.804.147-.349.22-.768.22-1.255a3.43 3.43 0 00-.215-1.26 1.892 1.892 0 00-.637-.855c-.28-.207-.627-.31-1.04-.31-.43 0-.788.109-1.075.327-.283.218-.497.51-.64.877a3.38 3.38 0 00-.211 1.221c0 .459.072.864.215 1.217.146.349.361.624.645.825.286.198.642.297 1.066.297zm4.746 1.014v-6.603h1.015v6.603h-1.015zm.516-7.704a.718.718 0 01-.511-.202.647.647 0 01-.211-.486c0-.189.07-.351.211-.485a.719.719 0 01.511-.203c.198 0 .367.068.508.203a.64.64 0 01.214.485c0 .19-.071.351-.214.486a.707.707 0 01-.508.202zm3.372 3.732v3.972h-1.015v-6.603h.98v1.032h.086a1.89 1.89 0 01.705-.809c.316-.206.723-.309 1.221-.309.448 0 .839.092 1.174.275.335.181.596.456.783.825.186.367.279.832.279 1.393v4.196h-1.015v-4.127c0-.519-.134-.923-.404-1.212-.269-.293-.639-.439-1.109-.439-.324 0-.613.07-.868.211-.253.14-.452.345-.598.615-.146.269-.219.596-.219.98z" fill="#fff"/><path d="M331.419 261.324c-16.096-5.642-27.636-18.909-33.371-38.369-4.196-14.232-3.823-26.742-3.806-27.268l.147-4.399 4.35-.691c11.726-1.862 22.764-8.297 30.285-17.655l4.16-5.177 4.16 5.177c7.521 9.357 18.559 15.792 30.285 17.655l4.348.691.149 4.4c.018.525.391 13.033-3.806 27.268-5.736 19.46-17.276 32.727-33.371 38.37l-1.766.619-1.764-.621z" fill="#18203E"/><path d="M333.184 170.16l2.991 3.722c7.751 9.644 19.13 16.277 31.219 18.197l3.126.497.107 3.163c.017.516.38 12.798-3.745 26.793-5.594 18.977-16.808 31.902-32.429 37.378l-1.27.445-1.269-.445c-15.621-5.476-26.835-18.401-32.429-37.378-4.126-13.995-3.763-26.277-3.745-26.793l.107-3.163 3.126-.497c12.09-1.92 23.468-8.553 31.219-18.197l2.992-3.722zm0-4.789l-2.338 2.91-2.991 3.722c-7.29 9.071-17.988 15.309-29.351 17.113l-3.126.497-2.445.387-.084 2.473-.107 3.163c-.018.536-.394 13.291 3.866 27.743 5.879 19.941 17.744 33.552 34.314 39.361l1.269.445.993.348.992-.348 1.27-.445c16.57-5.809 28.435-19.419 34.314-39.361 4.261-14.454 3.884-27.207 3.866-27.742l-.107-3.164-.084-2.473-2.444-.388-3.126-.497c-11.363-1.805-22.061-8.042-29.351-17.113l-2.991-3.722-2.339-2.909z" fill="#fff"/><path d="M321.376 204.479l23.616 23.616m0-23.616l-23.616 23.616" stroke="#18203E" stroke-width="3" stroke-miterlimit="10"/><path d="M65.656 294.09H48.54c-2.2 0-4-1.8-4-4v-13.809c0-2.2 1.8-4 4-4h17.118c2.2 0 4 1.8 4 4v13.809c0 2.2-1.8 4-4 4z" stroke="#fff" stroke-width="2" stroke-miterlimit="10"/><path d="M57.974 283.26a2.003 2.003 0 10-1.752 0l-1.524 4.487h4.801l-1.525-4.487z" fill="#fff"/><path d="M48.89 266.695a8.208 8.208 0 0116.416 0v5.587" stroke="#fff" stroke-width="2" stroke-miterlimit="10"/><path d="M353.216 79.737c1.601-6.747-2.57-13.515-9.317-15.117-6.747-1.602-13.516 2.57-15.117 9.316-1.602 6.748 2.569 13.516 9.316 15.118 6.747 1.602 13.516-2.57 15.118-9.317z" fill="#FFCA45"/><path d="M342.531 73.71l-.862 6.344h-1.375l-.842-6.343V69.4h3.079v4.31zm0 10.593h-3.079v-2.997h3.079v2.997z" fill="#18203E"/><path d="M388.392 280.499l10.494 10.494m0-10.494l-10.494 10.494M303.844 45.982l10.493 10.494m0-10.494l-10.493 10.494M69.351 145.494l10.494 10.494m0-10.494l-10.494 10.494m43.492 38.119l5.247 5.248m0-5.248l-5.247 5.248" stroke="#18203E" stroke-width="2" stroke-miterlimit="10"/><path d="M199.052 333.311l5.247 5.247m0-5.247l-5.247 5.247m-88.206-105.2h54.35a3.684 3.684 0 013.673 3.673v114.31a3.684 3.684 0 01-3.673 3.673H87.687a3.684 3.684 0 01-3.673-3.673v-98.368" stroke="#fff" stroke-width="2" stroke-miterlimit="10"/><path d="M163.467 240.631h-74.05v98.515h74.05v-98.515z" fill="#18203E"/><path d="M132.716 303.685c8.438-3.454 12.477-13.094 9.023-21.532-3.454-8.437-13.094-12.477-21.532-9.022-8.437 3.454-12.477 13.094-9.023 21.531 3.455 8.438 13.095 12.477 21.532 9.023z" stroke="#fff" stroke-width="2" stroke-miterlimit="10"/><path d="M128.466 284.269l-1.133 8.339h-1.808l-1.106-8.339v-5.667h4.048l-.001 5.667zm0 13.925h-4.048v-3.94h4.048v3.94z" fill="#FFCA45"/><path d="M130.409 345.956a3.967 3.967 0 11-7.934 0 3.967 3.967 0 017.934 0z" stroke="#fff" stroke-miterlimit="10"/><path d="M131.951 238.574h-11.02a1.105 1.105 0 01-1.102-1.102c0-.606.496-1.102 1.102-1.102h11.02c.606 0 1.102.496 1.102 1.102 0 .606-.496 1.102-1.102 1.102z" fill="#18203E"/><path d="M106.207 184.761H58.393v63.855h47.814v-63.855z" fill="#fff"/><path d="M122.711 162.678c-3.545-4.182-5.332-2.956-7.4-1.534l-.378.258c-.638.433-1.714-.382-2.502-1.142-1.001-.966-2.196-2.471-3.55-4.473-4.066-6.012-3.424-7.392-2.959-7.707l.378-.253c2.09-1.391 3.895-2.592 1.331-7.44-.868-1.643-1.842-2.572-2.977-2.841-1.641-.387-3.166.699-4.512 1.659-.225.161-.446.318-.659.462-2.647 1.79-2.37 10.154 4.092 19.709 5.472 8.088 11.598 11.551 15.037 11.551.687 0 1.267-.138 1.713-.405l.373-.221c1.446-.853 3.246-1.914 3.546-3.689.202-1.192-.3-2.479-1.533-3.934z" fill="#FFCA45"/><path d="M317.695 86.46h-43.448v7.767h43.448V86.46z" fill="#18203E"/><path d="M315.366 72.5h-38.79a2.33 2.33 0 00-2.329 2.329v23.262a2.33 2.33 0 002.329 2.329h38.79a2.33 2.33 0 002.329-2.329V74.829a2.33 2.33 0 00-2.329-2.329z" stroke="#fff" stroke-width="2" stroke-miterlimit="10"/><path d="M312.548 83.513h-8.01a1.62 1.62 0 01-1.62-1.62v-3.441c0-.895.725-1.62 1.62-1.62h8.01c.895 0 1.62.725 1.62 1.62v3.441a1.62 1.62 0 01-1.62 1.62z" fill="#FFCA45"/><path d="M385.246 310.653a2.779 2.779 0 00-2.779-2.778h-75.416a2.778 2.778 0 00-2.778 2.778v8.644h80.973v-8.644z" stroke="#fff" stroke-width="2" stroke-miterlimit="10"/><path d="M317.408 313.034h-3.106a.63.63 0 01-.63-.63v-9.06a.63.63 0 01.63-.63h3.106a.63.63 0 01.63.63v9.06a.63.63 0 01-.63.63zm11.562 0h-3.106a.63.63 0 01-.63-.63v-9.06a.63.63 0 01.63-.63h3.106a.63.63 0 01.63.63v9.06a.63.63 0 01-.63.63zm11.562 0h-3.106a.63.63 0 01-.63-.63v-9.06a.63.63 0 01.63-.63h3.106a.63.63 0 01.63.63v9.06a.63.63 0 01-.63.63zm11.561 0h-3.106a.63.63 0 01-.63-.63v-9.06a.63.63 0 01.63-.63h3.106a.63.63 0 01.63.63v9.06a.63.63 0 01-.63.63zm11.562 0h-3.106a.63.63 0 01-.63-.63v-9.06a.63.63 0 01.63-.63h3.106a.63.63 0 01.63.63v9.06a.63.63 0 01-.63.63zm11.562 0h-3.106a.63.63 0 01-.63-.63v-9.06a.63.63 0 01.63-.63h3.106a.63.63 0 01.63.63v9.06a.63.63 0 01-.63.63z" fill="#18203E"/><path d="M350.544 354.25h-11.568v11.651h11.568V354.25zm0-23.302h-11.568v11.651h11.568v-11.651z" stroke="#fff" stroke-width="2" stroke-miterlimit="10"/><path d="M350.544 319.297h-11.568v11.651h11.568v-11.651z" stroke="#fff" stroke-width="2" stroke-miterlimit="10"/><path d="M350.544 342.599h-11.568v11.651h11.568v-11.651zm-23.135-23.302h-11.568v11.651h11.568v-11.651z" fill="#18203E" stroke="#fff" stroke-width="2" stroke-miterlimit="10"/><path d="M327.409 330.948h-11.568v11.651h11.568v-11.651zm0 11.651h-11.568v11.651h11.568v-11.651zm0 11.651h-11.568v11.651h11.568V354.25zm-23.136 0v8.873a2.779 2.779 0 002.778 2.779h8.789V354.25h-11.567zm11.567-34.953h-11.567v11.651h11.567v-11.651zm0 23.302h-11.567v11.651h11.567v-11.651z" stroke="#fff" stroke-width="2" stroke-miterlimit="10"/><path d="M315.84 330.948h-11.567v11.651h11.567v-11.651zm23.136 11.651h-11.568v11.651h11.568v-11.651zm0-11.651h-11.568v11.651h11.568v-11.651z" stroke="#fff" stroke-width="2" stroke-miterlimit="10"/><path d="M338.976 319.297h-11.568v11.651h11.568v-11.651zm0 34.953h-11.568v11.651h11.568V354.25zm23.135 0h-11.568v11.651h11.568V354.25zm0-34.953h-11.568v11.651h11.568v-11.651zm0 23.302h-11.568v11.651h11.568v-11.651z" stroke="#fff" stroke-width="2" stroke-miterlimit="10"/><path d="M362.111 330.948h-11.568v11.651h11.568v-11.651z" stroke="#fff" stroke-width="2" stroke-miterlimit="10"/><path d="M385.246 342.599h-11.568v11.651h11.568v-11.651z" fill="#FFCA45" stroke="#fff" stroke-width="2" stroke-miterlimit="10"/><path d="M373.678 365.901h8.789a2.779 2.779 0 002.779-2.779v-8.873h-11.568v11.652zm11.568-46.604h-11.568v11.651h11.568v-11.651z" fill="#FFCA45" stroke="#fff" stroke-width="2" stroke-miterlimit="10"/><path d="M385.246 330.948h-11.568v11.651h11.568v-11.651z" fill="#FFCA45" stroke="#fff" stroke-width="2" stroke-miterlimit="10"/><path d="M373.679 354.25h-11.568v11.651h11.568V354.25zm0-34.953h-11.568v11.651h11.568v-11.651z" stroke="#fff" stroke-width="2" stroke-miterlimit="10"/><path d="M373.679 330.948h-11.568v11.651h11.568v-11.651zm0 11.651h-11.568v11.651h11.568v-11.651z" stroke="#fff" stroke-width="2" stroke-miterlimit="10"/><path d="M400.503 322.259l-1.166-1.69-1.145 1.69-1.476-1.089 1.282-1.514-1.826-.37.544-1.806 1.787.68-.098-1.825h1.844l-.194 1.864 1.904-.719.505 1.806-1.864.37 1.359 1.514-1.456 1.089z" fill="#fff"/><path d="M192.045 316.939l-1.691-2.451-1.661 2.451-2.14-1.579 1.86-2.195-2.649-.536.789-2.619 2.592.986-.141-2.647h2.674l-.281 2.704 2.761-1.043.732 2.619-2.704.536 1.971 2.195-2.112 1.579z" fill="#18203E"/><path d="M228.304 82.775l-1.166-1.69-1.146 1.69-1.476-1.089 1.282-1.514-1.826-.37.544-1.806 1.787.68-.098-1.825h1.844l-.194 1.864 1.904-.719.505 1.806-1.864.37 1.359 1.514-1.455 1.09zm161.273 61.137l-1.166-1.69-1.145 1.69-1.476-1.089 1.282-1.514-1.827-.37.544-1.806 1.787.68-.098-1.825h1.844l-.194 1.864 1.904-.719.505 1.806-1.864.37 1.359 1.514-1.455 1.089z" fill="#fff"/></g><defs><clipPath id="clip0_1368_3533"><path fill="#fff" d="M0 0h500v372H0z"/></clipPath></defs></svg>