<svg width="500" height="500" fill="none" xmlns="http://www.w3.org/2000/svg"><g clip-path="url(#clip0_1410_172)"><path opacity=".3" d="M476.547 266.5c0-5.093-4.127-9.5-9.22-9.5h-66.03c-5.092 0-9.221 4.407-9.221 9.5s4.129 9.5 9.221 9.5H412.6c5.092 0 9.221 3.907 9.221 9 0 5.092-4.129 9-9.221 9h-17.846c-5.093 0-9.221 4.408-9.221 9.5s4.128 9.5 9.221 9.5h-.397c5.093 0 9.221 3.908 9.221 9 0 5.093-4.128 9-9.221 9H368.58c-5.093 0-9.22 4.407-9.22 9.5s4.127 9.5 9.22 9.5h98.748c5.093 0 9.22-4.407 9.22-9.5s-4.127-9.5-9.22-9.5h2.12c-5.092 0-9.22-3.907-9.22-9 0-5.092 4.128-9 9.22-9h-2.12c5.093 0 9.22-4.408 9.22-9.5s-4.127-9.5-9.22-9.5h.721c-5.093 0-9.22-3.908-9.22-9 0-5.093 4.127-9 9.22-9h-.721c5.092 0 9.219-4.407 9.219-9.5zM144.71 135c0-6.113-4.956-11-11.069-11h.866c-6.113 0-11.068-4.887-11.068-11s4.955-11 11.068-11h-.866c6.113 0 11.069-5.387 11.069-11.5S139.754 79 133.641 79h-87.12c-6.113 0-11.068 5.387-11.068 11.5S40.408 102 46.521 102h21.423c6.113 0 11.068 4.887 11.068 11s-4.955 11-11.068 11H46.521c-6.113 0-11.068 4.887-11.068 11s4.955 11 11.068 11h-.476c6.112 0 11.067 4.387 11.067 10.5S52.158 167 46.046 167h.476c-6.113 0-11.068 5.387-11.068 11.5S40.408 190 46.521 190h87.119c6.113 0 11.069-5.387 11.069-11.5S139.753 167 133.64 167h2.546c-6.113 0-11.068-4.387-11.068-10.5s4.955-10.5 11.068-10.5h-2.546c6.114 0 11.07-4.887 11.07-11zM118 292.042c0 6.605-5.354 11.958-11.958 11.958H79.958C73.354 304 68 298.647 68 292.042v-.084C68 285.353 73.354 280 79.958 280h26.084c6.604 0 11.958 5.353 11.958 11.958v.084zm304-223C422 75.646 416.646 81 410.042 81h-26.084C377.353 81 372 75.646 372 69.042v-.084C372 62.354 377.353 57 383.958 57h26.084C416.646 57 422 62.354 422 68.958v.084zm-326 272C96 347.647 90.646 353 84.042 353H57.958C51.354 353 46 347.647 46 341.042v-.084C46 334.353 51.354 329 57.958 329h26.084C90.646 329 96 334.353 96 340.958v.084zm356-237c0 6.604-5.354 11.958-11.958 11.958h-26.084c-6.605 0-11.958-5.354-11.958-11.958v-.084C402 97.354 407.353 92 413.958 92h26.084C446.646 92 452 97.354 452 103.958v.084z" fill="#CCC9F3"/><path d="M86.5 220v7m0 14v-7m10.5-3.5h-7m-14 0h7M324.5 118v7m0 14v-7m10.5-3.5h-7m-14 0h7m83.5 98.5v7m0 14v-7m10.5-3.5h-7m-14 0h7M131.5 363v7m0 14v-7m10.5-3.5h-7m-14 0h7" stroke="#3C3633" stroke-width="3" stroke-miterlimit="10"/><path d="M43 387.5h22m3 0h11m-25 6h22m327-241h22m3 0h11m-25 6h22m-46 232h22m3 0h11m-25 6h22M61 54.5h22m3 0h11m-25 6h22" stroke="#CCC9F3" stroke-width="3" stroke-miterlimit="10"/><path d="M121.176 336.602c-11.305-21.187 36.655-68.845 107.121-106.446 70.467-37.602 136.757-50.909 148.063-29.722" stroke="#333" stroke-width="3" stroke-miterlimit="10" stroke-linecap="round" stroke-linejoin="round"/><path d="M120.692 201.349c11.154-21.267 77.538-8.435 148.271 28.661 70.734 37.097 119.034 84.41 107.881 105.678" stroke="#333" stroke-width="4" stroke-miterlimit="10" stroke-linecap="round" stroke-linejoin="round"/><path d="M207.946 347.495l-42.662 41.192s-4.132-5.94-9.95-3.33c-5.257 2.358-9.89 44.918 20.376 78.857l12.055-22.943 40.905-42.649-20.724-51.127zm84.108 0l42.662 41.192s4.132-5.94 9.95-3.33c5.258 2.358 9.891 44.918-20.377 78.857l-12.055-22.943-40.905-42.649 20.725-51.127z" fill="#FFC96B"/><path d="M297.78 407.105c8.136-30.131 12.977-67.74 12.977-108.555 0-132.995-63.494-179.238-63.494-179.238s-63.495 44.818-63.495 179.238c0 40.814 4.841 78.424 12.98 108.555H297.78z" fill="#CCC9F3"/><path opacity=".3" d="M199.889 288c.138-44.403 6.517-74.107 25.882-124.827 6.16-14.374 11.027-22.883 21.491-43.86 0 0-63.495 44.818-63.495 179.238 0 40.814 4.841 78.424 12.98 108.555h33.631c-22.563-39.309-27.369-73.397-30.489-119.106z" fill="#CCC9F3"/><path d="M310.773 245l-1.786-13.001s-20.25 10.22-61.715 10.727c-41.469-.506-61.719-10.727-61.719-10.727L183.768 245c15.294 10.395 50.124 11.204 63.505 11.204 13.378 0 48.205-.809 63.5-11.204z" fill="#FFC96B"/><path d="M247.289 347.185c18.328 0 33.185-14.857 33.185-33.185 0-18.327-14.857-33.185-33.185-33.185-18.328 0-33.185 14.858-33.185 33.185 0 18.328 14.857 33.185 33.185 33.185z" fill="#FFFFFC"/><path opacity=".2" d="M258.598 282.803a32.968 32.968 0 00-7.379-1.748c-12.287 12.375-24.563 24.762-36.84 37.146a32.972 32.972 0 001.851 7.472c14.108-14.305 28.211-28.615 42.368-42.87zm-28.503 59.563a21538.703 21538.703 0 0145.45-45.738 33.341 33.341 0 00-8.351-9.164 18329.814 18329.814 0 01-46.359 46.549 33.365 33.365 0 009.26 8.353zm22.372 4.414l27.601-27.592a33.156 33.156 0 00-.687-13.615 22084.99 22084.99 0 00-40.452 40.535 33.193 33.193 0 0013.538.672z" fill="#CCC9F3"/><path d="M247.289 357.495c24.022 0 43.495-19.473 43.495-43.495s-19.473-43.495-43.495-43.495-43.495 19.473-43.495 43.495 19.473 43.495 43.495 43.495z" stroke="#FFFFFC" stroke-width="5" stroke-miterlimit="10" stroke-linecap="round" stroke-linejoin="round"/><path d="M194.815 243.249a1.524 1.524 0 11-3.047 0 1.524 1.524 0 013.047 0zm109.999-2a1.523 1.523 0 11-3.047.001 1.523 1.523 0 013.047-.001zm-3 131a1.523 1.523 0 11-3.047.001 1.523 1.523 0 013.047-.001zm1-7a1.523 1.523 0 11-3.047.001 1.523 1.523 0 013.047-.001z" fill="#FFFFFC"/><path opacity=".4" d="M200.217 244s51.535 13.574 95.708-.227" stroke="#FFFFFC" stroke-width="2" stroke-miterlimit="10"/><path d="M247 178.991c26-.196 37.855-9.077 37.855-9.077-13.429-32.693-37.776-50.601-37.776-50.601s.185.01-.079 0c0 0-23.388 17.772-37.78 50.601 0 0 10.78 8.88 36.78 9.077V179l.5-.005.5.005v-.009z" fill="#FFC96B"/><path d="M297.603 127.249a1.523 1.523 0 11-3.047.001 1.523 1.523 0 013.047-.001z" fill="#FFFFFC"/><path d="M376.844 335.688c-11.153 21.267-77.537 8.435-148.271-28.662-70.733-37.096-119.034-84.409-107.88-105.677" stroke="#333" stroke-width="4" stroke-miterlimit="10" stroke-linecap="round" stroke-linejoin="round"/><path d="M376.36 200.434c11.306 21.186-36.655 68.844-107.122 106.446-70.466 37.602-136.756 50.909-148.062 29.722" stroke="#333" stroke-width="3" stroke-miterlimit="10" stroke-linecap="round" stroke-linejoin="round"/><path d="M292.603 122.249a1.523 1.523 0 11-3.047.001 1.523 1.523 0 013.047-.001z" fill="#FFFFFC"/><path d="M135.386 231.617a5.897 5.897 0 11-11.794-.002 5.897 5.897 0 0111.794.002zm233.981 66.465a5.897 5.897 0 11-11.758-.932 5.897 5.897 0 0111.758.932zm-28-107a5.897 5.897 0 11-11.758-.932 5.897 5.897 0 0111.758.932zm-167 155a5.897 5.897 0 11-11.758-.932 5.897 5.897 0 0111.758.932z" fill="#CCC9F3"/><path d="M382.998 454.936s33.858-17.9 57.102 15.421" stroke="#FFFFFC" stroke-width="2" stroke-miterlimit="10" stroke-dasharray="5 6"/><mask id="a" style="mask-type:luminance" maskUnits="userSpaceOnUse" x="0" y="0" width="500" height="500"><path d="M500 0H0v500h500V0z" fill="#fff"/></mask><g mask="url(#a)"><path d="M151.794 502.701c.41-2.684.623-5.432.623-8.23 0-29.864-24.21-54.073-54.074-54.073-29.863 0-54.074 24.209-54.074 54.073 0 2.799.212 5.547.623 8.23h106.902z" fill="#CCC9F3" stroke="#CCC9F3" stroke-miterlimit="10"/><path d="M172.923 461.885c.408-16.297-12.473-29.839-28.771-30.247-16.297-.407-29.839 12.474-30.247 28.772-.407 16.297 12.474 29.839 28.771 30.247 16.298.407 29.84-12.474 30.247-28.772z" fill="#CCC9F3" stroke="#CCC9F3" stroke-miterlimit="10"/><path d="M183.438 483.64l22.873 2.089c21.98-3.189 39.742-21.072 41.85-44.16 2.467-27.03-17.445-50.94-44.474-53.409-27.029-2.466-50.941 17.443-53.408 44.473-2.109 23.088 12.119 43.89 33.159 51.007z" fill="#CCC9F3" stroke="#CCC9F3" stroke-miterlimit="10"/><path d="M337.775 433.276c0 29.863-24.209 54.074-54.072 54.074-29.865 0-54.076-24.211-54.076-54.074 0-29.864 24.21-54.074 54.076-54.074 29.863 0 54.072 24.21 54.072 54.074z" fill="#CCC9F3" stroke="#CCC9F3" stroke-miterlimit="10"/><path d="M380.569 494.903a43.65 43.65 0 006.591-23.118c0-24.225-19.637-43.862-43.861-43.862-24.224 0-43.86 19.638-43.86 43.862a43.65 43.65 0 006.591 23.118h74.539z" fill="#CCC9F3" stroke="#CCC9F3" stroke-miterlimit="10"/><path d="M455.536 502.701c.118-1.462.195-2.937.195-4.428 0-29.866-24.209-54.076-54.074-54.076s-54.073 24.21-54.073 54.076c0 1.491.076 2.966.195 4.428h107.757z" fill="#CCC9F3" stroke="#CCC9F3" stroke-miterlimit="10"/><path d="M385.668 502.701c-2.62-27.425-25.71-48.873-53.821-48.873-28.111 0-51.2 21.448-53.82 48.873h107.641z" fill="#CCC9F3" stroke="#CCC9F3" stroke-miterlimit="10"/><path d="M313.449 502.701c-2.618-27.425-25.709-48.873-53.82-48.873-28.11 0-51.202 21.448-53.82 48.873h107.64z" fill="#CCC9F3" stroke="#CCC9F3" stroke-miterlimit="10"/><path d="M237.002 502.701c-6.449-22.652-27.278-39.244-51.999-39.244-24.72 0-45.549 16.592-51.998 39.244h103.997z" fill="#CCC9F3" stroke="#CCC9F3" stroke-miterlimit="10"/><path d="M181.415 502.701c-8.44-18.867-27.363-32.023-49.371-32.023-22.009 0-40.932 13.156-49.372 32.023h98.743z" fill="#CCC9F3" stroke="#CCC9F3" stroke-miterlimit="10"/><path d="M121.332 495.009c1.895-.568 3.457-1.133 5.352-1.688.211-.06.316-.08.316-.12v-.669c0-.146-.172-.503-.225-.828-.145-.888-.182-1.768-.32-2.577-.378-.277-.674-.225-.998-.218-1.611.013-3.188.046-4.797.073-.332.006-.649 0-1.06 0-.14-.378-.277-.75-.41-1.133-.125-.378-.229-.77-.361-1.193 1.013-.682 1.982-1.311 2.924-1.974.907-.643 1.868-1.22 2.683-2.048a22.47 22.47 0 00-1.914-3.743c-1.152.232-2.225.656-3.312 1.034-1.053.371-2.092.769-3.206 1.172-.476-.636-.94-1.259-1.438-1.928.14-.225.252-.45.405-.648 1.02-1.339 2.047-2.67 3.06-4.008.225-.292.411-.609.637-.941a27.02 27.02 0 00-2.989-2.987c-1.039.55-1.92 1.291-2.841 1.98-.894.67-1.756 1.378-2.656 2.08-.438-.119-.716-.438-1.04-.669-.331-.231-.709-.418-.987-.822.743-2.106 1.624-4.199 2.193-6.459-1.206-.748-2.431-1.357-3.756-1.921-.179.192-.378.364-.518.564a861.141 861.141 0 00-2.881 4.141c-.192.271-.378.55-.576.848-.855-.086-1.59-.424-2.405-.722.066-1.955.14-3.902.1-5.856a47.669 47.669 0 00-.026-1 1.694 1.694 0 00-.193-.047c-1.331-.345-2.63-.511-3.975-.629-.119.272-.245.496-.318.735-.51 1.676-1.013 3.023-1.523 4.699-.08.279-.187.494-.278.494H91.64c-.106 0-.231-.203-.312-.475-.47-1.576-.92-2.985-1.404-4.561-.106-.345-.166-.646-.497-.984-.577.061-1.166.169-1.749.249-.762.112-1.523.272-2.285.484-.219.768-.1 1.526-.113 2.262-.013.788.013 1.577.032 2.365.008.212.021.433.027.65.026.523.053 1.063.079 1.632-.782.259-1.517.505-2.313.763-.191-.238-.384-.457-.55-.695a51.733 51.733 0 01-.45-.663 842.618 842.618 0 00-2.213-3.213c-.238-.338-.503-.648-.741-.953-.987.198-2.684 1.033-3.862 1.9.516 2.187 1.431 4.268 2.172 6.434-.589.576-1.272.946-1.913 1.47-.233-.146-.458-.271-.656-.423-.358-.278-.722-.551-1.08-.835-.913-.696-1.829-1.405-2.743-2.101-.324-.245-.669-.464-1.066-.742-1.14.868-2.081 1.908-3.047 2.968.437.815.974 1.517 1.51 2.213 0 0 0 .007.006.007.166.219.331.431.491.643.252.331.503.656.762.987.258.331.516.663.781.994.179.225.365.456.55.695-.45.722-.914 1.385-1.457 1.994a2068.3 2068.3 0 01-6.321-2.213c-.357.364-.775.994-1.146 1.709-.133.239-.259.49-.371.749-.093.205-.187.417-.265.622a9.09 9.09 0 00-.266.756c.187.172.384.397.616.563 1.318.922 2.644 1.835 3.962 2.75.305.205.603.417.968.662-.253.775-.484 1.518-.73 2.285-.112.007-.218.02-.317.027-.1.006-.193.025-.285.025h-.206c-1.644-.025-3.287-.068-4.929-.095-.372 0-.742.03-1.081.05-.298.756-.503 1.624-.623 2.71-.046.444-.086.926-.106 1.45.205.092.424.232.663.304.503.152 1.014.306 1.523.458.643.198 1.292.391 1.942.589.523.152 1.037.312 1.56.471.278.086.812.186.812.272v2.444c0 .192-1.232-.652-1.868.348h-.007c-1.133 0-2.252.728-3.346 1.102-.424.139-.834.342-1.245.507-.033 1.213.192 2.762.609 4.206.709.212 1.458-.358 2.199-.345.749.02 1.497-.47 2.246-.47h.106c.623 0 1.253.397 1.888.357l.358.207c.086.18.166.467.238.645.245.603.404 1.27.569 1.926-.125.086-.251.2-.377.279-.822.55-1.623 1.101-2.417 1.651-.915.643-1.815 1.313-2.69 1.941.04.252.125.566.251.904.053.165.127.338.199.511.007.007.007.017.007.023.365.828.881 1.748 1.418 2.471.257-.054.55-.093.828-.186 1.517-.523 3.028-1.06 4.544-1.597.344-.119.689-.244 1.1-.396.484.655.947 1.278 1.444 1.947-.145.226-.271.438-.424.637-1 1.312-2.007 2.609-3.001 3.915-.225.298-.424.609-.616.9.418.809 1.822 2.259 2.994 3.107.953-.589 1.868-1.292 2.783-1.987.887-.683 1.762-1.385 2.695-2.113l1.949 1.411c-.066.258-.112.503-.193.741-.556 1.584-1.119 3.167-1.675 4.75-.113.318-.193.644-.278.948.688.669 2.471 1.609 3.816 2.014.206-.259.456-.523.669-.821.9-1.286 1.782-2.584 2.677-3.875.185-.272.376-.537.589-.842.828.205 1.597.437 2.385.801a75.712 75.712 0 00-.132 6.685c.994.458 2.835.672 4.287.625.814-2.086 1.338-4.58 1.987-6.58h2.47c.663 2 1.173 4.481 2.015 6.627 1.444-.02 2.782-.235 4.153-.554.206-.755-.056-1.48-.036-2.217.013-.781-.168-1.545-.168-2.326v-2.306c1-.312 1.593-.576 2.461-.735 1.245 1.861 2.521 3.75 3.906 5.466.94-.146 2.732-1.001 3.918-1.882-.523-2.18-1.414-4.267-2.174-6.459.642-.484 1.274-.947 1.95-1.451.245.166.501.317.726.49 1.338 1.021 2.672 2.047 4.011 3.061.264.199.557.364.815.523.974-.716 2.2-1.928 3.009-2.981-.537-1.007-1.286-1.888-1.975-2.809-.669-.901-1.378-1.762-2.086-2.67.219-.357.438-1.084.683-1.422.238-.33.497-.356.782-1.356h.006c2.166 1 4.246 2.037 6.425 2.549.736-.994 1.518-2.326 1.949-3.586-.173-.152-.345-.25-.55-.395-1.346-.947-2.703-1.833-4.049-2.773-.304-.205-.609-.394-.94-.618.179-.842.438-1.593.796-2.401.516.04 1.032.08 1.556.101.517.025 1.04.041 1.563.055 1.206.032 2.418.022 3.644-.018.365-.809.365-1.675.543-2.503.046-.219-.2-.457-.113-.656.06-.152.145-.252.145-.371v-.676c0-.357-1.82-.729-2.959-1.072-1.147-.339-2.041-.649-3.041-.987v-2.392c0-.102.158-.194.332-.248zm-4.003 3.471c-.941 11.196-9.434 20.246-20.365 22.034a24.03 24.03 0 01-3.995.331c-9.4 0-17.556-5.3-21.649-13.077a24.233 24.233 0 01-2.226-6.081 21.302 21.302 0 01-.352-1.981 23.92 23.92 0 01-.225-3.313c0-1.357.112-2.696.331-3.994a24.289 24.289 0 012.709-7.817 24.137 24.137 0 013.127-4.419 20.96 20.96 0 011.193-1.252 24.224 24.224 0 015.664-4.134 24.238 24.238 0 019.341-2.743c.69-.065 1.384-.093 2.087-.093 13.502 0 24.453 10.944 24.453 24.452 0 .704-.026 1.399-.093 2.087z" fill="#333"/><path d="M92.894 475.329c-11.636 0-21.069 9.433-21.069 21.068 0 11.636 9.433 21.069 21.07 21.069 11.635 0 21.068-9.434 21.068-21.069s-9.433-21.068-21.069-21.068zm0 28.118a7.05 7.05 0 110-14.098 7.05 7.05 0 010 14.098z" fill="#F0F4F8"/><path d="M311.672 430.849c1.895-.568 3.287-1.133 5.182-1.688.211-.06.147-.08.147-.12v-.669c0-.146.168-.503.115-.828-.145-.888-.011-1.769-.149-2.577-.379-.277-.589-.225-.913-.218-1.611.013-3.146.046-4.755.073-.331.006-.626 0-1.036 0-.141-.378-.268-.75-.4-1.133-.126-.378-.224-.77-.355-1.193 1.014-.682 1.984-1.311 2.926-1.974.906-.643 1.868-1.22 2.685-2.048a22.464 22.464 0 00-1.913-3.743c-1.151.232-2.226.656-3.311 1.034-1.054.371-2.093.769-3.207 1.172-.477-.636-.941-1.259-1.438-1.928.14-.225.252-.45.405-.648 1.02-1.339 2.047-2.67 3.06-4.008.226-.292.412-.609.637-.941a27.011 27.011 0 00-2.988-2.987c-1.039.55-1.92 1.291-2.842 1.98-.895.67-1.756 1.378-2.656 2.08-.438-.119-.716-.438-1.041-.669-.33-.231-.709-.418-.986-.822.742-2.107 1.623-4.199 2.193-6.459-1.207-.748-2.432-1.357-3.757-1.921-.179.192-.378.364-.518.563a939.746 939.746 0 00-2.882 4.141c-.191.271-.377.55-.576.848-.854-.086-1.59-.424-2.404-.722.065-1.955.139-3.902.1-5.856-.007-.331-.014-.669-.026-1a1.73 1.73 0 00-.192-.047c-1.332-.345-2.631-.511-3.975-.629-.119.271-.245.496-.318.735-.51 1.676-1.014 3.103-1.523 4.779-.08.279-.187.574-.278.574h-2.358c-.106 0-.232-.283-.313-.555-.469-1.576-.92-3.025-1.403-4.602-.106-.345-.166-.667-.497-1.005-.577.061-1.166.159-1.75.239-.762.112-1.522.267-2.284.479-.219.768-.101 1.524-.112 2.259-.014.789.012 1.577.031 2.365.008.212.022.432.027.649.026.523.054 1.062.08 1.631-.782.259-1.518.505-2.313.763-.191-.238-.385-.457-.551-.695-.15-.219-.304-.444-.449-.663a976.13 976.13 0 00-2.213-3.213c-.238-.338-.504-.648-.742-.953-.986.198-2.684 1.033-3.861 1.9.516 2.187 1.431 4.268 2.172 6.434-.589.576-1.272.946-1.914 1.47-.232-.146-.457-.271-.656-.423-.357-.278-.721-.551-1.08-.835-.913-.696-1.828-1.405-2.742-2.101-.324-.245-.67-.464-1.066-.742-1.141.868-2.081 1.908-3.047 2.968.437.815.974 1.518 1.51 2.213 0 0 0 .007.006.007.166.219.332.431.49.643.252.331.504.656.763.987.259.331.517.663.781.994.179.225.364.456.55.695-.45.722-.914 1.385-1.457 1.994-2.146-.749-4.253-1.484-6.32-2.213-.357.364-.775.994-1.145 1.709a8.15 8.15 0 00-.371.749 11.832 11.832 0 00-.531 1.378c.186.172.384.397.615.563 1.318.922 2.645 1.835 3.963 2.75.305.205.603.417.967.662-.252.775-.483 1.517-.729 2.285-.112.007-.218.1-.317.107-.1.006-.192.105-.284.105h-.206c-1.643 0-3.286-.148-4.928-.174-.372 0-.742-.011-1.081.009-.298.756-.503 1.604-.622 2.689-.047.444-.086.916-.107 1.44.205.092.424.227.663.299.503.152 1.014.303 1.523.455.643.199 1.292.391 1.941.589.523.152.696.311 1.22.47.277.086.471.185.471.271v2.444c0 .192-.552-.492-1.187.508h-.008c-1.133 0-2.252.648-3.346 1.022-.424.139-.834.302-1.245.467-.033 1.213.192 2.741.609 4.185.709.212 1.458-.286 2.199-.273.749.02 1.497-.4 2.246-.4h.107c.622 0 1.252.316 1.888.277l.358.167c.086.18.166.446.238.625.244.603.403 1.26.568 1.916-.125.086-.25.195-.377.274-.822.55-1.623 1.098-2.418 1.648-.914.643-1.814 1.313-2.689 1.941.04.252.125.565.251.903.054.165.127.337.199.51.007.007.007.017.007.023.365.828.881 1.748 1.418 2.471.258-.054.55-.093.828-.186 1.517-.522 3.027-1.06 4.545-1.597.344-.119.689-.244 1.1-.397.483.655.947 1.278 1.443 1.947-.145.226-.271.438-.424.637-1 1.312-2.008 2.609-3.001 3.915-.225.298-.425.609-.616.9.418.809 1.822 2.259 2.994 3.107.953-.589 1.869-1.292 2.783-1.987.888-.683 1.763-1.385 2.695-2.113l1.949 1.411c-.066.258-.113.503-.193.741-.557 1.584-1.119 3.167-1.676 4.75-.112.318-.192.644-.277.948.688.669 2.471 1.609 3.815 2.014.206-.259.456-.523.669-.821.9-1.286 1.781-2.584 2.677-3.875.185-.272.376-.537.589-.842.828.205 1.597.436 2.385.801a76.087 76.087 0 00-.133 6.684c.994.458 2.836.752 4.287.705.814-2.086 1.338-4.5 1.988-6.5h2.47c.663 2 1.173 4.4 2.015 6.547 1.443-.02 2.781-.275 4.153-.594.206-.755-.397-1.501-.377-2.237.014-.781-.508-1.564-.508-2.346v-2.306c1-.312 1.934-.576 2.801-.735 1.246 1.861 2.692 3.75 4.077 5.466.939-.146 2.817-1.001 4.003-1.882-.523-2.18-1.372-4.267-2.133-6.459.642-.484 1.297-.947 1.973-1.451.244.166.51.317.735.49 1.338 1.021 2.678 2.047 4.017 3.061.264.199.56.364.817.523.974-.716 2.201-1.928 3.01-2.981-.537-1.007-1.284-1.888-1.973-2.809-.669-.901-1.377-1.762-2.086-2.67.219-.357.438-1.004.683-1.342.238-.33.497-.275.782-1.275h.006c2.166 1 4.246 1.957 6.426 2.469.736-.994 1.518-2.366 1.948-3.626-.173-.152-.345-.271-.55-.416-1.346-.947-2.703-1.843-4.049-2.783-.304-.205-.609-.398-.94-.623a11.86 11.86 0 01.796-2.403c.516.039 1.032.079 1.557.1.516.025 1.04.04 1.563.054 1.206.032 2.418.02 3.645-.018.364-.809.364-1.675.543-2.503.047-.219-.54-.457-.454-.656.061-.152-.195-.252-.195-.371v-.676c0-.357-1.82-.728-2.959-1.072-1.146-.339-2.041-.649-3.041-.987v-2.392c-.007-.098.491-.191.665-.244zm-3.662 3.471c-.94 11.196-9.435 20.246-20.364 22.034a24.047 24.047 0 01-3.995.331c-9.4 0-17.556-5.3-21.649-13.077a24.233 24.233 0 01-2.226-6.081 21.986 21.986 0 01-.353-1.981 24.065 24.065 0 01-.225-3.313c0-1.357.112-2.696.331-3.994a24.29 24.29 0 012.71-7.817 24.137 24.137 0 013.127-4.419 20.96 20.96 0 011.193-1.252 24.219 24.219 0 015.663-4.134 24.232 24.232 0 019.341-2.743 22.217 22.217 0 012.087-.093c13.502 0 24.452 10.944 24.452 24.452 0 .703-.025 1.399-.092 2.087z" fill="#333"/><path d="M283.575 411.169c-11.637 0-21.069 9.433-21.069 21.068 0 11.636 9.433 21.069 21.069 21.069s21.068-9.434 21.068-21.069c.001-11.635-9.432-21.068-21.068-21.068zm0 28.118a7.048 7.048 0 01-7.049-7.049 7.048 7.048 0 017.049-7.049 7.05 7.05 0 010 14.098z" fill="#F0F4F8"/><path d="M231.473 435.496c1.895-.568 3.386-1.133 5.281-1.689.211-.06.246-.08.246-.12v-.669c0-.146-.031-.503-.084-.828-.144-.888-.11-1.768-.248-2.577-.379-.277-.639-.225-.963-.218-1.611.013-3.17.046-4.78.073-.331.006-.639 0-1.049 0-.141-.378-.273-.75-.406-1.133-.126-.378-.227-.77-.359-1.193 1.014-.682 1.983-1.312 2.924-1.974.906-.643 1.868-1.22 2.684-2.048a22.464 22.464 0 00-1.913-3.743c-1.151.233-2.226.656-3.312 1.034-1.054.371-2.093.769-3.207 1.172-.477-.636-.94-1.259-1.438-1.928.14-.225.252-.45.405-.648 1.02-1.339 2.047-2.67 3.06-4.008.225-.292.412-.609.637-.941a27.011 27.011 0 00-2.988-2.987c-1.039.55-1.92 1.291-2.842 1.98-.895.67-1.756 1.378-2.656 2.08-.438-.119-.716-.438-1.041-.669-.33-.231-.709-.418-.986-.822.742-2.106 1.623-4.199 2.193-6.459-1.207-.748-2.432-1.357-3.757-1.921-.179.192-.378.364-.518.563a939.746 939.746 0 00-2.882 4.141c-.191.271-.377.55-.576.848-.854-.086-1.59-.424-2.404-.722.066-1.955.139-3.902.1-5.856-.007-.331-.014-.669-.026-1a1.73 1.73 0 00-.192-.047c-1.332-.345-2.631-.511-3.975-.629-.119.272-.245.496-.318.735-.51 1.676-1.014 3.28-1.523 4.956-.08.279-.186.75-.278.75h-2.358c-.106 0-.232-.459-.313-.73-.469-1.576-.92-3.114-1.403-4.69-.107-.345-.166-.711-.497-1.049-.577.06-1.166.138-1.75.218-.762.112-1.523.255-2.284.468-.219.768-.101 1.52-.112 2.254-.014.789.012 1.574.031 2.362.008.212.021.43.027.647.026.523.054 1.061.08 1.631-.782.259-1.518.504-2.313.762-.191-.238-.385-.457-.551-.695-.15-.219-.304-.444-.449-.663a976.13 976.13 0 00-2.213-3.213c-.238-.338-.504-.648-.742-.953-.986.198-2.684 1.033-3.861 1.9.516 2.187 1.431 4.268 2.172 6.434-.589.576-1.271.946-1.914 1.47-.232-.146-.457-.271-.656-.423-.357-.278-.721-.551-1.08-.835-.913-.696-1.828-1.405-2.742-2.101-.324-.245-.67-.464-1.066-.742-1.141.868-2.081 1.908-3.047 2.968.436.815.974 1.518 1.51 2.213 0 0 0 .007.006.007.166.219.332.431.49.643.252.331.504.656.763.987.259.331.517.663.781.994.179.225.364.456.55.695-.45.722-.914 1.385-1.457 1.994-2.146-.749-4.253-1.484-6.32-2.213-.357.364-.775.994-1.146 1.709a8.15 8.15 0 00-.371.749c-.093.205-.187.417-.265.622a8.74 8.74 0 00-.266.756c.185.172.384.397.615.563 1.318.922 2.645 1.835 3.963 2.75.305.205.602.417.967.662-.252.775-.483 1.518-.729 2.285-.112.007-.218.276-.317.284-.1.006-.192.281-.284.281h-.206c-1.643 0-3.286-.324-4.928-.35-.372 0-.742-.1-1.081-.08-.298.756-.503 1.56-.622 2.645-.047.444-.086.895-.106 1.419.205.092.424.215.663.287.503.152 1.014.298 1.523.45.643.199 1.292.388 1.941.586.523.152.895.309 1.419.468.277.086.669.184.669.27v2.444c0 .192-.949-.14-1.584.86h-.008c-1.133 0-2.252.473-3.346.846-.424.139-.834.213-1.245.378-.033 1.213.192 2.697.609 4.142.709.212 1.458-.132 2.199-.119.749.02 1.497-.246 2.246-.246h.106c.622 0 1.252.141 1.888.102l.358.078c.086.18.166.402.238.581.244.603.403 1.238.568 1.895-.125.086-.25.184-.377.263-.822.55-1.623 1.093-2.418 1.643-.914.643-1.814 1.31-2.689 1.939.04.252.125.564.251.901.054.165.127.337.199.51.007.007.007.016.007.022.365.828.881 1.748 1.418 2.471.258-.054.55-.093.828-.186 1.517-.522 3.027-1.06 4.545-1.597.344-.119.689-.244 1.1-.396.483.655.947 1.278 1.443 1.947-.145.226-.271.438-.424.637-1 1.311-2.008 2.609-3.001 3.915-.226.298-.425.609-.616.9.418.809 1.822 2.259 2.994 3.107.953-.589 1.869-1.292 2.783-1.987.888-.683 1.763-1.385 2.695-2.113l1.949 1.411c-.066.258-.113.503-.193.741-.557 1.584-1.119 3.167-1.676 4.75-.112.318-.192.644-.277.948.688.669 2.471 1.609 3.815 2.014.206-.259.456-.523.669-.821.9-1.286 1.781-2.584 2.677-3.875.185-.272.376-.537.589-.842.828.205 1.597.437 2.385.801a76.102 76.102 0 00-.133 6.685c.994.458 2.836.929 4.287.882.814-2.086 1.338-4.324 1.988-6.324h2.47c.663 2 1.173 4.225 2.015 6.371 1.443-.02 2.781-.364 4.153-.683.206-.755-.198-1.545-.178-2.281.014-.781-.309-1.608-.309-2.39v-2.306c1-.312 1.735-.576 2.602-.735 1.246 1.861 2.593 3.75 3.978 5.466.939-.147 2.768-1.001 3.953-1.882-.523-2.18-1.397-4.267-2.158-6.459.642-.484 1.284-.947 1.96-1.451.244.166.504.317.73.49 1.338 1.021 2.674 2.047 4.013 3.061.264.199.558.364.816.523.974-.716 2.201-1.928 3.009-2.981-.537-1.007-1.285-1.888-1.973-2.809-.669-.901-1.378-1.762-2.086-2.67.219-.357.438-.827.683-1.165.238-.33.497-.1.782-1.1h.006c2.166 1 4.246 1.781 6.426 2.293.736-.994 1.518-2.455 1.948-3.715-.173-.152-.345-.314-.55-.46-1.346-.947-2.703-1.864-4.049-2.805-.304-.205-.609-.41-.94-.635.179-.842.438-1.6.796-2.408.516.039 1.032.076 1.557.097.516.025 1.04.038 1.563.052 1.206.032 2.418.021 3.645-.019.364-.809.364-1.676.543-2.504.047-.219-.341-.457-.255-.656.061-.152.003-.252.003-.371v-.676c0-.357-1.82-.729-2.959-1.072-1.146-.339-2.041-.649-3.041-.987v-2.392c-.003-.1.296-.193.47-.247zm-3.861 3.472c-.94 11.196-9.435 20.246-20.364 22.034a24.047 24.047 0 01-3.995.331c-9.4 0-17.556-5.3-21.649-13.077a24.233 24.233 0 01-2.226-6.081 21.986 21.986 0 01-.353-1.981 24.075 24.075 0 01-.225-3.313c0-1.357.112-2.696.331-3.994a24.29 24.29 0 012.71-7.817 24.137 24.137 0 013.127-4.419 20.96 20.96 0 011.193-1.252 24.219 24.219 0 015.663-4.134 24.232 24.232 0 019.341-2.743 22.217 22.217 0 012.087-.093c13.502 0 24.452 10.944 24.452 24.452.001.703-.024 1.398-.092 2.087z" fill="#333"/><path d="M203.178 415.816c-11.637 0-21.069 9.433-21.069 21.068 0 11.636 9.433 21.069 21.069 21.069s21.068-9.434 21.068-21.069-9.433-21.068-21.068-21.068zm0 28.119a7.05 7.05 0 110-14.098 7.05 7.05 0 010 14.098z" fill="#F0F4F8"/><path d="M356.245 457.936c1.131-.34 1.751-.678 2.882-1.01.127-.035-.127-.048-.127-.071v-.399c0-.088.236-.301.204-.496-.086-.529.06-1.056-.023-1.539-.227-.167-.319-.136-.511-.131-.965.008-1.864.027-2.827.044-.196.003-.365 0-.611 0-.083-.227-.153-.448-.233-.678-.076-.225-.133-.459-.212-.713.605-.407 1.189-.783 1.751-1.18.541-.384 1.117-.729 1.604-1.224a13.29 13.29 0 00-1.143-2.237c-.688.139-1.331.393-1.98.618-.63.222-1.25.46-1.916.7-.285-.379-.563-.752-.86-1.152.084-.134.151-.27.244-.388.608-.8 1.222-1.595 1.827-2.395.135-.175.247-.364.381-.563a16.28 16.28 0 00-1.786-1.786c-.62.329-1.147.773-1.698 1.185-.535.399-1.05.822-1.588 1.242-.261-.071-.428-.262-.622-.399-.197-.138-.424-.25-.59-.492.444-1.259.97-2.509 1.311-3.859a15.95 15.95 0 00-2.244-1.147c-.107.114-.226.218-.31.336-.577.823-1.151 1.651-1.722 2.475-.114.162-.227.329-.345.507-.512-.052-.95-.253-1.436-.432.037-1.168.082-2.332.059-3.5-.004-.198-.008-.4-.016-.598a.977.977 0 00-.116-.028c-.795-.206-1.571-.305-2.375-.376-.07.163-.147.297-.19.44-.305 1.002-.605 1.91-.911 2.912-.049.166-.111.398-.166.398h-1.41c-.063 0-.139-.225-.186-.389-.28-.941-.55-1.834-.839-2.776-.064-.206-.1-.412-.297-.614-.345.037-.697.088-1.045.137-.456.066-.911.154-1.367.282-.129.459-.059.911-.066 1.349-.007.473.008.942.02 1.414.004.126.013.258.016.388.017.312.031.633.049.974-.468.155-.908.302-1.383.455-.115-.142-.23-.273-.329-.415l-.27-.397c-.44-.642-.878-1.278-1.322-1.92-.142-.202-.301-.388-.443-.57-.589.119-1.604.617-2.308 1.137.309 1.306.855 2.55 1.298 3.845-.351.344-.76.565-1.144.878-.139-.087-.273-.161-.393-.252-.213-.167-.43-.329-.645-.5-.547-.415-1.094-.839-1.64-1.255-.194-.147-.4-.276-.637-.443-.682.518-1.245 1.14-1.821 1.773.261.487.582.907.901 1.322 0 0 0 .005.005.005l.292.384c.151.198.302.392.456.59.155.198.31.396.468.594.106.135.217.273.328.416a8.67 8.67 0 01-.871 1.192c-1.282-.448-2.542-.888-3.777-1.323-.213.218-.463.594-.685 1.022a5.484 5.484 0 00-.221.448 6.278 6.278 0 00-.158.372 5.108 5.108 0 00-.159.45c.11.104.229.238.367.337.788.551 1.581 1.097 2.369 1.644.182.123.359.25.577.396-.149.463-.288.906-.436 1.365-.067.004-.13-.161-.189-.157-.06.004-.115-.156-.17-.156h-.123c-.981 0-1.963.131-2.945.115-.223 0-.443.105-.645.117-.179.452-.3 1.014-.373 1.663-.027.265-.051.574-.063.888.122.055.253.148.396.191.301.092.606.188.911.279.384.119.771.236 1.159.357.315.092.309.186.625.282.164.051.173.111.173.163v1.46c0 .115-.116-.516-.496-.516h-.004c-.678 0-1.346.797-2 1.022-.254.082-.499.385-.744.482-.02.725.116 1.741.365 2.604.422.127.87-.523 1.313-.515.448.011.896-.594 1.344-.594h.063c.372 0 .749.592 1.129.568l.215.305c.051.107.099.366.142.474.146.359.241.803.34 1.194-.074.052-.149.144-.226.19-.491.33-.969.671-1.445.999-.546.383-1.084.79-1.606 1.166.023.151.075.341.149.544.031.098.076.201.119.306.004.003.004.012.004.016a8.18 8.18 0 00.847 1.477c.154-.032.33-.055.496-.111.906-.313 1.809-.634 2.717-.955.205-.07.411-.146.656-.236.289.392.566.765.863 1.164-.087.135-.163.262-.253.381-.599.783-1.2 1.559-1.794 2.339-.136.178-.254.364-.368.539.25.483 1.089 1.349 1.79 1.857.568-.353 1.116-.772 1.662-1.188.531-.408 1.054-.828 1.611-1.263.39.28.761.55 1.165.843-.039.154-.068.301-.115.443-.333.947-.669 1.893-1.002 2.839-.067.189-.115.385-.166.566.411.399 1.478.962 2.281 1.204.123-.155.272-.313.399-.491.538-.769 1.064-1.544 1.6-2.316.11-.162.226-.32.352-.503a7.81 7.81 0 011.426.478 45.006 45.006 0 00-.079 3.995c.594.274 1.695.27 2.562.24.487-1.246.8-4.063 1.189-4.063h1.475c.397 0 .702 2.81 1.205 4.092.862-.012 1.663-.075 2.482-.265.123-.452-.303-.85-.291-1.291.01-.467-.369-.892-.369-1.357v-1.38c1-.186 1.222-.345 1.741-.439.743 1.112 1.642 2.241 2.47 3.267.563-.087 1.699-.598 2.407-1.124-.313-1.303-.811-2.55-1.265-3.86.382-.29.777-.566 1.182-.867.146.099.307.189.443.293.799.609 1.599 1.224 2.399 1.828.157.12.335.218.49.313.58-.428 1.316-1.152 1.8-1.782-.321-.602-.769-1.128-1.18-1.679-.4-.538-.824-1.052-1.247-1.596.131-.213.262-.893.408-1.097.143-.197.297-.057.467-1.057h.005c1.295 1 2.537 1.465 3.84 1.77.441-.594.906-1.266 1.164-2.018-.104-.091-.206-.09-.328-.176-.805-.566-1.615-1.064-2.42-1.627-.181-.124-.364-.219-.562-.354.107-.503.26-.943.476-1.427.309.023.616.052.931.064.307.015.62.024.934.033.72.019 1.445.017 2.178-.008.218-.483.218-1.002.324-1.496.028-.131-.457-.273-.406-.393.036-.091-.251-.149-.251-.222v-.404c0-.213-.795-.435-1.477-.64-.684-.203-1.523-.389-1.523-.591v-1.43c-.003-.058.137-.112.242-.145zm-2.349 2.076c-.562 6.69-5.64 12.1-12.172 13.169-.776.131-1.575.197-2.387.197-5.619 0-10.493-3.167-12.94-7.815a14.407 14.407 0 01-1.329-3.634 14.331 14.331 0 01-.345-3.164c0-.812.066-1.611.197-2.387a14.507 14.507 0 011.62-4.673 14.404 14.404 0 011.868-2.641c.226-.258.464-.507.714-.748a14.482 14.482 0 013.383-2.471 14.502 14.502 0 015.584-1.64c.412-.039.827-.056 1.248-.056 8.068 0 14.613 6.541 14.613 14.614.001.421-.015.837-.054 1.249z" fill="#333"/><path d="M339.293 446.174c-6.956 0-12.594 5.638-12.594 12.593 0 6.954 5.638 12.593 12.594 12.593 6.953 0 12.592-5.639 12.592-12.593 0-6.956-5.639-12.593-12.592-12.593zm0 16.805a4.214 4.214 0 110-8.427 4.214 4.214 0 010 8.427z" fill="#F0F4F8"/><path d="M323.926 505.983c1.895-.568 3.16-1.133 5.055-1.689.211-.059.02-.08.02-.12v-.669c0-.145.422-.503.369-.828-.145-.888.116-1.768-.022-2.577-.379-.277-.524-.225-.849-.218-1.611.013-3.113.046-4.723.073-.331.006-.61 0-1.021 0-.141-.378-.261-.75-.394-1.133-.126-.378-.219-.77-.351-1.193 1.014-.682 1.986-1.312 2.928-1.974.906-.643 1.869-1.22 2.686-2.048a22.384 22.384 0 00-1.912-3.743c-1.151.232-2.226.656-3.311 1.034-1.054.371-2.093.769-3.207 1.172-.477-.636-.94-1.259-1.438-1.928.14-.225.252-.45.405-.648 1.02-1.339 2.047-2.67 3.06-4.008.226-.292.412-.609.637-.941a27.098 27.098 0 00-2.988-2.987c-1.039.55-1.92 1.291-2.842 1.98-.895.67-1.756 1.378-2.656 2.08-.438-.119-.716-.438-1.041-.669-.33-.231-.709-.418-.986-.822.742-2.106 1.623-4.199 2.193-6.459-1.207-.748-2.432-1.357-3.757-1.921-.179.192-.378.364-.518.564a939.746 939.746 0 00-2.882 4.141c-.191.272-.377.55-.576.848-.854-.086-1.59-.424-2.404-.722.065-1.955.139-3.902.1-5.856-.007-.331-.014-.669-.026-1a1.73 1.73 0 00-.192-.047c-1.332-.345-2.631-.511-3.975-.629-.119.272-.245.496-.318.735-.51 1.676-1.014 3.036-1.523 4.712-.08.279-.186.507-.278.507h-2.358c-.106 0-.232-.216-.313-.487-.469-1.576-.92-2.992-1.403-4.568-.106-.344-.166-.649-.497-.987-.577.061-1.166.167-1.75.247-.762.112-1.522.271-2.284.484-.219.768-.101 1.526-.112 2.261-.014.789.012 1.578.031 2.366.008.212.021.433.027.649.026.523.054 1.063.08 1.632-.782.259-1.518.505-2.313.763-.191-.238-.385-.457-.551-.695-.15-.219-.304-.444-.449-.663a976.13 976.13 0 00-2.213-3.213c-.238-.338-.504-.648-.742-.953-.986.198-2.684 1.033-3.861 1.9.516 2.186 1.431 4.267 2.172 6.434-.589.576-1.271.946-1.914 1.47-.232-.146-.457-.271-.656-.423-.357-.278-.721-.551-1.08-.835-.913-.696-1.828-1.405-2.742-2.101-.324-.245-.67-.464-1.066-.742-1.141.868-2.081 1.908-3.047 2.968.437.815.974 1.518 1.51 2.213 0 0 0 .007.006.007.166.219.332.431.49.643.252.331.504.656.763.987.259.331.517.663.781.994.179.225.364.456.55.695-.45.722-.914 1.385-1.457 1.994-2.146-.749-4.253-1.484-6.32-2.213-.357.364-.775.994-1.146 1.709a8.15 8.15 0 00-.371.749 11.832 11.832 0 00-.531 1.378c.186.172.384.397.615.563 1.318.922 2.645 1.835 3.963 2.75.305.205.603.417.967.662-.252.775-.483 1.518-.729 2.285-.112.007-.218.032-.317.04-.1.006-.192.038-.284.038h-.206c-1.643 0-3.286-.081-4.928-.106-.372 0-.742.023-1.081.043-.298.756-.503 1.62-.622 2.706a22 22 0 00-.107 1.448c.205.092.424.232.663.304.503.152 1.014.305 1.524.457.642.199 1.292.392 1.941.59.523.152.441.311.965.471.277.086.217.185.217.27v2.444c0 .192-.043-.627-.678.373h-.008c-1.133 0-2.252.716-3.346 1.089-.424.139-.834.336-1.245.5-.033 1.213.192 2.759.609 4.202.709.213 1.458-.345 2.199-.332.749.02 1.497-.459 2.246-.459h.107c.622 0 1.252.384 1.888.345l.358.201c.086.18.166.462.238.642.244.602.403 1.268.568 1.924-.125.086-.25.2-.377.279-.822.55-1.623 1.1-2.418 1.65-.914.643-1.814 1.313-2.689 1.942.04.252.125.565.251.903.054.166.127.338.199.511.007.007.007.017.007.023.365.828.881 1.748 1.418 2.471.258-.054.55-.093.828-.187 1.517-.522 3.027-1.06 4.545-1.597.344-.119.689-.244 1.1-.396.483.655.947 1.278 1.443 1.947-.145.226-.271.438-.424.637-1 1.312-2.008 2.609-3.001 3.915-.226.298-.425.609-.616.9.418.809 1.822 2.259 2.994 3.107.953-.589 1.869-1.292 2.783-1.987.888-.683 1.763-1.385 2.695-2.113l1.949 1.411c-.066.258-.113.503-.193.741-.557 1.584-1.119 3.167-1.676 4.75-.112.318-.192.644-.277.948.688.669 2.471 1.609 3.815 2.014.206-.259.456-.523.669-.821.9-1.286 1.781-2.584 2.677-3.875.185-.272.376-.537.589-.842.828.205 1.597.437 2.385.801a76.102 76.102 0 00-.133 6.685c.994.458 2.836.685 4.287.638.814-2.086 1.338-4.567 1.988-6.567h2.47c.663 2 1.173 4.468 2.015 6.614 1.443-.02 2.781-.242 4.153-.561.206-.754-.651-1.483-.632-2.22.014-.781-.762-1.548-.762-2.329v-2.306c1-.312 2.188-.576 3.055-.735 1.246 1.861 2.819 3.75 4.204 5.466.939-.146 2.882-1.001 4.067-1.882-.523-2.18-1.34-4.267-2.101-6.459.642-.484 1.313-.947 1.988-1.451.244.166.517.317.742.49 1.338 1.02 2.683 2.047 4.021 3.061.264.199.562.364.819.523.974-.716 2.202-1.928 3.011-2.981-.537-1.007-1.283-1.888-1.972-2.809-.669-.901-1.377-1.762-2.086-2.67.219-.358.438-1.071.683-1.409.238-.33.497-.343.782-1.343h.006c2.166 1 4.246 2.024 6.426 2.536.736-.994 1.518-2.332 1.948-3.592-.173-.152-.345-.255-.55-.399-1.346-.947-2.703-1.835-4.049-2.775-.304-.205-.609-.393-.94-.618.179-.842.438-1.593.796-2.401.516.039 1.032.08 1.557.101.516.025 1.04.04 1.563.054 1.206.033 2.418.021 3.645-.018.364-.809.364-1.675.543-2.503.047-.219-.795-.457-.709-.656.061-.152-.449-.252-.449-.371v-.676c0-.357-1.82-.729-2.959-1.072-1.146-.339-2.041-.649-3.041-.987v-2.392c-.002-.101.75-.194.924-.248zm-3.407 3.472c-.94 11.196-9.435 20.246-20.364 22.034a24.047 24.047 0 01-3.995.331c-9.4 0-17.556-5.3-21.649-13.077a24.233 24.233 0 01-2.226-6.081 21.986 21.986 0 01-.353-1.981 24.075 24.075 0 01-.225-3.313c0-1.357.112-2.696.331-3.994a24.29 24.29 0 012.71-7.817 24.137 24.137 0 013.127-4.419 20.96 20.96 0 011.193-1.252 24.219 24.219 0 015.663-4.134 24.232 24.232 0 019.341-2.743 22.217 22.217 0 012.087-.093c13.502 0 24.452 10.944 24.452 24.452 0 .703-.025 1.399-.092 2.087z" fill="#333"/><path d="M296.084 486.304c-11.637 0-21.069 9.433-21.069 21.068 0 11.636 9.433 21.069 21.069 21.069s21.068-9.434 21.068-21.069c0-11.636-9.432-21.068-21.068-21.068zm0 28.118a7.048 7.048 0 01-7.049-7.049 7.048 7.048 0 017.049-7.049 7.05 7.05 0 010 14.098z" fill="#F0F4F8"/><path d="M255.039 498.241c-2.41-1.157-4.939-1.928-7.453-2.793-.541-.189-1.087-.379-1.626-.578a3.656 3.656 0 01-.175-.625c0-.017-.008-.024-.008-.041-.135-.69-.088-1.387-.072-2.103a8.395 8.395 0 000-1.028 4.573 4.573 0 00-.07-.668c.658-.237 1.309-.476 1.951-.714 2.506-.911 4.948-1.8 7.422-2.703a14.507 14.507 0 00-.111-3.172c-.189-1.436-.531-2.839-.848-4.274-1.665-.438-3.283-.301-4.877-.365h-.072c-1.634-.063-3.268-.063-4.955-.087-.031-.057-.057-.103-.08-.159-.674-1.26-.889-2.602-1.42-3.934.311-.341.587-.738.952-1.022.849-.666 1.706-1.316 2.561-1.968.912-.696 1.824-1.388 2.729-2.085.396-.316.768-.657 1.213-1.055.127-.119.262-.238.404-.365-.635-1.498-1.261-2.901-1.998-4.242a23.608 23.608 0 00-1.451-2.323c-2.324.357-4.537 1.096-6.797 1.816-.92.294-1.848.586-2.799.841l-2.712-3.648c1.927-2.782 3.925-5.385 5.575-8.287-1.547-2.055-3.34-3.701-5.211-5.329-3.021 1.617-5.591 3.672-8.414 5.584-1.23-.912-2.402-1.776-3.584-2.658.801-3.313 2.117-6.352 2.625-9.649-1.992-1.436-4.163-2.388-6.447-3.386-.412.389-.865.729-1.206 1.157-1.332 1.674-2.624 3.386-3.933 5.075-.396.508-.816 1.006-1.254 1.546-1.498-.389-2.918-.722-4.227-1.483-.149-1.498-.118-2.996-.118-4.503 0-1.792-.048-3.593-.509-5.369-2.148-.697-4.345-.841-6.628-1.166a31.888 31.888 0 01-.326-.048c-.199.333-.445.659-.635 1a2.844 2.844 0 00-.198.413c-.825 2.234-1.602 4.486-2.402 6.73-.135.382-.287.755-.453 1.19-1.507.262-2.957.097-4.472.118-1.245-2.839-1.896-5.835-3.22-8.628-.111-.237-.23-.468-.349-.697-2.402-.016-4.71.492-7.137 1.008-.103.477-.278.935-.301 1.403-.119 2.047-.198 4.107-.277 6.162-.032.809-.04 1.617-.055 2.545-1.436.468-2.745.897-4.124 1.349-1.277-1.127-2.047-2.601-3.077-3.855-1.047-1.269-2.055-2.561-3.038-3.783-1.404.246-2.982.881-4.655 1.871-.706.405-1.412.873-2.141 1.397.381 3.202 1.737 6.217 2.553 9.461-.999 1.11-2.292 1.814-3.568 2.734-2.729-1.848-5.44-3.67-8.074-5.438-1.808 1.022-3.671 2.814-5.512 5.272 1.523 2.823 3.554 5.392 5.457 8.169-.111.205-.23.411-.349.61-.111.189-.23.371-.357.563-.254.397-.531.778-.833 1.159-.23.293-.467.585-.721.88-.127.148-.254.292-.381.443h-.008c-3.196-.689-6.218-2.069-9.564-2.577-1.507 2.006-2.442 4.251-3.426 6.495 2.372 2.514 5.265 4.14 7.771 6.359-.19.675-.34 1.301-.539 1.919-.253.769-.538 1.523-.825 2.331-.317.024-.634.049-.952.064-3.03.151-6.011-.064-9.009.38a34.25 34.25 0 00-1.157 7.234c2.918 1.601 6.138 2.331 9.215 3.534.397 1.452.214 2.912.143 4.521-3.069 1.111-6.13 2.228-9.239 3.355-.143 2.64.443 5.011 1.015 7.471 3.331.555 6.63.151 9.977.506.27.714.547 1.381.769 2.071.231.697.397 1.403.619 2.197-1.594 1.307-3.275 2.481-4.893 3.734a36.514 36.514 0 00-2.879 2.45c.817 2.379 2 4.432 3.276 6.605a27.289 27.289 0 003.601-.786c1.997-.561 3.964-1.269 6.026-1.855.476.581.945 1.127 1.38 1.698.443.586.848 1.197 1.348 1.903-1.84 2.728-3.672 5.432-5.535 8.2 1.403 2.174 3.354 3.672 5.186 5.486 2.981-1.609 5.567-3.64 8.31-5.535 1.388.636 2.451 1.658 3.728 2.547-.722 3.234-2.093 6.255-2.577 9.453 1.491 1.387 3.799 2.615 6.599 3.528 2.275-2.276 4.044-5.053 6.098-7.668.182.03.365.063.539.102.231.047.461.095.682.157.112.032.223.057.333.089l.325.095c.19.055.389.119.58.189.626.222 1.245.484 1.871.792.023.446.047.89.056 1.335.016.444.024.896.024 1.339.015.555.024 1.119.031 1.674.008.443.016.888.032 1.333.015.26.024.514.039.776l.048.77c.023.261.046.522.071.776 0 .017 0 .039.008.055.031.303.072.605.111.897.047.303.095.603.151.903.222.072.436.144.658.199.174.055.357.102.53.142.238.064.484.121.722.176.333.072.666.135 1.007.19.396.072.793.127 1.19.175.396.055.8.103 1.206.151l1.848.214c.039-.072.079-.144.111-.214 1.182-2.254 1.863-4.688 2.719-7.122.229-.667.477-1.332.746-1.989.706-.049 1.427-.128 2.141-.136.595-.016 1.181.024 1.816.055.158.008.317.017.484.024 1.3 2.926 1.951 6.059 3.417 8.96.047.105.103.214.158.319.54 0 1.079-.024 1.61-.073 1.84-.157 3.639-.554 5.536-.951.507-1.602.476-3.242.515-4.867.009-.327.017-.644.017-.96.007-1.079 0-2.166-.008-3.276v-.753c1.315-.889 2.784-1.102 4.234-1.57 1.261 1.087 2.022 2.568 3.053 3.823.04.046.079.095.12.143 1.006 1.22 1.974 2.464 2.918 3.64.182-.032.373-.072.563-.119 1.332-.326 2.832-.976 4.426-1.936a30.065 30.065 0 001.823-1.189c-.032-.246-.071-.5-.11-.738a24.736 24.736 0 00-.478-2.133v-.008a2.32 2.32 0 01-.054-.206 94.817 94.817 0 00-.928-3.052 48.907 48.907 0 01-.477-1.492 41.912 41.912 0 01-.531-1.807c.967-1.182 2.314-1.816 3.584-2.816l1.023.716c.333.237.666.468 1 .697.673.468 1.34.928 2.014 1.387 1.355.912 2.736 1.801 4.052 2.664a10.4 10.4 0 001.46-.999c.166-.127.341-.262.507-.413.143-.119.277-.238.411-.365.041-.038.088-.079.137-.127.135-.127.27-.254.396-.388.373-.356.729-.737 1.086-1.135.215-.238.42-.476.627-.729l.189-.236c.223-.271.436-.557.65-.841a23.34 23.34 0 00-.57-1.063 29.103 29.103 0 00-1.285-2.055c-.047-.07-.095-.151-.15-.222l-.547-.786c-.262-.388-.54-.768-.816-1.158a64.85 64.85 0 01-1.032-1.449 31.359 31.359 0 01-.911-1.333c-.032-.048-.064-.097-.104-.143.674-1.309 1.586-2.442 2.617-3.655 3.188.714 6.217 2.039 9.54 2.602a19.429 19.429 0 001.435-2.198c.793-1.387 1.42-2.847 2.014-4.361-2.338-2.401-5.178-4.1-7.723-6.232.174-1.261.586-2.411 1.055-3.583.094-.224.182-.454.277-.684 3.195-.379 6.399.008 9.644-.492.11-.008.214-.03.325-.048.071-.285.143-.569.213-.863.326-1.363.627-2.728.754-4.132.079-.77.104-1.546.055-2.347zm-57.437 36.391c-.794.049-1.602.073-2.411.073-.619 0-1.23-.009-1.841-.032a47.325 47.325 0 01-2.331-.151 41.59 41.59 0 01-6.05-1.03 40.435 40.435 0 01-5.544-1.785 34.412 34.412 0 01-2.593-1.143 41.932 41.932 0 01-7.241-4.408c-9.992-7.558-16.645-19.557-16.645-33.592 0-1.85.111-3.656.334-5.418a39.848 39.848 0 011.188-5.922c.127-.477.27-.952.42-1.42.143-.476.301-.943.468-1.403.119-.335.231-.667.365-.992a.428.428 0 01.04-.095c.08-.216.167-.436.254-.649.111-.288.23-.564.349-.843.079-.165.142-.324.215-.483.142-.333.292-.657.443-.975.206-.438.42-.864.65-1.294.213-.428.443-.847.682-1.261.23-.419.477-.832.73-1.235a36.855 36.855 0 013.299-4.632c.287-.365.595-.729.913-1.079.285-.332.579-.659.888-.983.023-.015.039-.038.063-.063.316-.341.642-.682.983-1.009.326-.332.667-.657 1.007-.976.341-.324.69-.649 1.047-.941.238-.214.475-.422.713-.619.12-.103.238-.2.357-.295.167-.141.333-.275.508-.411l.008-.008a40.902 40.902 0 012.87-2.077c.388-.262.785-.516 1.182-.754a41.902 41.902 0 015.044-2.68 45.62 45.62 0 012.49-1.024 41.65 41.65 0 0114.457-2.655 41.324 41.324 0 017.565.665c11.347 2.03 21.362 8.669 27.699 18.097a41.446 41.446 0 015.186 10.802 41.033 41.033 0 011.721 8.509 40.2 40.2 0 01.159 2.188c.007.143.015.294.015.445.025.362.025.728.031 1.093a42.251 42.251 0 01-.275 5.242 42.676 42.676 0 01-.492 3.18 41.39 41.39 0 01-1.855 6.638c-.159.412-.318.825-.484 1.236a34.424 34.424 0 01-1.055 2.355c-.096.216-.199.421-.31.635-.206.422-.421.825-.634 1.231-.198.349-.389.697-.596 1.038a29.41 29.41 0 01-.65 1.087c-.277.451-.57.896-.863 1.33a36.847 36.847 0 01-1.682 2.31c-.285.373-.587.746-.889 1.102-.015.017-.023.023-.031.038-.294.357-.594.7-.904 1.041-.23.26-.459.514-.705.768-.135.151-.27.295-.404.428l-.214.214c-.207.216-.421.43-.636.635-.316.319-.634.619-.959.922h-.008c-.023.014-.04.038-.064.055-.34.332-.705.643-1.063.943-.293.262-.595.508-.895.752a1.627 1.627 0 01-.199.151 33.093 33.093 0 01-2.276 1.697c-.388.278-.785.541-1.182.793-.229.159-.468.303-.706.451-.119.073-.236.144-.357.216-.245.142-.491.293-.737.428a7.065 7.065 0 01-.643.365c-.404.237-.816.451-1.229.665-.022 0-.039.017-.054.024-.414.214-.834.419-1.254.611-.428.213-.863.402-1.309.586-.436.198-.881.382-1.332.539-.444.191-.896.351-1.349.5-.452.167-.912.318-1.372.451-.451.151-.92.286-1.389.405-.467.136-.934.254-1.41.357-.943.23-1.903.419-2.871.57a28.79 28.79 0 01-1.451.214c-.957.127-1.923.214-2.899.262z" fill="#333"/><path d="M238.814 491.287a.952.952 0 00-.008-.214 32.01 32.01 0 00-.102-1.944 43.231 43.231 0 00-2.569-11.753 43.411 43.411 0 00-4.234-8.493c-6.829-10.602-18.113-18.072-31.206-19.754a44.162 44.162 0 00-5.63-.356 43.634 43.634 0 00-15.884 2.974c-.888.341-1.77.714-2.626 1.117-12.943 6.051-22.443 18.24-24.727 32.832a43.438 43.438 0 00-.539 6.852c0 14.901 7.446 28.065 18.826 35.972a43.905 43.905 0 004.91 2.958 39.85 39.85 0 003.395 1.563c.903.379 1.824.722 2.759 1.03 7.841 2.587 17.001 2.527 24.979.525 4.664-1.171 9.145-3.098 13.149-5.768.523-.341 1.03-.61 1.539-.991 1.617-1.174 3.148-2.419 4.582-3.8a40.32 40.32 0 001.746-1.764 43.603 43.603 0 006.558-9.195 42.248 42.248 0 002.134-4.662 43.107 43.107 0 002.632-10.381c.222-1.798.341-3.631.341-5.486a33.12 33.12 0 00-.025-1.262zm-76.819-17.845a8.187 8.187 0 018.898-3.878 7.948 7.948 0 012.259.89c3.91 2.252 5.242 7.248 2.99 11.156a8.163 8.163 0 01-8.74 3.912 8.197 8.197 0 01-2.418-.93 8.102 8.102 0 01-1.847-1.46 7.926 7.926 0 01-1.476-2.188 8.127 8.127 0 01.334-7.502zm14.211 38.137a8.01 8.01 0 01-3.054 3.093c-2.989 1.729-6.614 1.348-9.167-.673a8.27 8.27 0 01-1.99-2.309c-2.252-3.91-.912-8.906 2.989-11.156.294-.168.588-.319.888-.439a8.141 8.141 0 016.226-.078 8.062 8.062 0 014.045 3.504 8.158 8.158 0 01.063 8.058zm18.35-57.248c.183-.008.373-.016.563-.016a8.166 8.166 0 018.097 9.247 8.168 8.168 0 01-8.097 7.089 8.166 8.166 0 01-8.168-8.168 8.174 8.174 0 017.605-8.152zm8.509 70.222a8.228 8.228 0 01-5.067 5.742 8.234 8.234 0 01-6.566-.365 8.157 8.157 0 01-4.48-7.287c0-.905.142-1.768.419-2.587a8.2 8.2 0 015.012-5.105 8.269 8.269 0 013.458-.438 8.126 8.126 0 013.481 1.128 8.205 8.205 0 012.164 1.887 8.143 8.143 0 011.801 5.115 8.341 8.341 0 01-.222 1.91zm-8.001-18.688c-7.358 0-13.323-5.965-13.323-13.322 0-7.358 5.965-13.322 13.323-13.322 7.357 0 13.322 5.965 13.322 13.322.001 7.357-5.964 13.322-13.322 13.322zm17.977-31.28c.642-1.682 2.106-3.155 3.788-4.131.855-.5 1.897-.818 2.826-.977 2.275-.396 4.694.206 6.508 1.642.795.619 1.518 1.395 2.049 2.323a8.142 8.142 0 01-1.919 10.428 8.043 8.043 0 01-2.087 1.23 4.944 4.944 0 01-.585.206s0 .008-.008.008a6.723 6.723 0 01-.77.208 8.176 8.176 0 01-8.747-3.912c-.183-.316-.858-.642-.991-.974-.318-.77-1.105-1.563-1.105-2.363v-.008c0-1.262.59-2.514 1.041-3.68zm15.202 37.105a8.156 8.156 0 01-11.156 2.981c-3.901-2.252-5.243-7.248-2.99-11.15a8.104 8.104 0 012.108-2.401 8.132 8.132 0 016.543-1.521 7.99 7.99 0 012.506.936 8.057 8.057 0 012.975 2.979 8.164 8.164 0 01.014 8.176zm168.106-29.031c-15.941 0-28.865 12.924-28.865 28.865 0 15.941 12.924 28.865 28.865 28.865 15.942 0 28.866-12.924 28.866-28.865 0-15.941-12.924-28.865-28.866-28.865zm0 44.747c-8.772 0-15.882-7.11-15.882-15.882 0-8.771 7.11-15.882 15.882-15.882 8.771 0 15.883 7.111 15.883 15.882-.001 8.772-7.112 15.882-15.883 15.882z" fill="#F0F4F8"/><path d="M440.523 508.8c2.721-1.092 5.246-2.183 7.975-3.267.223-.087.502-.119.502-.175v-.735c0-.981-.386-1.961-.615-2.942-.08-.324-.09-.698-.17-1.03-.267-1.18-.469-2.65-.737-3.65H437.32c-.593-2-1.218-2.852-1.731-4.078 2.429-2.508 4.754-4.887 7.095-7.315a47.922 47.922 0 00-2.531-4.094 46.54 46.54 0 00-2.135-2.879c-3.212 1.043-6.234 2.478-9.16 3.837a772.007 772.007 0 00-3.513-3.509c.135-.309.262-.616.396-.925.206-.482.412-.965.625-1.455.499-1.178 1.013-2.381 1.526-3.592.443-1.035.895-2.088 1.345-3.148-2.214-1.795-4.484-3.289-6.96-4.689-1.914 1.637-3.67 3.433-5.402 5.315l-.008.008c-.578.609-1.132 1.219-1.701 1.844-1.408-.586-3.148-1.163-4.533-1.74-.094-.04-.632-.079-.632-.119v-10.077c0-.016.253-.023.214-.039-.443-.135-.718-.261-1.159-.38-.285-.079-.492-.15-.785-.222a30 30 0 00-1.706-.38 15.131 15.131 0 00-.873-.166c-.323-.056-.637-.111-.961-.158-.229-.039-.439-.063-.667-.095a55.942 55.942 0 00-1.683-.214c-.183.459-.371.918-.551 1.376-.191.468-.372.935-.563 1.392-.498 1.25-1.004 2.488-1.502 3.746-.372.916-.744 1.756-1.115 2.756h-4.802c-.047 0 .152-.222.152-.34v-.009c-2-2.966-2.524-5.916-3.735-8.906-.221.024-.526.048-.747.071-.182.017-.41.04-.592.064-.379.048-.786.103-1.166.158-.426.064-.863.135-1.283.214-.197.039-.392.071-.581.11-.198.032-.39.071-.589.118-.213.048-.436.096-.651.143-.269.055-.528.118-.797.19-.34.079-.589.174-.93.261-.34.095-.929.19-.929.293v10.085c-1 .119-.669.245-.962.363-.482.207-1.011.404-1.509.617-.697.293-1.44.586-2.176.895-.117-.127-.248-.374-.358-.501-2.121-2.332-4.283-4.826-6.655-6.826h-.008c-.024 0-.056.065-.08.041-.103.055-.213.175-.316.231-.649.356-1.282.754-1.899 1.15-1.637 1.004-3.203 2.142-4.777 3.4 1.306 3.061 2.595 6.104 3.837 9.016-1.14 1.131-2.294 2.273-3.544 3.523-2.784-1.186-5.854-2.49-8.994-3.826a50.282 50.282 0 00-4.683 6.962c2.191 2.547 4.643 4.767 7.175 7.061-.633 1.526-1.258 2.441-1.867 4.441h-10.068c-.855 2-1.712 5.422-2.036 8.332 3.092 1.242 5.921 2.526 8.921 3.792v4.801c-3 1.234-5.773 2.468-8.89 3.726.221 2.841 1.001 5.498 1.755 8.243 3.336.26 6.768.071 10.193.016.617 1.455 1.272 2.91 1.938 4.484-2.414 2.31-4.929 4.541-7.144 7.142 1.36 2.46 2.893 4.707 4.688 6.977 3.093-1.313 6.136-2.61 9.038-3.844 1.146 1.148 2.296 2.286 3.522 3.512-1.211 2.848-2.513 5.917-3.842 9.033a49.411 49.411 0 006.97 4.675c2.57-2.19 4.901-4.667 7.202-7.158 1.504.617 2.569 1.226 4.569 1.851v10.077c2 .847 5.295 1.344 8.197 1.66 1.258-3.117 2.392-6.318 3.659-9.318h4.777c1.226 3 2.135 6.131 3.408 9.295 2.879-.254 5.958-.814 7.958-1.612v-10.085c2-.594 3.21-1.211 4.817-1.883 2.238 2.459 4.698 4.928 7.214 7.134 1.969-.917 5.73-3.385 7.076-4.737-1.258-2.975-2.514-6.012-3.748-8.907 1.147-1.146 2.314-2.293 3.548-3.527 2.816 1.203 5.896 2.508 9.013 3.828a48.397 48.397 0 004.695-6.976c-2.223-2.524-4.641-4.826-7.171-7.088.497-1.21.998-2.883 1.504-4.094.119-.291.238-.348.364-1.348h10.07c.672-1 .884-3.525 1.254-5.525.088-.459.363-.416.363-.867v-.98c0-.07-.513-.103-.797-.214-2.619-1.035-5.02-2.088-7.631-3.132-.26-.103-.572-.229-.572-.348v-4.81c.002-.12.295-.238.525-.325zm-17.764-16.232a3.76 3.76 0 011.622-1.835 3.824 3.824 0 015.227 1.4 3.838 3.838 0 01-1.399 5.229 3.862 3.862 0 01-2.357.49 3.91 3.91 0 01-1.076-.293 3.781 3.781 0 01-1.803-1.598 3.835 3.835 0 01-.214-3.393zm-12.482-13.129a3.82 3.82 0 015.228-1.4c.238.135.451.292.642.458a3.837 3.837 0 01.767 4.771 3.885 3.885 0 01-1.321 1.353 4.33 4.33 0 01-.576.284 3.835 3.835 0 01-3.339-.236 3.838 3.838 0 01-1.866-2.746 3.798 3.798 0 01.465-2.484zm-14.026-6.563a3.828 3.828 0 11.001 7.657 3.828 3.828 0 01-.001-7.657zm-21.149 8.073c.016-.135.031-.27.063-.395.056-.27.142-.53.254-.775.048-.111.102-.214.158-.316.023-.031.039-.064.063-.103a2.939 2.939 0 01.206-.309c.071-.095.142-.182.222-.261.095-.118.205-.221.324-.324l.023-.023c.175-.15.372-.285.578-.403a3.787 3.787 0 012.997-.355c.909.261 1.889.869 2.395 1.756.467.806.616 1.724.616 2.578v.008c0 1.076-.996 2.049-2.016 2.643-.601.348-1.34.514-1.99.514a4.12 4.12 0 01-.428-.023c-.039 0-.092 0-.123-.009-.111-.015-.232-.031-.334-.055a4.067 4.067 0 01-1.224-.491 5.936 5.936 0 01-.352-.254c-.102-.078-.205-.174-.307-.269-.01-.008-.477-.016-.484-.023-.094-.103-.742-.206-.742-.316v-.009c0-.039.395-.07.372-.11-.088-.11.061-.229-.009-.355-.348-.602-.4-1.266-.4-1.914-.001-.138.121-.273.138-.407zm-12.206 11.185a3.822 3.822 0 015.229-1.4 3.765 3.765 0 011.685 2.01 3.827 3.827 0 01-5.512 4.619c-1.829-1.061-2.462-3.402-1.402-5.229zm-5.157 19.261c0-.752.213-1.456.593-2.041a3.8 3.8 0 013.235-1.788c.91 0 1.764.324 2.42.854a3.82 3.82 0 011.408 2.975 3.816 3.816 0 01-1.432 2.981c-.11.095-.229.174-.355.254a3.826 3.826 0 01-5.869-3.235zm11.999 18.817a3.78 3.78 0 01-1.613 1.835 3.828 3.828 0 01-3.829-6.628 3.757 3.757 0 012.428-.474 3.79 3.79 0 012.8 1.875 3.789 3.789 0 01.214 3.392zm12.483 13.131a3.818 3.818 0 01-5.229 1.399c-1.828-1.052-2.452-3.394-1.4-5.228a3.831 3.831 0 011.779-1.59 3.807 3.807 0 013.449.188 3.798 3.798 0 011.89 2.935 3.713 3.713 0 01-.489 2.296zm16.072 5.972a3.755 3.755 0 01-2.041.593 3.831 3.831 0 01-3.828-3.828 3.738 3.738 0 01.704-2.199 3.801 3.801 0 013.124-1.629c1.306 0 2.453.648 3.141 1.646a3.76 3.76 0 01.688 2.183 3.823 3.823 0 01-1.788 3.234zm17.212-4.573a3.822 3.822 0 11-3.829-6.619c1.14-.656 2.475-1.123 3.575-.123h.008c.672 0 1.25.836 1.653 1.523a3.816 3.816 0 01-1.407 5.219zm6.525-20.107a31.944 31.944 0 01-1.225 2.16l-.047.071c-.222.355-.459.703-.696 1.052a27.3 27.3 0 01-.808 1.115c-.228.309-.466.609-.72.901-.269.325-.537.642-.822.949-.221.245-.442.483-.672.721-.317.324-.641.648-.973.957-.072.07-.144.142-.222.205-.356.332-.72.649-1.092.965-.237.206-.482.404-.736.594-.188.15-.387.3-.584.435-.159.126-.325.244-.491.363-.577.411-1.179.807-1.788 1.171-.174.11-.355.214-.537.316a26.75 26.75 0 01-1.717.909 6.546 6.546 0 01-.42.206c-.284.126-.568.261-.853.38-.135.063-.27.118-.403.166a.06.06 0 01-.032.016c-.308.126-.625.253-.933.364-.324.118-.649.237-.974.34-.008.009-.023.009-.031.009-.189.063-.38.126-.577.182a5.48 5.48 0 01-.498.143c-.174.056-.349.11-.53.15-.293.079-.586.15-.886.214-.166.039-.332.078-.498.11a.276.276 0 01-.111.023c-.309.071-.617.135-.934.183-.435.078-.87.142-1.313.197a20.34 20.34 0 01-1.226.127c-.11.016-.229.023-.34.023-.372.031-.744.048-1.115.064-.31.007-.617.016-.926.016-.316 0-.633-.009-.941-.016-.095 0-.182-.008-.261-.008l-.854-.048a33.893 33.893 0 01-1.021-.087c-.34-.031-.68-.071-1.012-.127a23.13 23.13 0 01-1.977-.348 25.526 25.526 0 01-1.923-.467c-9.587-2.729-17.117-10.267-19.853-19.853a29.458 29.458 0 01-.388-1.495l-.071-.324c-.056-.269-.11-.538-.158-.808a27.966 27.966 0 01-.459-3.836c-.016-.245-.023-.482-.031-.728a21.086 21.086 0 01.008-1.591c0-.197.008-.403.023-.601.04-.886.119-1.756.246-2.618.022-.189.055-.38.086-.561.064-.411.135-.814.222-1.21.032-.182.071-.364.119-.546.016-.104.039-.206.071-.309a28.5 28.5 0 013.479-8.424c.095-.158.19-.316.285-.467.253-.388.515-.775.783-1.155.118-.174.245-.348.38-.522.395-.537.814-1.06 1.258-1.573.276-.332.569-.664.878-.98.103-.119.214-.229.324-.341l.047-.047c.15-.159.302-.316.459-.459a26.366 26.366 0 011.923-1.725c.166-.142.332-.276.498-.403.174-.134.34-.269.514-.395.175-.127.349-.261.522-.38.182-.127.355-.253.538-.371.174-.127.355-.254.537-.364.174-.11.341-.214.515-.332a35.614 35.614 0 011.732-.981c.039-.023.078-.039.118-.063.15-.078.309-.158.467-.236.254-.119.514-.246.775-.372.134-.056.27-.119.411-.183a33.603 33.603 0 011.844-.742c.41-.151.83-.285 1.249-.412.214-.071.428-.135.641-.191.395-.11.799-.221 1.203-.315.244-.056.498-.111.751-.166.222-.048.443-.096.665-.135.221-.04.442-.079.672-.111.222-.039.442-.078.672-.103.222-.039.451-.063.681-.087.862-.103 1.74-.158 2.626-.182a28.826 28.826 0 017.879.894 28.728 28.728 0 0111.69 6.114 27.376 27.376 0 012.406 2.334c4.296 4.675 7.079 10.798 7.546 17.632.024.285.04.562.048.847.055 1.486 0 2.958-.158 4.397-.039.356-.087.712-.142 1.06-.016.135-.04.269-.064.396a25.088 25.088 0 01-.427 2.072c-.039.174-.079.34-.127.514-.07.277-.15.562-.236.839a6.56 6.56 0 01-.111.364 27.288 27.288 0 01-.72 2.04c-.048.143-.111.277-.166.411-.175.428-.364.847-.554 1.258-.137.284-.271.56-.407.829zm7.578 6.013a3.822 3.822 0 01-5.228 1.399 3.82 3.82 0 01-1.551-1.661 3.869 3.869 0 01.143-3.566 3.81 3.81 0 013.005-1.899 3.827 3.827 0 012.232.498 3.837 3.837 0 011.399 5.229zm4.501-17.102a3.845 3.845 0 01-3.172 1.677c-.49 0-.965-.095-1.4-.269a3.567 3.567 0 01-.814-.443 3.811 3.811 0 01-1.613-3.116 3.821 3.821 0 013.828-3.829 3.826 3.826 0 013.828 3.829c0 .79-.246 1.534-.657 2.151z" fill="#333"/></g><path d="M50.255 486.856s6.014-37.822 46.618-36.404m142.048-29.061s11.283-36.598 51.28-29.473m-132.868 38.43s10.318-36.075 49.687-34.555" stroke="#FFFFFC" stroke-width="2" stroke-miterlimit="10" stroke-dasharray="5 6"/></g><defs><clipPath id="clip0_1410_172"><path fill="#fff" d="M0 0h500v500H0z"/></clipPath></defs></svg>