<svg width="500" height="339" fill="none" xmlns="http://www.w3.org/2000/svg"><g clip-path="url(#clip0_1360_199)"><path opacity=".25" d="M500-75H0v500h500V-75z" fill="#fff"/><path d="M416.098 304.355c-11.619-.401-34.055 4.006-30.85 13.221 3.205 9.215 12.019 4.407 18.229 2.404 6.21-2.003 25.04 10.016 32.252 3.005 7.211-7.011-6.01-17.829-21.635-17.228m-96.554 3.406s-22.035-1.202-21.835 2.003c.2 3.205 11.819 7.212 21.835 9.616s12.42 8.413 32.052 7.612c19.632-.801 10.617-24.039 10.617-24.039s-7.813-1.202-17.829 3.406c-10.016 4.607-23.438 4.607-27.845-2.003l3.005 3.405zm-251.003 0s-1.402 6.811 4.207 8.814c5.61 2.003 16.426 9.215 31.651 7.612 15.224-1.603-3.005-16.426-3.005-16.426H66.537zM222.788 27.712c-19.03-3.723-49.079-3.806-44.471 4.006 4.607 7.813 35.056 31.45 48.678 25.24 13.621-6.21 14.222-25.641-4.207-29.246z" fill="#EDEFF4"/><path opacity=".75" d="M380.641 222.424c-34.051 27.739-156.05 53.686-231.772.801C73.149 170.34 74.951 99.426 73.549 89.21c-1.403-10.216 1.802-62.1 52.283-61.499 50.481.601 66.791 76.881 121.795 38.462 52.484-36.659 68.109-32.452 86.138-12.019 6.426 7.283 17.052 17.353 30.249 18.229 17.226 1.144 31.05-.801 50.08-6.21 25.013-7.109 105.971 42.669-33.453 156.251z" fill="#EDEFF4"/><path d="M408.236 165.041l5.793-5.483 11.652 5.483-2.038 55.518h-9.677l-5.73-55.518z" fill="#EBEFF7"/><path d="M400.978 312.368c-.764.509-2.343.7-2.343.7l-9.458-2.273c3.098-.936 5.562-2.502 6.326-3.648.391-.586.615-2.138.741-3.514a42.8 42.8 0 00.15-2.47l5.093-.764s.031 1.387.038 3.216c.015 3.431-.05 8.421-.547 8.753z" fill="#24246B"/><path d="M401.525 303.615c-.89.149-2.617.307-5.282.018a42.8 42.8 0 00.15-2.47l5.093-.764s.031 1.387.039 3.216z" fill="url(#paint0_linear_1360_199)"/><path d="M434.722 312.623s-6.876 2.292-8.404 1.99c-1.528-.303-.509-3.9-.255-5.938.125-.996.036-2.997-.087-4.783-.13-1.866-.295-3.494-.295-3.494h5.221s.075 1.627.186 3.315c.092 1.407.208 2.855.323 3.434.255 1.274 3.311 5.476 3.311 5.476z" fill="#24246B"/><path d="M431.087 303.714c-1.365.101-3.132.157-5.111.18-.13-1.866-.295-3.494-.295-3.494h5.221s.075 1.626.185 3.314z" fill="url(#paint1_linear_1360_199)"/><path d="M432.557 216.104v44.821c0 3.565-.764 40.748-.764 40.748h-6.367s-3.82-33.489-3.947-39.347c-.127-5.857-2.674-31.707-2.674-31.707l-.056.188-8.221 27.826s-1.528 5.348-2.674 13.625c-1.146 8.277-5.985 29.415-5.985 29.415h-6.367l2.801-41.257 4.457-44.822c8.245 1.042 16.508 1.357 24.791.889 1.668-.095 3.337-.221 5.006-.379z" fill="url(#paint2_linear_1360_199)"/><path d="M398.685 313.133s-3.151-4.202-7.436-3.056-3.277 2.674-2.521 3.056c.757.381 6.05 1.273 9.957 0zm35.782 1.146c-1.03.206-8.532.637-8.914 0-.382-.637.255-2.674 2.419-3.056 2.164-.382 6.494 1.019 7.131 1.655.637.636.001 1.273-.636 1.401z" fill="#3535AA"/><path d="M432.557 216.104v44.821c0 3.565-.764 40.748-.764 40.748h-1.677c.23-3.127.702-11.605-.106-20.883-1.019-11.715-1.655-16.044 0-29.924 1.322-11.083-1.335-28.011-2.459-34.383 1.668-.095 3.337-.221 5.006-.379z" fill="url(#paint3_linear_1360_199)"/><path d="M418.749 230.807l-8.221 27.826s-1.528 5.348-2.674 13.625c-1.146 8.277-5.985 29.415-5.985 29.415h-2.011c1.984-7.007 2.989-12.573 4.175-20.883 1.253-8.77-.445-9.37 2.165-22.157 1.273-6.24 5.603-12.097 6.876-19.482 1.806-10.478 4.329-16.681 4.329-16.681l1.346 8.337z" fill="url(#paint4_linear_1360_199)"/><path d="M443.508 233.038s.891 8.277.637 8.786c-.255.509-7.492 3.098-8.404.637-1.273-3.438 0-22.284 0-22.284s-.127-6.494 1.273-6.239c1.4.255 6.494 19.1 6.494 19.1z" fill="#152C68"/><path d="M436.759 226.162s-.764-8.914 0-10.06c.764-1.146 1.783-1.019 3.311 5.858 1.528 6.876 1.783 12.224 2.801 12.734 1.019.509 2.674.637 2.674.637s-6.112-24.321-7.767-24.321c-1.655 0-3.693 1.91-3.311 14.644 0 0 .382 4.71 2.292.508z" fill="#192EAD"/><path d="M420.078 150.397l-.149 4.452-.098 2.945-.135 4.063c-4.966 7.258-8.531 0-8.531 0l-.501-4.667-.163-1.524-.101-.94 9.678-4.329z" fill="url(#paint5_linear_1360_199)"/><path d="M419.929 154.849l-.098 2.945c-1.262 1.592-2.917 3.299-4.21 3.299-1.697 0-3.833-2.443-4.957-3.903l-.163-1.524c2.316-1.406 6.89-1.117 9.428-.817z" fill="#4463C6"/><path d="M406.453 146.689s-1.192-4.409-.715-6.554c.477-2.145 2.502-1.192 2.502-1.192s-1.073-1.907.477-3.694c1.549-1.787 7.865-2.622 11.559-1.072 3.694 1.549 1.43 4.886 1.43 4.886s4.647-1.192 1.43 7.031l-7.15 2.979-9.533-2.264v-.12z" fill="#192EAD"/><path d="M408.598 146.57s-1.788-1.907-2.383-.715c-.596 1.192.715 5.601 3.575 5.362l-1.192-4.647z" fill="url(#paint6_linear_1360_199)"/><path d="M421.088 146.57s1.787-1.907 2.383-.715c.596 1.192-.715 5.601-3.575 5.362l1.192-4.647z" fill="url(#paint7_linear_1360_199)"/><path d="M421.467 146.094v.006c-.016.268-.481 7.883-.833 9.289-.289 1.152-2.049 3.156-3.657 3.889-.387.176-.765.28-1.111.28-1.431 0-2.814-.808-3.88-1.797a8.672 8.672 0 01-1.482-1.777c-.952-1.549-2.264-9.889-2.264-9.889s1.095-1.379 1.285-4.263c.023-.344.033-.712.027-1.101 0 0 6.434-2.501 10.724.119l-.002.049c-.008.386-.016 2.995 1.193 5.195z" fill="url(#paint8_linear_1360_199)"/><path d="M421.467 146.1c-.016.268-.481 7.883-.833 9.289-.289 1.152-2.049 3.156-3.657 3.889 3.146-2.124 4.453-12.905 4.49-13.178zm-1.191-5.25l-.001.049c-4.413-1.027-9.145.377-10.75.933.023-.346.032-.713.026-1.101 0 0 6.435-2.503 10.725.119z" fill="#7168EE"/><path d="M416.003 217.63c-2.41.038-4.546-.13-6.353-.386-4.206-.592-6.635-1.651-6.635-1.651l-1.273-32.471s-2.029 6.526-2.636 9.302c-.122.562-.187.969-.165 1.14.127 1.019 1.655 8.15 1.655 8.15l-7.385 2.801s-3.693-7.258-3.693-9.677c0-2.419 5.348-25.722 6.494-27.505 1.146-1.783 15.153-5.476 15.153-5.476l4.838 55.773z" fill="url(#paint9_linear_1360_199)"/><path d="M432.524 194.45c.076-.765.104-1.424.033-1.778-.255-1.273-2.037-6.749-2.037-6.749.255 3.056 2.037 32.343 2.037 32.343-1.685.047-3.646-.027-5.451-.14-3.106-.191-5.754-.497-5.754-.497l-1.401-55.773c7.003.637 14.389 3.82 15.153 4.33.764.509 6.112 25.594 6.112 26.613 0 1.019-2.165 8.404-2.165 8.404l-7.195-2.02-.064-.018.041-.21c.124-.66.507-2.752.679-4.398v-.001l.003-.023.008-.07.001-.013z" fill="url(#paint10_linear_1360_199)"/><path d="M409.65 217.245c-4.206-.592-6.635-1.651-6.635-1.651l-1.273-32.471s-2.029 6.526-2.636 9.302l-1.694 4.96 5.348-23.939s2.419 8.404 1.528 19.865c-.694 8.912 5.23 15.737 5.362 23.934z" fill="url(#paint11_linear_1360_199)"/><path d="M430.519 185.924c.255 3.056 2.037 32.343 2.037 32.343-1.685.047-3.646-.027-5.451-.14 3.173-6.292 2.147-19.187 1.122-25.454-1.146-7.004 0-20.883 0-20.883s4.711 17.7 4.711 18.336c0 .573-.345 3.703-.415 4.324.076-.765.104-1.424.033-1.778-.254-1.273-2.037-6.748-2.037-6.748z" fill="url(#paint12_linear_1360_199)"/><path d="M407.217 221.069c-.163.523-.461.988-.815 1.389-1.019 1.161-2.496 1.794-2.496 1.794-3.565-5.603-10.696-19.737-10.696-19.737l5.045-1.914 2.341-.888c.314.714 1.466 5.023 2.929 9.678 1.462 4.654 3.692 9.678 3.692 9.678z" fill="url(#paint13_linear_1360_199)"/><path d="M407.217 221.069c-.163.523-.461.988-.815 1.389-1.015-4.59-3.281-5.962-4.533-11.194-.935-3.908-2.606-7.023-3.614-8.663l2.341-.888c.314.714 1.466 5.023 2.929 9.678 1.462 4.654 3.692 9.678 3.692 9.678z" fill="#7168EE"/><path d="M401.742 204.005s-7.767 2.801-8.15 3.056c-.382.255-2.547-4.075-2.547-4.075l10.06-3.565s1.193 3.744.637 4.584z" fill="#FCA229"/><path d="M425.681 162.494s-1.535 37.583 8.846 46.933l-1.588 3.492s-12.09-12.103-10.184-50.683c0 0 1.016-.633 2.926.258z" fill="#192EAD"/><path d="M437.396 222.597c.255.764.509 5.093-.637 5.603-1.146.509-3.82.255-3.82.255s4.329 4.711 3.693 4.839c-.637.127-4.584-3.311-4.839-4.075-.255-.764-1.91-7.131-1.783-10.441.127-3.311 1.783-19.865 1.783-19.865l4.475 1.414 2.784.879c-.82 2.565-5.221 17.827-5.221 17.827a.539.539 0 01.025.06c.893 2.076 2.267 7.071 2.267 7.071s1.018-4.332 1.273-3.567z" fill="url(#paint14_linear_1360_199)"/><path d="M433.83 219.031a.539.539 0 01.025.06l-1.299 1.468c1.528-3.947.764-8.15 2.547-12.988 1.127-3.057 1.237-5.708 1.164-7.245l2.784.879c-.82 2.564-5.221 17.826-5.221 17.826z" fill="#7168EE"/><path d="M430.774 198.021l10.06 2.801s-1.528 3.82-1.783 3.947c-.255.127-8.022-1.91-8.15-2.165-.127-.254-.127-4.583-.127-4.583z" fill="#FCA229"/><path d="M317.452 309.056c-.057.655-.18 1.285-.39 1.848 0 0-13.134.383-17.852 0s-2.168-5.228-.383-6.248c.21-.12.449-.199.709-.247 1.948-.356 5.112 1.08 6.687.63 1.785-.51 5.228-2.805 5.228-2.805l5.261.525s.998 3.387.74 6.297z" fill="#24246B"/><path d="M317.452 309.056c-.057.655-.18 1.285-.39 1.848 0 0-13.134.383-17.852 0s-2.168-5.228-.383-6.248c.21-.12.449-.199.709-.247 1.032.272 2.18 1.579 3.116 5.22 0 0 9.9.337 14.8-.573z" fill="#EBF0F2"/><path d="M357.169 313.438s-8.288.127-9.436 0c-.939-.105-.172-2.679.837-4.383l.001-.003a6.02 6.02 0 01.692-.97c1.275-1.403 3.188-1.02 3.188-1.02s1.287-3.977.006-6.578l5.349-2.475s1.334 2.756 1.997 5.15c.13.473.236.932.298 1.353.383 2.55-2.932 8.926-2.932 8.926z" fill="#24246B"/><path d="M357.169 313.438s-8.288.127-9.436 0c-.939-.105-.172-2.679.837-4.383l.001-.003c3.898-5.279 8.088 1.58 8.088 1.58 1.619-1.979 2.668-5.544 3.145-7.474.13.473.236.932.298 1.353.382 2.551-2.933 8.927-2.933 8.927z" fill="#EBF0F2"/><path d="M320.575 256.074a90.909 90.909 0 01-.668 6.836c-1.02 7.396-3.299 39.71-3.299 39.71-3.188 2.295-6.231 0-6.231 0l-1.946-45.391-.166-3.875 12.496-4.463c-.002 0 .074 2.984-.186 7.183z" fill="url(#paint15_linear_1360_199)"/><path d="M357.783 297.977c-.638 2.295-5.254 2.566-5.254 2.566s-21.952-41.578-23.226-44.001c-.366-.697-.722-1.56-1.043-2.439-.797-2.18-1.379-4.448-1.379-4.448l.765.255 14.027-6.885.081 9.855.025 2.942s3.719 6.456 5.76 14.107c2.038 7.652 10.244 28.048 10.244 28.048z" fill="url(#paint16_linear_1360_199)"/><path d="M320.759 248.891s.076 2.984-.185 7.183l-12.145 1.155-.166-3.875 12.496-4.463z" fill="url(#paint17_linear_1360_199)"/><path d="M341.753 252.881l-13.493 1.222c-.797-2.18-1.379-4.448-1.379-4.448l.765.255 14.027-6.885.08 9.856z" fill="url(#paint18_linear_1360_199)"/><path d="M302.717 201.52s-2.294 2.68-2.678 2.933c-.384.253-6.746.931-7.003 1.311-.256.38 4.226 1.139 4.226 1.139s-3.457 2.279-3.585 2.912c-.128.633.834 7.029 2.978 6.743 2.144-.286 6.754-8.642 6.754-8.642l2.305-2.532-2.997-3.864z" fill="url(#paint19_linear_1360_199)"/><path d="M312.089 201.839l-6.886 4.845-4.08-4.845s9.563-10.966 10.201-12.114c.638-1.148 1.913-4.973 1.913-4.973l-1.148 17.087z" fill="url(#paint20_linear_1360_199)"/><path d="M332.735 163.761s5.494 1.734 7.279 2.248c4.654 1.339 5.292 3.634 5.611 8.671.322 5.094-8.416 32.006-8.416 32.006l-26.267-.638s1.148-11.349 1.275-14.026c.128-2.678-1.658-20.529-1.275-22.059.383-1.53 4.683-4.851 9.61-5.932l12.183-.27z" fill="url(#paint21_linear_1360_199)"/><path d="M335.482 174.233s-.378 13.899-1.27 16.322c-.893 2.423-4.463 14.026-4.463 14.026l7.94.605 5.193-14.632-7.4-16.321z" fill="url(#paint22_linear_1360_199)"/><path d="M334.531 148.539s1.53-2.678 1.148-6.631c0 0 2.805-2.933-2.295-5.865-5.101-2.933-11.349-2.04-13.389-.765-2.04 1.275-1.275 3.953-1.275 3.953s-3.06 5.483 1.403 9.691l12.496 1.785 1.912-2.168z" fill="#192EAD"/><path d="M322.056 163.52l-3.209 1.086 4.463 26.012 10.966-26.522-2.933-.638-9.287.062z" fill="url(#paint23_linear_1360_199)"/><path d="M326.37 166.008l-3.113 24.301 3.878-24.301h-.765z" fill="#D0D1D8"/><path d="M333.893 152.747c-1.02.637-1.53-.51-1.53-.51-.638 3.188-1.02 9.946-1.02 9.946s-2.423 3.953-4.463 3.825c-2.04-.128-3.698-2.933-3.698-2.933l.226-1.081.412-1.979s-.76.38-1.923.113a4.539 4.539 0 01-.951-.34c-.004-.004-.006-.004-.006-.004a5.5 5.5 0 01-.69-.407c-1.582-1.088-.644-11.171-.164-15.474.131-1.185.228-1.932.228-1.932.574.956 1.721 1.339 5.292 1.084 3.57-.255 5.611.383 5.611.383a5.58 5.58 0 00-.037.121c-.947 3.16.419 6.764.419 6.764s1.148-3.188 2.55-3.06c1.402.128.764 4.846-.256 5.484z" fill="url(#paint24_linear_1360_199)"/><path d="M331.216 143.439a5.58 5.58 0 00-.037.121c-1.159.004-3.758.09-7.359.644-1.729.266-2.918.07-3.735-.3.131-1.185.228-1.932.228-1.932.574.956 1.721 1.339 5.292 1.084 3.57-.255 5.611.383 5.611.383zm-3.061 13.771s-1.229 4.256-4.747 4.784l.412-1.979s-.76.38-1.923.113c1.146.197 3.292-.035 6.258-2.918z" fill="#7168EE"/><path d="M323.437 162.055s-1.148.765-1.53 1.785c-.383 1.02 3.06 6.121 3.06 6.121l1.404-4.04s-2.424-1.188-2.934-3.866zm7.906 0s.893.893 1.02 1.913c.128 1.02-4.208 5.993-4.208 5.993l-1.02-3.953s2.423-1.402 4.208-3.953z" fill="#A7B3C6"/><path d="M370.279 196.856l8.454 39.918a4.014 4.014 0 01-3.097 4.761l-66.863 14.161a4.028 4.028 0 01-2.673-.358 4.01 4.01 0 01-2.089-2.739l-8.454-39.918a4.012 4.012 0 013.098-4.761l66.863-14.161a4.014 4.014 0 014.761 3.097z" fill="url(#paint25_linear_1360_199)"/><path d="M370.279 196.856l1.94 9.16c-8.866 7.182-29.983 24.169-32.377 24.983-2.76.939-37.805-15.133-44.239-18.101l-.046-.217a4.012 4.012 0 013.098-4.761l66.863-14.161a4.014 4.014 0 014.761 3.097z" fill="url(#paint26_linear_1360_199)"/><path d="M368.313 243.087l5.618-28.985 4.802 22.672a4.014 4.014 0 01-3.097 4.761l-7.323 1.552z" fill="url(#paint27_linear_1360_199)"/><path d="M369.272 194.93l-29.655 29.763a4.505 4.505 0 01-1.529 1.009 4.523 4.523 0 01-3.337.012l-8.016-3.14-1.535-.602-29.47-11.547a4.012 4.012 0 012.925-2.505l66.863-14.161a4.017 4.017 0 013.754 1.171z" fill="url(#paint28_linear_1360_199)"/><path d="M295.767 210.383s2.55.51 3.698.637c1.148.128.51.765-.765.893s-.212 4.137-2.274 4.874c0 0-2.444-3.982-.659-6.404z" fill="url(#paint29_linear_1360_199)"/><path d="M333.766 216.631s-.64.732-1.346 1.594c-.472.576-.973 1.21-1.331 1.721-.893 1.275-1.148 4.973-2.168 5.355-1.02.383-3.953-.128-4.463.255-.51.383-2.678 1.275-3.06 1.02-.383-.255 1.785-1.53 2.805-2.805 1.02-1.275 2.295-3.698 1.275-3.57-1.02.128-3.443.893-2.678.255.765-.638 4.08-2.423 4.463-2.805.194-.194.75-.881 1.248-1.51.486-.611.919-1.168.919-1.168l4.336 1.658z" fill="url(#paint30_linear_1360_199)"/><path d="M333.766 216.631s-.64.732-1.346 1.594l-3.908-2.084c.486-.611.919-1.168.919-1.168l4.335 1.658z" fill="#7168EE"/><path d="M347.027 191.893c-.383 2.423-2.55 7.651-6.376 14.154-3.825 6.503-6.376 11.604-6.376 11.604l-2.995-1.339-2.998-1.339s2.497-5.155 4.59-9.563c2.423-5.1 4.845-12.114 4.845-15.046 0-2.932-3.443-12.751-1.913-17.852.969-3.231 3.833-4.365 6.124-4.144 1.326.126 2.461.706 2.929 1.594 1.278 2.422 2.553 19.508 2.17 21.931z" fill="url(#paint31_linear_1360_199)"/><path d="M347.027 191.893c-.383 2.423-2.55 7.651-6.376 14.154-3.825 6.503-6.376 11.604-6.376 11.604l-2.995-1.339c10.121-9.011 11.928-22.853 13.388-28.69 1.53-6.121-2.738-19.254-2.738-19.254 1.326.126 2.461.706 2.929 1.594 1.276 2.422 2.551 19.508 2.168 21.931z" fill="url(#paint32_linear_1360_199)"/><path d="M170.403 184.262h19.833v108.776h-19.833V184.262z" fill="#7168EE" stroke="#7168EE"/><path d="M170.403 184.262h5.811v108.776h-5.811V184.262z" fill="#7168EE" stroke="#7168EE"/><path d="M207.332 276.831l-6.352 13.452-8.268-13.529c-.992-13.549-.834-22.471.201-27.895.521-2.725 1.251-4.504 2.116-5.546.836-1.007 1.801-1.338 2.926-1.165l9.377 34.683zm0 0a297.085 297.085 0 00-.78-5.238c-.513-3.238-1.25-7.562-2.149-11.909-.9-4.35-1.959-8.707-3.113-12.018-.577-1.659-1.171-3.031-1.768-4.006-.298-.486-.587-.857-.862-1.111-.276-.256-.511-.371-.705-.401l9.377 34.683z" fill="url(#paint33_linear_1360_199)" stroke="#7168EE"/><path d="M203.134 270.163c.566-4.468.863-8.697 1.112-12.702l.115-1.88c.202-3.318.394-6.476.708-9.502.745-7.18 2.173-13.553 6-19.374 3.363-5.115 6.894-6.038 8.581-5.985h0c1.603.05 3.288.613 4.666 1.863 1.375 1.248 2.479 3.209 2.866 6.116l.496-.066-.495.066c.647 4.861-.036 11.324-1.449 18.321-1.411 6.987-3.541 14.463-5.756 21.329a344.446 344.446 0 01-6.255 17.649 323.162 323.162 0 01-2.12 5.374c-.258.635-.461 1.128-.599 1.462l-.085.203h-12.238c2.534-9.653 3.785-17.586 4.453-22.874zm0 0l-.496-.063m.496.063l-.496-.063m0 0c.652-5.153.947-9.989 1.224-14.547.68-11.194 1.259-20.711 6.789-29.123m-8.013 43.67c-.669 5.295-1.925 13.253-4.474 22.937l12.487-66.607m0 0c3.441-5.234 7.125-6.269 9.014-6.21l-9.014 6.21z" fill="url(#paint34_linear_1360_199)" stroke="#7168EE"/><path d="M225.934 244.888h0c3.725-2.241 6.52-2.962 8.481-2.682 1.898.271 3.108 1.497 3.676 3.467.578 2.001.475 4.743-.313 7.883-.785 3.131-2.24 6.615-4.318 10.077h0c-6.624 11.041-9.798 18.488-11.315 23.191-.758 2.352-1.104 4.02-1.258 5.11-.068.475-.099.84-.113 1.104h-12.386c.024-.289.058-.69.106-1.19a144.6 144.6 0 01.52-4.643c.494-3.883 1.31-9.153 2.594-14.701 1.284-5.551 3.033-11.365 5.388-16.346 2.361-4.991 5.302-9.084 8.938-11.27z" fill="url(#paint35_linear_1360_199)" stroke="#7168EE"/><path d="M214.762 293.038l7.055-9.643.005-.007.028-.035.109-.14a82.374 82.374 0 011.997-2.424c1.335-1.562 3.189-3.624 5.271-5.634 2.086-2.014 4.384-3.96 6.606-5.3 2.242-1.353 4.306-2.028 5.963-1.669.765.165 1.301.613 1.671 1.315.38.721.583 1.714.624 2.927.082 2.423-.485 5.546-1.296 8.665-.808 3.108-1.848 6.172-2.687 8.461a108.527 108.527 0 01-1.051 2.755c-.123.308-.223.554-.294.729h-24.001z" fill="url(#paint36_linear_1360_199)" stroke="#7168EE"/><path d="M242.604 293.038c.159-.416.392-1.008.69-1.716a53.227 53.227 0 012.542-5.252c1.069-1.911 2.323-3.797 3.689-5.198 1.377-1.411 2.796-2.259 4.196-2.259.692 0 1.236.205 1.676.554.447.356.812.881 1.101 1.553.58 1.355.805 3.204.829 5.112.025 1.897-.148 3.8-.328 5.234-.09.715-.181 1.311-.25 1.728l-.041.244h-14.104z" fill="url(#paint37_linear_1360_199)" stroke="#7168EE"/><path d="M204.089 292.62l.025.418h-12.661l-.023-.151c-.057-.378-.141-.932-.254-1.638a240.617 240.617 0 00-1.017-5.865c-.903-4.866-2.258-11.391-4.066-18.019l-.482.131.482-.131c-1.518-5.567.202-9.142 2.665-10.231 2.449-1.084 6.092.096 8.837 4.997 2.754 4.919 4.398 12.748 5.35 19.408a147.465 147.465 0 011.144 11.081z" fill="url(#paint38_linear_1360_199)" stroke="#7168EE"/><path d="M253.52 284.323l-3.159 9.215m-9.862-20.834s-7.572 10.216-9.295 20.833m.71-43.422s-11.647 17.782-18.058 43.423m-21.634-27.444s5.609 17.027 5.809 27.444" stroke="#7168EE" stroke-width="1.002" stroke-miterlimit="10" stroke-linecap="round"/><path d="M150.018 276.592a17.43 17.43 0 01-.033.239l6.353 13.452 8.267-13.529c.992-13.549.834-22.471-.201-27.895-.52-2.725-1.251-4.504-2.116-5.546-.835-1.007-1.801-1.338-2.926-1.165l-9.344 34.444zm0 0c.035-.251.087-.621.155-1.092m-.155 1.092l.155-1.092m0 0c.136-.942.336-2.288.592-3.907m-.592 3.907l.592-3.907m0 0c.513-3.238 1.25-7.562 2.149-11.909m-2.149 11.909l2.149-11.909m0 0c.9-4.35 1.959-8.707 3.113-12.018m-3.113 12.018l3.113-12.018m0 0c.578-1.659 1.171-3.031 1.768-4.006m-1.768 4.006l1.768-4.006m0 0c.298-.486.588-.857.862-1.111m-.862 1.111l.862-1.111m0 0c.276-.256.511-.371.705-.401l-.705.401z" fill="url(#paint39_linear_1360_199)" stroke="#7168EE"/><path d="M154.183 270.163c.669 5.288 1.919 13.221 4.453 22.874h-12.239a323.162 323.162 0 01-2.804-7.039 346.385 346.385 0 01-6.255-17.649c-2.215-6.866-4.345-14.342-5.756-21.329-1.413-6.997-2.096-13.46-1.448-18.321l-.496-.066.496.066c.387-2.907 1.491-4.868 2.866-6.116 1.378-1.25 3.064-1.813 4.667-1.863h0c1.687-.053 5.219.87 8.581 5.985 3.827 5.821 5.255 12.194 6 19.374.314 3.026.506 6.184.708 9.501l.115 1.881c.249 4.005.546 8.234 1.112 12.702z" fill="url(#paint40_linear_1360_199)" stroke="#7168EE"/><path d="M125.747 293.019l-.001.019H114.45l-.085-.597c-.097-.668-.243-1.642-.44-2.867-.396-2.45-.998-5.907-1.826-9.934-1.655-8.05-4.216-18.399-7.837-27.552-2.36-5.966-1.409-12.591 1.282-16.241 1.337-1.813 3.063-2.848 4.997-2.793 1.945.056 4.242 1.219 6.697 4.116 2.419 2.855 4.189 7.77 5.464 13.627 1.27 5.836 2.031 12.527 2.481 18.863.45 6.334.588 12.301.613 16.685a256.338 256.338 0 01-.049 6.674z" fill="url(#paint41_linear_1360_199)" stroke="#7168EE"/><path d="M164.093 89.71h79.351c-17.173 3.982-29.971 19.377-29.971 37.761v55.79h-87.141v-55.79c0-20.856 16.905-37.761 37.761-37.761z" fill="#FF911E" stroke="#7168EE"/><path d="M247.687 89.98h0a38.185 38.185 0 013.539-.258h.015c20.389.535 36.752 17.232 36.752 37.749v55.79h-73.52v-55.79c0-19.315 14.502-35.245 33.214-37.49z" fill="#7168EE" stroke="#7168EE"/><path d="M280.782 127.471v55.79h-66.308v-55.79c0-19.294 14.471-35.21 33.154-37.483 18.683 2.273 33.154 18.189 33.154 37.483z" fill="#7168EE" stroke="#7168EE"/><path d="M164.093 89.71h79.352c-17.174 3.982-29.972 19.377-29.972 37.761v30.149h-87.141v-30.149c0-20.856 16.905-37.761 37.761-37.761z" fill="url(#paint42_linear_1360_199)" stroke="#7168EE"/><path d="M155.781 170.741a3.105 3.105 0 11-6.212 0 3.106 3.106 0 116.212 0zm13.622 0a3.105 3.105 0 11-6.212 0 3.106 3.106 0 116.212 0zm12.019 0a3.105 3.105 0 11-6.212 0 3.106 3.106 0 116.212 0z" fill="#EF6520" stroke="#7168EE"/><path d="M287.993 184.262v45.975c0 18.31-14.844 33.154-33.154 33.154h-7.212c-18.31 0-33.154-14.844-33.154-33.154v-45.975h73.52z" fill="#7168EE" stroke="#7168EE"/><path d="M217.278 230.237v-45.975h70.715v45.975c0 12.781-7.234 23.876-17.834 29.409h0a32.99 32.99 0 01-15.32 3.745h-4.407c-18.31 0-33.154-14.844-33.154-33.154z" fill="#E0E3EA" stroke="#7168EE"/><path d="M148.93 293.038h-12.387a12.472 12.472 0 00-.113-1.104c-.154-1.09-.499-2.758-1.258-5.11-1.517-4.703-4.691-12.15-11.315-23.191h0c-2.077-3.462-3.533-6.946-4.318-10.077-.788-3.14-.891-5.882-.314-7.883.569-1.97 1.778-3.196 3.677-3.467 1.96-.28 4.756.441 8.481 2.682 3.636 2.186 6.577 6.279 8.938 11.27 2.355 4.981 4.104 10.795 5.388 16.346 1.284 5.548 2.1 10.818 2.595 14.701a147.017 147.017 0 01.626 5.833z" fill="url(#paint43_linear_1360_199)" stroke="#7168EE"/><path d="M142.554 293.038h-24.001c-.071-.175-.171-.421-.294-.729-.263-.663-.632-1.612-1.051-2.755-.839-2.289-1.878-5.353-2.686-8.461-.811-3.119-1.378-6.242-1.296-8.665.041-1.213.244-2.206.624-2.927.37-.702.906-1.15 1.671-1.315 1.657-.359 3.721.316 5.964 1.669 2.221 1.34 4.519 3.286 6.605 5.3 2.082 2.01 3.937 4.072 5.272 5.634.667.78 1.203 1.434 1.573 1.892.184.229.327.41.423.532l.11.14.027.035.005.007 7.054 9.643z" fill="url(#paint44_linear_1360_199)" stroke="#7168EE"/><path d="M114.714 293.038h-14.105l-.041-.244a45.674 45.674 0 01-.25-1.728c-.18-1.434-.352-3.337-.328-5.234.025-1.908.25-3.757.83-5.112.288-.672.654-1.197 1.101-1.553.44-.349.984-.554 1.676-.554 1.401 0 2.819.848 4.196 2.259 1.366 1.401 2.62 3.287 3.689 5.198a53.227 53.227 0 012.542 5.252c.299.708.531 1.3.69 1.716z" fill="url(#paint45_linear_1360_199)" stroke="#7168EE"/><path d="M171.224 267.365l.482.131-.482-.131c-1.808 6.628-3.163 13.153-4.066 18.019a240.617 240.617 0 00-1.017 5.865c-.113.706-.197 1.26-.254 1.638l-.022.151h-12.662l.025-.418a147.34 147.34 0 011.144-11.081c.952-6.66 2.596-14.489 5.35-19.408 2.745-4.901 6.388-6.081 8.837-4.997 2.463 1.089 4.183 4.664 2.665 10.231z" fill="url(#paint46_linear_1360_199)" stroke="#7168EE"/><path d="M103.797 284.323l3.159 9.215m9.862-20.834s7.572 10.216 9.295 20.833m-.71-43.422s11.647 17.782 18.058 43.423m21.634-27.444s-5.609 17.027-5.809 27.444" stroke="#7168EE" stroke-width="1.002" stroke-miterlimit="10" stroke-linecap="round"/><path d="M214.637 89.985h27.702c-16.614 4.375-28.865 19.5-28.865 37.487v30.149h-40.948c4.707-3.988 8.294-11.313 8.294-24.34v-9.477c0-18.678 15.141-33.819 33.817-33.819z" fill="url(#paint47_linear_1360_199)" stroke="#7168EE"/><path d="M197.547 132.781a3.106 3.106 0 01-3.106-3.106V40.03h6.212v89.645a3.105 3.105 0 01-3.106 3.106z" fill="#7168EE" stroke="#7168EE"/><path d="M200.653 60.708L175.505 40.03h25.148v20.678z" fill="#FF911E" stroke="#7168EE"/><path d="M221.761 184.261l47.913 75.632a32.992 32.992 0 01-14.835 3.497h-4.407c-18.31 0-33.154-14.844-33.154-33.154v-45.975h4.483z" fill="#CED1D8" stroke="#7168EE"/><path d="M83.654 300.161s-.618 2.964 0 4.57c.618 1.606 4.817.865 4.817.865l-.37-5.188-4.447-.247z" fill="url(#paint48_linear_1360_199)"/><path d="M99.39 308.896a.75.75 0 01-.049.282c-.224.566-4.36.476-8.523.494-4.313.02-8.652.126-8.523-.494a5.985 5.985 0 01-.075-.516c-.28-2.57.693-6.03.693-6.03h.618c.494 3.458 4.694 2.1 4.632 0h.68c-.125 2.223 2.06 3.377 5.681 3.705 3.63.33 4.857 1.716 4.866 2.559z" fill="#D9E0E2"/><path d="M99.39 308.896a.75.75 0 01-.049.282c-.224.566-4.36.476-8.523.494-4.313.02-8.652.126-8.523-.494a5.985 5.985 0 01-.075-.516c4.85-.039 13.714.154 17.17.234z" fill="#7168EE"/><path d="M67.967 300.161s-.618 2.964 0 4.57c.618 1.606 4.817.865 4.817.865l-.371-5.188-4.446-.247z" fill="url(#paint49_linear_1360_199)"/><path d="M83.654 309.178c-.224.566-4.36.476-8.522.494-4.313.02-8.652.126-8.523-.494a7.31 7.31 0 01-.117-1.087c-.103-2.481.735-5.459.735-5.459h.618c.865 3.088 4.57 2.347 4.632 0h.68c-.124 2.223 2.061 3.377 5.681 3.705 3.172.288 4.508 1.382 4.802 2.216.083.237.082.454.014.625z" fill="#EBF0F2"/><path d="M76.49 213.207c1.871 17.199 1.204 23.785 3.211 41.748 1.29 11.541.124 30.508 2.964 46.936h6.546c0-12.352.757-14.372 1.606-38.29.422-11.903.224-24.075.988-29.52 1.976-14.081 1.235-27.173 1.235-27.173l-16.55 6.299z" fill="#24246B"/><path d="M80.566 234.698c-2.9 13.921-7.287 67.192-7.287 67.192H66.98c-1.729-15.686-.056-29.431-.988-41.007-1.362-16.917-4.199-33.349-2.223-47.677l6.834-.778 13.546-2.063s-1.113 12.476-3.583 24.333z" fill="url(#paint50_linear_1360_199)"/><path d="M69.08 271.506c-1.174 8.318-1.078 23.184.37 30.385h-2.47c-1.729-15.686-.056-29.431-.988-41.007-1.362-16.917-4.199-33.349-2.223-47.677l6.834-.778c-.583 3.258-4.013 23.246-2.882 36.598 1.234 14.574 2.717 12.844 1.358 22.479z" fill="url(#paint51_linear_1360_199)"/><path d="M88.288 196.511c-1.124.443-2.284.704-3.365.851.254-.917.473-1.826.66-2.715 1.723-.327 2.517-.832 2.517-.832l.094.222-.377-9.989-.088-2.338-7.905-15.439H69.079l8.476 44.499.912 4.784s4.694 1.482 10.499-1.112l-.678-17.931zm-8.403 11.57a26.787 26.787 0 001.675-2.538c4.019.027 5.799-1.105 5.799-1.105l.988 2.347c-3.254 1.576-7.06 1.422-8.462 1.296z" fill="#EBEFF7"/><path d="M82.172 172.199s-2.717 1.729-9.017.865l.988 2.717s4.941.741 9.017-1.235l-.988-2.347zm5.311 10.87s-2.717 1.729-9.017.865l.988 2.717s4.941.741 9.017-1.235l-.988-2.347zm-1.9 11.578a43.77 43.77 0 01-.66 2.715c-2.664.363-4.852.035-4.852.035l-.988-2.717c2.896.397 5.034.246 6.5-.033z" fill="#4561D8"/><path d="M89.09 196.161a11.2 11.2 0 01-.8.349l-.095-2.473.894 2.124z" fill="#242528"/><path d="M81.56 205.542a26.47 26.47 0 01-1.675 2.538c-.353-.032-.555-.062-.555-.062l-.988-2.717c1.201.165 2.272.237 3.218.241z" fill="#4561D8"/><path d="M88.347 206.784c-3.255 1.577-7.06 1.423-8.462 1.297a26.787 26.787 0 001.675-2.538c4.019.027 5.799-1.105 5.799-1.105l.988 2.346zm-.059-10.273c-1.124.443-2.284.704-3.365.851.254-.917.473-1.826.66-2.715 1.723-.327 2.517-.832 2.517-.832l.094.222v.001l.094 2.473z" fill="#3C53A0"/><path d="M85.583 194.647c1.475-7.021 1.035-12.937 1.035-12.937l1.199 2.338.377 9.989-.094-.222s-.794.505-2.517.832zm3.382 19.795c-5.805 2.594-10.499 1.112-10.499 1.112l-.912-4.784a23.797 23.797 0 002.331-2.689c1.402.126 5.207.28 8.462-1.297l-.988-2.347s-1.78 1.133-5.799 1.105c1.527-2.622 2.605-5.437 3.363-8.18 1.081-.147 2.241-.408 3.365-.851l.677 17.931z" fill="#CCD2DB"/><path d="M93.906 210.983c-1.729 4.076-7.287 5.435-7.287 5.435s.578-9.644.694-18.535c.077-5.931-.052-11.528-.694-13.703-.611-2.068-2.026-5.225-3.545-8.345a252.083 252.083 0 00-5.225-10.059l.576-1.134 8.194 3.728s.295 2.038.694 4.816c.723 5.05 1.784 12.548 2.023 14.699.188 1.687 1.354 7.575 2.462 12.984a1543.106 1543.106 0 002.108 10.114z" fill="url(#paint52_linear_1360_199)"/><path d="M75.008 136.133c-4.447-7.535-11.123-4.023-12.352-2.1-6.546 10.252 6.423 23.344-.74 26.062 0 0 7.822 3.854 10.086-5.299 2.264-9.153 5.6-15.328 5.6-15.328l-2.594-3.335z" fill="#1C3391"/><path d="M86.124 150.584s1.976-2.964 1.482-8.399c-.494-5.435-4.076-6.67-5.805-5.064 0 0-4.694-4.57-10.005-.865-4.805 3.352-5.064 10.005-3.335 14.698 1.73 4.694 2.294 6.796 2.382 9.08l7.623-7.474 7.658-1.976z" fill="#192EAD"/><path d="M86.618 147.867l-.004.095c-.056 1.171-.703 12.788-4.69 13.492-1.288.227-2.181-.028-2.737-.319-.494-.259-.721-.546-.721-.546s-.215 1.449-.114 3.214c.052.913.189 1.912.484 2.838 0 0-4.2 3.458-9.758-1.359 0 0 2.347-5.435 3.211-12.475 0 0-2.1-.865-1.729-3.829.403-3.218 3.706-.865 3.335 1.853 0 0 4.823-2.041 7.234-7.648.373-.863.687-1.812.918-2.851 0 0 .248 3.212 4.571 7.535z" fill="url(#paint53_linear_1360_199)"/><path d="M86.618 147.867l-.004.095c-2.656-1.131-4.408-3.116-5.484-4.779.373-.863.687-1.812.918-2.851 0 0 .247 3.212 4.57 7.535zm-7.43 13.268c-.494-.259-.72-.546-.72-.546s-.216 1.449-.115 3.214c-3.103-3.171-3.345-7.537-3.345-7.537 1.384 2.407 2.944 3.935 4.18 4.869z" fill="#4864D8"/><path d="M79.825 216.912s-2.088.235-5.316-.027c-3.793-.309-9.164-1.303-14.57-4.172 0 0 2.334-6.173 4.295-11.756a184.109 184.109 0 001.775-5.265c.585-1.854.936-3.185.847-3.482-.045-.148-.247-.593-.566-1.261l-.062-.127c-2.42-5.041-10.872-21.604-10.118-22.574.387-.496 4.076-2.223 13.398-4.052 0 0 10.441 16.898 10.935 19.492.494 2.592-.618 33.224-.618 33.224z" fill="url(#paint54_linear_1360_199)"/><path d="M66.008 195.691c.585-1.854.936-3.185.847-3.482-.045-.148-.247-.593-.566-1.261l4.395 8.919-4.676-4.176z" fill="url(#paint55_linear_1360_199)"/><path d="M74.51 216.885c-3.794-.309-9.165-1.303-14.57-4.172 0 0 2.333-6.173 4.294-11.756.863 4.52 3.317 11.949 10.275 15.928z" fill="url(#paint56_linear_1360_199)"/><path d="M69.202 218.641c-1.235.618-2.17-1.36-2.568-3.213-.397-1.852-.397-2.469.468-2.098 0 0-.247-.865 0-2.347l-2.194-1.544-1.14-.803 3.704-3.335s.287.306.734.771c.282.292.626.645 1.004 1.022a56.37 56.37 0 001.597 1.543c1.261 1.163 2.1 4.941 2.347 6.546.248 1.606-2.716 2.841-3.952 3.458z" fill="url(#paint57_linear_1360_199)"/><path d="M62.279 181.971s-6.169 8.385-6.169 9.126c0 .741 13.093 13.957 13.093 13.957l-5.805 5.929s-16.335-18.658-16.057-19.886c1.482-6.546 8.893-21.862 8.893-21.862s5.544 5.587 6.045 12.736z" fill="url(#paint58_linear_1360_199)"/><path d="M87.312 197.883c.077-5.931-.052-11.528-.694-13.703-.611-2.068-2.026-5.225-3.545-8.345.676-3.661 1.512-6.264 1.512-6.264s1.133 1.343 2.727 3.614c.723 5.05 1.784 12.548 2.023 14.699.188 1.687 1.354 7.575 2.462 12.984a15.639 15.639 0 01-4.485-2.985z" fill="url(#paint59_linear_1360_199)"/><path d="M89.335 168.618l-3.017 1.509-1.429.714-1.482-6.176s-1.235-.741-2.1-3.706c0 0-.31.466-.663.493-.193.015-.398-.101-.572-.493-.494-1.112-.124-1.729.247-2.964.371-1.235.741-2.1 2.223-1.976 1.482.124 2.357-.721 2.94-.012 1.63 1.989 2.248 8.164 2.248 8.164l1.605 4.447z" fill="url(#paint60_linear_1360_199)"/><path d="M86.318 170.127l-1.429.714-1.482-6.176s-1.235-.741-2.1-3.706c0 0-.311.466-.663.493.052-.221.142-.511.293-.863l-.246-2.464c.038.14.655 2.388 1.851 3.823 1.235 1.482 1.606 1.853 2.1 2.841.354.707 1.215 3.699 1.676 5.338z" fill="#4864D8"/><path d="M82.542 167.876l8.029-1.606s4.694 21.368 5.311 23.962c.618 2.594-.123 9.017-1.976 9.634-1.853.618-4.941-2.594-5.435-4.817-.494-2.222-5.929-27.173-5.929-27.173z" fill="url(#paint61_linear_1360_199)"/><path d="M69.211 207.094l-4.302 2.345 3.298-3.367c.282.292.626.645 1.004 1.022z" fill="#4864D8"/><path d="M83.654 309.178c-.224.566-4.36.476-8.522.494-4.313.02-8.652.126-8.523-.494a7.31 7.31 0 01-.117-1.087c2.334.384 7.773.987 17.148.462.083.237.082.454.014.625z" fill="#7168EE"/><path d="M187.673 139.435h-.002v-.221l.002.221z" fill="url(#paint62_linear_1360_199)"/><path d="M274.076 179.822a4.013 4.013 0 01-3.995 4.038l-46.489.24v-48.838l46.234-.238a4.012 4.012 0 014.039 3.994l.012 2.422.199 38.382z" fill="url(#paint63_linear_1360_199)"/><path d="M197.489 139.635h-.002v-.22l.002.22z" fill="url(#paint64_linear_1360_199)"/><path d="M273.93 141.412c-.018.008-.034.018-.052.028-10.164 5.281-34.217 24.551-36.723 24.866-1.156.144-6.817-3.417-13.562-8.015v-23.029l46.234-.238a4.012 4.012 0 014.039 3.994l.064 2.394z" fill="url(#paint65_linear_1360_199)"/><path d="M273.269 136.929l-35.06 23.155a4.527 4.527 0 01-4.97.016l-7.218-4.696-1.38-.899-1.048-.681v-18.562l46.234-.238a4.02 4.02 0 013.442 1.905z" fill="url(#paint66_linear_1360_199)"/><path d="M197.489 139.435h-.002v-.221l.002.221z" fill="url(#paint67_linear_1360_199)"/><path d="M264.26 179.621a4.013 4.013 0 01-3.995 4.038l-46.489.24v-48.838l46.234-.238a4.012 4.012 0 014.039 3.994l.012 2.422.199 38.382z" fill="url(#paint68_linear_1360_199)"/><path d="M187.673 139.435h-.002v-.221l.002.221z" fill="url(#paint69_linear_1360_199)"/><path d="M264.114 141.212c-.018.008-.034.018-.052.028-10.164 5.281-34.217 24.551-36.723 24.866-1.156.144-6.817-3.417-13.562-8.015v-23.029l46.234-.238a4.012 4.012 0 014.039 3.994l.064 2.394z" fill="url(#paint70_linear_1360_199)"/><path d="M263.453 136.728l-35.06 23.155a4.548 4.548 0 01-1.701.679 4.516 4.516 0 01-2.436-.236 4.259 4.259 0 01-.833-.427l-7.218-4.696-1.38-.899-1.048-.681v-18.562l46.234-.238a4.02 4.02 0 013.442 1.905z" fill="url(#paint71_linear_1360_199)"/><path d="M278.677 139.691s.925-.149 2.434-.57" stroke="#18317F" stroke-width="1.603" stroke-miterlimit="10" stroke-linecap="round"/><path d="M286.613 137.12c9.677-4.363 24.012-15.557 17.706-42.702-9.215-39.664-8.013-71.715 15.425-84.536 17.453-9.547 37.017-2.654 45.87 1.489" stroke="#18317F" stroke-width="1.603" stroke-miterlimit="10" stroke-linecap="round" stroke-dasharray="4.88 5.86"/><path d="M368.24 12.672a39.708 39.708 0 012.184 1.217" stroke="#18317F" stroke-width="1.603" stroke-miterlimit="10" stroke-linecap="round"/><path d="M372.285 15.774l-5.867 7.248 28.646 10.699-12.942-28.646-6.04 7.766 7.593 9.318-11.39-6.385z" fill="url(#paint72_linear_1360_199)"/><path d="M63.285 28.581l8.806 3.068.37-30.577-22.573 21.876 9.352 3.054 6.198-10.299-2.153 12.878z" fill="url(#paint73_linear_1360_199)"/><path d="M213.974 147.962s33.514-4.678 21.835-27.702c-28.045-55.29-112.524 5.744-146.635-22.236C53.517 68.777 59.927 27.71 59.927 27.71" stroke="#18317F" stroke-width="1.603" stroke-miterlimit="10" stroke-linecap="round" stroke-dasharray="5.01 6.01"/><path d="M353.798 39.53c-3.526-7.265-15.425-2.404-8.213 7.212 7.211 9.615 14.824 6.41 8.213-7.212zm41.466 4.608c-5.975-.783-23.037 3.876-23.037 13.822 0 5.609 13.021 10.016 26.042 3.806s13.822-15.425-3.005-17.628zM99.39 293.538s.601 10.417 22.035 10.417 40.665-2.404 63.502 16.827c22.837 19.231 78.927 22.436 93.75 8.814 14.824-13.622-20.833-36.058-20.833-36.058H99.39z" fill="#EDEFF4"/></g><defs><linearGradient id="paint0_linear_1360_199" x1="396.243" y1="302.097" x2="401.525" y2="302.097" gradientUnits="userSpaceOnUse"><stop stop-color="#7168EE"/><stop offset="1" stop-color="#7168EE"/></linearGradient><linearGradient id="paint1_linear_1360_199" x1="425.681" y1="302.146" x2="431.087" y2="302.146" gradientUnits="userSpaceOnUse"><stop stop-color="#7168EE"/><stop offset="1" stop-color="#7168EE" stop-opacity=".992"/></linearGradient><linearGradient id="paint2_linear_1360_199" x1="414.029" y1="201.011" x2="414.029" y2="271.69" gradientUnits="userSpaceOnUse"><stop stop-color="#24247F"/><stop offset="1" stop-color="#2D2D96"/></linearGradient><linearGradient id="paint3_linear_1360_199" x1="462.282" y1="259.751" x2="352.633" y2="256.694" gradientUnits="userSpaceOnUse"><stop stop-color="#242463"/><stop offset="1" stop-color="#242463" stop-opacity="0"/></linearGradient><linearGradient id="paint4_linear_1360_199" x1="422.6" y1="267.459" x2="342.37" y2="236.513" gradientUnits="userSpaceOnUse"><stop stop-color="#242463"/><stop offset="1" stop-color="#242463" stop-opacity="0"/></linearGradient><linearGradient id="paint5_linear_1360_199" x1="415.521" y1="160.083" x2="415.875" y2="169.507" gradientUnits="userSpaceOnUse"><stop stop-color="#7168EE"/><stop offset="1" stop-color="#7168EE"/></linearGradient><linearGradient id="paint6_linear_1360_199" x1="410.612" y1="148.53" x2="404.549" y2="148.073" gradientUnits="userSpaceOnUse"><stop stop-color="#7168EE"/><stop offset="1" stop-color="#7168EE"/></linearGradient><linearGradient id="paint7_linear_1360_199" x1="419.896" y1="148.344" x2="423.612" y2="148.344" gradientUnits="userSpaceOnUse"><stop stop-color="#7168EE"/><stop offset="1" stop-color="#7168EE"/></linearGradient><linearGradient id="paint8_linear_1360_199" x1="424.106" y1="159.6" x2="411.628" y2="143.641" gradientUnits="userSpaceOnUse"><stop stop-color="#7168EE"/><stop offset="1" stop-color="#7168EE"/></linearGradient><linearGradient id="paint9_linear_1360_199" x1="399.994" y1="230.316" x2="407.253" y2="166.896" gradientUnits="userSpaceOnUse"><stop stop-color="#F4BA38"/><stop offset="1" stop-color="#FFD349"/></linearGradient><linearGradient id="paint10_linear_1360_199" x1="420.131" y1="222.064" x2="438.851" y2="142.216" gradientUnits="userSpaceOnUse"><stop stop-color="#F4BA38"/><stop offset="1" stop-color="#FFD349"/></linearGradient><linearGradient id="paint11_linear_1360_199" x1="393.65" y1="221.553" x2="424.214" y2="157.751" gradientUnits="userSpaceOnUse"><stop stop-color="#FF911E"/><stop offset="1" stop-color="#FE931E" stop-opacity="0"/></linearGradient><linearGradient id="paint12_linear_1360_199" x1="440.564" y1="218.69" x2="396.756" y2="138.083" gradientUnits="userSpaceOnUse"><stop stop-color="#FF911E"/><stop offset="1" stop-color="#FE931E" stop-opacity="0"/></linearGradient><linearGradient id="paint13_linear_1360_199" x1="393.21" y1="212.982" x2="407.217" y2="212.982" gradientUnits="userSpaceOnUse"><stop stop-color="#7168EE" stop-opacity=".275"/><stop offset="1" stop-color="#7168EE"/></linearGradient><linearGradient id="paint14_linear_1360_199" x1="430.003" y1="216.104" x2="439.051" y2="216.104" gradientUnits="userSpaceOnUse"><stop stop-color="#7168EE"/><stop offset="1" stop-color="#7168EE"/></linearGradient><linearGradient id="paint15_linear_1360_199" x1="314.621" y1="249.656" x2="312.856" y2="297.749" gradientUnits="userSpaceOnUse"><stop stop-color="#24247F"/><stop offset="1" stop-color="#2D2D96"/></linearGradient><linearGradient id="paint16_linear_1360_199" x1="330.733" y1="240.086" x2="352.924" y2="285.373" gradientUnits="userSpaceOnUse"><stop stop-color="#24247F"/><stop offset="1" stop-color="#2D2D96"/></linearGradient><linearGradient id="paint17_linear_1360_199" x1="314.516" y1="249.636" x2="314.516" y2="265.058" gradientUnits="userSpaceOnUse"><stop stop-color="#242463"/><stop offset="1" stop-color="#242463" stop-opacity="0"/></linearGradient><linearGradient id="paint18_linear_1360_199" x1="334.317" y1="244.016" x2="334.317" y2="264.505" gradientUnits="userSpaceOnUse"><stop stop-color="#242463"/><stop offset="1" stop-color="#242463" stop-opacity="0"/></linearGradient><linearGradient id="paint19_linear_1360_199" x1="293.026" y1="209.043" x2="305.713" y2="209.043" gradientUnits="userSpaceOnUse"><stop stop-color="#7168EE"/><stop offset="1" stop-color="#658BFD"/></linearGradient><linearGradient id="paint20_linear_1360_199" x1="317.181" y1="190.164" x2="297.75" y2="203.72" gradientUnits="userSpaceOnUse"><stop stop-color="#E1E1E1"/><stop offset="1" stop-color="#fff"/></linearGradient><linearGradient id="paint21_linear_1360_199" x1="337.185" y1="204.587" x2="314.233" y2="163.273" gradientUnits="userSpaceOnUse"><stop stop-color="#F4BA38"/><stop offset="1" stop-color="#FFD349"/></linearGradient><linearGradient id="paint22_linear_1360_199" x1="336.53" y1="207.726" x2="335.765" y2="171.387" gradientUnits="userSpaceOnUse"><stop stop-color="#FF911E"/><stop offset="1" stop-color="#FE931E" stop-opacity="0"/></linearGradient><linearGradient id="paint23_linear_1360_199" x1="327.618" y1="222.813" x2="326.47" y2="159.306" gradientUnits="userSpaceOnUse"><stop stop-color="#E1E1E1"/><stop offset="1" stop-color="#fff"/></linearGradient><linearGradient id="paint24_linear_1360_199" x1="319.369" y1="153.992" x2="334.959" y2="153.992" gradientUnits="userSpaceOnUse"><stop stop-color="#7168EE"/><stop offset="1" stop-color="#7168EE"/></linearGradient><linearGradient id="paint25_linear_1360_199" x1="370.468" y1="200.884" x2="311.303" y2="243.218" gradientUnits="userSpaceOnUse"><stop stop-color="#DFE1E5"/><stop offset="1" stop-color="#F3F3F3"/></linearGradient><linearGradient id="paint26_linear_1360_199" x1="333.152" y1="155.667" x2="334.172" y2="234.215" gradientUnits="userSpaceOnUse"><stop stop-color="#B9BEC6"/><stop offset="1" stop-color="#B9BEC6" stop-opacity="0"/></linearGradient><linearGradient id="paint27_linear_1360_199" x1="413.728" y1="257.442" x2="364.764" y2="224.288" gradientUnits="userSpaceOnUse"><stop stop-color="#B9BEC6"/><stop offset="1" stop-color="#B9BEC6" stop-opacity="0"/></linearGradient><linearGradient id="paint28_linear_1360_199" x1="339.738" y1="177.221" x2="324.947" y2="229.246" gradientUnits="userSpaceOnUse"><stop stop-color="#DFE1E5"/><stop offset="1" stop-color="#F3F3F3"/></linearGradient><linearGradient id="paint29_linear_1360_199" x1="295.115" y1="213.584" x2="300.064" y2="213.584" gradientUnits="userSpaceOnUse"><stop stop-color="#7168EE"/><stop offset="1" stop-color="#7168EE"/></linearGradient><linearGradient id="paint30_linear_1360_199" x1="321.353" y1="220.797" x2="333.766" y2="220.797" gradientUnits="userSpaceOnUse"><stop stop-color="#7168EE"/><stop offset="1" stop-color="#7168EE"/></linearGradient><linearGradient id="paint31_linear_1360_199" x1="354.767" y1="194.978" x2="334.51" y2="192.584" gradientUnits="userSpaceOnUse"><stop stop-color="#E1E1E1"/><stop offset="1" stop-color="#fff"/></linearGradient><linearGradient id="paint32_linear_1360_199" x1="371.169" y1="202.762" x2="315.696" y2="186.312" gradientUnits="userSpaceOnUse"><stop stop-color="#BCCACE"/><stop offset="1" stop-color="#BCCACE" stop-opacity="0"/></linearGradient><linearGradient id="paint33_linear_1360_199" x1="199.755" y1="276.877" x2="199.454" y2="236.915" gradientUnits="userSpaceOnUse"><stop stop-color="#7168EE"/><stop offset="1" stop-color="#658BFD"/></linearGradient><linearGradient id="paint34_linear_1360_199" x1="212.869" y1="265.537" x2="219.328" y2="208.695" gradientUnits="userSpaceOnUse"><stop stop-color="#7168EE"/><stop offset="1" stop-color="#658BFD"/></linearGradient><linearGradient id="paint35_linear_1360_199" x1="220.063" y1="298.67" x2="224.872" y2="259.002" gradientUnits="userSpaceOnUse"><stop stop-color="#7168EE"/><stop offset="1" stop-color="#658BFD"/></linearGradient><linearGradient id="paint36_linear_1360_199" x1="227.279" y1="299.544" x2="232.088" y2="259.877" gradientUnits="userSpaceOnUse"><stop stop-color="#7168EE"/><stop offset="1" stop-color="#658BFD"/></linearGradient><linearGradient id="paint37_linear_1360_199" x1="248.504" y1="302.117" x2="253.313" y2="262.45" gradientUnits="userSpaceOnUse"><stop stop-color="#7168EE"/><stop offset="1" stop-color="#658BFD"/></linearGradient><linearGradient id="paint38_linear_1360_199" x1="192.746" y1="295.359" x2="197.554" y2="255.691" gradientUnits="userSpaceOnUse"><stop stop-color="#7168EE"/><stop offset="1" stop-color="#658BFD"/></linearGradient><linearGradient id="paint39_linear_1360_199" x1="157.563" y1="276.877" x2="157.863" y2="236.915" gradientUnits="userSpaceOnUse"><stop stop-color="#7168EE"/><stop offset="1" stop-color="#658BFD"/></linearGradient><linearGradient id="paint40_linear_1360_199" x1="144.449" y1="265.537" x2="137.989" y2="208.695" gradientUnits="userSpaceOnUse"><stop stop-color="#7168EE"/><stop offset="1" stop-color="#658BFD"/></linearGradient><linearGradient id="paint41_linear_1360_199" x1="115.677" y1="271.422" x2="109.893" y2="220.527" gradientUnits="userSpaceOnUse"><stop stop-color="#7168EE"/><stop offset="1" stop-color="#658BFD"/></linearGradient><linearGradient id="paint42_linear_1360_199" x1="231.201" y1="123.665" x2="105.399" y2="123.665" gradientUnits="userSpaceOnUse"><stop stop-color="#F4BA38"/><stop offset="1" stop-color="#FFD349"/></linearGradient><linearGradient id="paint43_linear_1360_199" x1="137.254" y1="298.67" x2="132.445" y2="259.002" gradientUnits="userSpaceOnUse"><stop stop-color="#7168EE"/><stop offset="1" stop-color="#658BFD"/></linearGradient><linearGradient id="paint44_linear_1360_199" x1="130.038" y1="299.544" x2="125.23" y2="259.877" gradientUnits="userSpaceOnUse"><stop stop-color="#7168EE"/><stop offset="1" stop-color="#658BFD"/></linearGradient><linearGradient id="paint45_linear_1360_199" x1="108.813" y1="302.117" x2="104.005" y2="262.45" gradientUnits="userSpaceOnUse"><stop stop-color="#7168EE"/><stop offset="1" stop-color="#658BFD"/></linearGradient><linearGradient id="paint46_linear_1360_199" x1="164.572" y1="295.359" x2="159.763" y2="255.691" gradientUnits="userSpaceOnUse"><stop stop-color="#7168EE"/><stop offset="1" stop-color="#658BFD"/></linearGradient><linearGradient id="paint47_linear_1360_199" x1="289.752" y1="136.025" x2="139.541" y2="113.192" gradientUnits="userSpaceOnUse"><stop stop-color="#FF911E"/><stop offset="1" stop-color="#FE931E" stop-opacity="0"/></linearGradient><linearGradient id="paint48_linear_1360_199" x1="86.006" y1="300.988" x2="85.821" y2="308.214" gradientUnits="userSpaceOnUse"><stop stop-color="#7168EE"/><stop offset="1" stop-color="#658BFD"/></linearGradient><linearGradient id="paint49_linear_1360_199" x1="70.33" y1="300.587" x2="70.145" y2="307.812" gradientUnits="userSpaceOnUse"><stop stop-color="#7168EE"/><stop offset="1" stop-color="#7168EE"/></linearGradient><linearGradient id="paint50_linear_1360_199" x1="73.657" y1="214.589" x2="72.165" y2="298.665" gradientUnits="userSpaceOnUse"><stop stop-color="#24247F"/><stop offset="1" stop-color="#2D2D96"/></linearGradient><linearGradient id="paint51_linear_1360_199" x1="60.244" y1="214.84" x2="80.748" y2="316.369" gradientUnits="userSpaceOnUse"><stop stop-color="#242463"/><stop offset="1" stop-color="#242463" stop-opacity="0"/></linearGradient><linearGradient id="paint52_linear_1360_199" x1="90.189" y1="215" x2="81.665" y2="162.377" gradientUnits="userSpaceOnUse"><stop stop-color="#FFA322"/><stop offset="1" stop-color="#FCEA34"/></linearGradient><linearGradient id="paint53_linear_1360_199" x1="68.693" y1="169.802" x2="81.044" y2="147.322" gradientUnits="userSpaceOnUse"><stop stop-color="#7168EE"/><stop offset="1" stop-color="#7168EE"/></linearGradient><linearGradient id="paint54_linear_1360_199" x1="72.987" y1="223.34" x2="67.306" y2="172.204" gradientUnits="userSpaceOnUse"><stop stop-color="#F4BA38"/><stop offset="1" stop-color="#FFD349"/></linearGradient><linearGradient id="paint55_linear_1360_199" x1="61.996" y1="188.094" x2="77.312" y2="207.362" gradientUnits="userSpaceOnUse"><stop stop-color="#FF911E"/><stop offset="1" stop-color="#FE931E" stop-opacity="0"/></linearGradient><linearGradient id="paint56_linear_1360_199" x1="69.981" y1="208.364" x2="57.27" y2="219.958" gradientUnits="userSpaceOnUse"><stop stop-color="#FF911E"/><stop offset="1" stop-color="#FE931E" stop-opacity="0"/></linearGradient><linearGradient id="paint57_linear_1360_199" x1="66.386" y1="205.646" x2="70.16" y2="215.764" gradientUnits="userSpaceOnUse"><stop stop-color="#7168EE"/><stop offset="1" stop-color="#658BFD"/></linearGradient><linearGradient id="paint58_linear_1360_199" x1="62.612" y1="172.231" x2="57.177" y2="204.592" gradientUnits="userSpaceOnUse"><stop stop-color="#F4BA38"/><stop offset="1" stop-color="#FFD349"/></linearGradient><linearGradient id="paint59_linear_1360_199" x1="88.945" y1="205.055" x2="83.115" y2="140.543" gradientUnits="userSpaceOnUse"><stop stop-color="#FF911E"/><stop offset="1" stop-color="#FE931E" stop-opacity="0"/></linearGradient><linearGradient id="paint60_linear_1360_199" x1="82.048" y1="163.941" x2="90.354" y2="160.704" gradientUnits="userSpaceOnUse"><stop stop-color="#7168EE"/><stop offset="1" stop-color="#7168EE"/></linearGradient><linearGradient id="paint61_linear_1360_199" x1="92.096" y1="206.206" x2="88.391" y2="171.006" gradientUnits="userSpaceOnUse"><stop stop-color="#F4BA38"/><stop offset="1" stop-color="#FFD349"/></linearGradient><linearGradient id="paint62_linear_1360_199" x1="187.635" y1="139.246" x2="187.833" y2="139.673" gradientUnits="userSpaceOnUse"><stop stop-color="#F9A82C"/><stop offset=".996" stop-color="#FAA72C" stop-opacity="0"/></linearGradient><linearGradient id="paint63_linear_1360_199" x1="273.647" y1="140.832" x2="227.504" y2="173.848" gradientUnits="userSpaceOnUse"><stop stop-color="#546AEA"/><stop offset="1" stop-color="#658BFD"/></linearGradient><linearGradient id="paint64_linear_1360_199" x1="197.451" y1="139.446" x2="197.649" y2="139.874" gradientUnits="userSpaceOnUse"><stop stop-color="#F9A82C"/><stop offset=".996" stop-color="#FAA72C" stop-opacity="0"/></linearGradient><linearGradient id="paint65_linear_1360_199" x1="240.274" y1="129.968" x2="273.756" y2="202.247" gradientUnits="userSpaceOnUse"><stop stop-color="#4864D8"/><stop offset=".996" stop-color="#4864D8" stop-opacity="0"/></linearGradient><linearGradient id="paint66_linear_1360_199" x1="252.354" y1="122.298" x2="239.483" y2="167.566" gradientUnits="userSpaceOnUse"><stop stop-color="#546AEA"/><stop offset="1" stop-color="#658BFD"/></linearGradient><linearGradient id="paint67_linear_1360_199" x1="197.451" y1="139.246" x2="197.649" y2="139.673" gradientUnits="userSpaceOnUse"><stop stop-color="#F9A82C"/><stop offset=".996" stop-color="#FAA72C" stop-opacity="0"/></linearGradient><linearGradient id="paint68_linear_1360_199" x1="263.832" y1="140.631" x2="217.688" y2="173.648" gradientUnits="userSpaceOnUse"><stop stop-color="#FCEA45"/><stop offset="1" stop-color="#F9C53F"/></linearGradient><linearGradient id="paint69_linear_1360_199" x1="187.635" y1="139.246" x2="187.833" y2="139.673" gradientUnits="userSpaceOnUse"><stop stop-color="#F9A82C"/><stop offset=".996" stop-color="#FAA72C" stop-opacity="0"/></linearGradient><linearGradient id="paint70_linear_1360_199" x1="230.458" y1="129.768" x2="263.94" y2="202.047" gradientUnits="userSpaceOnUse"><stop stop-color="#F9A82C"/><stop offset=".996" stop-color="#FAA72C" stop-opacity="0"/></linearGradient><linearGradient id="paint71_linear_1360_199" x1="242.538" y1="122.098" x2="229.668" y2="167.366" gradientUnits="userSpaceOnUse"><stop stop-color="#FCEA45"/><stop offset="1" stop-color="#F9C53F"/></linearGradient><linearGradient id="paint72_linear_1360_199" x1="366.418" y1="19.398" x2="395.064" y2="19.398" gradientUnits="userSpaceOnUse"><stop stop-color="#546AEA"/><stop offset="1" stop-color="#658BFD"/></linearGradient><linearGradient id="paint73_linear_1360_199" x1="68.681" y1="32.876" x2="58.984" y2="5.92" gradientUnits="userSpaceOnUse"><stop stop-color="#546AEA"/><stop offset="1" stop-color="#658BFD"/></linearGradient><clipPath id="clip0_1360_199"><path fill="#fff" d="M0 0h500v339H0z"/></clipPath></defs></svg>