<svg width="500" height="371" fill="none" xmlns="http://www.w3.org/2000/svg"><g opacity=".5" fill="#FFD86C"><path opacity=".5" d="M448.71 360.261c10.676 9.042-408.097 9.042-397.418-.001-10.678-9.04 408.095-9.04 397.418.001z"/><g opacity=".3"><path opacity=".8" d="M432.761 178.557c-4.077 238.095-361.41 238.057-365.453-.007 4.077-238.087 361.411-238.05 365.453.007z"/><path opacity=".6" d="M214.124 253.269C211.735 392.771 2.368 392.749 0 253.264c2.389-139.498 211.755-139.476 214.124.005zm71.752 0c2.389 139.502 211.756 139.48 214.124-.005-2.389-139.498-211.756-139.476-214.124.005z"/><path opacity=".5" d="M353.296 145.214c1.637 95.578 145.082 95.563 146.704-.003-1.636-95.575-145.081-95.56-146.704.003zm-206.592 0C145.067 240.792 1.622 240.777 0 145.211c1.636-95.575 145.081-95.56 146.704.003z"/></g></g><g opacity=".8"><g opacity=".8"><path d="M400.527 306.92c2.159-14.889 13.919-25.798 28.143-29.6 26.593-7.694 29.075-27.378 32.621-17.536 3.546 9.841-3.9 20.471 2.482 28.162 6.383 7.691 1.307 22.103-8.921 25.266-10.227 3.164-46.844 27.235-46.844 46.483h-27.562c-1.41 0-1.412-10.526-1.354-11.313.551-16.734 17.481-26.031 21.435-41.462z" fill="#7168EE"/><path d="M420.441 319.411c-.578-9.472 3.846-18.963 10.969-25.181 4.062-3.562 8.591-6.156 12.528-9.614 3.094-2.543 6.582-4.987 8.338-8.701-1.415 4.577-5.517 7.589-8.836 10.779-11.513 8.712-21.999 17.092-22.999 32.717z" fill="#fff" opacity=".8"/></g><path d="M498.393 324.141c-3.825 11.886-14.246 18.5-26.11 21.105-33.738 7.406-49.533 12.082-54.779 13.756-2.446 1.357-28.555.446-31.74.693 9.139-21.132 7.86-57.551 54.369-54.433 31.201 5.842 43.021-16.848 50.587-23.314 1.602-1.37 7.703-7.181 8.657-2.551-3.191 14.931 3.348 29.841-.984 44.744z" fill="#7168EE"/><path d="M486.821 305.479c-6.027 22.704-34.102 23.114-53.286 24.88-11.776 1.393-23.889 8.401-26.85 20.576 1.55-12.867 14.082-21.051 26.109-22.775 19.022-2.465 45.796-1.32 54.027-22.681z" fill="#7168EE"/><path opacity=".8" d="M486.821 305.479c-6.027 22.704-34.102 23.114-53.286 24.88-11.776 1.393-23.889 8.401-26.85 20.576 1.55-12.867 14.082-21.051 26.109-22.775 19.022-2.465 45.796-1.32 54.027-22.681z" fill="#fff"/><g opacity=".8"><path d="M99.473 306.92c-2.16-14.889-13.92-25.798-28.143-29.6-26.593-7.694-29.075-27.378-32.621-17.536-3.547 9.842 3.9 20.471-2.482 28.162-6.383 7.691-1.307 22.103 8.92 25.266 10.227 3.164 46.844 27.235 46.844 46.483h27.563c1.41 0 1.411-10.526 1.354-11.313-.551-16.734-17.481-26.031-21.435-41.462z" fill="#7168EE"/><path d="M79.558 319.411c.578-9.472-3.845-18.963-10.969-25.181-4.062-3.562-8.59-6.156-12.527-9.614-3.095-2.543-6.583-4.987-8.339-8.701 1.416 4.577 5.517 7.589 8.837 10.779 11.512 8.712 21.998 17.092 22.998 32.717z" fill="#fff" opacity=".8"/></g><path d="M1.607 324.141c3.826 11.886 14.246 18.5 26.11 21.105 33.738 7.406 49.533 12.082 54.78 13.756 2.445 1.357 28.554.446 31.739.693-9.139-21.132-7.859-57.551-54.369-54.433-31.201 5.842-43.02-16.848-50.587-23.314-1.602-1.37-7.703-7.181-8.657-2.551 3.19 14.931-3.348 29.841.984 44.744z" fill="#7168EE"/><path d="M13.179 305.479c6.027 22.704 34.101 23.114 53.286 24.88 11.775 1.393 23.888 8.401 26.85 20.576-1.55-12.867-14.082-21.051-26.11-22.775-19.021-2.465-45.795-1.32-54.026-22.681z" fill="#7168EE"/><path opacity=".8" d="M13.179 305.479c6.027 22.704 34.101 23.114 53.286 24.88 11.775 1.393 23.888 8.401 26.85 20.576-1.55-12.867-14.082-21.051-26.11-22.775-19.021-2.465-45.795-1.32-54.026-22.681z" fill="#fff"/></g><g opacity=".8"><g opacity=".5"><path d="M63.582 229.819c-1.995-.585.258-2.277 1.056-3.413 8.389-9.885 19.72-22.764 28.89-33.369-3.338 3.364-7.02 7.094-10.536 10.655-24.17 24.484-24.388 24.485-25.032 24.489-1.06-.072-.938-1.218-.313-1.772 10.57-12.435 25.144-28.349 36.284-41.177-9.79 9.862-23.303 23.749-32.598 33.047-9.505 9.052-8.364 9.03-10.149 8.516-.631-.626-.174-1.17 1.75-3.462 10.601-12.346 25.781-28.803 37.246-41.787-9.331 9.175-45.653 46.602-42.823 42.483a.817.817 0 01-.578-.233c-.626-.621-.242-1.074 1.889-3.586 10.415-12.041 24.9-27.769 36.22-40.468a6411.12 6411.12 0 00-11.739 11.887c-27.432 27.827-28.988 29.156-29.768 29.161-1.606-.57-.978-1.067 1.356-3.876 10.643-12.287 25.48-28.416 37.008-41.352a6757.557 6757.557 0 00-17.927 18.014c-23.566 23.738-23.64 23.739-24.217 23.741-.21.017-.421-.084-.572-.233-.831-1.545 1.711-3.076 2.846-4.861 8.696-10.185 20.218-22.869 30.184-33.987-7.896 7.67-30.962 32.147-35.517 34.839a.862.862 0 01-.588-.239c-.756-1.254.868-1.99 1.64-3.218 10.698-12.301 26-28.985 37.359-41.824a4347.637 4347.637 0 00-14.797 15.007c-24.421 24.844-25.726 25.95-26.483 25.955-1.586-.536-.953-1.102 1.195-3.707 9.65-11.263 23-25.896 33.538-37.82a7909.892 7909.892 0 00-13.311 13.379c-23.474 23.63-23.563 23.63-24.143 23.632-1.322-.399-1.065-.919.473-2.669 9.993-11.548 23.686-26.78 33.92-38.639-5.042 4.791-36.01 36.787-34.862 34.613a.808.808 0 01-.57-.232c-.773-1.214.952-2.096 1.719-3.369 7.29-8.792 16.936-19.942 25.111-29.541a4457.883 4457.883 0 00-8.072 8.203c-18.844 18.682-17.416 18.646-19.405 18.134-.987-1.345 3.028-4.66 4.482-6.952 4.436-5.495 10.967-13.426 15.946-19.527-25.633 26.815-22.377 20.534-9.5 2.198-2.478 2.492-2.536 2.492-2.875 2.494-.77.026-1.105-1.057-.434-1.455.382-.335 2.478-2.45 4.021-4.007 3.714-3.747 3.714-3.747 4.102-3.749 2.089.638-.585 2.853-1.336 4.405-2.353 3.513-5.924 8.71-8.534 12.578 3.701-3.477 24.576-25.38 23.35-23.105 1.354.399 1.01.967-.462 2.828-5.969 7.56-14.006 17.19-20.546 25.256 3.076-3.102 6.658-6.749 10.049-10.2 18.969-19.309 19.162-19.31 19.8-19.315 1.027.064.957 1.18.34 1.721-7.652 9.27-17.72 20.798-26.115 30.716 57.516-58.995 27.12-22.006 3.357 3.975 2.94-2.952 6.051-6.084 9.048-9.101 25.439-25.608 25.579-25.608 26.168-25.611 1.58.55.926 1.113-1.249 3.761-9.868 11.527-23.62 26.593-34.348 38.741 4.416-4.449 9.59-9.713 14.485-14.692 24.37-24.791 25.671-25.896 26.426-25.9 1.63.617 1.055.982-1.617 4.25-10.333 12.027-24.587 27.578-35.992 40.373 6.276-6.08 44.52-45.445 41.74-41.539a.812.812 0 01.574.232c.736 1.1-.611 1.661-1.237 2.645-11.404 12.94-26.581 29.535-38.454 43.01 3.729-3.741 8.005-8.048 12.227-12.301 30.844-30.556 29.412-30.524 31.446-30.007.628.623.23 1.091-1.98 3.691-10.804 12.482-25.95 28.942-37.621 42.044 5.329-5.344 11.734-11.841 17.482-17.671 24.282-24.632 24.458-24.633 25.11-24.637a.847.847 0 01.579.235c.635.63.184 1.162-1.982 3.72-10.22 11.843-24.226 27.055-35.489 39.67 3.473-3.5 7.26-7.331 10.887-10.999 26.91-27.222 28.314-28.434 29.035-28.438 1.624.56.921 1.183-1.379 4.013-10.479 12.273-25.223 28.264-36.64 41.14 10.029-9.902 43.33-44.609 41.367-41.112a.836.836 0 01.587.236c.614.608.322 1.038-2.254 4.13-9.007 10.645-20.88 23.787-31.122 35.375 11.78-11.703 35.186-36.121 34.209-33.846 1.106.136.952 1.158.219 1.878-8.67 10.391-19.91 23.036-29.49 34.147 2.11-2.134 4.306-4.36 6.431-6.513 22.995-23.489 25.196-25.485 23.965-21.336-7.592 9.376-17.734 21.106-26.046 31.072 4.542-4.378 28.11-28.869 26.443-26.213a.805.805 0 01.571.232c.731 1.076-.624 1.765-1.219 2.817-4.96 6.357-11.417 14.306-17.069 21.355 15.689-15.855 17.107-17.528 16.658-14.223-1.413 1.005-9.459 9.245-15.82 15.63-9.37 9.456-9.36 9.452-9.813 9.455-1.237-.374-1.084-.824.284-2.513 5.315-6.75 12.369-15.419 18.172-22.686-1.425 1.442-2.921 2.959-4.406 4.463-21.632 21.921-21.87 21.922-22.508 21.926a.841.841 0 01-.582-.236c-.623-.619-.623-.619 5.636-8.116 5.669-6.79 13.956-16.564 20.217-24.007-4.113 4.127-8.97 9.05-13.344 13.484-18.93 19.187-19.037 19.187-19.63 19.191l-.004-.001zm29.843-16.691zm-66.94-35.857zm240.294-86.912c-1.463-.43.189-1.671.776-2.505 6.155-7.254 14.471-16.705 21.199-24.486a4242.424 4242.424 0 00-7.731 7.819c-17.737 17.966-17.897 17.967-18.369 17.97-.777-.053-.689-.894-.23-1.3 7.756-9.126 18.451-20.803 26.625-30.216-7.993 7.674-24.031 25.328-30.938 30.674-1.171-.39-.676-.864.854-2.716 7.779-9.06 18.918-21.136 27.332-30.664-6.848 6.733-33.501 34.198-31.424 31.175a.602.602 0 01-.424-.171c-.781-1.205 3.759-4.963 5.423-7.25 6.312-7.103 15.748-17.483 22.541-25.077-51.24 52.581-29.263 26.089-2.306-3.068a5014.935 5014.935 0 00-13.155 13.219c-17.293 17.42-17.348 17.42-17.771 17.421a.552.552 0 01-.419-.17c-.571-1.208 1.229-2.21 2.088-3.568 6.381-7.474 14.836-16.781 22.149-24.94-5.797 5.63-22.719 23.593-26.066 25.565-1.481-.449.172-1.7.776-2.537 7.85-9.027 19.079-21.27 27.414-30.69-44.435 45.888-35.991 33.726-4.804-.416-46.334 47.191-26.172 23.658-2.246-3.153-3.701 3.517-26.425 26.995-25.582 25.4a.587.587 0 01-.418-.171c-.567-.89.698-1.538 1.261-2.472 5.349-6.451 12.427-14.634 18.427-21.677-28.202 29.341-24.016 22.297-5.173-.104-18.759 19.646-16.397 15.012-6.97 1.613-1.819 1.828-1.862 1.828-2.11 1.83-.566.019-.811-.775-.319-1.068.595-.414 5.942-6.255 5.961-5.691 2.498-.081-6.563 10.754-7.242 12.462 2.716-2.552 18.034-18.624 17.134-16.955.993.293.741.71-.339 2.075-4.379 5.548-10.278 12.614-15.076 18.533 2.257-2.276 4.885-4.952 7.374-7.484 13.919-14.17 14.061-14.17 14.53-14.173.752.045.702.865.248 1.262-5.614 6.803-13.002 15.262-19.163 22.54 41.975-43.078 19.904-16.117 2.464 2.917 47.626-48.566 20.058-16.495-.28 5.716 3.241-3.265 7.037-7.128 10.629-10.781 17.882-18.192 18.838-19.003 19.392-19.006a.623.623 0 01.431.174c.456.452.237.75-1.617 2.945-7.583 8.825-18.043 20.237-26.412 29.625 5.825-5.164 31.439-33.143 31.049-30.312.63 1.164-2.437 3.3-3.581 4.974-7.451 8.348-17.83 19.793-25.542 28.53 52.682-53.762 30.678-27.562 2.988 2.514 3.911-3.922 8.61-8.69 12.828-12.968 17.819-18.075 17.947-18.076 18.426-18.078a.62.62 0 01.425.172c.732 1.312-3.921 5.156-5.679 7.568-6.102 6.873-15.132 16.812-21.817 24.272 50.942-52.198 26.316-22.82 1.397 4.195 39.268-40.732 40.743-39.072 6.294-1.007 39.633-40.77 26.971-24.64 3.623 1.6 37.208-38.298 20.929-18.164 3.192 2.364 3.342-3.217 20.619-21.182 19.407-19.235 1.945.485-2.181 3.952-3.063 5.518-2.762 3.471-6.744 8.412-9.941 12.391 11.902-11.656 10.836-11.63 12.222-11.257.649 1.11-7.303 7.39-11.607 12.29-6.872 6.935-6.872 6.935-7.199 6.937a.588.588 0 01-.417-.17c-.384-.381-.23-.578.623-1.674 3.9-4.954 9.076-11.315 13.335-16.647-11.851 11.882-19.659 20.158-19.749 19.363a.613.613 0 01-.428-.172c-.457-.454-.457-.454 4.135-5.956 4.161-4.982 10.242-12.154 14.836-17.616a2868.75 2868.75 0 00-9.792 9.894c-13.89 14.08-13.969 14.08-14.404 14.082l-.005.002zm9.769-30.025zM227.426 34.02zm208.306 181.138c-.973-.286.125-1.11.515-1.665 4.091-4.821 9.618-11.102 14.09-16.274-31.701 32.428-13.406 11.197.197-3.807-5.311 5.101-15.973 16.831-20.561 20.388-.781-.257-.452-.574.565-1.806 5.171-6.021 12.575-14.047 18.166-20.38-31.219 32.05-24.124 22.542-2.581-.879-33.76 34.668-19.416 17.269-1.532-2.039-2.677 2.674-5.871 5.892-8.744 8.786-11.493 11.577-11.529 11.577-11.811 11.578-.627-.103-.421-.648.019-1.148 4.604-5.595 10.509-11.954 15.811-17.912-3.851 3.741-15.1 15.679-17.322 16.992-.988-.295.111-1.13.513-1.686 5.217-5.999 12.681-14.137 18.221-20.398-29.297 30.287-23.81 22.259-3.194-.276-30.63 31.208-17.382 15.692-1.493-2.096-2.459 2.338-17.562 17.942-17.002 16.881-.99-.297.166-1.166.56-1.756 3.555-4.288 8.26-9.726 12.248-14.407-18.63 19.409-15.909 14.728-3.438-.07-12.422 13.028-10.875 9.923-4.633 1.073-1.461 1.337-1.05 1.343-1.68 1.103-.364-.78 1.166-1.414 2.027-2.551 1.811-1.827 1.811-1.827 2-1.828 1.52.278-4.275 6.942-4.813 8.282 19.191-19.856 11.322-9.734 1.143 2.428 23.195-23.987 15.365-13.796 1.986 1.426 27.728-28.471 13.232-10.694 1.638 1.938 31.334-31.97 13.354-10.953-.187 3.8 32.304-33.325 20.428-18.41 1.611 1.965 3.061-2.965 21.713-22.164 20.357-20.259.891.232.041.961-.324 1.404-5.561 6.311-12.964 14.405-18.754 20.977 34.752-35.483 20.356-18.255 1.986 1.671 30.567-31.498 24.426-22.854 2.78.642 33.564-34.413 17.478-15.121.928 2.788 25.976-26.971 26.964-25.816 4.184-.669 26.112-26.888 17.873-16.285 2.407 1.063 24.524-25.264 13.899-12.028 2.122 1.571 2.217-2.136 13.709-14.079 12.896-12.784 1.836.13-7.683 10.183-8.64 11.903 7.911-7.748 7.202-7.73 8.123-7.482.233.974-4.726 4.758-7.714 8.168-4.568 4.609-4.568 4.61-4.785 4.61-1.876-.037 8.138-10.663 9-12.289-23.637 24.31-10.808 8.611-.801-2.912a1963.177 1963.177 0 00-6.509 6.577c-9.232 9.357-9.284 9.357-9.573 9.359h-.002zm43.362-5.244zm-32.648-17.488z" fill="#DDA528" opacity=".8"/></g><path opacity=".5" d="M13.125 152.423c27.965-16.337 57.486-30.123 87.986-41.025-27.955 16.357-57.495 30.102-87.986 41.025zM160.85 70.848a786.628 786.628 0 0187.985-41.025 786.657 786.657 0 01-87.985 41.025zm266.162 157.959a474.027 474.027 0 0157.114-26.631 474.251 474.251 0 01-57.114 26.631z" fill="#DDA528"/></g><path d="M369.045 230.115v107.97L273.394 284.1l95.651-53.985z" fill="url(#paint0_linear_1362_1403)"/><path d="M226.675 284.1l-95.651 53.985v-107.97l95.651 53.985z" fill="url(#paint1_linear_1362_1403)"/><path d="M226.675 284.1l.026.015c-2.192 1.24-90.683 51.181-95.677 54.002v-.032l95.651-53.985z" fill="url(#paint2_linear_1362_1403)"/><path d="M369.045 338.085v.032c-5.401-3.051-93.101-52.545-95.678-54.002l.026-.015 95.652 53.985z" fill="url(#paint3_linear_1362_1403)"/><g opacity=".2"><path d="M369.045 230.115v9.668l-86.018 49.754-9.633-5.437 95.651-53.985z" fill="url(#paint4_linear_1362_1403)"/><path d="M226.675 284.1l-9.633 5.437-86.018-49.754v-9.668l95.651 53.985z" fill="url(#paint5_linear_1362_1403)"/></g><path d="M369.045 193.661v36.454c-8.716 4.874-84.876 47.935-95.652 53.985-.019.08-16.129-9.106-16.152-9.087-9.388-6.382-22.47 5.264-30.537 9.101-11.096-6.248-86.488-48.82-95.679-53.999v-36.454c11.33-6.422 103.323-58.294 111.803-63.104a14.694 14.694 0 0114.413 0c8.109 4.61 100.98 56.975 111.804 63.104z" fill="url(#paint6_linear_1362_1403)"/><path d="M369.045 338.116c.474 6.75-.32 13.955-8.74 14.338H139.763c-8.32-.363-9.266-7.544-8.739-14.338 5.401-3.05 93.101-52.544 95.677-54.002 24.843-14.508 21.866-14.468 46.666 0 2.193 1.241 90.684 51.182 95.678 54.002z" fill="url(#paint7_linear_1362_1403)"/><path opacity=".3" d="M226.675 284.1l.026.015c-.01.013-9.615 5.424-9.633 5.437l-.026-.014 9.633-5.438z" fill="url(#paint8_linear_1362_1403)"/><path opacity=".3" d="M283.027 289.538l-.026.014c-.027-.017-9.611-5.418-9.634-5.437l.026-.015 9.634 5.438z" fill="url(#paint9_linear_1362_1403)"/><path d="M353.332 204.089v34.894c-26.183 14.768-53.832 30.391-79.968 45.131-26.071-14.731-20.638-14.685-46.66.001-26.121-14.733-53.806-30.372-79.967-45.132v-34.894c0-3.191 2.607-5.776 5.826-5.776h194.943c3.219 0 5.826 2.585 5.826 5.776z" fill="#FFE7BD"/><path d="M226.675 215.154h-66.946v6.412h66.946v-6.412zm113.965 14.961H159.428v3.206H340.64v-3.206zm0 9.495H159.428v3.207H340.64v-3.207zm-5.246 9.497l-5.681 3.205H170.355l-5.68-3.205h170.719zm-16.823 9.495l-5.68 3.205H187.178l-5.681-3.205h137.074zm-16.822 9.494l-5.684 3.208h-92.062l-5.683-3.208h103.429zm-86.601 9.498h23.106l-5.677 3.205h-11.751l-5.678-3.205zm69.772 0l-5.677 3.205h-11.751l-5.678-3.205h23.106z" opacity=".8" fill="#FFE7BD"/><g opacity=".5"><path opacity=".5" d="M264.557 285.624c12.862 45.93 11.762 80.928-46.751 70.875.003-.002 46.751-70.875 46.751-70.875z" fill="url(#paint10_linear_1362_1403)"/><path opacity=".5" d="M268.087 249.58s10.66 10.231-3.221 34.196c-7.988 13.791-21.33-25.484-21.33-25.484l24.551-8.712z" fill="url(#paint11_linear_1362_1403)"/></g><path d="M300.997 264.964c16.169-18.374-28.747-12.862-39.042-22.625-7.786-7.796-16.786-18.124-27.928-7.856-12.279 10.392-2.466 22.791 1.931 30.977-6.777 15.133-1.104 30.239 16 24.278 6.94-2.393 14.403-6.205 21.379-2.584 7.313 5.137 14.863 7.595 23.919 5.608 4.546-.827 10.204-3.426 7.175-8.088-5.976-9.196-15.679-7.079-3.434-19.71z" fill="url(#paint12_linear_1362_1403)"/><path d="M242.824 253.996s-.203 12.251-4.204 13.292c0 0 5.135 7.06 12.374-1.465 0 0-.413-6.506 1.427-11.337l-9.597-.49z" fill="url(#paint13_linear_1362_1403)"/><path d="M161.725 338.781s-6.776.519-10.586-3.74c-2.815 4.609 12.226 14.907 17.386 15.108 3.002-7.373.174-10.023-6.8-11.368z" fill="url(#paint14_linear_1362_1403)"/><path d="M164.413 335.319s-1.463 2.41-2.257 3.579c-.349.513 4.113 3.84 7.105 3.669l1.04-3.341-3.632-4.522-2.256.615z" fill="url(#paint15_linear_1362_1403)"/><path d="M163.398 337.07s1.823 3.239 6.659 2.942c0 0 9.566-13.959 16.175-28.363 8.462 10.109 14.218 20.239 24.294 26.455 5.547 2.953 11.562 3.716 14.423 3.915 8.577 3.022 18.023-9.418 18.588-10.482l-2.628-9.763-1.022-.13-19.354-2.446c-5.629-5.832-11.632-11.54-17.839-16.832-5.918-3.987-12.466-13.669-20.198-12.199-7.719 1.696-14.199 39.898-19.098 46.903z" fill="url(#paint16_linear_1362_1403)"/><path d="M125.788 357.354s-5.079-4.478-4.628-10.152c-5.284 1.157-2.366 19.046 1.087 22.893 7.33-2.937 7.48-6.723 3.541-12.741z" fill="url(#paint17_linear_1362_1403)"/><path d="M130.168 356.871s-2.766.628-4.166.871c-.614.107.064 5.601 2.264 7.618l3.149-1.575.765-5.731-2.012-1.183z" fill="url(#paint18_linear_1362_1403)"/><path d="M131.416 363.783c.138.691 36.733-1.526 52.414-8.032 20.419-.762 45.642 5.959 62.289-8.897 7.35-5.912 8.503-15.06 5.462-23.573l-9.395-3.916-14.527 14.398c-31.058 2.038-79.506 19.038-97.489 23.107-.001 0-1.754 3.145 1.246 6.913z" fill="url(#paint19_linear_1362_1403)"/><path d="M231.363 270.517c-16.586 25.797-19.814 18.808-5.606 48.849l5.606-48.849z" fill="url(#paint20_linear_1362_1403)"/><path d="M261.529 292.163c-2.429 10.694-6.062 21.33-10.081 31.447a.287.287 0 00-.033.074c-11.452 3.581-28.401-3.036-27.822-3.972 3.875-14.128-.33-33.429 6.792-47.385 1.81-5.007 7.732-4.327 10.96-7.794-.173.305-2.015 3.671 1.289 4.08 5.641.479 8.456-2.9 8.456-2.9 4.346.45 12.093 8.12 12.093 8.12.798 4.871-.099 11.36-1.654 18.33z" fill="url(#paint21_linear_1362_1403)"/><path opacity=".3" d="M230.321 291.83c.051.019.231.092.525.202a3.304 3.304 0 01-.525-.202z" fill="url(#paint22_linear_1362_1403)"/><path opacity=".5" d="M260.738 295.499c-2.416 9.558-5.695 19.11-9.322 28.185-11.443 3.58-28.411-3.04-27.823-3.974 17.434 5.706 29.192 2.884 28.194-3.167-4.972-5.243-20.944-8.671-26.604-9.456l.141-1.121c.114-.038 12.93-4.618 13.045-4.658 1.997.027 17.072 4.641 15.996 2.338-.419-6.578-18.331-1.896-24.458-8.648 0 0 11.342 3.41 18.689 3.052 7.345-.356 5.614-12.173 6.32-13.595 1.311-1.634.745 11.849 5.865 9.771 0 0-.004.459-.043 1.273z" fill="url(#paint23_linear_1362_1403)"/><path d="M221.337 282.397l-.281.225a.885.885 0 01.281-.225z" fill="url(#paint24_linear_1362_1403)"/><path d="M235.004 303.425l-.682.814c.221-.253.126-.721.102-1.039l-1.343-15.264c.619-.996-9.504-1.578-9.73-1.834-.219-.002-.558-.148-.756.005.276-.224.562-.97.991-.907l9.741 1.317c.815-.243 1.921 16.912 1.677 16.908z" fill="url(#paint25_linear_1362_1403)"/><path d="M234.322 304.239c.208.586-9.182-1.095-9.308-1-.227-.031-.411-.249-.451-.536.314-.458-3.292-17.109-1.68-16.664.066-.023.392.075.467.063l9.274 1.254c.242.032.43.273.457.58l1.342 15.264c.021.313.122.788-.101 1.039z" fill="url(#paint26_linear_1362_1403)"/><path opacity=".6" d="M233.238 303.63a.27.27 0 01-.175.082l.175-.082z" fill="url(#paint27_linear_1362_1403)"/><path opacity=".6" d="M234.461 303.887c-.033.301-.271.603-.58.563-.252-.243-9.857-.834-9.317-1.747.235-.404-3.096-16.969-1.791-16.666-.08.28 2.267 15.824 2.258 16.104.043.289.226.504.451.537 2.519.324 6.481.917 8.979 1.209z" fill="url(#paint28_linear_1362_1403)"/><path d="M232.795 305.7c.041.011.063.02.063.02-.007-.001-.012.002-.02.001.879.411 1.764.812 2.649 1.206.054-3.746 2.773-5.549 2.881-5.619-.944-.264-1.742-.481-2.346-.636-.962-1.07-.851-2.456-1.466-3.702-.663-1.043.261-1.894.094-2.232-.168-.336-.318-.335-.931.245-.727.153-.349 5.711-2.387 3.999l-1.73-2.017s-.53-1.51-.971-2.885c-2.769-4.936-.28 4.581.566 5.089-1.122-.527-1.213-1.018-2.706-2.825-4.284-3.675 1.265 4.314 2.25 4.556-1.089-.341-1.299-.858-2.976-2.399-4.267-2.855.683 2.906 1.991 3.618a9.554 9.554 0 01-1.376-.841c-5-2.351 2.843 4.071 3.468 3.638.861.036 2.053.687 2.987.805l-.04-.021z" fill="url(#paint29_linear_1362_1403)"/><path d="M232.795 305.7c.022.01.038.026.063.02l-.063-.02z" fill="url(#paint30_linear_1362_1403)"/><path d="M232.795 305.7c.022.01.038.026.063.02l-.063-.02z" fill="url(#paint31_linear_1362_1403)"/><path d="M264.866 308.945c-.821 5.862-2.357 8.033-7.911 6.42-7.431-2.384-14.383-5.392-21.468-8.436.053-3.747 2.773-5.55 2.882-5.621 8.055 2.216 18.885 5.46 26.497 7.637z" fill="url(#paint32_linear_1362_1403)"/><path d="M264.816 308.939c-.254 1.918-.657 3.994-1.731 5.676l-7.002-3.217c.915-6.631-1.496-13.255-1.68-19.874-.229-4.705.556-9.759 1.63-14.365.262-1.413 3.565-7.736 7.001-3.488 6.802 8.314 2.525 25.11 1.782 35.268z" fill="url(#paint33_linear_1362_1403)"/><path opacity=".5" d="M207.996 336.568c-1.457.262-2.96.548-4.516.854 6.578.699 22.595-4.67 25.402-6.95-10.671 4.574-26.488.953-26.488.953 2.12 2.267 3.403 3.609 5.602 5.143z" fill="url(#paint34_linear_1362_1403)"/><path d="M232.364 246.468c3.873 5.535-.138 15.053 10.157 18.851 2.371-.906 12.917-4.726 11.038-13.935.036-1.679 2.232-2.976.65-5.378-1.582-2.402-2.439-.455-2.439-.455s-.689-1.969-1.406-3.589c-.718-1.62-18 4.506-18 4.506z" fill="url(#paint35_linear_1362_1403)"/><path d="M231.326 242.144c-7.006-12.871 16.078-15.108 23.444-3.458l-.906.25 1.145 5.49c-3.255 3.664-12.135 8.831-19.062 2.849-.367 1.316-1.253 2.898-3.391 3.347 0 0-1.853-4.076-1.23-8.478z" fill="url(#paint36_linear_1362_1403)"/><path opacity=".5" d="M354.156 93.087c-23.999-.3-42.595 20.467-29.383 39.269l-13.147 18.41 20.44-11.469c46.998 27.979 86.576-39.524 22.09-46.21z" fill="#F4BF3B"/><path d="M358.761 120.27c.093 6.271-9.846 6.271-9.752-.001-.093-6.271 9.846-6.271 9.752.001zm15.94 0c.093 6.271-9.846 6.271-9.753-.001-.092-6.271 9.846-6.271 9.753.001zm-41.632 0c-.093 6.271 9.846 6.271 9.752-.001.093-6.271-9.846-6.271-9.752.001z" opacity=".6" fill="#fff"/><path opacity=".5" d="M145.31 126.631c15.465-.193 27.447 13.188 18.933 25.303l8.472 11.863-13.171-7.39c-30.284 18.029-55.786-25.468-14.234-29.776z" fill="#F4BF3B"/><path d="M142.343 144.146c-.06 4.042 6.345 4.042 6.284 0 .06-4.041-6.344-4.041-6.284 0zm-10.271 0c-.06 4.042 6.345 4.042 6.284 0 .06-4.041-6.344-4.041-6.284 0zm26.826 0c.06 4.042-6.344 4.042-6.284 0-.06-4.041 6.344-4.041 6.284 0z" opacity=".6" fill="#fff"/><defs><linearGradient id="paint0_linear_1362_1403" x1="321.219" y1="294.24" x2="321.219" y2="225.004" gradientUnits="userSpaceOnUse"><stop stop-color="#FFCF5C"/><stop offset="1" stop-color="#FFB300"/></linearGradient><linearGradient id="paint1_linear_1362_1403" x1="178.85" y1="294.24" x2="178.85" y2="225.004" gradientUnits="userSpaceOnUse"><stop stop-color="#FFCF5C"/><stop offset="1" stop-color="#FFB300"/></linearGradient><linearGradient id="paint2_linear_1362_1403" x1="178.863" y1="362.105" x2="178.863" y2="292.598" gradientUnits="userSpaceOnUse"><stop stop-color="#FFCF5C"/><stop offset="1" stop-color="#FFB52E"/></linearGradient><linearGradient id="paint3_linear_1362_1403" x1="321.206" y1="362.105" x2="321.206" y2="292.598" gradientUnits="userSpaceOnUse"><stop stop-color="#FFCF5C"/><stop offset="1" stop-color="#FFB52E"/></linearGradient><linearGradient id="paint4_linear_1362_1403" x1="321.219" y1="315.926" x2="321.219" y2="239.463" gradientUnits="userSpaceOnUse"><stop stop-color="#FFCF5C"/><stop offset="1" stop-color="#FFB300"/></linearGradient><linearGradient id="paint5_linear_1362_1403" x1="178.85" y1="315.926" x2="178.85" y2="239.463" gradientUnits="userSpaceOnUse"><stop stop-color="#FFCF5C"/><stop offset="1" stop-color="#FFB300"/></linearGradient><linearGradient id="paint6_linear_1362_1403" x1="250.372" y1="198.229" x2="244.758" y2="425.277" gradientUnits="userSpaceOnUse"><stop stop-color="#FFCF5C"/><stop offset="1" stop-color="#FFB300"/></linearGradient><linearGradient id="paint7_linear_1362_1403" x1="248.127" y1="247.753" x2="249.996" y2="339.322" gradientUnits="userSpaceOnUse"><stop stop-color="#FFCF5C"/><stop offset="1" stop-color="#FFB300"/></linearGradient><linearGradient id="paint8_linear_1362_1403" x1="221.872" y1="284.1" x2="221.872" y2="289.552" gradientUnits="userSpaceOnUse"><stop stop-color="#FFCF5C"/><stop offset="1" stop-color="#FFB300"/></linearGradient><linearGradient id="paint9_linear_1362_1403" x1="278.197" y1="284.1" x2="278.197" y2="289.552" gradientUnits="userSpaceOnUse"><stop stop-color="#FFCF5C"/><stop offset="1" stop-color="#FFB300"/></linearGradient><linearGradient id="paint10_linear_1362_1403" x1="268.675" y1="318.113" x2="228.245" y2="328.742" gradientUnits="userSpaceOnUse"><stop stop-color="#FFCF5C"/><stop offset="1" stop-color="#FFB300"/></linearGradient><linearGradient id="paint11_linear_1362_1403" x1="272.076" y1="266.218" x2="254.529" y2="270.831" gradientUnits="userSpaceOnUse"><stop stop-color="#FFCF5C"/><stop offset="1" stop-color="#FFB300"/></linearGradient><linearGradient id="paint12_linear_1362_1403" x1="228.035" y1="224.03" x2="268.192" y2="269.477" gradientUnits="userSpaceOnUse"><stop stop-color="#C2728D"/><stop offset="1" stop-color="#11486D"/></linearGradient><linearGradient id="paint13_linear_1362_1403" x1="245.76" y1="257.772" x2="244.894" y2="269.047" gradientUnits="userSpaceOnUse"><stop stop-color="#F0877E"/><stop offset="1" stop-color="#FABEB2"/></linearGradient><linearGradient id="paint14_linear_1362_1403" x1="163.284" y1="338.307" x2="156.437" y2="346.814" gradientUnits="userSpaceOnUse"><stop stop-color="#5B00E7"/><stop offset="1" stop-color="#C845FF"/></linearGradient><linearGradient id="paint15_linear_1362_1403" x1="168.024" y1="333.862" x2="165.285" y2="341.982" gradientUnits="userSpaceOnUse"><stop stop-color="#F0877E"/><stop offset="1" stop-color="#FABEB2"/></linearGradient><linearGradient id="paint16_linear_1362_1403" x1="238.538" y1="307.706" x2="157.173" y2="329.096" gradientUnits="userSpaceOnUse"><stop stop-color="#E75B00"/><stop offset="1" stop-color="#FFA345"/></linearGradient><linearGradient id="paint17_linear_1362_1403" x1="128.398" y1="356.733" x2="116.705" y2="360.074" gradientUnits="userSpaceOnUse"><stop stop-color="#5B00E7"/><stop offset="1" stop-color="#C845FF"/></linearGradient><linearGradient id="paint18_linear_1362_1403" x1="133.728" y1="358.432" x2="125.934" y2="362.116" gradientUnits="userSpaceOnUse"><stop stop-color="#F0877E"/><stop offset="1" stop-color="#FABEB2"/></linearGradient><linearGradient id="paint19_linear_1362_1403" x1="248.448" y1="334.487" x2="121.629" y2="362.179" gradientUnits="userSpaceOnUse"><stop stop-color="#E75B00"/><stop offset="1" stop-color="#FFA345"/></linearGradient><linearGradient id="paint20_linear_1362_1403" x1="229.178" y1="280.74" x2="217.709" y2="318.332" gradientUnits="userSpaceOnUse"><stop stop-color="#5B00E7"/><stop offset="1" stop-color="#C845FF"/></linearGradient><linearGradient id="paint21_linear_1362_1403" x1="238.039" y1="326.111" x2="247.618" y2="267.581" gradientUnits="userSpaceOnUse"><stop stop-color="#5B00E7"/><stop offset="1" stop-color="#C845FF"/></linearGradient><linearGradient id="paint22_linear_1362_1403" x1="230.589" y1="292.096" x2="230.581" y2="291.878" gradientUnits="userSpaceOnUse"><stop stop-color="#E75B00"/><stop offset="1" stop-color="#FFA345"/></linearGradient><linearGradient id="paint23_linear_1362_1403" x1="242.921" y1="324.8" x2="241.261" y2="284.894" gradientUnits="userSpaceOnUse"><stop stop-color="#5B00E7"/><stop offset="1" stop-color="#C845FF"/></linearGradient><linearGradient id="paint24_linear_1362_1403" x1="221.255" y1="282.396" x2="221.117" y2="282.666" gradientUnits="userSpaceOnUse"><stop stop-color="#00D1D0"/><stop offset="1" stop-color="#0098D0"/></linearGradient><linearGradient id="paint25_linear_1362_1403" x1="227.921" y1="281.419" x2="229.414" y2="301.898" gradientUnits="userSpaceOnUse"><stop stop-color="#00D0FF"/><stop offset="1" stop-color="#7500D0"/></linearGradient><linearGradient id="paint26_linear_1362_1403" x1="229.11" y1="291.529" x2="225.05" y2="315.56" gradientUnits="userSpaceOnUse"><stop stop-color="#00D0FF"/><stop offset="1" stop-color="#7500D0"/></linearGradient><linearGradient id="paint27_linear_1362_1403" x1="233.157" y1="303.644" x2="233.112" y2="303.815" gradientUnits="userSpaceOnUse"><stop stop-color="#00D1D0"/><stop offset="1" stop-color="#0098D0"/></linearGradient><linearGradient id="paint28_linear_1362_1403" x1="229.231" y1="292.316" x2="223.398" y2="314.558" gradientUnits="userSpaceOnUse"><stop stop-color="#00D0FF"/><stop offset="1" stop-color="#7500D0"/></linearGradient><linearGradient id="paint29_linear_1362_1403" x1="239.937" y1="302.804" x2="227.798" y2="298.061" gradientUnits="userSpaceOnUse"><stop stop-color="#F0877E"/><stop offset="1" stop-color="#FABEB2"/></linearGradient><linearGradient id="paint30_linear_1362_1403" x1="232.8" y1="305.662" x2="232.849" y2="305.751" gradientUnits="userSpaceOnUse"><stop stop-color="#F0877E"/><stop offset="1" stop-color="#FABEB2"/></linearGradient><linearGradient id="paint31_linear_1362_1403" x1="232.566" y1="305.249" x2="232.896" y2="305.836" gradientUnits="userSpaceOnUse"><stop stop-color="#F0877E"/><stop offset="1" stop-color="#FABEB2"/></linearGradient><linearGradient id="paint32_linear_1362_1403" x1="246.882" y1="327.841" x2="256.523" y2="268.933" gradientUnits="userSpaceOnUse"><stop stop-color="#5B00E7"/><stop offset="1" stop-color="#C845FF"/></linearGradient><linearGradient id="paint33_linear_1362_1403" x1="254.465" y1="328.969" x2="264.081" y2="270.218" gradientUnits="userSpaceOnUse"><stop stop-color="#5B00E7"/><stop offset="1" stop-color="#C845FF"/></linearGradient><linearGradient id="paint34_linear_1362_1403" x1="228.348" y1="328.442" x2="202.88" y2="335.138" gradientUnits="userSpaceOnUse"><stop stop-color="#E75B00"/><stop offset="1" stop-color="#FFA345"/></linearGradient><linearGradient id="paint35_linear_1362_1403" x1="243.747" y1="237.17" x2="244.574" y2="258.686" gradientUnits="userSpaceOnUse"><stop stop-color="#F0877E"/><stop offset="1" stop-color="#FABEB2"/></linearGradient><linearGradient id="paint36_linear_1362_1403" x1="224.446" y1="222.771" x2="266.101" y2="269.912" gradientUnits="userSpaceOnUse"><stop stop-color="#C2728D"/><stop offset="1" stop-color="#11486D"/></linearGradient></defs></svg>