<svg width="500" height="500" fill="none" xmlns="http://www.w3.org/2000/svg"><g clip-path="url(#clip0_1404_428)"><path d="M500 433.243H.003v66.763H500v-66.763z" fill="#CCC9F3"/><path d="M500 433.243H.003M419.556 171.62c20.254 1.521 37.911-13.664 39.433-33.896 1.525-20.274-13.665-37.927-33.918-39.45-20.244-1.521-37.9 13.663-39.424 33.936-1.522 20.231 13.663 37.886 33.909 39.41z" stroke="#7168EE" stroke-miterlimit="10" stroke-linejoin="round"/><path d="M446.564 154.308c-.869-.603.034-3.396 2.014-6.241 1.979-2.847 4.287-4.663 5.153-4.059.866.604-.034 3.398-2.015 6.242-1.979 2.845-4.285 4.659-5.152 4.058zm-8.292-.49c-.922-.806.218-3.543 2.542-6.117 2.324-2.572 4.955-4.004 5.874-3.198.921.808-.217 3.546-2.542 6.117-2.324 2.572-4.954 4.007-5.874 3.198zm-38.744-40.723c1.613.869.866 5.254-1.667 9.796-2.534 4.537-5.9 7.511-7.517 6.641-1.614-.869-.87-5.253 1.665-9.793 2.536-4.54 5.902-7.513 7.519-6.644zm-3.256 17.886c1.108.483.859 3.398-.551 6.513-1.411 3.118-3.452 5.254-4.56 4.773-1.105-.48-.86-3.397.55-6.514 1.412-3.113 3.453-5.249 4.561-4.772zm33.788 36.371c-.895-.929.852-4.064 3.901-7.005 3.052-2.938 6.251-4.566 7.147-3.638.895.929-.852 4.066-3.902 7.005-3.051 2.939-6.25 4.567-7.146 3.638zm11.997-5.48c-.402-.365.247-1.732 1.448-3.05 1.2-1.318 2.5-2.088 2.901-1.723.403.365-.246 1.732-1.447 3.05-1.201 1.317-2.5 2.09-2.902 1.723z" fill="#CCC9F3" stroke="#7168EE" stroke-miterlimit="10" stroke-linejoin="round"/><path d="M144.071 120.102c-1.168 0-2.301.146-3.395.396-.658-11.064-9.813-19.841-21.043-19.841-10.408 0-19.037 7.546-20.77 17.458a16.506 16.506 0 00-2.179-.161c-8.972 0-16.247 7.273-16.247 16.247 0 8.972 7.275 16.247 16.247 16.247h47.387c8.382 0 15.174-6.795 15.174-15.174 0-8.38-6.792-15.172-15.174-15.172z" fill="#CCC9F3" stroke="#7168EE" stroke-miterlimit="10" stroke-linecap="round" stroke-linejoin="round"/><path d="M124.362 126.984c-1.17 0-2.302.146-3.396.396-.657-11.063-9.813-19.841-21.043-19.841-10.408 0-19.038 7.545-20.769 17.458a16.338 16.338 0 00-2.179-.162c-8.974 0-16.247 7.274-16.247 16.247 0 8.972 7.273 16.247 16.247 16.247h47.387c8.382 0 15.174-6.794 15.174-15.174 0-8.379-6.792-15.171-15.174-15.171z" stroke="#7168EE" stroke-miterlimit="10" stroke-linecap="round" stroke-linejoin="round"/><path d="M375.693 161.931a9.71 9.71 0 012.17.253c.421-7.07 6.271-12.679 13.447-12.679 6.65 0 12.165 4.822 13.272 11.156.458-.061.92-.104 1.393-.104 5.733 0 10.382 4.648 10.382 10.383 0 5.732-4.648 10.382-10.382 10.382h-30.281c-5.357 0-9.696-4.342-9.696-9.696-.001-5.355 4.339-9.695 9.695-9.695z" fill="#CCC9F3" stroke="#7168EE" stroke-miterlimit="10" stroke-linecap="round" stroke-linejoin="round"/><path d="M388.288 166.329c.747 0 1.471.094 2.17.253.42-7.069 6.271-12.678 13.447-12.678 6.651 0 12.166 4.82 13.271 11.155.457-.061.92-.104 1.392-.104 5.734 0 10.382 4.648 10.382 10.382s-4.648 10.383-10.382 10.383h-30.281a9.696 9.696 0 11.001-19.391z" stroke="#7168EE" stroke-miterlimit="10" stroke-linecap="round" stroke-linejoin="round"/><path d="M453.145 397.512c0 23.49-5.766 35.73-12.877 35.73-7.115 0-12.88-12.24-12.88-35.73 0-23.496 5.765-49.345 12.88-49.345 7.112 0 12.877 25.849 12.877 49.345z" fill="#CCC9F3" stroke="#7168EE" stroke-width=".75" stroke-miterlimit="10" stroke-linecap="round" stroke-linejoin="round"/><path d="M440.269 348.167v85.075m-11.353-17.177l11.353 11.349 11.348-11.347m-24.201-21.353l12.853 12.851 12.849-12.85m-24.269-18.416l11.42 11.417 11.415-11.414m-19.385-16.405l7.97 7.968 7.964-7.965" stroke="#7168EE" stroke-width=".5" stroke-miterlimit="10" stroke-linecap="round" stroke-linejoin="round"/><path d="M427.34 401.205c7.252 18.21 6.564 29.478 1.051 31.673-5.514 2.197-13.762-5.511-21.014-23.724-7.252-18.211-10.761-40.023-5.246-42.223 5.513-2.193 17.957 16.062 25.209 34.274z" stroke="#7168EE" stroke-width=".75" stroke-miterlimit="10" stroke-linecap="round" stroke-linejoin="round"/><path d="M402.131 366.932l26.26 65.946m-14.106-9.812l12.307 5.296 5.296-12.302m-25.353-9.08l13.931 5.994 5.994-13.926m-24.5-6.783l12.378 5.324 5.324-12.37m-20.09-6.735l8.639 3.717 3.714-8.633" stroke="#7168EE" stroke-width=".5" stroke-miterlimit="10" stroke-linecap="round" stroke-linejoin="round"/><path d="M450.274 405.932c-6.184 15.52-5.596 25.132-.896 27 4.701 1.872 11.734-4.701 17.917-20.224 6.182-15.525 9.174-34.122 4.474-35.997-4.701-1.869-15.312 13.693-21.495 29.221z" stroke="#7168EE" stroke-width=".75" stroke-miterlimit="10" stroke-linecap="round" stroke-linejoin="round"/><path d="M471.769 376.711l-22.391 56.221m12.023-8.364l-10.49 4.514-4.514-10.487m21.614-7.74l-11.871 5.11-5.113-11.872m20.887-5.786l-10.555 4.542-4.54-10.548m17.127-5.738l-7.363 3.166-3.166-7.36" stroke="#7168EE" stroke-width=".5" stroke-miterlimit="10" stroke-linecap="round" stroke-linejoin="round"/><path d="M46.853 397.512c0 23.49 5.766 35.73 12.877 35.73 7.114 0 12.881-12.24 12.881-35.73 0-23.496-5.767-49.345-12.881-49.345-7.112 0-12.877 25.849-12.877 49.345z" fill="#CCC9F3" stroke="#7168EE" stroke-width=".75" stroke-miterlimit="10" stroke-linecap="round" stroke-linejoin="round"/><path d="M59.729 348.167v85.075m11.354-17.177L59.73 427.414l-11.347-11.347m24.2-21.353L59.73 407.565l-12.849-12.85m24.268-18.416l-11.42 11.417-11.414-11.414m19.383-16.405l-7.969 7.968-7.964-7.965" stroke="#7168EE" stroke-width=".5" stroke-miterlimit="10" stroke-linecap="round" stroke-linejoin="round"/><path d="M72.659 401.205c-7.252 18.21-6.564 29.478-1.051 31.673 5.514 2.197 13.762-5.511 21.014-23.724 7.252-18.211 10.761-40.023 5.245-42.223-5.513-2.193-17.956 16.062-25.208 34.274z" stroke="#7168EE" stroke-width=".75" stroke-miterlimit="10" stroke-linecap="round" stroke-linejoin="round"/><path d="M97.867 366.932l-26.259 65.946m14.106-9.812l-12.307 5.296-5.297-12.302m25.354-9.08l-13.93 5.994-5.994-13.926m24.498-6.783l-12.378 5.324-5.323-12.37m20.09-6.735l-8.639 3.717-3.714-8.633" stroke="#7168EE" stroke-width=".5" stroke-miterlimit="10" stroke-linecap="round" stroke-linejoin="round"/><path d="M49.724 405.932c6.184 15.52 5.596 25.132.896 27-4.702 1.872-11.733-4.701-17.916-20.224-6.182-15.525-9.174-34.122-4.473-35.997 4.7-1.869 15.311 13.693 21.493 29.221z" stroke="#7168EE" stroke-width=".75" stroke-miterlimit="10" stroke-linecap="round" stroke-linejoin="round"/><path d="M28.231 376.711l22.39 56.221m-12.023-8.364l10.49 4.514 4.513-10.487m-21.614-7.74l11.873 5.11 5.112-11.872m-20.887-5.786l10.555 4.542 4.54-10.548m-17.128-5.738l7.364 3.166 3.166-7.36" stroke="#7168EE" stroke-width=".5" stroke-miterlimit="10" stroke-linecap="round" stroke-linejoin="round"/><path d="M289.4 360.095a1.66 1.66 0 01-1.66 1.659h-12.08a1.66 1.66 0 01-1.66-1.659V347.23c0-.917.743-1.66 1.66-1.66h12.08c.917 0 1.66.743 1.66 1.66v12.865zm0-33.584a1.66 1.66 0 01-1.66 1.659h-12.08a1.66 1.66 0 01-1.66-1.659v-12.864c0-.917.743-1.66 1.66-1.66h12.08c.917 0 1.66.743 1.66 1.66v12.864z" fill="#B7B4DF" stroke="#7168EE" stroke-miterlimit="10" stroke-linejoin="round"/><path d="M280.833 365.93c0 2.557 1.334 4.224 3.334 5.724s22.333 19.408 8.793 61.59h11.401s12.992-29.004 21.474-58.007c5.849-20 .208-35.151-10.252-48.5-6.618-8.445-14.583-17-28.166-27.126-3.047-2.272-6.584-1.541-6.584 3.126v63.193z" fill="#B7B4DF" stroke="#7168EE" stroke-miterlimit="10" stroke-linejoin="round"/><path d="M291.731 370.173a3.346 3.346 0 003.942-2.622 3.345 3.345 0 00-2.621-3.931 3.345 3.345 0 00-3.93 2.611 3.347 3.347 0 002.609 3.942z" stroke="#7168EE" stroke-miterlimit="10" stroke-linejoin="round"/><path d="M292.615 365.787l-.222 1.104-.225 1.117" stroke="#7168EE" stroke-miterlimit="10" stroke-linecap="round" stroke-linejoin="round"/><path d="M291.274 366.665l1.119.226 1.116.225" stroke="#7168EE" stroke-miterlimit="10" stroke-linecap="round" stroke-linejoin="round"/><path d="M296.03 348.845a3.347 3.347 0 003.943-2.62 3.35 3.35 0 00-2.622-3.933 3.345 3.345 0 00-3.93 2.612 3.347 3.347 0 002.609 3.941z" stroke="#7168EE" stroke-miterlimit="10" stroke-linejoin="round"/><path d="M296.915 344.461l-.224 1.103-.225 1.117" stroke="#7168EE" stroke-miterlimit="10" stroke-linecap="round" stroke-linejoin="round"/><path d="M295.574 345.338l1.117.226 1.117.225" stroke="#7168EE" stroke-miterlimit="10" stroke-linecap="round" stroke-linejoin="round"/><path d="M300.33 327.519a3.35 3.35 0 003.943-2.622 3.35 3.35 0 00-2.624-3.931 3.345 3.345 0 00-3.929 2.611 3.346 3.346 0 002.61 3.942z" stroke="#7168EE" stroke-miterlimit="10" stroke-linejoin="round"/><path d="M301.215 323.133l-.225 1.103-.224 1.118" stroke="#7168EE" stroke-miterlimit="10" stroke-linecap="round" stroke-linejoin="round"/><path d="M299.872 324.011l1.118.225 1.114.226" stroke="#7168EE" stroke-miterlimit="10" stroke-linecap="round" stroke-linejoin="round"/><path d="M257.125 129.653h-14.25v34.583h14.25v-34.583z" fill="#A5BCD6" stroke="#7168EE" stroke-miterlimit="10" stroke-linecap="round" stroke-linejoin="round"/><path d="M274.25 169.644h-48.5l2.75-16.991h43l2.75 16.991z" fill="#A5BCD6" stroke="#7168EE" stroke-miterlimit="10" stroke-linecap="round" stroke-linejoin="round"/><path d="M259.104 147.571l-18.209 2.666v-4l18.209-2.666v4zm0-8.292l-18.209 2.666v-4l18.209-2.666v4zm0-8.292l-18.209 2.666v-4l18.209-2.666v4z" stroke="#7168EE" stroke-miterlimit="10" stroke-linecap="round" stroke-linejoin="round"/><path d="M250 373.722h25.377c-2.404 9.102-4.08 14.02-4.08 14.02h-42.594s-1.674-4.918-4.08-14.02H250z" fill="#A5BCD6"/><path d="M234.027 387.741s-1.256-4.918-3.061-14.02m8.386 14.02s-.836-4.918-2.039-14.02m7.363 14.02s-.418-4.918-1.02-14.02m6.344 14.02v-14.02m5.324 14.02s.418-4.918 1.02-14.02m4.304 14.02s.838-4.918 2.041-14.02m3.284 14.02s1.256-4.918 3.061-14.02" stroke="#7168EE" stroke-width=".5" stroke-miterlimit="10" stroke-linejoin="round"/><path d="M275.377 373.722c-2.404 9.102-4.08 14.02-4.08 14.02h-42.594s-1.674-4.918-4.08-14.02" stroke="#7168EE" stroke-miterlimit="10" stroke-linejoin="round"/><path d="M207.494 332.283h85.01c-4.75 27.43-10.828 44.55-10.828 44.55h-63.342s-6.09-17.12-10.84-44.55z" fill="#FFC96B"/><path d="M292.504 332.283c7.221-41.64 11.371-107.05-13.488-172.46h-58.022c-24.869 65.41-20.719 130.82-13.5 172.46 4.75 27.43 10.84 44.55 10.84 44.55h63.342s6.078-17.12 10.828-44.55zm-85.01 0h85.01" stroke="#7168EE" stroke-miterlimit="10" stroke-linecap="round" stroke-linejoin="round"/><path d="M250.008 185.301c15.029 0 27.213 12.193 27.213 27.225 0 15.029-12.184 27.225-27.213 27.225-15.043 0-27.225-12.195-27.225-27.225 0-15.032 12.182-27.225 27.225-27.225zm3.486 7.845a3.496 3.496 0 00-3.486-3.487c-.43 0-.848.012-1.256.034a3.485 3.485 0 00-3.289 3.673 3.482 3.482 0 003.475 3.302c.059 0 .129 0 .199-.012.279-.01.568-.022.871-.022a3.49 3.49 0 003.486-3.488zm-11.996 5.953a3.482 3.482 0 10-3.731-5.881c-6.65 4.219-10.625 11.438-10.625 19.309a3.481 3.481 0 003.486 3.486 3.484 3.484 0 003.488-3.486c.001-5.466 2.767-10.488 7.382-13.428z" fill="#A5BCD6"/><path d="M250.065 226.502l-4.071-2.62c-9.684-6.24-9.702-10.806-9.709-12.519a7.446 7.446 0 017.451-7.479 7.507 7.507 0 016.249 3.352 7.428 7.428 0 016.217-3.352c4.134 0 7.494 3.352 7.516 7.479.007 1.713.021 6.278-9.6 12.519l-4.053 2.62z" stroke="#7168EE" stroke-miterlimit="10" stroke-linejoin="round"/><path d="M282.162 212.525c0 17.762-14.393 32.165-32.154 32.165-17.761 0-32.166-14.403-32.166-32.165 0-17.764 14.404-32.166 32.166-32.166 17.762 0 32.154 14.403 32.154 32.166z" stroke="#7168EE" stroke-miterlimit="10" stroke-linejoin="round"/><path d="M277.221 212.525c0 15.029-12.184 27.225-27.213 27.225-15.043 0-27.225-12.195-27.225-27.225 0-15.031 12.182-27.225 27.225-27.225 15.029.001 27.213 12.194 27.213 27.225z" stroke="#7168EE" stroke-miterlimit="10" stroke-linejoin="round"/><path d="M248.938 196.668a3.481 3.481 0 01-3.475-3.302 3.486 3.486 0 013.289-3.673c.408-.023.826-.034 1.256-.034a3.496 3.496 0 013.486 3.487 3.488 3.488 0 01-3.486 3.487c-.303 0-.592.013-.871.022-.071.013-.141.013-.199.013zm-14.821 15.857c0-5.464 2.766-10.486 7.381-13.427a3.482 3.482 0 10-3.731-5.881c-6.65 4.219-10.625 11.438-10.625 19.309a3.481 3.481 0 003.486 3.486 3.485 3.485 0 003.489-3.487z" stroke="#7168EE" stroke-miterlimit="10" stroke-linejoin="round"/><path d="M278.084 285.842a3 3 0 01-3 3h-50.168a3 3 0 01-3-3v-27.347c0-1.656 1.344-3 3-3h50.168c1.656 0 3 1.344 3 3v27.347z" fill="#A5BCD6" stroke="#7168EE" stroke-miterlimit="10" stroke-linecap="round" stroke-linejoin="round"/><path d="M232.375 264.751c0 .695-.563 1.258-1.258 1.258h-3.316a1.258 1.258 0 01-1.258-1.258v-3.317c0-.695.563-1.258 1.258-1.258h3.316c.695 0 1.258.563 1.258 1.258v3.317zm13.695 0c0 .695-.563 1.258-1.258 1.258h-3.318a1.258 1.258 0 01-1.258-1.258v-3.317c0-.695.563-1.258 1.258-1.258h3.318c.695 0 1.258.563 1.258 1.258v3.317zm13.694 0c0 .695-.563 1.258-1.258 1.258h-3.316a1.258 1.258 0 01-1.258-1.258v-3.317c0-.695.563-1.258 1.258-1.258h3.316c.695 0 1.258.563 1.258 1.258v3.317zm13.695 0c0 .695-.563 1.258-1.258 1.258h-3.318a1.258 1.258 0 01-1.258-1.258v-3.317c0-.695.563-1.258 1.258-1.258h3.318c.695 0 1.258.563 1.258 1.258v3.317z" stroke="#7168EE" stroke-miterlimit="10" stroke-linecap="round" stroke-linejoin="round"/><path d="M260.76 272.582h-32.959c-.695 0-1.258.563-1.258 1.258v3.317c0 .695.563 1.258 1.258 1.258h29.711l3.248-5.833z" fill="#FFC96B"/><path d="M273.459 277.157c0 .695-.563 1.258-1.258 1.258h-44.4a1.258 1.258 0 01-1.258-1.258v-3.317c0-.695.563-1.258 1.258-1.258h44.4c.695 0 1.258.563 1.258 1.258v3.317z" stroke="#7168EE" stroke-miterlimit="10" stroke-linecap="round" stroke-linejoin="round"/><path d="M214.025 340.226a3.347 3.347 0 003.348 3.348 3.346 3.346 0 003.336-3.348c0-1.837-1.5-3.336-3.336-3.336a3.345 3.345 0 00-3.348 3.336z" stroke="#7168EE" stroke-miterlimit="10" stroke-linejoin="round"/><path d="M218.498 340.226h-2.266m1.141-1.141v2.278" stroke="#7168EE" stroke-miterlimit="10" stroke-linecap="round" stroke-linejoin="round"/><path d="M235.781 340.226a3.347 3.347 0 003.348 3.348 3.346 3.346 0 003.336-3.348c0-1.837-1.5-3.336-3.336-3.336a3.345 3.345 0 00-3.348 3.336z" stroke="#7168EE" stroke-miterlimit="10" stroke-linejoin="round"/><path d="M240.254 340.226h-2.266m1.141-1.141v2.278" stroke="#7168EE" stroke-miterlimit="10" stroke-linecap="round" stroke-linejoin="round"/><path d="M257.537 340.226a3.347 3.347 0 003.348 3.348 3.346 3.346 0 003.336-3.348c0-1.837-1.5-3.336-3.336-3.336a3.345 3.345 0 00-3.348 3.336z" stroke="#7168EE" stroke-miterlimit="10" stroke-linejoin="round"/><path d="M262.01 340.226h-2.266m1.141-1.141v2.278" stroke="#7168EE" stroke-miterlimit="10" stroke-linecap="round" stroke-linejoin="round"/><path d="M279.293 340.226a3.347 3.347 0 003.348 3.348 3.346 3.346 0 003.336-3.348c0-1.837-1.5-3.336-3.336-3.336a3.345 3.345 0 00-3.348 3.336z" stroke="#7168EE" stroke-miterlimit="10" stroke-linejoin="round"/><path d="M283.766 340.226H281.5m1.141-1.141v2.278m1.357 28.077h-16.496l-7.022-7.021h-20.96l-7.024 7.021h-16.494" stroke="#7168EE" stroke-miterlimit="10" stroke-linecap="round" stroke-linejoin="round"/><path d="M259.646 368.591a2.042 2.042 0 01-2.043 2.042h-15.207a2.041 2.041 0 010-4.084h15.207c1.129 0 2.043.914 2.043 2.042z" fill="#FF986B" stroke="#7168EE" stroke-miterlimit="10" stroke-linecap="round" stroke-linejoin="round"/><path d="M257.603 366.549h-15.207c-.797 0-1.479.46-1.814 1.126a2.034 2.034 0 001.814 1.125h15.207c.797 0 1.479-.461 1.816-1.125a2.034 2.034 0 00-1.816-1.126z" fill="#7168EE"/><path d="M250 362.419v-30.136" stroke="#7168EE" stroke-miterlimit="10" stroke-linecap="round" stroke-linejoin="round"/><path d="M320.668 163.596c-.004.965-1.472 4.458-.601 7.778.871 3.32 10.849 17.682 14.462 21.412 3.625 3.721 3.537 7.188 5.7 8.897 2.743 2.157 24.683 16.986 24.683 16.986l-8.263 14.201s-18.268-14.88-25.405-22.131c-.806-.802-3.005-3.479-6.385-10.32-3.369-6.841-10.029-22.556-11.717-25.021-3.428-5.018-5.816-6.99-5.965-7.427-.147-.436-.973-1.561-1.355-2.886-.393-1.325-.75-2.403-1.382-4.255-.63-1.881-.018-3.93.342-3.904.151.004.534.604.948 1.398-.191-.611-.408-1.266-.672-2.065-.631-1.86-.028-3.921.333-3.906.368.036 2.046 3.526 2.672 4.823-.068-.218-.138-.436-.198-.633-.395-1.313-.751-2.393-1.383-4.254-.62-1.869-.018-3.931.352-3.895.36.016 1.979 3.379 2.606 4.677.185.379.47.949.806 1.615a98.234 98.234 0 00-1.198-3.664c-.622-1.85-.019-3.911.351-3.894.369.035 1.97 3.387 2.605 4.695.627 1.298 2.571 5.044 3.311 6.424.211.402.532.927.867 1.502-.134-1.712 1.299-3.41 1.836-3.258.433.104.723 2.271 1.106 3.385.371 1.134 1.538 2.765 1.544 3.72z" fill="#CCC9F3"/><path d="M338.692 217.671c8.068 7.146 17.957 15.2 17.957 15.2l8.263-14.201s-9.916-6.702-17.248-11.751c-2.206 1.874-6.303 5.76-8.972 10.752z" fill="#CCC9F3"/><path d="M316.182 159.751c-.134-1.712 1.299-3.41 1.836-3.258.433.104.723 2.271 1.106 3.385.371 1.132 1.538 2.763 1.544 3.718-.004.965-1.472 4.458-.601 7.778.871 3.32 10.849 17.682 14.462 21.412 3.625 3.721 3.537 7.188 5.7 8.897 2.743 2.157 24.683 16.986 24.683 16.986l-8.263 14.201s-18.268-14.88-25.405-22.131c-.806-.802-3.005-3.479-6.385-10.32-3.369-6.841-10.029-22.556-11.717-25.021-3.428-5.018-5.816-6.99-5.965-7.427-.147-.436-.973-1.561-1.355-2.886-.393-1.325-.75-2.403-1.382-4.255-.63-1.881-.018-3.93.342-3.904.151.004.534.604.948 1.398" stroke="#7168EE" stroke-miterlimit="10" stroke-linecap="round" stroke-linejoin="round"/><path d="M318.089 163.464c-.101-.613-1.081-2.297-1.908-3.703l.001-.01c-.335-.575-.656-1.1-.867-1.502-.739-1.38-2.684-5.126-3.311-6.424-.636-1.309-2.236-4.66-2.605-4.695-.369-.018-.973 2.044-.351 3.894.54 1.57.872 2.588 1.198 3.664.061.197.113.394.182.611.394 1.324 1.125 3.185 1.282 3.632.147.447.158 1.161.093 1.416m-3.739-3.17c-.626-1.297-2.304-4.787-2.672-4.823-.361-.015-.964 2.046-.333 3.906.264.8.48 1.454.672 2.065.256.778.48 1.464.699 2.199.382 1.333 1.124 3.193 1.272 3.631.157.447.155 1.18.09 1.436" stroke="#7168EE" stroke-miterlimit="10" stroke-linecap="round" stroke-linejoin="round"/><path d="M310.246 154.688c-.336-.666-.621-1.236-.806-1.615-.627-1.298-2.246-4.661-2.606-4.677-.369-.036-.972 2.025-.352 3.895.632 1.86.988 2.941 1.383 4.254l.198.633c.393 1.224.949 2.626 1.082 3.01.148.437.147 1.17.081 1.425m61.213 57.855l-19.329-11.941s-4.065 8.603-7.309 20.343c0 0 11.084 7.784 19.788 12.111m-9.466-5.35s3.44 5.555 6.892 8.781" stroke="#7168EE" stroke-miterlimit="10" stroke-linecap="round" stroke-linejoin="round"/><path d="M327.894 115.964c-39.275 18.555-55.931 37.202-55.931 37.202l49.846 29.694s8.467-23.524 6.085-66.896z" fill="#FFC96B" stroke="#7168EE" stroke-miterlimit="10" stroke-linejoin="round"/><path d="M351.404 404.681c2.941 1.229 7.655 3.092 12.193 4.431l.439-15.112-13.109.021.477 10.66z" fill="#CCC9F3"/><path d="M350.928 394.02l1.315 29.432 9.631.923 1.386-3.654.777-26.722-13.109.021z" stroke="#7168EE" stroke-miterlimit="10" stroke-linecap="round" stroke-linejoin="round"/><path d="M363.26 420.724l.23 9.16-23.32.1c-.25-4.05-2.17-5-2.17-5s12.04-5.03 13.31-5.74c1.261-.71 2.051-.229 3.131.48 1.069.719 4.549 3.379 8.819 1z" fill="#FFC96B"/><path d="M363.49 429.884l-23.32.1-10.46.04m33.78-.14l.09 3.36h-33.87v-3.22m33.78-.14l-.23-9.16c-4.27 2.38-7.75-.28-8.819-1-1.08-.71-1.87-1.19-3.131-.48-1.27.71-13.31 5.74-13.31 5.74s-6.92.8-8.29 5.04m8.29-5.041s1.92.95 2.17 5" stroke="#7168EE" stroke-miterlimit="10" stroke-linecap="round" stroke-linejoin="round"/><path d="M351.891 420.288a1.134 1.134 0 01-.688 1.45 1.137 1.137 0 01-1.452-.689l-.627-1.579a1.137 1.137 0 012.142-.763l.625 1.581zm-3.512 1.743a1.135 1.135 0 11-2.141.761l-.626-1.579a1.138 1.138 0 01.688-1.451 1.138 1.138 0 011.452.69l.627 1.579zm-3.512 1.743a1.134 1.134 0 01-.688 1.45 1.137 1.137 0 01-1.452-.689l-.626-1.579a1.135 1.135 0 112.14-.763l.626 1.581z" stroke="#7168EE" stroke-miterlimit="10" stroke-linecap="round" stroke-linejoin="round"/><path d="M350.688 294.028s-5.419 55.663-5.063 62.25c.355 6.588 1.494 44.066 1.494 44.066s10.572-.091 18.631-.066c0 0-.856-23.949-.634-28.297.221-4.347-2.357-13.283-2.199-18.411.158-5.128 14.41-28.564 15.5-32.25 1.092-3.688 7.056-11.705 6.704-20.613l-34.433-6.679z" fill="#A5BCD6" stroke="#7168EE" stroke-miterlimit="10" stroke-linecap="round" stroke-linejoin="round"/><path d="M398.25 388.403l3.976 9.22c2.892.381 8.009.914 12.815.725l-4.541-14.611-12.25 4.666z" fill="#CCC9F3"/><path d="M398.25 388.403l11.667 27.054 9.333-2.554-.87-3.809-7.88-25.358-12.25 4.667z" stroke="#7168EE" stroke-miterlimit="10" stroke-linecap="round" stroke-linejoin="round"/><path d="M418.38 409.094l5.271 7.5-20.4 13.739c.32-4-1.81-6.05-1.81-6.05s5.51-8.51 6.17-9.8c.659-1.29 1.58-1.33 2.87-1.33 1.289 0 5.669.29 7.899-4.059z" fill="#FFC96B"/><path d="M423.65 416.594l-20.4 13.739h-11" stroke="#7168EE" stroke-miterlimit="10" stroke-linecap="round" stroke-linejoin="round"/><path d="M401.44 424.283s5.51-8.51 6.17-9.8c.659-1.29 1.58-1.33 2.87-1.33 1.289 0 5.67.29 7.899-4.059l5.271 7.5 1.85 2.619-20.81 14.03h-12.44v-2.91s.13-3.31 9.19-6.05zm0 0s2.13 2.05 1.81 6.05" stroke="#7168EE" stroke-miterlimit="10" stroke-linecap="round" stroke-linejoin="round"/><path d="M408.675 415.031a1.136 1.136 0 11-1.361 1.819l-1.396-.968a1.137 1.137 0 011.361-1.82l1.396.969zm-1.958 3.397a1.136 1.136 0 11-1.361 1.819l-1.396-.968a1.137 1.137 0 011.361-1.82l1.396.969zm-1.958 3.396a1.136 1.136 0 11-1.361 1.819l-1.396-.968a1.137 1.137 0 01-.231-1.59 1.138 1.138 0 011.591-.23l1.397.969z" stroke="#7168EE" stroke-miterlimit="10" stroke-linecap="round" stroke-linejoin="round"/><path d="M350.688 296.278s28.063 55.25 31.063 61.125 14.75 37.5 14.75 37.5 9.625-4.375 17-7.625c0 0-6-19.375-7.563-23.438-1.563-4.063-7-12.375-8.938-17.125-1.938-4.75-6.25-32.25-6.75-36.063-.5-3.813-1.75-14.938-5.688-22.938l-33.874 8.564z" fill="#A5BCD6" stroke="#7168EE" stroke-miterlimit="10" stroke-linecap="round" stroke-linejoin="round"/><path d="M376.1 202.213v-7.132l-13.35 5.697s-.371 4.408-1.967 9.792c7.996-2.643 13.45-6.795 15.317-8.357z" fill="#CCC9F3"/><path d="M362.75 200.778s-.875 10.438-5.75 18.813h20.875l-1.775-13.646v-10.864l-13.35 5.697z" stroke="#7168EE" stroke-miterlimit="10" stroke-linecap="round" stroke-linejoin="round"/><path d="M393.25 181.223s9.313-.694 9.313 8.493v33.375c0 9.5 1.5 12.938 1.5 12.938s-13.875 1.375-13.875-14.125v-35.207l3.062-5.474z" fill="#FFC96B" stroke="#7168EE" stroke-miterlimit="10" stroke-linecap="round" stroke-linejoin="round"/><path d="M396.108 186.936c-.74 3.734-3.152 6.402-5.387 5.959-2.235-.443-3.446-3.829-2.705-7.564.74-3.733 3.152-6.401 5.387-5.958 2.236.443 3.447 3.829 2.705 7.563z" fill="#FF6684" stroke="#7168EE" stroke-miterlimit="10" stroke-linecap="round" stroke-linejoin="round"/><path d="M369.209 164.236c-11.792-.582-19.793 8.18-9.501 16.424h9.501v-16.424z" fill="#FFC96B" stroke="#7168EE" stroke-miterlimit="10" stroke-linecap="round" stroke-linejoin="round"/><path d="M370.292 170.229c-3.686.556-9.25 3.51-11.292 8.676s-1.251 4.917-2.042 5.875c-.791.958-3.707 2.208-3.666 2.958.041.75 1.041 2.251 1.041 2.792 0 .541-.623 1.167-.645 1.417-.021.25.666 1.229.666 1.313 0 .083-.625.957-.583 1.479.042.522.812.709.771 1.521-.041.813-.208 5.083-.208 5.291 0 .208 10.791 4.52 21.708-1.939 7.542.959 14.829-5.25 14.75-13.375-.089-9.102-8.333-17.842-20.5-16.008zm-9.787 11.956s2.808 0 3.382 2.813" stroke="#7168EE" stroke-miterlimit="10" stroke-linecap="round" stroke-linejoin="round"/><path d="M360.953 182.194a3.316 3.316 0 00-.605.93c-.485 1.116-.334 2.256.333 2.549.674.297 1.614-.37 2.102-1.486.11-.256.185-.509.233-.757-.54-.397-1.294-.892-2.063-1.236zm-.015-2.945c-.295.014-.405.117-.427.227-.028.15.017.735.372 1.05.357.309.73.186 1.23.235.792.079 2.054.264 2.901.611.757.311 1.733.846 1.766.675.034-.171-.916-1.254-1.595-1.654-.935-.552-2.377-1.234-4.247-1.144z" fill="#7168EE"/><path d="M355.542 193.279s1.166.417 2.916 0" stroke="#EA698C" stroke-miterlimit="10" stroke-linecap="round" stroke-linejoin="round"/><path d="M369.209 164.236c-5.375 8.375-3.746 21.642 10.054 27.404l1.529.764-2.043 7.056-2.707.151s-.01 4.5.058 6.334c7.151-4 13.02-6.819 16.401-16.291 3.437-9.626-2.25-25.418-23.292-25.418z" fill="#FFC96B" stroke="#7168EE" stroke-miterlimit="10" stroke-linecap="round" stroke-linejoin="round"/><path d="M382.111 193.314a5.488 5.488 0 00-.813.403c-.265.148-.509.33-.743.514a4.447 4.447 0 00-.63.619c-.213.204-.324.473-.491.7l-.472-.755c.161.014.324.027.476.06.145.053.29.099.423.168.126.084.256.157.366.258.102.115.215.212.291.348.064.145.16.267.175.429.013.157.067.313.014.459-.044.142-.048.305-.138.413l-.227.339a.217.217 0 01-.383-.2l.025-.066.106-.271c.053-.086.011-.177.028-.256.025-.083-.048-.153-.059-.225-.012-.074-.099-.125-.133-.188-.048-.06-.137-.095-.193-.147-.07-.042-.157-.063-.229-.1-.08-.021-.164-.024-.239-.042-.077.004-.148.019-.218.018l-.045-.001a.501.501 0 01-.428-.755l.001-.001c.232-.272.421-.585.695-.805.249-.25.526-.455.812-.646a6.62 6.62 0 01.892-.489c.301-.145.628-.26.95-.353a.301.301 0 01.199.568l-.012.004z" fill="#7168EE"/><path d="M376.1 199.611s3.704.432 6.358-1.877c2.652-2.313 2.733-5.83.939-6.618-1.794-.787-4.135.524-4.135.524l-.662.911m-2.229 15.478s-12.223 5.339-17.453 7.731c-4.855 5.33-11.793 14.018-13.168 17.705-1.375 3.687.313 9.188 1.375 13.375 1.062 4.187 1.688 5.75 1.625 7.938-.063 2.187-1.125 29.5-.125 42.312 11.313 2.563 29.188-2.813 37.688-8l-8.438-19.813s4.5-30.687 4.25-38.5c-.25-7.813-5.754-22.748-5.754-22.748z" stroke="#7168EE" stroke-miterlimit="10" stroke-linecap="round" stroke-linejoin="round"/><path d="M334.588 221.585c8.727 6.325 19.353 13.378 19.353 13.378l6.84-14.939s-10.522-5.704-18.312-10.014c-2.013 2.08-5.711 6.346-7.881 11.575z" fill="#CCC9F3"/><path d="M306.54 166.134c-.3-1.69.96-3.521 1.51-3.421.44.061.94 2.19 1.431 3.261.479 1.09 1.8 2.6 1.899 3.55.09.96-1.03 4.58.16 7.8 1.19 3.22 12.52 16.54 16.479 19.9 3.971 3.35 4.221 6.81 6.54 8.3 2.94 1.88 26.221 14.5 26.221 14.5l-6.84 14.939s-19.631-13.029-27.44-19.55c-.88-.72-3.33-3.17-7.36-9.649-4.02-6.48-12.18-21.471-14.1-23.761-3.9-4.659-6.47-6.39-6.66-6.809-.189-.42-1.12-1.46-1.63-2.74-.52-1.28-.98-2.319-1.79-4.1-.81-1.811-.4-3.91-.04-3.92.15-.011.59.55 1.08 1.3" stroke="#7168EE" stroke-miterlimit="10" stroke-linecap="round" stroke-linejoin="round"/><path d="M308.8 169.644c-.16-.601-1.3-2.181-2.26-3.5v-.01c-.39-.54-.76-1.03-1.01-1.41-.87-1.301-3.17-4.84-3.92-6.07-.761-1.24-2.681-4.42-3.051-4.42-.369.02-.77 2.13.03 3.91.691 1.51 1.12 2.49 1.55 3.529.08.19.15.381.24.591.521 1.279 1.43 3.059 1.63 3.489.19.431.271 1.141.23 1.4m-4.029-2.79c-.75-1.229-2.76-4.54-3.13-4.54-.36.021-.76 2.13.05 3.92.34.771.62 1.4.87 1.99.33.75.62 1.41.91 2.12.51 1.29 1.43 3.069 1.62 3.49.2.43.27 1.159.229 1.42" stroke="#7168EE" stroke-miterlimit="10" stroke-linecap="round" stroke-linejoin="round"/><path d="M300.14 161.673c-.399-.63-.739-1.17-.96-1.529-.75-1.23-2.689-4.42-3.05-4.4-.37 0-.77 2.11.03 3.91.81 1.79 1.27 2.83 1.79 4.1.08.191.17.4.26.61.51 1.18 1.2 2.521 1.37 2.89.189.42.26 1.15.22 1.41m66.558 51.615l-20.4-10s-3.207 8.958-5.291 20.958c0 0 11.79 6.667 20.874 10.125m-9.943-4.402s3.965 5.193 7.715 8.068" stroke="#7168EE" stroke-miterlimit="10" stroke-linecap="round" stroke-linejoin="round"/><path d="M119.221 300.279c2.601 2.756 6.566 6.686 9.931 9.679 2.553-3.968 4.998-8.917 6.48-12.09-2.041-2.815-5.383-7.604-8.593-12.104l-11.924 9.777a75.83 75.83 0 004.106 4.738z" fill="#CCC9F3"/><path d="M176.722 310.027c-3.881 2.165-6.428 3.715-9.098 1.951-6.5-.291-18.263.288-23.431.767-5.375.483-11.297.365-12.501-.62-3.675-2.96-9.174-8.351-12.472-11.846-5.81-6.152-9.515-12.335-12.148-15.859-3.122-4.201-2.099-9.184 1.942-10.819 3.848-1.551 8.568-.723 14.002 6.604 5.43 7.342 13.677 19.435 14.509 20.114 1.743 1.451 3.962.58 10.631 1.81 4.648.843 17.219 3.538 20.522 2.864 3.107-.644 9.524-2.755 9.967-2.803" stroke="#7168EE" stroke-miterlimit="10" stroke-linecap="round" stroke-linejoin="round"/><path d="M178.31 308.38c.684.493 1.679 1.185 2.087 1.435.656.386.855.895 1.119 1.245.248.342.677 1.434.944 1.765.267.332.434.705.017.841-.414.148-1.403-.207-1.937-1.157-.532-.96-.943-1.113-1.427-1.522-.834-.627-2.392-.959-2.392-.959m.867-2.156s.291.222.702.502" stroke="#7168EE" stroke-miterlimit="10" stroke-linecap="round" stroke-linejoin="round"/><path d="M179.007 306.46c.963.384 2.469 1 3.093 1.358.761.424 1.125.873 1.476 1.228.359.338 1.149 1.297 1.529 1.623.354.329.621.729.177.947-.437.233-1.752.158-2.538-.846-.781-.993-1.273-1.087-1.883-1.468-.575-.372-2.316-.86-2.551-.923l-.02-.006m-.179-2.248s.344.133.827.315m-.293-4.25s3.155.475 4.192.843c.826.289 1.259.657 1.671.939.39.274 1.376 1.071 1.775 1.325.432.272.749.617.361.905-.395.305-1.706.471-2.651-.361-.938-.847-1.438-.854-2.106-1.114-.413-.154-1.17-.195-1.737-.191" stroke="#7168EE" stroke-miterlimit="10" stroke-linecap="round" stroke-linejoin="round"/><path d="M178.623 304.07s.68.186 1.527.464c1.07.339 2.416.772 3.023 1.056.861.425 1.321.893 1.729 1.243.424.357 1.391 1.348 1.818 1.689.443.334.759.75.281 1.031-.464.287-1.925.308-2.866-.723-.961-1.032-1.463-1.202-2.209-1.47-1.088-.407-2.559-.807-2.921-.9-.035-.009-.068-.02-.068-.02m-59.493-34.362s11.005 15.282 15.271 21.088c0 0-6.141 10.174-13.917 14.076l-13.436-14.912m6.61 7.334s-4.884-2.498-7.971-3.824" stroke="#7168EE" stroke-miterlimit="10" stroke-linecap="round" stroke-linejoin="round"/><path d="M184.43 330.464a1.66 1.66 0 001.362 1.911l11.913 2a1.659 1.659 0 001.912-1.361l2.13-12.687a1.66 1.66 0 00-1.362-1.912l-11.913-2a1.66 1.66 0 00-1.912 1.362l-2.13 12.687zm5.559-33.12a1.66 1.66 0 001.363 1.911l11.913 2a1.66 1.66 0 001.912-1.361l2.13-12.687a1.66 1.66 0 00-1.363-1.912l-11.913-2a1.66 1.66 0 00-1.912 1.362l-2.13 12.687z" fill="#B7B4DF" stroke="#7168EE" stroke-miterlimit="10" stroke-linejoin="round"/><path d="M191.913 337.637c-.424 2.522-2.016 3.945-4.236 5.093-2.221 1.148-25.237 15.443-18.867 59.284l-11.244-1.887s-8.012-30.755-11.574-60.762c-2.457-20.692 5.614-34.701 18.14-46.134 7.925-7.233 17.196-14.351 32.269-22.089 3.381-1.735 6.748-.43 5.976 4.173-.775 4.603-10.464 62.322-10.464 62.322z" fill="#B7B4DF" stroke="#7168EE" stroke-miterlimit="10" stroke-linejoin="round"/><path d="M180.462 340.018a3.343 3.343 0 11-.218-6.681 3.343 3.343 0 01.218 6.681z" stroke="#7168EE" stroke-miterlimit="10" stroke-linejoin="round"/><path d="M180.316 335.546l.038 1.125.036 1.139" stroke="#7168EE" stroke-miterlimit="10" stroke-linecap="round" stroke-linejoin="round"/><path d="M181.493 336.634l-1.139.037-1.138.038" stroke="#7168EE" stroke-miterlimit="10" stroke-linecap="round" stroke-linejoin="round"/><path d="M179.754 318.272a3.346 3.346 0 01-3.455-3.236 3.348 3.348 0 013.236-3.444 3.344 3.344 0 013.443 3.227 3.344 3.344 0 01-3.224 3.453z" stroke="#7168EE" stroke-miterlimit="10" stroke-linejoin="round"/><path d="M179.606 313.802l.039 1.125.038 1.138" stroke="#7168EE" stroke-miterlimit="10" stroke-linecap="round" stroke-linejoin="round"/><path d="M180.784 314.889l-1.139.038-1.138.037" stroke="#7168EE" stroke-miterlimit="10" stroke-linecap="round" stroke-linejoin="round"/><path d="M179.044 296.528a3.35 3.35 0 01-3.455-3.239 3.348 3.348 0 013.238-3.441 3.343 3.343 0 013.442 3.226 3.344 3.344 0 01-3.225 3.454z" stroke="#7168EE" stroke-miterlimit="10" stroke-linejoin="round"/><path d="M178.897 292.057l.039 1.125.037 1.14" stroke="#7168EE" stroke-miterlimit="10" stroke-linecap="round" stroke-linejoin="round"/><path d="M180.076 293.145l-1.14.037-1.136.038" stroke="#7168EE" stroke-miterlimit="10" stroke-linecap="round" stroke-linejoin="round"/><path d="M99.879 404.055l-8.611 5.162c-2.57-1.38-7.035-3.935-10.826-6.896l12.219-9.209 7.218 10.943z" fill="#CCC9F3"/><path d="M99.879 404.055l-25.271 15.146-4.504-6.173 1.351-3.934 21.205-15.983 7.219 10.944z" stroke="#7168EE" stroke-miterlimit="10" stroke-linecap="round" stroke-linejoin="round"/><path d="M71.455 409.094l-5.27 7.5 20.4 13.739c-.32-4 1.81-6.05 1.81-6.05s-5.51-8.51-6.17-9.8c-.66-1.29-1.58-1.33-2.87-1.33s-5.67.29-7.9-4.059z" fill="#FFC96B"/><path d="M66.185 416.594l20.4 13.739h11" stroke="#7168EE" stroke-miterlimit="10" stroke-linecap="round" stroke-linejoin="round"/><path d="M88.395 424.283s-5.51-8.51-6.17-9.8c-.659-1.29-1.58-1.33-2.87-1.33-1.289 0-5.67.29-7.899-4.059l-5.271 7.5-1.85 2.619 20.81 14.03h12.44v-2.91s-.13-3.31-9.19-6.05zm0 0s-2.13 2.05-1.81 6.05" stroke="#7168EE" stroke-miterlimit="10" stroke-linecap="round" stroke-linejoin="round"/><path d="M81.16 415.031a1.136 1.136 0 101.361 1.819l1.396-.968a1.137 1.137 0 00-1.361-1.82l-1.396.969zm1.958 3.397a1.136 1.136 0 101.361 1.819l1.396-.968a1.137 1.137 0 00-1.361-1.82l-1.396.969zm1.958 3.396a1.136 1.136 0 101.361 1.819l1.396-.968a1.137 1.137 0 00-1.361-1.82l-1.396.969z" stroke="#7168EE" stroke-miterlimit="10" stroke-linecap="round" stroke-linejoin="round"/><path d="M94.479 339.653s10.875 18.625 17.5 38l-35.5 25.875s6.957 7.625 11.916 11c29.459-16.75 45.896-26.188 47.271-27.063s3.063-3.938 3.125-6.125c.062-2.187-7.355-47.563-7.355-47.563l-36.957 5.876z" fill="#A5BCD6" stroke="#7168EE" stroke-miterlimit="10" stroke-linecap="round" stroke-linejoin="round"/><path d="M111.979 377.653s6.417 2.208 11.292 7.708m-11.49-8.28s7.78-1.429 17.655 2.53" stroke="#7168EE" stroke-miterlimit="10" stroke-linecap="round" stroke-linejoin="round"/><path d="M154.564 405.549c-2.941 1.229-8.77 3.17-13.308 4.509l3.909-15.112 11.939.02-2.54 10.583z" fill="#CCC9F3"/><path d="M157.105 394.966l-6.84 28.486-9.631.923-1.386-3.654 5.918-25.776 11.939.021z" stroke="#7168EE" stroke-miterlimit="10" stroke-linecap="round" stroke-linejoin="round"/><path d="M139.248 420.724l-.23 9.16 23.32.1c.25-4.05 2.17-5 2.17-5s-12.04-5.03-13.31-5.74c-1.261-.71-2.051-.229-3.131.48-1.069.719-4.549 3.379-8.819 1z" fill="#FFC96B"/><path d="M139.018 429.884l23.32.1 10.46.04m-33.78-.14l-.09 3.36h33.87v-3.22m-33.78-.14l.23-9.16c4.27 2.38 7.75-.28 8.819-1 1.08-.71 1.87-1.19 3.131-.48 1.27.71 13.31 5.74 13.31 5.74s6.92.8 8.29 5.04m-8.29-5.041s-1.92.95-2.17 5" stroke="#7168EE" stroke-miterlimit="10" stroke-linecap="round" stroke-linejoin="round"/><path d="M150.617 420.288c-.211.59.098 1.242.688 1.45a1.137 1.137 0 001.452-.689l.627-1.579a1.138 1.138 0 00-.688-1.452 1.139 1.139 0 00-1.453.689l-.626 1.581zm3.512 1.743a1.135 1.135 0 102.141.761l.626-1.579a1.138 1.138 0 00-.688-1.451 1.138 1.138 0 00-1.452.69l-.627 1.579zm3.512 1.743a1.134 1.134 0 00.688 1.45 1.137 1.137 0 001.452-.689l.626-1.579a1.135 1.135 0 00-.689-1.451 1.138 1.138 0 00-1.452.688l-.625 1.581z" stroke="#7168EE" stroke-miterlimit="10" stroke-linecap="round" stroke-linejoin="round"/><path d="M93.604 340.028s4.323 9.984 16.75 14.25c13.578 4.661 37.823 7 37.823 7l-9.308 54.179h14.581s17.823-51.679 18.926-55.929c1.102-4.25.313-9.75-1.105-11.25s-43.418-23-43.418-23l-34.249 14.75z" fill="#A5BCD6" stroke="#7168EE" stroke-miterlimit="10" stroke-linecap="round" stroke-linejoin="round"/><path d="M148.177 361.278s5.094-2.708 15.094-3.958m-15.774 3.889s2.273-4.473 10.773-8.639m-50.166-105.167l-1.238 6.12-3.194 6.88 16.807 10.563 1.075-20.354-13.45-3.209z" stroke="#7168EE" stroke-miterlimit="10" stroke-linecap="round" stroke-linejoin="round"/><path d="M129.99 253.064s-3.092-.863-4.374-1.336c-1.281-.477-1.581-.955-1.581-.955" stroke="#FF8CB0" stroke-width=".75" stroke-miterlimit="10" stroke-linecap="round" stroke-linejoin="round"/><path d="M130.838 229.498c2.52 2.987 2.47 6.483 1.765 9.838-.708 3.35-.576 3.573-.554 4.645.022 1.068 1.8 4.396 1.535 4.845-.265.447-1.075 1.135-2.088 1.488-.227 1.243-.143 1.583-.343 1.942-.202.362-1.163.808-1.163.808s.023 1.423-.217 1.885c-.238.458-1.249.482-1.688 1.486-.441 1.002-1.091 3.993-1.282 4.404-.191.416-2.35.525-3.657.254-1.308-.272-9.625-4.066-11-5.691-.735-.869-2.434-5.519-2.434-5.519s-7.348-4.905-5.834-15.591c1.515-10.684 11.709-12.216 17.178-10.737 5.468 1.48 7.616 3.376 9.782 5.943z" stroke="#7168EE" stroke-miterlimit="10" stroke-linecap="round" stroke-linejoin="round"/><path d="M121.264 230.989h-.008c-.754 2.637-1.699 6.013-1.699 6.013-.603-.658-1.014-1.438-1.302-2.221l-1.646 4.705s-2.666.61-2.804.855c-.13.24-1.5 4.454-1.5 4.454-.698.224-1.117-.171-1.117-.171l-.646-3.197-1.356.896-2.319 11.199s-4.743-8.486-5.195-9.966c-.454-1.48-1.55-5.026-1.163-10.225 1.501-5.045 4.041-7.306 4.041-7.306s-.176-1.651 1.031-3.586c1.2-1.936 2.798-2.921 5.922-5.947.186 1.255-.451 2.355-.506 2.454 8.145-2.275 15.276.422 18.282 2.361 2.999 1.94 6.64 7.367 9.54 7.94-1.219 1.446-3.166 1.096-3.166 1.096s.381 2.24-.013 4.081c-.385 1.835-.956 3.076-2.981 4.617-.384-3.13-3.762-4.56-5.985-7.119.116 1.098.037 4.395.037 4.395-3.045-1.59-4.632-3.704-5.447-5.328z" fill="#FFC96B"/><path d="M117.624 230.759s-.102 2.028.631 4.022c.288.782.699 1.563 1.302 2.221 0 0 .945-3.376 1.699-6.013m-10.26-12.042c.055-.099.691-1.199.506-2.454-3.124 3.026-4.722 4.012-5.922 5.947-1.207 1.935-1.031 3.586-1.031 3.586s-2.54 2.261-4.041 7.306c-.387 5.198.709 8.744 1.163 10.225.452 1.48 5.195 9.966 5.195 9.966l2.319-11.199 1.356-.896.646 3.197s.419.395 1.117.171c0 0 1.37-4.214 1.5-4.454.138-.244 2.804-.855 2.804-.855l1.646-4.705" stroke="#7168EE" stroke-miterlimit="10" stroke-linecap="round" stroke-linejoin="round"/><path d="M120.415 228.532s.131 1.04.849 2.457c.815 1.624 2.402 3.738 5.446 5.329 0 0 .079-3.297-.037-4.395 2.224 2.56 5.602 3.989 5.985 7.119 2.025-1.541 2.597-2.782 2.981-4.617.394-1.841.013-4.081.013-4.081s1.947.351 3.166-1.096c-2.9-.573-6.541-6-9.54-7.94-3.006-1.939-10.138-4.637-18.282-2.361l-.01.007" stroke="#7168EE" stroke-miterlimit="10" stroke-linecap="round" stroke-linejoin="round"/><path d="M130.474 249.42s-.268-.009-.457.1" stroke="#FF9C8C" stroke-width=".75" stroke-miterlimit="10" stroke-linecap="round" stroke-linejoin="round"/><path d="M130.094 241.632s-1.807-.899-4.07.036" stroke="#7168EE" stroke-miterlimit="10" stroke-linecap="round" stroke-linejoin="round"/><path d="M129.777 241.408c.059.247.077.528.045.825-.103.9-.625 1.58-1.165 1.521-.545-.06-.903-.841-.803-1.742.024-.206.071-.397.133-.575.495-.054 1.167-.093 1.79-.029zm1.306-2.606c.248.159.292.304.256.409-.051.145-.382.629-.847.724-.464.089-.754-.152-1.184-.411-.43-.257-1.991-1.431-2.879-1.657-.533-.138-1.863 0-1.806-.165.056-.165 1.434-.779 2.208-.635.913.172 2.678.722 4.252 1.735zm-23.419 2.507c.254.219.503.461.716.718.225.251.42.531.606.817.178.293.345.595.467.926.157.314.198.678.295 1.022l.001.001a.5.5 0 01-.702.508l-.043-.02c-.064-.029-.122-.072-.19-.107-.077-.015-.154-.048-.235-.062-.08.003-.168-.014-.249-.005-.073.023-.169.019-.237.053-.058.043-.158.053-.2.115-.039.06-.134.093-.146.18-.018.079-.094.144-.082.244l-.016.291-.004.071a.217.217 0 01-.431.023l-.065-.403c-.036-.135.028-.286.047-.433.012-.155.128-.274.204-.411.081-.141.22-.211.338-.316.125-.092.269-.132.41-.194.143-.045.291-.057.44-.081.149-.007.301.012.454.024.151.034.305.09.457.145l-.745.49c-.057-.276-.045-.567-.154-.841a4.493 4.493 0 00-.313-.825 5.882 5.882 0 00-.461-.777 5.552 5.552 0 00-.57-.706l-.01-.01a.302.302 0 01.014-.426.3.3 0 01.404-.011z" fill="#7168EE"/><path d="M110.088 249.985s-3.546-1.154-4.993-4.361c-1.444-3.208-.049-6.438 1.91-6.405 1.959.034 3.538 2.203 3.538 2.203l.221 1.104m-8.223 14.752s13.838 7.625 19.013 12.125c0 0 3.8 11.938 3.987 26.375.187 14.437-.875 24.938-.813 25.563.062.625 5.375 3.438 5.375 3.438s-6.5 12.625-15.75 16.688c-9.25 4.063-23.75 1-23.75 1s1.063-11.188 1.188-14.25c.125-3.062-.563-37.125 1.188-49.188 1.751-12.063 9.562-21.751 9.562-21.751zm22.188 64.063s-4.4 6.563-15.388 10.938" stroke="#7168EE" stroke-miterlimit="10" stroke-linecap="round" stroke-linejoin="round"/><path d="M115.237 300.89c2.273 3.031 5.771 7.384 8.775 10.737 2.984-3.654 5.973-8.296 7.804-11.281-1.711-3.028-4.49-8.163-7.172-12.997l-12.951 8.37a76.349 76.349 0 003.544 5.171z" fill="#CCC9F3"/><path d="M171.271 317.064c-4.101 1.713-6.806 2.966-9.26.912-6.426-1.022-18.179-1.774-23.367-1.882-5.396-.126-11.267-.912-12.352-2.026-3.317-3.357-8.173-9.333-11.056-13.178-5.078-6.768-8.062-13.33-10.281-17.129-2.628-4.526-1.049-9.362 3.151-10.531 3.998-1.107 8.595.249 13.167 8.142 4.566 7.907 11.396 20.854 12.146 21.623 1.568 1.638 3.871 1.023 10.359 2.997 4.523 1.362 16.709 5.459 20.067 5.162 3.159-.289 9.775-1.663 10.22-1.66m-1.03 6.111c.624.567 1.534 1.366 1.912 1.661.608.457.748.986.972 1.363.207.368.51 1.501.738 1.86.229.359.353.749-.078.837-.428.101-1.371-.364-1.793-1.368-.421-1.014-.813-1.213-1.246-1.673-.758-.717-2.268-1.223-2.268-1.223m1.104-2.042s.264.253.641.578" stroke="#7168EE" stroke-miterlimit="10" stroke-linecap="round" stroke-linejoin="round"/><path d="M173.944 313.776c.914.49 2.341 1.272 2.92 1.699.708.507 1.02.994 1.328 1.386.318.377.995 1.419 1.336 1.785.314.367.535.794.069.962-.461.183-1.759-.041-2.427-1.127-.664-1.075-1.142-1.224-1.705-1.671-.529-.434-2.205-1.116-2.431-1.205l-.019-.008m.078-2.254s.326.171.786.406m.188-4.256s3.082.828 4.07 1.31c.789.381 1.177.796 1.555 1.121.356.317 1.246 1.22 1.614 1.518.398.319.675.697.257.94-.427.258-1.748.275-2.594-.658-.837-.947-1.332-1.012-1.967-1.345-.394-.2-1.141-.326-1.705-.387" stroke="#7168EE" stroke-miterlimit="10" stroke-linecap="round" stroke-linejoin="round"/><path d="M173.833 311.359s.654.261 1.465.633c1.025.458 2.313 1.04 2.886 1.391.808.519 1.212 1.035 1.578 1.43.381.403 1.23 1.496 1.616 1.883.402.382.669.831.163 1.057-.494.233-1.947.089-2.767-1.041-.838-1.135-1.318-1.36-2.029-1.71-1.035-.527-2.451-1.09-2.801-1.225l-.065-.027m-55.237-40.856s9.211 16.427 12.795 22.677c0 0-7.249 9.416-15.416 12.416l-11.667-16.333m5.738 8.031s-4.571-3.033-7.488-4.699" stroke="#7168EE" stroke-miterlimit="10" stroke-linecap="round" stroke-linejoin="round"/><path d="M221.916 179.615h-34.675v8.248h34.675v-8.248z" fill="#A5BCD6" stroke="#7168EE" stroke-miterlimit="10" stroke-linecap="round" stroke-linejoin="round"/><path d="M193.716 0v179.33h-7.5V0" stroke="#7168EE" stroke-miterlimit="10" stroke-linejoin="round"/><path d="M189.966 194.864c6.144 0 11.125-4.981 11.125-11.125s-4.981-11.125-11.125-11.125-11.125 4.981-11.125 11.125 4.981 11.125 11.125 11.125z" stroke="#7168EE" stroke-miterlimit="10" stroke-linecap="round" stroke-linejoin="round"/><path d="M189.966 190.739a7 7 0 100-14 7 7 0 000 14z" fill="#A5BCD6" stroke="#7168EE" stroke-miterlimit="10" stroke-linecap="round" stroke-linejoin="round"/><path d="M192.497 182.52h-1.313v-1.313a1.219 1.219 0 10-2.438 0v1.313h-1.313a1.22 1.22 0 000 2.438h1.313v1.313a1.22 1.22 0 002.438 0v-1.313h1.313a1.219 1.219 0 100-2.438z" stroke="#7168EE" stroke-miterlimit="10" stroke-linecap="round" stroke-linejoin="round"/><path d="M197.278 109.364a3 3 0 00-3-3h-8.625a3 3 0 00-3 3v30.75a3 3 0 003 3h8.625a3 3 0 003-3v-30.75z" fill="#A5BCD6" stroke="#7168EE" stroke-miterlimit="10" stroke-linecap="round" stroke-linejoin="round"/><path d="M196.761 167.331a1.782 1.782 0 01-1.434 2.071l-10.084 1.833a1.782 1.782 0 11-.638-3.505l10.086-1.833a1.782 1.782 0 012.07 1.434zm0-6.562a1.782 1.782 0 01-1.434 2.071l-10.084 1.833a1.782 1.782 0 11-.638-3.505l10.086-1.833a1.781 1.781 0 012.07 1.434zm0-6.563a1.782 1.782 0 01-1.434 2.071l-10.084 1.833a1.782 1.782 0 11-.638-3.505l10.086-1.833a1.782 1.782 0 012.07 1.434zm0-6.562a1.782 1.782 0 01-1.434 2.071l-10.084 1.833a1.782 1.782 0 11-.638-3.505l10.086-1.833a1.781 1.781 0 012.07 1.434z" fill="#FFC96B" stroke="#7168EE" stroke-miterlimit="10" stroke-linejoin="round"/><path d="M207.875 179.615v8.248m60.489 128.202a4.885 4.885 0 109.77 0 4.885 4.885 0 00-9.77 0z" stroke="#7168EE" stroke-miterlimit="10" stroke-linecap="round" stroke-linejoin="round"/><path d="M500 447.786H289.326c-11.618 0-13.578-2.279-13.578-7.389V316.065a2.5 2.5 0 10-5 0v124.332c0 11.432 9.59 12.389 18.578 12.389H500" fill="#A5BCD6"/><path d="M500 447.786H289.326c-11.618 0-13.578-2.279-13.578-7.389V316.065a2.5 2.5 0 10-5 0v124.332c0 11.432 9.59 12.389 18.578 12.389H500" stroke="#7168EE" stroke-miterlimit="10" stroke-linejoin="round"/><path d="M231.636 316.065a4.885 4.885 0 11-9.77 0 4.885 4.885 0 019.77 0z" stroke="#7168EE" stroke-miterlimit="10" stroke-linecap="round" stroke-linejoin="round"/><path d="M0 447.786h210.674c11.618 0 13.578-2.279 13.578-7.389V316.065a2.5 2.5 0 115 0v124.332c0 11.432-9.59 12.389-18.578 12.389H0" fill="#A5BCD6"/><path d="M0 447.786h210.674c11.618 0 13.578-2.279 13.578-7.389V316.065a2.5 2.5 0 115 0v124.332c0 11.432-9.59 12.389-18.578 12.389H0" stroke="#7168EE" stroke-miterlimit="10" stroke-linejoin="round"/><path d="M278.919 86.45l.376 2.154 1.874 1.125-1.934 1.022-.489 2.13-1.569-1.522-2.178.192.962-1.964-.856-2.012 2.166.31 1.648-1.435z" stroke="#7168EE" stroke-width=".75" stroke-miterlimit="10" stroke-linejoin="round"/><path d="M129.945 182.583l1.858 1.152 2.087-.648-.525 2.123 1.263 1.782-2.18.159-1.306 1.752-.826-2.025-2.07-.701 1.672-1.409.027-2.185z" fill="#FFC96B" stroke="#7168EE" stroke-width=".75" stroke-miterlimit="10" stroke-linejoin="round"/><path d="M319.788 254.118l1.857 1.152 2.087-.648-.524 2.123 1.263 1.782-2.18.159-1.307 1.753-.825-2.026-2.07-.701 1.672-1.409.027-2.185z" stroke="#7168EE" stroke-width=".75" stroke-miterlimit="10" stroke-linejoin="round"/><path d="M40.817 275.348l4.722.748-3.008 3.718-1.714-4.466z" stroke="#7168EE" stroke-width=".75" stroke-miterlimit="10" stroke-linecap="round" stroke-linejoin="round"/><path d="M419.957 272.336l4.722.748-3.008 3.718-1.714-4.466z" stroke="#FF6684" stroke-width=".75" stroke-miterlimit="10" stroke-linecap="round" stroke-linejoin="round"/><path d="M371.613 92.014c-1.568 0-1.568 1.174-3.135 1.174-1.568 0-1.568-1.174-3.137-1.174-1.568 0-1.568 1.174-3.137 1.174-1.57 0-1.57-1.174-3.139-1.174-1.572 0-1.572 1.174-3.144 1.174-1.571 0-1.571-1.174-3.144-1.174M134.791 55.32c-1.568 0-1.568 1.173-3.135 1.173-1.568 0-1.568-1.174-3.137-1.174-1.568 0-1.568 1.174-3.137 1.174-1.57 0-1.57-1.174-3.139-1.174-1.572 0-1.572 1.174-3.145 1.174-1.571 0-1.571-1.174-3.143-1.174" stroke="#7168EE" stroke-width=".75" stroke-miterlimit="10" stroke-linecap="round" stroke-linejoin="round"/><path d="M171.26 238.108l.737-.475c1.755-1.131 1.759-1.958 1.76-2.269a1.35 1.35 0 00-1.35-1.355c-.472 0-.888.241-1.133.607a1.344 1.344 0 00-1.126-.607c-.749 0-1.358.607-1.362 1.355-.001.311-.004 1.138 1.74 2.269l.734.475z" stroke="#FF6684" stroke-width=".75" stroke-miterlimit="10" stroke-linecap="round" stroke-linejoin="round"/></g><defs><clipPath id="clip0_1404_428"><path fill="#fff" d="M0 0h500v500H0z"/></clipPath></defs></svg>